  0
SECTION
  2
HEADER
  9
$ACADVER
  1
AC1009
  9
$INSBASE
 10
0.0
 20
0.0
 30
0.0
  9
$EXTMIN
 10
  0
 20
  0
 30
  0
  9
$EXTMAX
 10
368
 20
326
 30
0.0
  9
$LIMMIN
 10
0.0
 20
0.0
  9
$LIMMAX
 10
100.0
 20
100.0
  9
$ORTHOMODE
 70
     1
  9
$DIMSCALE
 40
1
  9
$DIMSTYLE
  2
STANDARD
  9
$FILLETRAD
 40
0.0
  9
$PSLTSCALE
 70
     1
  0
ENDSEC
  0
SECTION
  2
TABLES
  0
TABLE
  2
VPORT
 70
     2
  0
VPORT
  2
*ACTIVE
 70
     0
 10
0.0
 20
0.0
 11
1.0
 21
1.0
 12
50.0
 22
50.0
 13
0.0
 23
0.0
 14
1.0
 24
1.0
 15
0.0
 25
0.0
 16
0.0
 26
0.0
 36
1.0
 17
0.0
 27
0.0
 37
0.0
 40
100.0
 41
1.55
 42
50.0
 43
0.0
 44
0.0
 50
0.0
 51
0.0
 71
     0
 72
   100
 73
     1
 74
     1
 75
     0
 76
     0
 77
     0
 78
     0
  0
ENDTAB
  0
TABLE
  2
LTYPE
 70
     1
  0
LTYPE
  2
CONTINUOUS
  70
     0
  3
Solid Line
 72
    65
 73
     0
 40
0.0
  0
ENDTAB
  0
TABLE
  2
LAYER
 70
     3
  0
LAYER
  2
0
 70
     0
 62
     7
  6
CONTINUOUS
  0
LAYER
  2
JA
 70
     0
 62
     7
  6
CONTINUOUS
  0
LAYER
  2
DEFPOINTS
 70
     0
 62
     7
 6
CONTINUOUS
  0
ENDTAB
  0
TABLE
  2
VIEW
 70
     0
  0
ENDTAB
  0
TABLE
  2
DIMSTYLE
 70
     1
  0
DIMSTYLE
  2
STANDARD
 70
     0
  3

  4

  5

  6

  7

 40
1.0
 41
0.125
 42
0.04
 43
0.25
 44
0.125
 45
0.0
 46
0.0
 47
0.0
 48
0.0
140
0.125
141
0.06
142
0.0
143
25.4
144
1.0
145
0.0
146
1.0
147
0.09
 71
     0
 72
     0
 73
     1
 74
     1
 75
     0
 76
     0
 77
     0
 78
     0
170
     0
171
     2
172
     0
173
     0
174
     0
175
     0
176
     0
177
     0
178
     0
  0
ENDTAB
  0
ENDSEC
  0
SECTION
  2
BLOCKS
  0
ENDSEC
  0
SECTION
  2
ENTITIES
  0
LINE
8
JA
 10
0
 20
0
 30
0
 11
0
 21
1691.64
 31
0
0
LINE
8
JA
 10
22.225
 20
0
 30
0
 11
22.225
 21
1691.64
 31
0
0
LINE
8
JA
 10
0
 20
1691.64
 30
0
 11
22.225
 21
1691.64
 31
0
0
LINE
8
JA
 10
0
 20
0
 30
0
 11
22.225
 21
0
 31
0
0
LINE
8
JA
 10
0
 20
1691.64
 30
7
 11
22.225
 21
1691.64
 31
0
0
CIRCLE
8
JA
 10
12.7
 20
1690.37
 30
0
 40
0.585
 39
  0
0
CIRCLE
8
JA
 10
12.7
 20
1687.83
 30
0
 40
0.585
 39
  0
0
CIRCLE
8
JA
 10
12.7
 20
1685.2899
 30
0
 40
0.585
 39
  0
0
CIRCLE
8
JA
 10
12.7
 20
1682.7499
 30
0
 40
0.585
 39
  0
0
CIRCLE
8
JA
 10
12.7
 20
1680.2098
 30
0
 40
0.585
 39
  0
0
CIRCLE
8
JA
 10
12.7
 20
1677.6698
 30
0
 40
0.585
 39
  0
0
CIRCLE
8
JA
 10
12.7
 20
1675.1298
 30
0
 40
0.585
 39
  0
0
CIRCLE
8
JA
 10
12.7
 20
1672.5897
 30
0
 40
0.585
 39
  0
0
CIRCLE
8
JA
 10
12.7
 20
1670.0497
 30
0
 40
0.585
 39
  0
0
CIRCLE
8
JA
 10
12.7
 20
1667.5096
 30
0
 40
0.585
 39
  0
0
CIRCLE
8
JA
 10
12.7
 20
1664.9696
 30
0
 40
0.585
 39
  0
0
CIRCLE
8
JA
 10
12.7
 20
1662.4296
 30
0
 40
0.585
 39
  0
0
CIRCLE
8
JA
 10
12.7
 20
1659.8895
 30
0
 40
0.585
 39
  0
0
CIRCLE
8
JA
 10
12.7
 20
1657.3495
 30
0
 40
0.585
 39
  0
0
CIRCLE
8
JA
 10
12.7
 20
1654.8094
 30
0
 40
0.585
 39
  0
0
CIRCLE
8
JA
 10
12.7
 20
1652.2694
 30
0
 40
0.585
 39
  0
0
CIRCLE
8
JA
 10
12.7
 20
1649.7294
 30
0
 40
0.585
 39
  0
0
CIRCLE
8
JA
 10
7.62
 20
1647.1893
 30
0
 40
0.915
 39
  0
0
CIRCLE
8
JA
 10
10.16
 20
1647.1893
 30
0
 40
0.915
 39
  0
0
CIRCLE
8
JA
 10
12.7
 20
1647.1893
 30
0
 40
0.585
 39
  0
0
CIRCLE
8
JA
 10
5.08
 20
1644.6493
 30
0
 40
0.915
 39
  0
0
CIRCLE
8
JA
 10
12.7
 20
1644.6493
 30
0
 40
0.585
 39
  0
0
CIRCLE
8
JA
 10
15.24
 20
1644.6493
 30
0
 40
0.915
 39
  0
0
CIRCLE
8
JA
 10
10.16
 20
1642.1093
 30
0
 40
0.915
 39
  0
0
CIRCLE
8
JA
 10
12.7
 20
1642.1093
 30
0
 40
0.585
 39
  0
0
CIRCLE
8
JA
 10
7.62
 20
1639.5692
 30
0
 40
0.915
 39
  0
0
CIRCLE
8
JA
 10
12.7
 20
1639.5692
 30
0
 40
0.585
 39
  0
0
CIRCLE
8
JA
 10
5.08
 20
1637.0292
 30
0
 40
0.915
 39
  0
0
CIRCLE
8
JA
 10
12.7
 20
1637.0292
 30
0
 40
0.585
 39
  0
0
CIRCLE
8
JA
 10
5.08
 20
1634.4891
 30
0
 40
0.915
 39
  0
0
CIRCLE
8
JA
 10
7.62
 20
1634.4891
 30
0
 40
0.915
 39
  0
0
CIRCLE
8
JA
 10
10.16
 20
1634.4891
 30
0
 40
0.915
 39
  0
0
CIRCLE
8
JA
 10
12.7
 20
1634.4891
 30
0
 40
0.585
 39
  0
0
CIRCLE
8
JA
 10
15.24
 20
1634.4891
 30
0
 40
0.915
 39
  0
0
CIRCLE
8
JA
 10
12.7
 20
1631.9491
 30
0
 40
0.585
 39
  0
0
CIRCLE
8
JA
 10
12.7
 20
1629.409
 30
0
 40
0.585
 39
  0
0
CIRCLE
8
JA
 10
10.16
 20
1626.869
 30
0
 40
0.915
 39
  0
0
CIRCLE
8
JA
 10
12.7
 20
1626.869
 30
0
 40
0.585
 39
  0
0
CIRCLE
8
JA
 10
15.24
 20
1626.869
 30
0
 40
0.915
 39
  0
0
CIRCLE
8
JA
 10
7.62
 20
1624.329
 30
0
 40
0.915
 39
  0
0
CIRCLE
8
JA
 10
12.7
 20
1624.329
 30
0
 40
0.585
 39
  0
0
CIRCLE
8
JA
 10
5.08
 20
1621.789
 30
0
 40
0.915
 39
  0
0
CIRCLE
8
JA
 10
10.16
 20
1621.789
 30
0
 40
0.915
 39
  0
0
CIRCLE
8
JA
 10
12.7
 20
1621.789
 30
0
 40
0.585
 39
  0
0
CIRCLE
8
JA
 10
5.08
 20
1619.2489
 30
0
 40
0.915
 39
  0
0
CIRCLE
8
JA
 10
7.62
 20
1619.2489
 30
0
 40
0.915
 39
  0
0
CIRCLE
8
JA
 10
10.16
 20
1619.2489
 30
0
 40
0.915
 39
  0
0
CIRCLE
8
JA
 10
12.7
 20
1619.2489
 30
0
 40
0.585
 39
  0
0
CIRCLE
8
JA
 10
15.24
 20
1619.2489
 30
0
 40
0.915
 39
  0
0
CIRCLE
8
JA
 10
5.08
 20
1616.7089
 30
0
 40
0.915
 39
  0
0
CIRCLE
8
JA
 10
12.7
 20
1616.7089
 30
0
 40
0.585
 39
  0
0
CIRCLE
8
JA
 10
15.24
 20
1616.7089
 30
0
 40
0.915
 39
  0
0
CIRCLE
8
JA
 10
7.62
 20
1614.1688
 30
0
 40
0.915
 39
  0
0
CIRCLE
8
JA
 10
10.16
 20
1614.1688
 30
0
 40
0.915
 39
  0
0
CIRCLE
8
JA
 10
12.7
 20
1614.1688
 30
0
 40
0.585
 39
  0
0
CIRCLE
8
JA
 10
12.7
 20
1611.6288
 30
0
 40
0.585
 39
  0
0
CIRCLE
8
JA
 10
12.7
 20
1609.0887
 30
0
 40
0.585
 39
  0
0
CIRCLE
8
JA
 10
7.62
 20
1606.5487
 30
0
 40
0.915
 39
  0
0
CIRCLE
8
JA
 10
10.16
 20
1606.5487
 30
0
 40
0.915
 39
  0
0
CIRCLE
8
JA
 10
12.7
 20
1606.5487
 30
0
 40
0.585
 39
  0
0
CIRCLE
8
JA
 10
5.08
 20
1604.0087
 30
0
 40
0.915
 39
  0
0
CIRCLE
8
JA
 10
12.7
 20
1604.0087
 30
0
 40
0.585
 39
  0
0
CIRCLE
8
JA
 10
15.24
 20
1604.0087
 30
0
 40
0.915
 39
  0
0
CIRCLE
8
JA
 10
5.08
 20
1601.4686
 30
0
 40
0.915
 39
  0
0
CIRCLE
8
JA
 10
7.62
 20
1601.4686
 30
0
 40
0.915
 39
  0
0
CIRCLE
8
JA
 10
10.16
 20
1601.4686
 30
0
 40
0.915
 39
  0
0
CIRCLE
8
JA
 10
12.7
 20
1601.4686
 30
0
 40
0.585
 39
  0
0
CIRCLE
8
JA
 10
15.24
 20
1601.4686
 30
0
 40
0.915
 39
  0
0
CIRCLE
8
JA
 10
12.7
 20
1598.9286
 30
0
 40
0.585
 39
  0
0
CIRCLE
8
JA
 10
15.24
 20
1598.9286
 30
0
 40
0.915
 39
  0
0
CIRCLE
8
JA
 10
12.7
 20
1596.3885
 30
0
 40
0.585
 39
  0
0
CIRCLE
8
JA
 10
15.24
 20
1596.3885
 30
0
 40
0.915
 39
  0
0
CIRCLE
8
JA
 10
5.08
 20
1593.8485
 30
0
 40
0.915
 39
  0
0
CIRCLE
8
JA
 10
7.62
 20
1593.8485
 30
0
 40
0.915
 39
  0
0
CIRCLE
8
JA
 10
10.16
 20
1593.8485
 30
0
 40
0.915
 39
  0
0
CIRCLE
8
JA
 10
12.7
 20
1593.8485
 30
0
 40
0.585
 39
  0
0
CIRCLE
8
JA
 10
12.7
 20
1591.3085
 30
0
 40
0.585
 39
  0
0
CIRCLE
8
JA
 10
12.7
 20
1588.7684
 30
0
 40
0.585
 39
  0
0
CIRCLE
8
JA
 10
7.62
 20
1586.2284
 30
0
 40
0.915
 39
  0
0
CIRCLE
8
JA
 10
10.16
 20
1586.2284
 30
0
 40
0.915
 39
  0
0
CIRCLE
8
JA
 10
12.7
 20
1586.2284
 30
0
 40
0.585
 39
  0
0
CIRCLE
8
JA
 10
5.08
 20
1583.6884
 30
0
 40
0.915
 39
  0
0
CIRCLE
8
JA
 10
12.7
 20
1583.6884
 30
0
 40
0.585
 39
  0
0
CIRCLE
8
JA
 10
15.24
 20
1583.6884
 30
0
 40
0.915
 39
  0
0
CIRCLE
8
JA
 10
5.08
 20
1581.1483
 30
0
 40
0.915
 39
  0
0
CIRCLE
8
JA
 10
12.7
 20
1581.1483
 30
0
 40
0.585
 39
  0
0
CIRCLE
8
JA
 10
15.24
 20
1581.1483
 30
0
 40
0.915
 39
  0
0
CIRCLE
8
JA
 10
5.08
 20
1578.6083
 30
0
 40
0.915
 39
  0
0
CIRCLE
8
JA
 10
12.7
 20
1578.6083
 30
0
 40
0.585
 39
  0
0
CIRCLE
8
JA
 10
15.24
 20
1578.6083
 30
0
 40
0.915
 39
  0
0
CIRCLE
8
JA
 10
5.08
 20
1576.0682
 30
0
 40
0.915
 39
  0
0
CIRCLE
8
JA
 10
12.7
 20
1576.0682
 30
0
 40
0.585
 39
  0
0
CIRCLE
8
JA
 10
15.24
 20
1576.0682
 30
0
 40
0.915
 39
  0
0
CIRCLE
8
JA
 10
7.62
 20
1573.5282
 30
0
 40
0.915
 39
  0
0
CIRCLE
8
JA
 10
10.16
 20
1573.5282
 30
0
 40
0.915
 39
  0
0
CIRCLE
8
JA
 10
12.7
 20
1573.5282
 30
0
 40
0.585
 39
  0
0
CIRCLE
8
JA
 10
12.7
 20
1570.9882
 30
0
 40
0.585
 39
  0
0
CIRCLE
8
JA
 10
12.7
 20
1568.4481
 30
0
 40
0.585
 39
  0
0
CIRCLE
8
JA
 10
2.54
 20
1565.9081
 30
0
 40
0.915
 39
  0
0
CIRCLE
8
JA
 10
12.7
 20
1565.9081
 30
0
 40
0.585
 39
  0
0
CIRCLE
8
JA
 10
15.24
 20
1565.9081
 30
0
 40
0.915
 39
  0
0
CIRCLE
8
JA
 10
2.54
 20
1563.368
 30
0
 40
0.915
 39
  0
0
CIRCLE
8
JA
 10
5.08
 20
1563.368
 30
0
 40
0.915
 39
  0
0
CIRCLE
8
JA
 10
10.16
 20
1563.368
 30
0
 40
0.915
 39
  0
0
CIRCLE
8
JA
 10
12.7
 20
1563.368
 30
0
 40
0.585
 39
  0
0
CIRCLE
8
JA
 10
15.24
 20
1563.368
 30
0
 40
0.915
 39
  0
0
CIRCLE
8
JA
 10
2.54
 20
1560.828
 30
0
 40
0.915
 39
  0
0
CIRCLE
8
JA
 10
7.62
 20
1560.828
 30
0
 40
0.915
 39
  0
0
CIRCLE
8
JA
 10
12.7
 20
1560.828
 30
0
 40
0.585
 39
  0
0
CIRCLE
8
JA
 10
15.24
 20
1560.828
 30
0
 40
0.915
 39
  0
0
CIRCLE
8
JA
 10
2.54
 20
1558.288
 30
0
 40
0.915
 39
  0
0
CIRCLE
8
JA
 10
12.7
 20
1558.288
 30
0
 40
0.585
 39
  0
0
CIRCLE
8
JA
 10
15.24
 20
1558.288
 30
0
 40
0.915
 39
  0
0
CIRCLE
8
JA
 10
2.54
 20
1555.7479
 30
0
 40
0.915
 39
  0
0
CIRCLE
8
JA
 10
12.7
 20
1555.7479
 30
0
 40
0.585
 39
  0
0
CIRCLE
8
JA
 10
15.24
 20
1555.7479
 30
0
 40
0.915
 39
  0
0
CIRCLE
8
JA
 10
2.54
 20
1553.2079
 30
0
 40
0.915
 39
  0
0
CIRCLE
8
JA
 10
12.7
 20
1553.2079
 30
0
 40
0.585
 39
  0
0
CIRCLE
8
JA
 10
15.24
 20
1553.2079
 30
0
 40
0.915
 39
  0
0
CIRCLE
8
JA
 10
12.7
 20
1550.6678
 30
0
 40
0.585
 39
  0
0
CIRCLE
8
JA
 10
12.7
 20
1548.1278
 30
0
 40
0.585
 39
  0
0
CIRCLE
8
JA
 10
7.62
 20
1545.5878
 30
0
 40
0.915
 39
  0
0
CIRCLE
8
JA
 10
10.16
 20
1545.5878
 30
0
 40
0.915
 39
  0
0
CIRCLE
8
JA
 10
12.7
 20
1545.5878
 30
0
 40
0.585
 39
  0
0
CIRCLE
8
JA
 10
5.08
 20
1543.0477
 30
0
 40
0.915
 39
  0
0
CIRCLE
8
JA
 10
12.7
 20
1543.0477
 30
0
 40
0.585
 39
  0
0
CIRCLE
8
JA
 10
15.24
 20
1543.0477
 30
0
 40
0.915
 39
  0
0
CIRCLE
8
JA
 10
5.08
 20
1540.5077
 30
0
 40
0.915
 39
  0
0
CIRCLE
8
JA
 10
12.7
 20
1540.5077
 30
0
 40
0.585
 39
  0
0
CIRCLE
8
JA
 10
15.24
 20
1540.5077
 30
0
 40
0.915
 39
  0
0
CIRCLE
8
JA
 10
5.08
 20
1537.9677
 30
0
 40
0.915
 39
  0
0
CIRCLE
8
JA
 10
12.7
 20
1537.9677
 30
0
 40
0.585
 39
  0
0
CIRCLE
8
JA
 10
15.24
 20
1537.9677
 30
0
 40
0.915
 39
  0
0
CIRCLE
8
JA
 10
5.08
 20
1535.4276
 30
0
 40
0.915
 39
  0
0
CIRCLE
8
JA
 10
12.7
 20
1535.4276
 30
0
 40
0.585
 39
  0
0
CIRCLE
8
JA
 10
15.24
 20
1535.4276
 30
0
 40
0.915
 39
  0
0
CIRCLE
8
JA
 10
7.62
 20
1532.8876
 30
0
 40
0.915
 39
  0
0
CIRCLE
8
JA
 10
10.16
 20
1532.8876
 30
0
 40
0.915
 39
  0
0
CIRCLE
8
JA
 10
12.7
 20
1532.8876
 30
0
 40
0.585
 39
  0
0
CIRCLE
8
JA
 10
5.08
 20
1530.3475
 30
0
 40
0.915
 39
  0
0
CIRCLE
8
JA
 10
7.62
 20
1530.3475
 30
0
 40
0.915
 39
  0
0
CIRCLE
8
JA
 10
12.7
 20
1530.3475
 30
0
 40
0.585
 39
  0
0
CIRCLE
8
JA
 10
15.24
 20
1530.3475
 30
0
 40
0.915
 39
  0
0
CIRCLE
8
JA
 10
20.32
 20
1530.3475
 30
0
 40
0.915
 39
  0
0
CIRCLE
8
JA
 10
2.54
 20
1527.8075
 30
0
 40
0.915
 39
  0
0
CIRCLE
8
JA
 10
5.08
 20
1527.8075
 30
0
 40
0.915
 39
  0
0
CIRCLE
8
JA
 10
12.7
 20
1527.8075
 30
0
 40
0.585
 39
  0
0
CIRCLE
8
JA
 10
15.24
 20
1527.8075
 30
0
 40
0.915
 39
  0
0
CIRCLE
8
JA
 10
20.32
 20
1527.8075
 30
0
 40
0.915
 39
  0
0
CIRCLE
8
JA
 10
5.08
 20
1525.2675
 30
0
 40
0.915
 39
  0
0
CIRCLE
8
JA
 10
10.16
 20
1525.2675
 30
0
 40
0.915
 39
  0
0
CIRCLE
8
JA
 10
12.7
 20
1525.2675
 30
0
 40
0.585
 39
  0
0
CIRCLE
8
JA
 10
17.779999
 20
1525.2675
 30
0
 40
0.915
 39
  0
0
CIRCLE
8
JA
 10
20.32
 20
1525.2675
 30
0
 40
0.915
 39
  0
0
CIRCLE
8
JA
 10
10.16
 20
1522.7274
 30
0
 40
0.915
 39
  0
0
CIRCLE
8
JA
 10
12.7
 20
1522.7274
 30
0
 40
0.585
 39
  0
0
CIRCLE
8
JA
 10
15.24
 20
1522.7274
 30
0
 40
0.915
 39
  0
0
CIRCLE
8
JA
 10
17.779999
 20
1522.7274
 30
0
 40
0.915
 39
  0
0
CIRCLE
8
JA
 10
20.32
 20
1522.7274
 30
0
 40
0.915
 39
  0
0
CIRCLE
8
JA
 10
5.08
 20
1520.1874
 30
0
 40
0.915
 39
  0
0
CIRCLE
8
JA
 10
10.16
 20
1520.1874
 30
0
 40
0.915
 39
  0
0
CIRCLE
8
JA
 10
12.7
 20
1520.1874
 30
0
 40
0.585
 39
  0
0
CIRCLE
8
JA
 10
17.779999
 20
1520.1874
 30
0
 40
0.915
 39
  0
0
CIRCLE
8
JA
 10
20.32
 20
1520.1874
 30
0
 40
0.915
 39
  0
0
CIRCLE
8
JA
 10
5.08
 20
1517.6473
 30
0
 40
0.915
 39
  0
0
CIRCLE
8
JA
 10
7.62
 20
1517.6473
 30
0
 40
0.915
 39
  0
0
CIRCLE
8
JA
 10
10.16
 20
1517.6473
 30
0
 40
0.915
 39
  0
0
CIRCLE
8
JA
 10
12.7
 20
1517.6473
 30
0
 40
0.585
 39
  0
0
CIRCLE
8
JA
 10
17.779999
 20
1517.6473
 30
0
 40
0.915
 39
  0
0
CIRCLE
8
JA
 10
20.32
 20
1517.6473
 30
0
 40
0.915
 39
  0
0
CIRCLE
8
JA
 10
2.54
 20
1515.1073
 30
0
 40
0.915
 39
  0
0
CIRCLE
8
JA
 10
5.08
 20
1515.1073
 30
0
 40
0.915
 39
  0
0
CIRCLE
8
JA
 10
7.62
 20
1515.1073
 30
0
 40
0.915
 39
  0
0
CIRCLE
8
JA
 10
10.16
 20
1515.1073
 30
0
 40
0.915
 39
  0
0
CIRCLE
8
JA
 10
12.7
 20
1515.1073
 30
0
 40
0.585
 39
  0
0
CIRCLE
8
JA
 10
15.24
 20
1515.1073
 30
0
 40
0.915
 39
  0
0
CIRCLE
8
JA
 10
20.32
 20
1515.1073
 30
0
 40
0.915
 39
  0
0
CIRCLE
8
JA
 10
5.08
 20
1512.5673
 30
0
 40
0.915
 39
  0
0
CIRCLE
8
JA
 10
7.62
 20
1512.5673
 30
0
 40
0.915
 39
  0
0
CIRCLE
8
JA
 10
10.16
 20
1512.5673
 30
0
 40
0.915
 39
  0
0
CIRCLE
8
JA
 10
12.7
 20
1512.5673
 30
0
 40
0.585
 39
  0
0
CIRCLE
8
JA
 10
17.779999
 20
1512.5673
 30
0
 40
0.915
 39
  0
0
CIRCLE
8
JA
 10
20.32
 20
1512.5673
 30
0
 40
0.915
 39
  0
0
CIRCLE
8
JA
 10
7.62
 20
1510.0272
 30
0
 40
0.915
 39
  0
0
CIRCLE
8
JA
 10
10.16
 20
1510.0272
 30
0
 40
0.915
 39
  0
0
CIRCLE
8
JA
 10
12.7
 20
1510.0272
 30
0
 40
0.585
 39
  0
0
CIRCLE
8
JA
 10
15.24
 20
1510.0272
 30
0
 40
0.915
 39
  0
0
CIRCLE
8
JA
 10
17.779999
 20
1510.0272
 30
0
 40
0.915
 39
  0
0
CIRCLE
8
JA
 10
20.32
 20
1510.0272
 30
0
 40
0.915
 39
  0
0
CIRCLE
8
JA
 10
5.08
 20
1507.4872
 30
0
 40
0.915
 39
  0
0
CIRCLE
8
JA
 10
7.62
 20
1507.4872
 30
0
 40
0.915
 39
  0
0
CIRCLE
8
JA
 10
12.7
 20
1507.4872
 30
0
 40
0.585
 39
  0
0
CIRCLE
8
JA
 10
15.24
 20
1507.4872
 30
0
 40
0.915
 39
  0
0
CIRCLE
8
JA
 10
17.779999
 20
1507.4872
 30
0
 40
0.915
 39
  0
0
CIRCLE
8
JA
 10
20.32
 20
1507.4872
 30
0
 40
0.915
 39
  0
0
CIRCLE
8
JA
 10
2.54
 20
1504.9471
 30
0
 40
0.915
 39
  0
0
CIRCLE
8
JA
 10
5.08
 20
1504.9471
 30
0
 40
0.915
 39
  0
0
CIRCLE
8
JA
 10
10.16
 20
1504.9471
 30
0
 40
0.915
 39
  0
0
CIRCLE
8
JA
 10
12.7
 20
1504.9471
 30
0
 40
0.585
 39
  0
0
CIRCLE
8
JA
 10
15.24
 20
1504.9471
 30
0
 40
0.915
 39
  0
0
CIRCLE
8
JA
 10
20.32
 20
1504.9471
 30
0
 40
0.915
 39
  0
0
CIRCLE
8
JA
 10
2.54
 20
1502.4071
 30
0
 40
0.915
 39
  0
0
CIRCLE
8
JA
 10
5.08
 20
1502.4071
 30
0
 40
0.915
 39
  0
0
CIRCLE
8
JA
 10
7.62
 20
1502.4071
 30
0
 40
0.915
 39
  0
0
CIRCLE
8
JA
 10
10.16
 20
1502.4071
 30
0
 40
0.915
 39
  0
0
CIRCLE
8
JA
 10
12.7
 20
1502.4071
 30
0
 40
0.585
 39
  0
0
CIRCLE
8
JA
 10
15.24
 20
1502.4071
 30
0
 40
0.915
 39
  0
0
CIRCLE
8
JA
 10
20.32
 20
1502.4071
 30
0
 40
0.915
 39
  0
0
CIRCLE
8
JA
 10
2.54
 20
1499.8671
 30
0
 40
0.915
 39
  0
0
CIRCLE
8
JA
 10
7.62
 20
1499.8671
 30
0
 40
0.915
 39
  0
0
CIRCLE
8
JA
 10
12.7
 20
1499.8671
 30
0
 40
0.585
 39
  0
0
CIRCLE
8
JA
 10
17.779999
 20
1499.8671
 30
0
 40
0.915
 39
  0
0
CIRCLE
8
JA
 10
20.32
 20
1499.8671
 30
0
 40
0.915
 39
  0
0
CIRCLE
8
JA
 10
12.7
 20
1497.327
 30
0
 40
0.585
 39
  0
0
CIRCLE
8
JA
 10
20.32
 20
1497.327
 30
0
 40
0.915
 39
  0
0
CIRCLE
8
JA
 10
12.7
 20
1494.787
 30
0
 40
0.585
 39
  0
0
CIRCLE
8
JA
 10
20.32
 20
1494.787
 30
0
 40
0.915
 39
  0
0
CIRCLE
8
JA
 10
12.7
 20
1492.247
 30
0
 40
0.585
 39
  0
0
CIRCLE
8
JA
 10
20.32
 20
1492.247
 30
0
 40
0.915
 39
  0
0
CIRCLE
8
JA
 10
12.7
 20
1489.7069
 30
0
 40
0.585
 39
  0
0
CIRCLE
8
JA
 10
12.7
 20
1487.1669
 30
0
 40
0.585
 39
  0
0
CIRCLE
8
JA
 10
12.7
 20
1484.6268
 30
0
 40
0.585
 39
  0
0
CIRCLE
8
JA
 10
12.7
 20
1482.0868
 30
0
 40
0.585
 39
  0
0
CIRCLE
8
JA
 10
12.7
 20
1479.5468
 30
0
 40
0.585
 39
  0
0
CIRCLE
8
JA
 10
12.7
 20
1477.0067
 30
0
 40
0.585
 39
  0
0
CIRCLE
8
JA
 10
12.7
 20
1474.4667
 30
0
 40
0.585
 39
  0
0
CIRCLE
8
JA
 10
12.7
 20
1471.9266
 30
0
 40
0.585
 39
  0
0
CIRCLE
8
JA
 10
2.54
 20
1469.3866
 30
0
 40
0.915
 39
  0
0
CIRCLE
8
JA
 10
5.08
 20
1469.3866
 30
0
 40
0.915
 39
  0
0
CIRCLE
8
JA
 10
7.62
 20
1469.3866
 30
0
 40
0.915
 39
  0
0
CIRCLE
8
JA
 10
10.16
 20
1469.3866
 30
0
 40
0.915
 39
  0
0
CIRCLE
8
JA
 10
12.7
 20
1469.3866
 30
0
 40
0.585
 39
  0
0
CIRCLE
8
JA
 10
15.24
 20
1469.3866
 30
0
 40
0.915
 39
  0
0
CIRCLE
8
JA
 10
20.32
 20
1469.3866
 30
0
 40
0.915
 39
  0
0
CIRCLE
8
JA
 10
2.54
 20
1466.8466
 30
0
 40
0.915
 39
  0
0
CIRCLE
8
JA
 10
5.08
 20
1466.8466
 30
0
 40
0.915
 39
  0
0
CIRCLE
8
JA
 10
7.62
 20
1466.8466
 30
0
 40
0.915
 39
  0
0
CIRCLE
8
JA
 10
10.16
 20
1466.8466
 30
0
 40
0.915
 39
  0
0
CIRCLE
8
JA
 10
12.7
 20
1466.8466
 30
0
 40
0.585
 39
  0
0
CIRCLE
8
JA
 10
20.32
 20
1466.8466
 30
0
 40
0.915
 39
  0
0
CIRCLE
8
JA
 10
7.62
 20
1464.3065
 30
0
 40
0.915
 39
  0
0
CIRCLE
8
JA
 10
12.7
 20
1464.3065
 30
0
 40
0.585
 39
  0
0
CIRCLE
8
JA
 10
15.24
 20
1464.3065
 30
0
 40
0.915
 39
  0
0
CIRCLE
8
JA
 10
17.779999
 20
1464.3065
 30
0
 40
0.915
 39
  0
0
CIRCLE
8
JA
 10
20.32
 20
1464.3065
 30
0
 40
0.915
 39
  0
0
CIRCLE
8
JA
 10
5.08
 20
1461.7665
 30
0
 40
0.915
 39
  0
0
CIRCLE
8
JA
 10
12.7
 20
1461.7665
 30
0
 40
0.585
 39
  0
0
CIRCLE
8
JA
 10
20.32
 20
1461.7665
 30
0
 40
0.915
 39
  0
0
CIRCLE
8
JA
 10
12.7
 20
1459.2264
 30
0
 40
0.585
 39
  0
0
CIRCLE
8
JA
 10
20.32
 20
1459.2264
 30
0
 40
0.915
 39
  0
0
CIRCLE
8
JA
 10
2.54
 20
1456.6864
 30
0
 40
0.915
 39
  0
0
CIRCLE
8
JA
 10
12.7
 20
1456.6864
 30
0
 40
0.585
 39
  0
0
CIRCLE
8
JA
 10
20.32
 20
1456.6864
 30
0
 40
0.915
 39
  0
0
CIRCLE
8
JA
 10
2.54
 20
1454.1464
 30
0
 40
0.915
 39
  0
0
CIRCLE
8
JA
 10
12.7
 20
1454.1464
 30
0
 40
0.585
 39
  0
0
CIRCLE
8
JA
 10
20.32
 20
1454.1464
 30
0
 40
0.915
 39
  0
0
CIRCLE
8
JA
 10
12.7
 20
1451.6063
 30
0
 40
0.585
 39
  0
0
CIRCLE
8
JA
 10
15.24
 20
1451.6063
 30
0
 40
0.915
 39
  0
0
CIRCLE
8
JA
 10
20.32
 20
1451.6063
 30
0
 40
0.915
 39
  0
0
CIRCLE
8
JA
 10
2.54
 20
1449.0663
 30
0
 40
0.915
 39
  0
0
CIRCLE
8
JA
 10
5.08
 20
1449.0663
 30
0
 40
0.915
 39
  0
0
CIRCLE
8
JA
 10
7.62
 20
1449.0663
 30
0
 40
0.915
 39
  0
0
CIRCLE
8
JA
 10
12.7
 20
1449.0663
 30
0
 40
0.585
 39
  0
0
CIRCLE
8
JA
 10
15.24
 20
1449.0663
 30
0
 40
0.915
 39
  0
0
CIRCLE
8
JA
 10
20.32
 20
1449.0663
 30
0
 40
0.915
 39
  0
0
CIRCLE
8
JA
 10
5.08
 20
1446.5262
 30
0
 40
0.915
 39
  0
0
CIRCLE
8
JA
 10
12.7
 20
1446.5262
 30
0
 40
0.585
 39
  0
0
CIRCLE
8
JA
 10
20.32
 20
1446.5262
 30
0
 40
0.915
 39
  0
0
CIRCLE
8
JA
 10
10.16
 20
1443.9862
 30
0
 40
0.915
 39
  0
0
CIRCLE
8
JA
 10
12.7
 20
1443.9862
 30
0
 40
0.585
 39
  0
0
CIRCLE
8
JA
 10
20.32
 20
1443.9862
 30
0
 40
0.915
 39
  0
0
CIRCLE
8
JA
 10
7.62
 20
1441.4462
 30
0
 40
0.915
 39
  0
0
CIRCLE
8
JA
 10
12.7
 20
1441.4462
 30
0
 40
0.585
 39
  0
0
CIRCLE
8
JA
 10
15.24
 20
1441.4462
 30
0
 40
0.915
 39
  0
0
CIRCLE
8
JA
 10
20.32
 20
1441.4462
 30
0
 40
0.915
 39
  0
0
CIRCLE
8
JA
 10
2.54
 20
1438.9061
 30
0
 40
0.915
 39
  0
0
CIRCLE
8
JA
 10
12.7
 20
1438.9061
 30
0
 40
0.585
 39
  0
0
CIRCLE
8
JA
 10
20.32
 20
1438.9061
 30
0
 40
0.915
 39
  0
0
CIRCLE
8
JA
 10
10.16
 20
1436.3661
 30
0
 40
0.915
 39
  0
0
CIRCLE
8
JA
 10
12.7
 20
1436.3661
 30
0
 40
0.585
 39
  0
0
CIRCLE
8
JA
 10
20.32
 20
1436.3661
 30
0
 40
0.915
 39
  0
0
CIRCLE
8
JA
 10
7.62
 20
1433.826
 30
0
 40
0.915
 39
  0
0
CIRCLE
8
JA
 10
12.7
 20
1433.826
 30
0
 40
0.585
 39
  0
0
CIRCLE
8
JA
 10
15.24
 20
1433.826
 30
0
 40
0.915
 39
  0
0
CIRCLE
8
JA
 10
20.32
 20
1433.826
 30
0
 40
0.915
 39
  0
0
CIRCLE
8
JA
 10
2.54
 20
1431.286
 30
0
 40
0.915
 39
  0
0
CIRCLE
8
JA
 10
10.16
 20
1431.286
 30
0
 40
0.915
 39
  0
0
CIRCLE
8
JA
 10
12.7
 20
1431.286
 30
0
 40
0.585
 39
  0
0
CIRCLE
8
JA
 10
20.32
 20
1431.286
 30
0
 40
0.915
 39
  0
0
CIRCLE
8
JA
 10
12.7
 20
1428.746
 30
0
 40
0.585
 39
  0
0
CIRCLE
8
JA
 10
15.24
 20
1428.746
 30
0
 40
0.915
 39
  0
0
CIRCLE
8
JA
 10
20.32
 20
1428.746
 30
0
 40
0.915
 39
  0
0
CIRCLE
8
JA
 10
2.54
 20
1426.2059
 30
0
 40
0.915
 39
  0
0
CIRCLE
8
JA
 10
5.08
 20
1426.2059
 30
0
 40
0.915
 39
  0
0
CIRCLE
8
JA
 10
7.62
 20
1426.2059
 30
0
 40
0.915
 39
  0
0
CIRCLE
8
JA
 10
10.16
 20
1426.2059
 30
0
 40
0.915
 39
  0
0
CIRCLE
8
JA
 10
12.7
 20
1426.2059
 30
0
 40
0.585
 39
  0
0
CIRCLE
8
JA
 10
20.32
 20
1426.2059
 30
0
 40
0.915
 39
  0
0
CIRCLE
8
JA
 10
5.08
 20
1423.6659
 30
0
 40
0.915
 39
  0
0
CIRCLE
8
JA
 10
12.7
 20
1423.6659
 30
0
 40
0.585
 39
  0
0
CIRCLE
8
JA
 10
20.32
 20
1423.6659
 30
0
 40
0.915
 39
  0
0
CIRCLE
8
JA
 10
10.16
 20
1421.1259
 30
0
 40
0.915
 39
  0
0
CIRCLE
8
JA
 10
12.7
 20
1421.1259
 30
0
 40
0.585
 39
  0
0
CIRCLE
8
JA
 10
20.32
 20
1421.1259
 30
0
 40
0.915
 39
  0
0
CIRCLE
8
JA
 10
5.08
 20
1418.5858
 30
0
 40
0.915
 39
  0
0
CIRCLE
8
JA
 10
12.7
 20
1418.5858
 30
0
 40
0.585
 39
  0
0
CIRCLE
8
JA
 10
15.24
 20
1418.5858
 30
0
 40
0.915
 39
  0
0
CIRCLE
8
JA
 10
17.779999
 20
1418.5858
 30
0
 40
0.915
 39
  0
0
CIRCLE
8
JA
 10
20.32
 20
1418.5858
 30
0
 40
0.915
 39
  0
0
CIRCLE
8
JA
 10
5.08
 20
1416.0458
 30
0
 40
0.915
 39
  0
0
CIRCLE
8
JA
 10
12.7
 20
1416.0458
 30
0
 40
0.585
 39
  0
0
CIRCLE
8
JA
 10
20.32
 20
1416.0458
 30
0
 40
0.915
 39
  0
0
CIRCLE
8
JA
 10
10.16
 20
1413.5057
 30
0
 40
0.915
 39
  0
0
CIRCLE
8
JA
 10
12.7
 20
1413.5057
 30
0
 40
0.585
 39
  0
0
CIRCLE
8
JA
 10
20.32
 20
1413.5057
 30
0
 40
0.915
 39
  0
0
CIRCLE
8
JA
 10
7.62
 20
1410.9657
 30
0
 40
0.915
 39
  0
0
CIRCLE
8
JA
 10
12.7
 20
1410.9657
 30
0
 40
0.585
 39
  0
0
CIRCLE
8
JA
 10
15.24
 20
1410.9657
 30
0
 40
0.915
 39
  0
0
CIRCLE
8
JA
 10
20.32
 20
1410.9657
 30
0
 40
0.915
 39
  0
0
CIRCLE
8
JA
 10
2.54
 20
1408.4257
 30
0
 40
0.915
 39
  0
0
CIRCLE
8
JA
 10
5.08
 20
1408.4257
 30
0
 40
0.915
 39
  0
0
CIRCLE
8
JA
 10
7.62
 20
1408.4257
 30
0
 40
0.915
 39
  0
0
CIRCLE
8
JA
 10
12.7
 20
1408.4257
 30
0
 40
0.585
 39
  0
0
CIRCLE
8
JA
 10
20.32
 20
1408.4257
 30
0
 40
0.915
 39
  0
0
CIRCLE
8
JA
 10
12.7
 20
1405.8856
 30
0
 40
0.585
 39
  0
0
CIRCLE
8
JA
 10
20.32
 20
1405.8856
 30
0
 40
0.915
 39
  0
0
CIRCLE
8
JA
 10
12.7
 20
1403.3456
 30
0
 40
0.585
 39
  0
0
CIRCLE
8
JA
 10
17.779999
 20
1403.3456
 30
0
 40
0.915
 39
  0
0
CIRCLE
8
JA
 10
20.32
 20
1403.3456
 30
0
 40
0.915
 39
  0
0
CIRCLE
8
JA
 10
5.08
 20
1400.8055
 30
0
 40
0.915
 39
  0
0
CIRCLE
8
JA
 10
7.62
 20
1400.8055
 30
0
 40
0.915
 39
  0
0
CIRCLE
8
JA
 10
10.16
 20
1400.8055
 30
0
 40
0.915
 39
  0
0
CIRCLE
8
JA
 10
12.7
 20
1400.8055
 30
0
 40
0.585
 39
  0
0
CIRCLE
8
JA
 10
15.24
 20
1400.8055
 30
0
 40
0.915
 39
  0
0
CIRCLE
8
JA
 10
20.32
 20
1400.8055
 30
0
 40
0.915
 39
  0
0
CIRCLE
8
JA
 10
12.7
 20
1398.2655
 30
0
 40
0.585
 39
  0
0
CIRCLE
8
JA
 10
20.32
 20
1398.2655
 30
0
 40
0.915
 39
  0
0
CIRCLE
8
JA
 10
2.54
 20
1395.7255
 30
0
 40
0.915
 39
  0
0
CIRCLE
8
JA
 10
7.62
 20
1395.7255
 30
0
 40
0.915
 39
  0
0
CIRCLE
8
JA
 10
12.7
 20
1395.7255
 30
0
 40
0.585
 39
  0
0
CIRCLE
8
JA
 10
20.32
 20
1395.7255
 30
0
 40
0.915
 39
  0
0
CIRCLE
8
JA
 10
2.54
 20
1393.1854
 30
0
 40
0.915
 39
  0
0
CIRCLE
8
JA
 10
10.16
 20
1393.1854
 30
0
 40
0.915
 39
  0
0
CIRCLE
8
JA
 10
12.7
 20
1393.1854
 30
0
 40
0.585
 39
  0
0
CIRCLE
8
JA
 10
15.24
 20
1393.1854
 30
0
 40
0.915
 39
  0
0
CIRCLE
8
JA
 10
20.32
 20
1393.1854
 30
0
 40
0.915
 39
  0
0
CIRCLE
8
JA
 10
10.16
 20
1390.6454
 30
0
 40
0.915
 39
  0
0
CIRCLE
8
JA
 10
12.7
 20
1390.6454
 30
0
 40
0.585
 39
  0
0
CIRCLE
8
JA
 10
20.32
 20
1390.6454
 30
0
 40
0.915
 39
  0
0
CIRCLE
8
JA
 10
12.7
 20
1388.1053
 30
0
 40
0.585
 39
  0
0
CIRCLE
8
JA
 10
15.24
 20
1388.1053
 30
0
 40
0.915
 39
  0
0
CIRCLE
8
JA
 10
17.779999
 20
1388.1053
 30
0
 40
0.915
 39
  0
0
CIRCLE
8
JA
 10
20.32
 20
1388.1053
 30
0
 40
0.915
 39
  0
0
CIRCLE
8
JA
 10
5.08
 20
1385.5653
 30
0
 40
0.915
 39
  0
0
CIRCLE
8
JA
 10
7.62
 20
1385.5653
 30
0
 40
0.915
 39
  0
0
CIRCLE
8
JA
 10
10.16
 20
1385.5653
 30
0
 40
0.915
 39
  0
0
CIRCLE
8
JA
 10
12.7
 20
1385.5653
 30
0
 40
0.585
 39
  0
0
CIRCLE
8
JA
 10
20.32
 20
1385.5653
 30
0
 40
0.915
 39
  0
0
CIRCLE
8
JA
 10
12.7
 20
1383.0253
 30
0
 40
0.585
 39
  0
0
CIRCLE
8
JA
 10
20.32
 20
1383.0253
 30
0
 40
0.915
 39
  0
0
CIRCLE
8
JA
 10
2.54
 20
1380.4852
 30
0
 40
0.915
 39
  0
0
CIRCLE
8
JA
 10
7.62
 20
1380.4852
 30
0
 40
0.915
 39
  0
0
CIRCLE
8
JA
 10
10.16
 20
1380.4852
 30
0
 40
0.915
 39
  0
0
CIRCLE
8
JA
 10
12.7
 20
1380.4852
 30
0
 40
0.585
 39
  0
0
CIRCLE
8
JA
 10
15.24
 20
1380.4852
 30
0
 40
0.915
 39
  0
0
CIRCLE
8
JA
 10
20.32
 20
1380.4852
 30
0
 40
0.915
 39
  0
0
CIRCLE
8
JA
 10
2.54
 20
1377.9452
 30
0
 40
0.915
 39
  0
0
CIRCLE
8
JA
 10
12.7
 20
1377.9452
 30
0
 40
0.585
 39
  0
0
CIRCLE
8
JA
 10
20.32
 20
1377.9452
 30
0
 40
0.915
 39
  0
0
CIRCLE
8
JA
 10
10.16
 20
1375.4052
 30
0
 40
0.915
 39
  0
0
CIRCLE
8
JA
 10
12.7
 20
1375.4052
 30
0
 40
0.585
 39
  0
0
CIRCLE
8
JA
 10
20.32
 20
1375.4052
 30
0
 40
0.915
 39
  0
0
CIRCLE
8
JA
 10
7.62
 20
1372.8651
 30
0
 40
0.915
 39
  0
0
CIRCLE
8
JA
 10
12.7
 20
1372.8651
 30
0
 40
0.585
 39
  0
0
CIRCLE
8
JA
 10
20.32
 20
1372.8651
 30
0
 40
0.915
 39
  0
0
CIRCLE
8
JA
 10
5.08
 20
1370.3251
 30
0
 40
0.915
 39
  0
0
CIRCLE
8
JA
 10
12.7
 20
1370.3251
 30
0
 40
0.585
 39
  0
0
CIRCLE
8
JA
 10
20.32
 20
1370.3251
 30
0
 40
0.915
 39
  0
0
CIRCLE
8
JA
 10
12.7
 20
1367.785
 30
0
 40
0.585
 39
  0
0
CIRCLE
8
JA
 10
20.32
 20
1367.785
 30
0
 40
0.915
 39
  0
0
CIRCLE
8
JA
 10
2.54
 20
1365.245
 30
0
 40
0.915
 39
  0
0
CIRCLE
8
JA
 10
10.16
 20
1365.245
 30
0
 40
0.915
 39
  0
0
CIRCLE
8
JA
 10
12.7
 20
1365.245
 30
0
 40
0.585
 39
  0
0
CIRCLE
8
JA
 10
15.24
 20
1365.245
 30
0
 40
0.915
 39
  0
0
CIRCLE
8
JA
 10
17.779999
 20
1365.245
 30
0
 40
0.915
 39
  0
0
CIRCLE
8
JA
 10
20.32
 20
1365.245
 30
0
 40
0.915
 39
  0
0
CIRCLE
8
JA
 10
2.54
 20
1362.705
 30
0
 40
0.915
 39
  0
0
CIRCLE
8
JA
 10
12.7
 20
1362.705
 30
0
 40
0.585
 39
  0
0
CIRCLE
8
JA
 10
20.32
 20
1362.705
 30
0
 40
0.915
 39
  0
0
CIRCLE
8
JA
 10
10.16
 20
1360.1649
 30
0
 40
0.915
 39
  0
0
CIRCLE
8
JA
 10
12.7
 20
1360.1649
 30
0
 40
0.585
 39
  0
0
CIRCLE
8
JA
 10
20.32
 20
1360.1649
 30
0
 40
0.915
 39
  0
0
CIRCLE
8
JA
 10
10.16
 20
1357.6249
 30
0
 40
0.915
 39
  0
0
CIRCLE
8
JA
 10
12.7
 20
1357.6249
 30
0
 40
0.585
 39
  0
0
CIRCLE
8
JA
 10
20.32
 20
1357.6249
 30
0
 40
0.915
 39
  0
0
CIRCLE
8
JA
 10
5.08
 20
1355.0848
 30
0
 40
0.915
 39
  0
0
CIRCLE
8
JA
 10
7.62
 20
1355.0848
 30
0
 40
0.915
 39
  0
0
CIRCLE
8
JA
 10
10.16
 20
1355.0848
 30
0
 40
0.915
 39
  0
0
CIRCLE
8
JA
 10
12.7
 20
1355.0848
 30
0
 40
0.585
 39
  0
0
CIRCLE
8
JA
 10
15.24
 20
1355.0848
 30
0
 40
0.915
 39
  0
0
CIRCLE
8
JA
 10
20.32
 20
1355.0848
 30
0
 40
0.915
 39
  0
0
CIRCLE
8
JA
 10
12.7
 20
1352.5448
 30
0
 40
0.585
 39
  0
0
CIRCLE
8
JA
 10
20.32
 20
1352.5448
 30
0
 40
0.915
 39
  0
0
CIRCLE
8
JA
 10
2.54
 20
1350.0048
 30
0
 40
0.915
 39
  0
0
CIRCLE
8
JA
 10
10.16
 20
1350.0048
 30
0
 40
0.915
 39
  0
0
CIRCLE
8
JA
 10
12.7
 20
1350.0048
 30
0
 40
0.585
 39
  0
0
CIRCLE
8
JA
 10
20.32
 20
1350.0048
 30
0
 40
0.915
 39
  0
0
CIRCLE
8
JA
 10
2.54
 20
1347.4647
 30
0
 40
0.915
 39
  0
0
CIRCLE
8
JA
 10
12.7
 20
1347.4647
 30
0
 40
0.585
 39
  0
0
CIRCLE
8
JA
 10
20.32
 20
1347.4647
 30
0
 40
0.915
 39
  0
0
CIRCLE
8
JA
 10
10.16
 20
1344.9247
 30
0
 40
0.915
 39
  0
0
CIRCLE
8
JA
 10
12.7
 20
1344.9247
 30
0
 40
0.585
 39
  0
0
CIRCLE
8
JA
 10
20.32
 20
1344.9247
 30
0
 40
0.915
 39
  0
0
CIRCLE
8
JA
 10
12.7
 20
1342.3846
 30
0
 40
0.585
 39
  0
0
CIRCLE
8
JA
 10
20.32
 20
1342.3846
 30
0
 40
0.915
 39
  0
0
CIRCLE
8
JA
 10
5.08
 20
1339.8446
 30
0
 40
0.915
 39
  0
0
CIRCLE
8
JA
 10
7.62
 20
1339.8446
 30
0
 40
0.915
 39
  0
0
CIRCLE
8
JA
 10
10.16
 20
1339.8446
 30
0
 40
0.915
 39
  0
0
CIRCLE
8
JA
 10
12.7
 20
1339.8446
 30
0
 40
0.585
 39
  0
0
CIRCLE
8
JA
 10
15.24
 20
1339.8446
 30
0
 40
0.915
 39
  0
0
CIRCLE
8
JA
 10
20.32
 20
1339.8446
 30
0
 40
0.915
 39
  0
0
CIRCLE
8
JA
 10
10.16
 20
1337.3046
 30
0
 40
0.915
 39
  0
0
CIRCLE
8
JA
 10
12.7
 20
1337.3046
 30
0
 40
0.585
 39
  0
0
CIRCLE
8
JA
 10
20.32
 20
1337.3046
 30
0
 40
0.915
 39
  0
0
CIRCLE
8
JA
 10
2.54
 20
1334.7645
 30
0
 40
0.915
 39
  0
0
CIRCLE
8
JA
 10
12.7
 20
1334.7645
 30
0
 40
0.585
 39
  0
0
CIRCLE
8
JA
 10
20.32
 20
1334.7645
 30
0
 40
0.915
 39
  0
0
CIRCLE
8
JA
 10
5.08
 20
1332.2245
 30
0
 40
0.915
 39
  0
0
CIRCLE
8
JA
 10
12.7
 20
1332.2245
 30
0
 40
0.585
 39
  0
0
CIRCLE
8
JA
 10
20.32
 20
1332.2245
 30
0
 40
0.915
 39
  0
0
CIRCLE
8
JA
 10
10.16
 20
1329.6844
 30
0
 40
0.915
 39
  0
0
CIRCLE
8
JA
 10
12.7
 20
1329.6844
 30
0
 40
0.585
 39
  0
0
CIRCLE
8
JA
 10
20.32
 20
1329.6844
 30
0
 40
0.915
 39
  0
0
CIRCLE
8
JA
 10
12.7
 20
1327.1444
 30
0
 40
0.585
 39
  0
0
CIRCLE
8
JA
 10
20.32
 20
1327.1444
 30
0
 40
0.915
 39
  0
0
CIRCLE
8
JA
 10
5.08
 20
1324.6044
 30
0
 40
0.915
 39
  0
0
CIRCLE
8
JA
 10
7.62
 20
1324.6044
 30
0
 40
0.915
 39
  0
0
CIRCLE
8
JA
 10
10.16
 20
1324.6044
 30
0
 40
0.915
 39
  0
0
CIRCLE
8
JA
 10
12.7
 20
1324.6044
 30
0
 40
0.585
 39
  0
0
CIRCLE
8
JA
 10
15.24
 20
1324.6044
 30
0
 40
0.915
 39
  0
0
CIRCLE
8
JA
 10
20.32
 20
1324.6044
 30
0
 40
0.915
 39
  0
0
CIRCLE
8
JA
 10
12.7
 20
1322.0643
 30
0
 40
0.585
 39
  0
0
CIRCLE
8
JA
 10
20.32
 20
1322.0643
 30
0
 40
0.915
 39
  0
0
CIRCLE
8
JA
 10
2.54
 20
1319.5243
 30
0
 40
0.915
 39
  0
0
CIRCLE
8
JA
 10
12.7
 20
1319.5243
 30
0
 40
0.585
 39
  0
0
CIRCLE
8
JA
 10
15.24
 20
1319.5243
 30
0
 40
0.915
 39
  0
0
CIRCLE
8
JA
 10
20.32
 20
1319.5243
 30
0
 40
0.915
 39
  0
0
CIRCLE
8
JA
 10
2.54
 20
1316.9843
 30
0
 40
0.915
 39
  0
0
CIRCLE
8
JA
 10
10.16
 20
1316.9843
 30
0
 40
0.915
 39
  0
0
CIRCLE
8
JA
 10
12.7
 20
1316.9843
 30
0
 40
0.585
 39
  0
0
CIRCLE
8
JA
 10
15.24
 20
1316.9843
 30
0
 40
0.915
 39
  0
0
CIRCLE
8
JA
 10
20.32
 20
1316.9843
 30
0
 40
0.915
 39
  0
0
CIRCLE
8
JA
 10
12.7
 20
1314.4442
 30
0
 40
0.585
 39
  0
0
CIRCLE
8
JA
 10
15.24
 20
1314.4442
 30
0
 40
0.915
 39
  0
0
CIRCLE
8
JA
 10
20.32
 20
1314.4442
 30
0
 40
0.915
 39
  0
0
CIRCLE
8
JA
 10
2.54
 20
1311.9042
 30
0
 40
0.915
 39
  0
0
CIRCLE
8
JA
 10
5.08
 20
1311.9042
 30
0
 40
0.915
 39
  0
0
CIRCLE
8
JA
 10
7.62
 20
1311.9042
 30
0
 40
0.915
 39
  0
0
CIRCLE
8
JA
 10
10.16
 20
1311.9042
 30
0
 40
0.915
 39
  0
0
CIRCLE
8
JA
 10
12.7
 20
1311.9042
 30
0
 40
0.585
 39
  0
0
CIRCLE
8
JA
 10
17.779999
 20
1311.9042
 30
0
 40
0.915
 39
  0
0
CIRCLE
8
JA
 10
20.32
 20
1311.9042
 30
0
 40
0.915
 39
  0
0
CIRCLE
8
JA
 10
5.08
 20
1309.3641
 30
0
 40
0.915
 39
  0
0
CIRCLE
8
JA
 10
7.62
 20
1309.3641
 30
0
 40
0.915
 39
  0
0
CIRCLE
8
JA
 10
10.16
 20
1309.3641
 30
0
 40
0.915
 39
  0
0
CIRCLE
8
JA
 10
12.7
 20
1309.3641
 30
0
 40
0.585
 39
  0
0
CIRCLE
8
JA
 10
20.32
 20
1309.3641
 30
0
 40
0.915
 39
  0
0
CIRCLE
8
JA
 10
12.7
 20
1306.8241
 30
0
 40
0.585
 39
  0
0
CIRCLE
8
JA
 10
20.32
 20
1306.8241
 30
0
 40
0.915
 39
  0
0
CIRCLE
8
JA
 10
2.54
 20
1304.284
 30
0
 40
0.915
 39
  0
0
CIRCLE
8
JA
 10
7.62
 20
1304.284
 30
0
 40
0.915
 39
  0
0
CIRCLE
8
JA
 10
10.16
 20
1304.284
 30
0
 40
0.915
 39
  0
0
CIRCLE
8
JA
 10
12.7
 20
1304.284
 30
0
 40
0.585
 39
  0
0
CIRCLE
8
JA
 10
15.24
 20
1304.284
 30
0
 40
0.915
 39
  0
0
CIRCLE
8
JA
 10
20.32
 20
1304.284
 30
0
 40
0.915
 39
  0
0
CIRCLE
8
JA
 10
2.54
 20
1301.744
 30
0
 40
0.915
 39
  0
0
CIRCLE
8
JA
 10
12.7
 20
1301.744
 30
0
 40
0.585
 39
  0
0
CIRCLE
8
JA
 10
20.32
 20
1301.744
 30
0
 40
0.915
 39
  0
0
CIRCLE
8
JA
 10
12.7
 20
1299.204
 30
0
 40
0.585
 39
  0
0
CIRCLE
8
JA
 10
15.24
 20
1299.204
 30
0
 40
0.915
 39
  0
0
CIRCLE
8
JA
 10
20.32
 20
1299.204
 30
0
 40
0.915
 39
  0
0
CIRCLE
8
JA
 10
2.54
 20
1296.664
 30
0
 40
0.915
 39
  0
0
CIRCLE
8
JA
 10
5.08
 20
1296.664
 30
0
 40
0.915
 39
  0
0
CIRCLE
8
JA
 10
7.62
 20
1296.664
 30
0
 40
0.915
 39
  0
0
CIRCLE
8
JA
 10
12.7
 20
1296.664
 30
0
 40
0.585
 39
  0
0
CIRCLE
8
JA
 10
15.24
 20
1296.664
 30
0
 40
0.915
 39
  0
0
CIRCLE
8
JA
 10
20.32
 20
1296.664
 30
0
 40
0.915
 39
  0
0
CIRCLE
8
JA
 10
5.08
 20
1294.1239
 30
0
 40
0.915
 39
  0
0
CIRCLE
8
JA
 10
12.7
 20
1294.1239
 30
0
 40
0.585
 39
  0
0
CIRCLE
8
JA
 10
20.32
 20
1294.1239
 30
0
 40
0.915
 39
  0
0
CIRCLE
8
JA
 10
10.16
 20
1291.5839
 30
0
 40
0.915
 39
  0
0
CIRCLE
8
JA
 10
12.7
 20
1291.5839
 30
0
 40
0.585
 39
  0
0
CIRCLE
8
JA
 10
20.32
 20
1291.5839
 30
0
 40
0.915
 39
  0
0
CIRCLE
8
JA
 10
5.08
 20
1289.0438
 30
0
 40
0.915
 39
  0
0
CIRCLE
8
JA
 10
12.7
 20
1289.0438
 30
0
 40
0.585
 39
  0
0
CIRCLE
8
JA
 10
15.24
 20
1289.0438
 30
0
 40
0.915
 39
  0
0
CIRCLE
8
JA
 10
17.779999
 20
1289.0438
 30
0
 40
0.915
 39
  0
0
CIRCLE
8
JA
 10
20.32
 20
1289.0438
 30
0
 40
0.915
 39
  0
0
CIRCLE
8
JA
 10
5.08
 20
1286.5038
 30
0
 40
0.915
 39
  0
0
CIRCLE
8
JA
 10
12.7
 20
1286.5038
 30
0
 40
0.585
 39
  0
0
CIRCLE
8
JA
 10
20.32
 20
1286.5038
 30
0
 40
0.915
 39
  0
0
CIRCLE
8
JA
 10
12.7
 20
1283.9637
 30
0
 40
0.585
 39
  0
0
CIRCLE
8
JA
 10
15.24
 20
1283.9637
 30
0
 40
0.915
 39
  0
0
CIRCLE
8
JA
 10
20.32
 20
1283.9637
 30
0
 40
0.915
 39
  0
0
CIRCLE
8
JA
 10
2.54
 20
1281.4237
 30
0
 40
0.915
 39
  0
0
CIRCLE
8
JA
 10
5.08
 20
1281.4237
 30
0
 40
0.915
 39
  0
0
CIRCLE
8
JA
 10
10.16
 20
1281.4237
 30
0
 40
0.915
 39
  0
0
CIRCLE
8
JA
 10
12.7
 20
1281.4237
 30
0
 40
0.585
 39
  0
0
CIRCLE
8
JA
 10
20.32
 20
1281.4237
 30
0
 40
0.915
 39
  0
0
CIRCLE
8
JA
 10
2.54
 20
1278.8837
 30
0
 40
0.915
 39
  0
0
CIRCLE
8
JA
 10
12.7
 20
1278.8837
 30
0
 40
0.585
 39
  0
0
CIRCLE
8
JA
 10
20.32
 20
1278.8837
 30
0
 40
0.915
 39
  0
0
CIRCLE
8
JA
 10
12.7
 20
1276.3436
 30
0
 40
0.585
 39
  0
0
CIRCLE
8
JA
 10
15.24
 20
1276.3436
 30
0
 40
0.915
 39
  0
0
CIRCLE
8
JA
 10
20.32
 20
1276.3436
 30
0
 40
0.915
 39
  0
0
CIRCLE
8
JA
 10
2.54
 20
1273.8036
 30
0
 40
0.915
 39
  0
0
CIRCLE
8
JA
 10
5.08
 20
1273.8036
 30
0
 40
0.915
 39
  0
0
CIRCLE
8
JA
 10
7.62
 20
1273.8036
 30
0
 40
0.915
 39
  0
0
CIRCLE
8
JA
 10
12.7
 20
1273.8036
 30
0
 40
0.585
 39
  0
0
CIRCLE
8
JA
 10
15.24
 20
1273.8036
 30
0
 40
0.915
 39
  0
0
CIRCLE
8
JA
 10
17.779999
 20
1273.8036
 30
0
 40
0.915
 39
  0
0
CIRCLE
8
JA
 10
20.32
 20
1273.8036
 30
0
 40
0.915
 39
  0
0
CIRCLE
8
JA
 10
5.08
 20
1271.2635
 30
0
 40
0.915
 39
  0
0
CIRCLE
8
JA
 10
7.62
 20
1271.2635
 30
0
 40
0.915
 39
  0
0
CIRCLE
8
JA
 10
10.16
 20
1271.2635
 30
0
 40
0.915
 39
  0
0
CIRCLE
8
JA
 10
12.7
 20
1271.2635
 30
0
 40
0.585
 39
  0
0
CIRCLE
8
JA
 10
15.24
 20
1271.2635
 30
0
 40
0.915
 39
  0
0
CIRCLE
8
JA
 10
20.32
 20
1271.2635
 30
0
 40
0.915
 39
  0
0
CIRCLE
8
JA
 10
10.16
 20
1268.7235
 30
0
 40
0.915
 39
  0
0
CIRCLE
8
JA
 10
12.7
 20
1268.7235
 30
0
 40
0.585
 39
  0
0
CIRCLE
8
JA
 10
20.32
 20
1268.7235
 30
0
 40
0.915
 39
  0
0
CIRCLE
8
JA
 10
2.54
 20
1266.1835
 30
0
 40
0.915
 39
  0
0
CIRCLE
8
JA
 10
5.08
 20
1266.1835
 30
0
 40
0.915
 39
  0
0
CIRCLE
8
JA
 10
12.7
 20
1266.1835
 30
0
 40
0.585
 39
  0
0
CIRCLE
8
JA
 10
20.32
 20
1266.1835
 30
0
 40
0.915
 39
  0
0
CIRCLE
8
JA
 10
5.08
 20
1263.6434
 30
0
 40
0.915
 39
  0
0
CIRCLE
8
JA
 10
12.7
 20
1263.6434
 30
0
 40
0.585
 39
  0
0
CIRCLE
8
JA
 10
20.32
 20
1263.6434
 30
0
 40
0.915
 39
  0
0
CIRCLE
8
JA
 10
12.7
 20
1261.1034
 30
0
 40
0.585
 39
  0
0
CIRCLE
8
JA
 10
15.24
 20
1261.1034
 30
0
 40
0.915
 39
  0
0
CIRCLE
8
JA
 10
20.32
 20
1261.1034
 30
0
 40
0.915
 39
  0
0
CIRCLE
8
JA
 10
2.54
 20
1258.5634
 30
0
 40
0.915
 39
  0
0
CIRCLE
8
JA
 10
5.08
 20
1258.5634
 30
0
 40
0.915
 39
  0
0
CIRCLE
8
JA
 10
10.16
 20
1258.5634
 30
0
 40
0.915
 39
  0
0
CIRCLE
8
JA
 10
12.7
 20
1258.5634
 30
0
 40
0.585
 39
  0
0
CIRCLE
8
JA
 10
17.779999
 20
1258.5634
 30
0
 40
0.915
 39
  0
0
CIRCLE
8
JA
 10
20.32
 20
1258.5634
 30
0
 40
0.915
 39
  0
0
CIRCLE
8
JA
 10
2.54
 20
1256.0233
 30
0
 40
0.915
 39
  0
0
CIRCLE
8
JA
 10
12.7
 20
1256.0233
 30
0
 40
0.585
 39
  0
0
CIRCLE
8
JA
 10
20.32
 20
1256.0233
 30
0
 40
0.915
 39
  0
0
CIRCLE
8
JA
 10
12.7
 20
1253.4833
 30
0
 40
0.585
 39
  0
0
CIRCLE
8
JA
 10
20.32
 20
1253.4833
 30
0
 40
0.915
 39
  0
0
CIRCLE
8
JA
 10
12.7
 20
1250.9432
 30
0
 40
0.585
 39
  0
0
CIRCLE
8
JA
 10
20.32
 20
1250.9432
 30
0
 40
0.915
 39
  0
0
CIRCLE
8
JA
 10
5.08
 20
1248.4032
 30
0
 40
0.915
 39
  0
0
CIRCLE
8
JA
 10
12.7
 20
1248.4032
 30
0
 40
0.585
 39
  0
0
CIRCLE
8
JA
 10
20.32
 20
1248.4032
 30
0
 40
0.915
 39
  0
0
CIRCLE
8
JA
 10
12.7
 20
1245.8632
 30
0
 40
0.585
 39
  0
0
CIRCLE
8
JA
 10
15.24
 20
1245.8632
 30
0
 40
0.915
 39
  0
0
CIRCLE
8
JA
 10
20.32
 20
1245.8632
 30
0
 40
0.915
 39
  0
0
CIRCLE
8
JA
 10
2.54
 20
1243.3231
 30
0
 40
0.915
 39
  0
0
CIRCLE
8
JA
 10
5.08
 20
1243.3231
 30
0
 40
0.915
 39
  0
0
CIRCLE
8
JA
 10
10.16
 20
1243.3231
 30
0
 40
0.915
 39
  0
0
CIRCLE
8
JA
 10
12.7
 20
1243.3231
 30
0
 40
0.585
 39
  0
0
CIRCLE
8
JA
 10
15.24
 20
1243.3231
 30
0
 40
0.915
 39
  0
0
CIRCLE
8
JA
 10
20.32
 20
1243.3231
 30
0
 40
0.915
 39
  0
0
CIRCLE
8
JA
 10
2.54
 20
1240.7831
 30
0
 40
0.915
 39
  0
0
CIRCLE
8
JA
 10
12.7
 20
1240.7831
 30
0
 40
0.585
 39
  0
0
CIRCLE
8
JA
 10
20.32
 20
1240.7831
 30
0
 40
0.915
 39
  0
0
CIRCLE
8
JA
 10
12.7
 20
1238.243
 30
0
 40
0.585
 39
  0
0
CIRCLE
8
JA
 10
15.24
 20
1238.243
 30
0
 40
0.915
 39
  0
0
CIRCLE
8
JA
 10
20.32
 20
1238.243
 30
0
 40
0.915
 39
  0
0
CIRCLE
8
JA
 10
2.54
 20
1235.703
 30
0
 40
0.915
 39
  0
0
CIRCLE
8
JA
 10
5.08
 20
1235.703
 30
0
 40
0.915
 39
  0
0
CIRCLE
8
JA
 10
7.62
 20
1235.703
 30
0
 40
0.915
 39
  0
0
CIRCLE
8
JA
 10
10.16
 20
1235.703
 30
0
 40
0.915
 39
  0
0
CIRCLE
8
JA
 10
12.7
 20
1235.703
 30
0
 40
0.585
 39
  0
0
CIRCLE
8
JA
 10
15.24
 20
1235.703
 30
0
 40
0.915
 39
  0
0
CIRCLE
8
JA
 10
17.779999
 20
1235.703
 30
0
 40
0.915
 39
  0
0
CIRCLE
8
JA
 10
20.32
 20
1235.703
 30
0
 40
0.915
 39
  0
0
CIRCLE
8
JA
 10
2.54
 20
1233.163
 30
0
 40
0.915
 39
  0
0
CIRCLE
8
JA
 10
10.16
 20
1233.163
 30
0
 40
0.915
 39
  0
0
CIRCLE
8
JA
 10
12.7
 20
1233.163
 30
0
 40
0.585
 39
  0
0
CIRCLE
8
JA
 10
20.32
 20
1233.163
 30
0
 40
0.915
 39
  0
0
CIRCLE
8
JA
 10
10.16
 20
1230.6229
 30
0
 40
0.915
 39
  0
0
CIRCLE
8
JA
 10
12.7
 20
1230.6229
 30
0
 40
0.585
 39
  0
0
CIRCLE
8
JA
 10
20.32
 20
1230.6229
 30
0
 40
0.915
 39
  0
0
CIRCLE
8
JA
 10
12.7
 20
1228.0829
 30
0
 40
0.585
 39
  0
0
CIRCLE
8
JA
 10
15.24
 20
1228.0829
 30
0
 40
0.915
 39
  0
0
CIRCLE
8
JA
 10
20.32
 20
1228.0829
 30
0
 40
0.915
 39
  0
0
CIRCLE
8
JA
 10
5.08
 20
1225.5428
 30
0
 40
0.915
 39
  0
0
CIRCLE
8
JA
 10
7.62
 20
1225.5428
 30
0
 40
0.915
 39
  0
0
CIRCLE
8
JA
 10
10.16
 20
1225.5428
 30
0
 40
0.915
 39
  0
0
CIRCLE
8
JA
 10
12.7
 20
1225.5428
 30
0
 40
0.585
 39
  0
0
CIRCLE
8
JA
 10
20.32
 20
1225.5428
 30
0
 40
0.915
 39
  0
0
CIRCLE
8
JA
 10
12.7
 20
1223.0028
 30
0
 40
0.585
 39
  0
0
CIRCLE
8
JA
 10
20.32
 20
1223.0028
 30
0
 40
0.915
 39
  0
0
CIRCLE
8
JA
 10
2.54
 20
1220.4628
 30
0
 40
0.915
 39
  0
0
CIRCLE
8
JA
 10
5.08
 20
1220.4628
 30
0
 40
0.915
 39
  0
0
CIRCLE
8
JA
 10
7.62
 20
1220.4628
 30
0
 40
0.915
 39
  0
0
CIRCLE
8
JA
 10
10.16
 20
1220.4628
 30
0
 40
0.915
 39
  0
0
CIRCLE
8
JA
 10
12.7
 20
1220.4628
 30
0
 40
0.585
 39
  0
0
CIRCLE
8
JA
 10
17.779999
 20
1220.4628
 30
0
 40
0.915
 39
  0
0
CIRCLE
8
JA
 10
20.32
 20
1220.4628
 30
0
 40
0.915
 39
  0
0
CIRCLE
8
JA
 10
2.54
 20
1217.9227
 30
0
 40
0.915
 39
  0
0
CIRCLE
8
JA
 10
12.7
 20
1217.9227
 30
0
 40
0.585
 39
  0
0
CIRCLE
8
JA
 10
20.32
 20
1217.9227
 30
0
 40
0.915
 39
  0
0
CIRCLE
8
JA
 10
12.7
 20
1215.3827
 30
0
 40
0.585
 39
  0
0
CIRCLE
8
JA
 10
15.24
 20
1215.3827
 30
0
 40
0.915
 39
  0
0
CIRCLE
8
JA
 10
20.32
 20
1215.3827
 30
0
 40
0.915
 39
  0
0
CIRCLE
8
JA
 10
2.54
 20
1212.8427
 30
0
 40
0.915
 39
  0
0
CIRCLE
8
JA
 10
5.08
 20
1212.8427
 30
0
 40
0.915
 39
  0
0
CIRCLE
8
JA
 10
10.16
 20
1212.8427
 30
0
 40
0.915
 39
  0
0
CIRCLE
8
JA
 10
12.7
 20
1212.8427
 30
0
 40
0.585
 39
  0
0
CIRCLE
8
JA
 10
20.32
 20
1212.8427
 30
0
 40
0.915
 39
  0
0
CIRCLE
8
JA
 10
2.54
 20
1210.3026
 30
0
 40
0.915
 39
  0
0
CIRCLE
8
JA
 10
10.16
 20
1210.3026
 30
0
 40
0.915
 39
  0
0
CIRCLE
8
JA
 10
12.7
 20
1210.3026
 30
0
 40
0.585
 39
  0
0
CIRCLE
8
JA
 10
20.32
 20
1210.3026
 30
0
 40
0.915
 39
  0
0
CIRCLE
8
JA
 10
12.7
 20
1207.7626
 30
0
 40
0.585
 39
  0
0
CIRCLE
8
JA
 10
15.24
 20
1207.7626
 30
0
 40
0.915
 39
  0
0
CIRCLE
8
JA
 10
20.32
 20
1207.7626
 30
0
 40
0.915
 39
  0
0
CIRCLE
8
JA
 10
2.54
 20
1205.2225
 30
0
 40
0.915
 39
  0
0
CIRCLE
8
JA
 10
5.08
 20
1205.2225
 30
0
 40
0.915
 39
  0
0
CIRCLE
8
JA
 10
7.62
 20
1205.2225
 30
0
 40
0.915
 39
  0
0
CIRCLE
8
JA
 10
10.16
 20
1205.2225
 30
0
 40
0.915
 39
  0
0
CIRCLE
8
JA
 10
12.7
 20
1205.2225
 30
0
 40
0.585
 39
  0
0
CIRCLE
8
JA
 10
20.32
 20
1205.2225
 30
0
 40
0.915
 39
  0
0
CIRCLE
8
JA
 10
5.08
 20
1202.6825
 30
0
 40
0.915
 39
  0
0
CIRCLE
8
JA
 10
12.7
 20
1202.6825
 30
0
 40
0.585
 39
  0
0
CIRCLE
8
JA
 10
20.32
 20
1202.6825
 30
0
 40
0.915
 39
  0
0
CIRCLE
8
JA
 10
10.16
 20
1200.1425
 30
0
 40
0.915
 39
  0
0
CIRCLE
8
JA
 10
12.7
 20
1200.1425
 30
0
 40
0.585
 39
  0
0
CIRCLE
8
JA
 10
20.32
 20
1200.1425
 30
0
 40
0.915
 39
  0
0
CIRCLE
8
JA
 10
5.08
 20
1197.6024
 30
0
 40
0.915
 39
  0
0
CIRCLE
8
JA
 10
12.7
 20
1197.6024
 30
0
 40
0.585
 39
  0
0
CIRCLE
8
JA
 10
15.24
 20
1197.6024
 30
0
 40
0.915
 39
  0
0
CIRCLE
8
JA
 10
17.779999
 20
1197.6024
 30
0
 40
0.915
 39
  0
0
CIRCLE
8
JA
 10
20.32
 20
1197.6024
 30
0
 40
0.915
 39
  0
0
CIRCLE
8
JA
 10
5.08
 20
1195.0624
 30
0
 40
0.915
 39
  0
0
CIRCLE
8
JA
 10
12.7
 20
1195.0624
 30
0
 40
0.585
 39
  0
0
CIRCLE
8
JA
 10
20.32
 20
1195.0624
 30
0
 40
0.915
 39
  0
0
CIRCLE
8
JA
 10
12.7
 20
1192.5223
 30
0
 40
0.585
 39
  0
0
CIRCLE
8
JA
 10
15.24
 20
1192.5223
 30
0
 40
0.915
 39
  0
0
CIRCLE
8
JA
 10
20.32
 20
1192.5223
 30
0
 40
0.915
 39
  0
0
CIRCLE
8
JA
 10
2.54
 20
1189.9823
 30
0
 40
0.915
 39
  0
0
CIRCLE
8
JA
 10
5.08
 20
1189.9823
 30
0
 40
0.915
 39
  0
0
CIRCLE
8
JA
 10
10.16
 20
1189.9823
 30
0
 40
0.915
 39
  0
0
CIRCLE
8
JA
 10
12.7
 20
1189.9823
 30
0
 40
0.585
 39
  0
0
CIRCLE
8
JA
 10
20.32
 20
1189.9823
 30
0
 40
0.915
 39
  0
0
CIRCLE
8
JA
 10
2.54
 20
1187.4423
 30
0
 40
0.915
 39
  0
0
CIRCLE
8
JA
 10
12.7
 20
1187.4423
 30
0
 40
0.585
 39
  0
0
CIRCLE
8
JA
 10
20.32
 20
1187.4423
 30
0
 40
0.915
 39
  0
0
CIRCLE
8
JA
 10
12.7
 20
1184.9022
 30
0
 40
0.585
 39
  0
0
CIRCLE
8
JA
 10
15.24
 20
1184.9022
 30
0
 40
0.915
 39
  0
0
CIRCLE
8
JA
 10
20.32
 20
1184.9022
 30
0
 40
0.915
 39
  0
0
CIRCLE
8
JA
 10
2.54
 20
1182.3622
 30
0
 40
0.915
 39
  0
0
CIRCLE
8
JA
 10
5.08
 20
1182.3622
 30
0
 40
0.915
 39
  0
0
CIRCLE
8
JA
 10
10.16
 20
1182.3622
 30
0
 40
0.915
 39
  0
0
CIRCLE
8
JA
 10
12.7
 20
1182.3622
 30
0
 40
0.585
 39
  0
0
CIRCLE
8
JA
 10
15.24
 20
1182.3622
 30
0
 40
0.915
 39
  0
0
CIRCLE
8
JA
 10
20.32
 20
1182.3622
 30
0
 40
0.915
 39
  0
0
CIRCLE
8
JA
 10
2.54
 20
1179.8221
 30
0
 40
0.915
 39
  0
0
CIRCLE
8
JA
 10
10.16
 20
1179.8221
 30
0
 40
0.915
 39
  0
0
CIRCLE
8
JA
 10
12.7
 20
1179.8221
 30
0
 40
0.585
 39
  0
0
CIRCLE
8
JA
 10
15.24
 20
1179.8221
 30
0
 40
0.915
 39
  0
0
CIRCLE
8
JA
 10
20.32
 20
1179.8221
 30
0
 40
0.915
 39
  0
0
CIRCLE
8
JA
 10
12.7
 20
1177.2821
 30
0
 40
0.585
 39
  0
0
CIRCLE
8
JA
 10
15.24
 20
1177.2821
 30
0
 40
0.915
 39
  0
0
CIRCLE
8
JA
 10
20.32
 20
1177.2821
 30
0
 40
0.915
 39
  0
0
CIRCLE
8
JA
 10
2.54
 20
1174.7421
 30
0
 40
0.915
 39
  0
0
CIRCLE
8
JA
 10
5.08
 20
1174.7421
 30
0
 40
0.915
 39
  0
0
CIRCLE
8
JA
 10
7.62
 20
1174.7421
 30
0
 40
0.915
 39
  0
0
CIRCLE
8
JA
 10
12.7
 20
1174.7421
 30
0
 40
0.585
 39
  0
0
CIRCLE
8
JA
 10
20.32
 20
1174.7421
 30
0
 40
0.915
 39
  0
0
CIRCLE
8
JA
 10
5.08
 20
1172.202
 30
0
 40
0.915
 39
  0
0
CIRCLE
8
JA
 10
12.7
 20
1172.202
 30
0
 40
0.585
 39
  0
0
CIRCLE
8
JA
 10
20.32
 20
1172.202
 30
0
 40
0.915
 39
  0
0
CIRCLE
8
JA
 10
12.7
 20
1169.662
 30
0
 40
0.585
 39
  0
0
CIRCLE
8
JA
 10
15.24
 20
1169.662
 30
0
 40
0.915
 39
  0
0
CIRCLE
8
JA
 10
20.32
 20
1169.662
 30
0
 40
0.915
 39
  0
0
CIRCLE
8
JA
 10
2.54
 20
1167.122
 30
0
 40
0.915
 39
  0
0
CIRCLE
8
JA
 10
5.08
 20
1167.122
 30
0
 40
0.915
 39
  0
0
CIRCLE
8
JA
 10
10.16
 20
1167.122
 30
0
 40
0.915
 39
  0
0
CIRCLE
8
JA
 10
12.7
 20
1167.122
 30
0
 40
0.585
 39
  0
0
CIRCLE
8
JA
 10
15.24
 20
1167.122
 30
0
 40
0.915
 39
  0
0
CIRCLE
8
JA
 10
20.32
 20
1167.122
 30
0
 40
0.915
 39
  0
0
CIRCLE
8
JA
 10
2.54
 20
1164.5819
 30
0
 40
0.915
 39
  0
0
CIRCLE
8
JA
 10
10.16
 20
1164.5819
 30
0
 40
0.915
 39
  0
0
CIRCLE
8
JA
 10
12.7
 20
1164.5819
 30
0
 40
0.585
 39
  0
0
CIRCLE
8
JA
 10
15.24
 20
1164.5819
 30
0
 40
0.915
 39
  0
0
CIRCLE
8
JA
 10
20.32
 20
1164.5819
 30
0
 40
0.915
 39
  0
0
CIRCLE
8
JA
 10
12.7
 20
1162.0419
 30
0
 40
0.585
 39
  0
0
CIRCLE
8
JA
 10
15.24
 20
1162.0419
 30
0
 40
0.915
 39
  0
0
CIRCLE
8
JA
 10
20.32
 20
1162.0419
 30
0
 40
0.915
 39
  0
0
CIRCLE
8
JA
 10
2.54
 20
1159.5018
 30
0
 40
0.915
 39
  0
0
CIRCLE
8
JA
 10
5.08
 20
1159.5018
 30
0
 40
0.915
 39
  0
0
CIRCLE
8
JA
 10
7.62
 20
1159.5018
 30
0
 40
0.915
 39
  0
0
CIRCLE
8
JA
 10
10.16
 20
1159.5018
 30
0
 40
0.915
 39
  0
0
CIRCLE
8
JA
 10
12.7
 20
1159.5018
 30
0
 40
0.585
 39
  0
0
CIRCLE
8
JA
 10
15.24
 20
1159.5018
 30
0
 40
0.915
 39
  0
0
CIRCLE
8
JA
 10
20.32
 20
1159.5018
 30
0
 40
0.915
 39
  0
0
CIRCLE
8
JA
 10
2.54
 20
1156.9618
 30
0
 40
0.915
 39
  0
0
CIRCLE
8
JA
 10
5.08
 20
1156.9618
 30
0
 40
0.915
 39
  0
0
CIRCLE
8
JA
 10
12.7
 20
1156.9618
 30
0
 40
0.585
 39
  0
0
CIRCLE
8
JA
 10
20.32
 20
1156.9618
 30
0
 40
0.915
 39
  0
0
CIRCLE
8
JA
 10
12.7
 20
1154.4218
 30
0
 40
0.585
 39
  0
0
CIRCLE
8
JA
 10
15.24
 20
1154.4218
 30
0
 40
0.915
 39
  0
0
CIRCLE
8
JA
 10
20.32
 20
1154.4218
 30
0
 40
0.915
 39
  0
0
CIRCLE
8
JA
 10
2.54
 20
1151.8817
 30
0
 40
0.915
 39
  0
0
CIRCLE
8
JA
 10
5.08
 20
1151.8817
 30
0
 40
0.915
 39
  0
0
CIRCLE
8
JA
 10
7.62
 20
1151.8817
 30
0
 40
0.915
 39
  0
0
CIRCLE
8
JA
 10
12.7
 20
1151.8817
 30
0
 40
0.585
 39
  0
0
CIRCLE
8
JA
 10
17.779999
 20
1151.8817
 30
0
 40
0.915
 39
  0
0
CIRCLE
8
JA
 10
20.32
 20
1151.8817
 30
0
 40
0.915
 39
  0
0
CIRCLE
8
JA
 10
2.54
 20
1149.3417
 30
0
 40
0.915
 39
  0
0
CIRCLE
8
JA
 10
10.16
 20
1149.3417
 30
0
 40
0.915
 39
  0
0
CIRCLE
8
JA
 10
12.7
 20
1149.3417
 30
0
 40
0.585
 39
  0
0
CIRCLE
8
JA
 10
20.32
 20
1149.3417
 30
0
 40
0.915
 39
  0
0
CIRCLE
8
JA
 10
12.7
 20
1146.8016
 30
0
 40
0.585
 39
  0
0
CIRCLE
8
JA
 10
15.24
 20
1146.8016
 30
0
 40
0.915
 39
  0
0
CIRCLE
8
JA
 10
20.32
 20
1146.8016
 30
0
 40
0.915
 39
  0
0
CIRCLE
8
JA
 10
2.54
 20
1144.2616
 30
0
 40
0.915
 39
  0
0
CIRCLE
8
JA
 10
5.08
 20
1144.2616
 30
0
 40
0.915
 39
  0
0
CIRCLE
8
JA
 10
10.16
 20
1144.2616
 30
0
 40
0.915
 39
  0
0
CIRCLE
8
JA
 10
12.7
 20
1144.2616
 30
0
 40
0.585
 39
  0
0
CIRCLE
8
JA
 10
17.779999
 20
1144.2616
 30
0
 40
0.915
 39
  0
0
CIRCLE
8
JA
 10
20.32
 20
1144.2616
 30
0
 40
0.915
 39
  0
0
CIRCLE
8
JA
 10
5.08
 20
1141.7216
 30
0
 40
0.915
 39
  0
0
CIRCLE
8
JA
 10
12.7
 20
1141.7216
 30
0
 40
0.585
 39
  0
0
CIRCLE
8
JA
 10
20.32
 20
1141.7216
 30
0
 40
0.915
 39
  0
0
CIRCLE
8
JA
 10
12.7
 20
1139.1815
 30
0
 40
0.585
 39
  0
0
CIRCLE
8
JA
 10
15.24
 20
1139.1815
 30
0
 40
0.915
 39
  0
0
CIRCLE
8
JA
 10
20.32
 20
1139.1815
 30
0
 40
0.915
 39
  0
0
CIRCLE
8
JA
 10
2.54
 20
1136.6415
 30
0
 40
0.915
 39
  0
0
CIRCLE
8
JA
 10
5.08
 20
1136.6415
 30
0
 40
0.915
 39
  0
0
CIRCLE
8
JA
 10
10.16
 20
1136.6415
 30
0
 40
0.915
 39
  0
0
CIRCLE
8
JA
 10
12.7
 20
1136.6415
 30
0
 40
0.585
 39
  0
0
CIRCLE
8
JA
 10
17.779999
 20
1136.6415
 30
0
 40
0.915
 39
  0
0
CIRCLE
8
JA
 10
20.32
 20
1136.6415
 30
0
 40
0.915
 39
  0
0
CIRCLE
8
JA
 10
2.54
 20
1134.1014
 30
0
 40
0.915
 39
  0
0
CIRCLE
8
JA
 10
5.08
 20
1134.1014
 30
0
 40
0.915
 39
  0
0
CIRCLE
8
JA
 10
7.62
 20
1134.1014
 30
0
 40
0.915
 39
  0
0
CIRCLE
8
JA
 10
12.7
 20
1134.1014
 30
0
 40
0.585
 39
  0
0
CIRCLE
8
JA
 10
20.32
 20
1134.1014
 30
0
 40
0.915
 39
  0
0
CIRCLE
8
JA
 10
12.7
 20
1131.5614
 30
0
 40
0.585
 39
  0
0
CIRCLE
8
JA
 10
20.32
 20
1131.5614
 30
0
 40
0.915
 39
  0
0
CIRCLE
8
JA
 10
12.7
 20
1129.0214
 30
0
 40
0.585
 39
  0
0
CIRCLE
8
JA
 10
17.779999
 20
1129.0214
 30
0
 40
0.915
 39
  0
0
CIRCLE
8
JA
 10
20.32
 20
1129.0214
 30
0
 40
0.915
 39
  0
0
CIRCLE
8
JA
 10
2.54
 20
1126.4813
 30
0
 40
0.915
 39
  0
0
CIRCLE
8
JA
 10
10.16
 20
1126.4813
 30
0
 40
0.915
 39
  0
0
CIRCLE
8
JA
 10
12.7
 20
1126.4813
 30
0
 40
0.585
 39
  0
0
CIRCLE
8
JA
 10
15.24
 20
1126.4813
 30
0
 40
0.915
 39
  0
0
CIRCLE
8
JA
 10
20.32
 20
1126.4813
 30
0
 40
0.915
 39
  0
0
CIRCLE
8
JA
 10
12.7
 20
1123.9413
 30
0
 40
0.585
 39
  0
0
CIRCLE
8
JA
 10
15.24
 20
1123.9413
 30
0
 40
0.915
 39
  0
0
CIRCLE
8
JA
 10
20.32
 20
1123.9413
 30
0
 40
0.915
 39
  0
0
CIRCLE
8
JA
 10
2.54
 20
1121.4012
 30
0
 40
0.915
 39
  0
0
CIRCLE
8
JA
 10
5.08
 20
1121.4012
 30
0
 40
0.915
 39
  0
0
CIRCLE
8
JA
 10
7.62
 20
1121.4012
 30
0
 40
0.915
 39
  0
0
CIRCLE
8
JA
 10
10.16
 20
1121.4012
 30
0
 40
0.915
 39
  0
0
CIRCLE
8
JA
 10
12.7
 20
1121.4012
 30
0
 40
0.585
 39
  0
0
CIRCLE
8
JA
 10
15.24
 20
1121.4012
 30
0
 40
0.915
 39
  0
0
CIRCLE
8
JA
 10
17.779999
 20
1121.4012
 30
0
 40
0.915
 39
  0
0
CIRCLE
8
JA
 10
20.32
 20
1121.4012
 30
0
 40
0.915
 39
  0
0
CIRCLE
8
JA
 10
5.08
 20
1118.8612
 30
0
 40
0.915
 39
  0
0
CIRCLE
8
JA
 10
7.62
 20
1118.8612
 30
0
 40
0.915
 39
  0
0
CIRCLE
8
JA
 10
10.16
 20
1118.8612
 30
0
 40
0.915
 39
  0
0
CIRCLE
8
JA
 10
12.7
 20
1118.8612
 30
0
 40
0.585
 39
  0
0
CIRCLE
8
JA
 10
20.32
 20
1118.8612
 30
0
 40
0.915
 39
  0
0
CIRCLE
8
JA
 10
12.7
 20
1116.3212
 30
0
 40
0.585
 39
  0
0
CIRCLE
8
JA
 10
15.24
 20
1116.3212
 30
0
 40
0.915
 39
  0
0
CIRCLE
8
JA
 10
20.32
 20
1116.3212
 30
0
 40
0.915
 39
  0
0
CIRCLE
8
JA
 10
7.62
 20
1113.7811
 30
0
 40
0.915
 39
  0
0
CIRCLE
8
JA
 10
10.16
 20
1113.7811
 30
0
 40
0.915
 39
  0
0
CIRCLE
8
JA
 10
12.7
 20
1113.7811
 30
0
 40
0.585
 39
  0
0
CIRCLE
8
JA
 10
15.24
 20
1113.7811
 30
0
 40
0.915
 39
  0
0
CIRCLE
8
JA
 10
17.779999
 20
1113.7811
 30
0
 40
0.915
 39
  0
0
CIRCLE
8
JA
 10
20.32
 20
1113.7811
 30
0
 40
0.915
 39
  0
0
CIRCLE
8
JA
 10
2.54
 20
1111.2411
 30
0
 40
0.915
 39
  0
0
CIRCLE
8
JA
 10
12.7
 20
1111.2411
 30
0
 40
0.585
 39
  0
0
CIRCLE
8
JA
 10
20.32
 20
1111.2411
 30
0
 40
0.915
 39
  0
0
CIRCLE
8
JA
 10
12.7
 20
1108.701
 30
0
 40
0.585
 39
  0
0
CIRCLE
8
JA
 10
15.24
 20
1108.701
 30
0
 40
0.915
 39
  0
0
CIRCLE
8
JA
 10
20.32
 20
1108.701
 30
0
 40
0.915
 39
  0
0
CIRCLE
8
JA
 10
2.54
 20
1106.161
 30
0
 40
0.915
 39
  0
0
CIRCLE
8
JA
 10
5.08
 20
1106.161
 30
0
 40
0.915
 39
  0
0
CIRCLE
8
JA
 10
10.16
 20
1106.161
 30
0
 40
0.915
 39
  0
0
CIRCLE
8
JA
 10
12.7
 20
1106.161
 30
0
 40
0.585
 39
  0
0
CIRCLE
8
JA
 10
17.779999
 20
1106.161
 30
0
 40
0.915
 39
  0
0
CIRCLE
8
JA
 10
20.32
 20
1106.161
 30
0
 40
0.915
 39
  0
0
CIRCLE
8
JA
 10
5.08
 20
1103.621
 30
0
 40
0.915
 39
  0
0
CIRCLE
8
JA
 10
7.62
 20
1103.621
 30
0
 40
0.915
 39
  0
0
CIRCLE
8
JA
 10
10.16
 20
1103.621
 30
0
 40
0.915
 39
  0
0
CIRCLE
8
JA
 10
12.7
 20
1103.621
 30
0
 40
0.585
 39
  0
0
CIRCLE
8
JA
 10
15.24
 20
1103.621
 30
0
 40
0.915
 39
  0
0
CIRCLE
8
JA
 10
20.32
 20
1103.621
 30
0
 40
0.915
 39
  0
0
CIRCLE
8
JA
 10
12.7
 20
1101.0809
 30
0
 40
0.585
 39
  0
0
CIRCLE
8
JA
 10
15.24
 20
1101.0809
 30
0
 40
0.915
 39
  0
0
CIRCLE
8
JA
 10
20.32
 20
1101.0809
 30
0
 40
0.915
 39
  0
0
CIRCLE
8
JA
 10
2.54
 20
1098.5409
 30
0
 40
0.915
 39
  0
0
CIRCLE
8
JA
 10
12.7
 20
1098.5409
 30
0
 40
0.585
 39
  0
0
CIRCLE
8
JA
 10
20.32
 20
1098.5409
 30
0
 40
0.915
 39
  0
0
CIRCLE
8
JA
 10
2.54
 20
1096.0009
 30
0
 40
0.915
 39
  0
0
CIRCLE
8
JA
 10
12.7
 20
1096.0009
 30
0
 40
0.585
 39
  0
0
CIRCLE
8
JA
 10
20.32
 20
1096.0009
 30
0
 40
0.915
 39
  0
0
CIRCLE
8
JA
 10
12.7
 20
1093.4608
 30
0
 40
0.585
 39
  0
0
CIRCLE
8
JA
 10
15.24
 20
1093.4608
 30
0
 40
0.915
 39
  0
0
CIRCLE
8
JA
 10
20.32
 20
1093.4608
 30
0
 40
0.915
 39
  0
0
CIRCLE
8
JA
 10
2.54
 20
1090.9208
 30
0
 40
0.915
 39
  0
0
CIRCLE
8
JA
 10
5.08
 20
1090.9208
 30
0
 40
0.915
 39
  0
0
CIRCLE
8
JA
 10
10.16
 20
1090.9208
 30
0
 40
0.915
 39
  0
0
CIRCLE
8
JA
 10
12.7
 20
1090.9208
 30
0
 40
0.585
 39
  0
0
CIRCLE
8
JA
 10
20.32
 20
1090.9208
 30
0
 40
0.915
 39
  0
0
CIRCLE
8
JA
 10
2.54
 20
1088.3807
 30
0
 40
0.915
 39
  0
0
CIRCLE
8
JA
 10
5.08
 20
1088.3807
 30
0
 40
0.915
 39
  0
0
CIRCLE
8
JA
 10
7.62
 20
1088.3807
 30
0
 40
0.915
 39
  0
0
CIRCLE
8
JA
 10
12.7
 20
1088.3807
 30
0
 40
0.585
 39
  0
0
CIRCLE
8
JA
 10
20.32
 20
1088.3807
 30
0
 40
0.915
 39
  0
0
CIRCLE
8
JA
 10
12.7
 20
1085.8407
 30
0
 40
0.585
 39
  0
0
CIRCLE
8
JA
 10
20.32
 20
1085.8407
 30
0
 40
0.915
 39
  0
0
CIRCLE
8
JA
 10
12.7
 20
1083.3007
 30
0
 40
0.585
 39
  0
0
CIRCLE
8
JA
 10
17.779999
 20
1083.3007
 30
0
 40
0.915
 39
  0
0
CIRCLE
8
JA
 10
20.32
 20
1083.3007
 30
0
 40
0.915
 39
  0
0
CIRCLE
8
JA
 10
2.54
 20
1080.7606
 30
0
 40
0.915
 39
  0
0
CIRCLE
8
JA
 10
10.16
 20
1080.7606
 30
0
 40
0.915
 39
  0
0
CIRCLE
8
JA
 10
12.7
 20
1080.7606
 30
0
 40
0.585
 39
  0
0
CIRCLE
8
JA
 10
15.24
 20
1080.7606
 30
0
 40
0.915
 39
  0
0
CIRCLE
8
JA
 10
20.32
 20
1080.7606
 30
0
 40
0.915
 39
  0
0
CIRCLE
8
JA
 10
10.16
 20
1078.2206
 30
0
 40
0.915
 39
  0
0
CIRCLE
8
JA
 10
12.7
 20
1078.2206
 30
0
 40
0.585
 39
  0
0
CIRCLE
8
JA
 10
20.32
 20
1078.2206
 30
0
 40
0.915
 39
  0
0
CIRCLE
8
JA
 10
12.7
 20
1075.6805
 30
0
 40
0.585
 39
  0
0
CIRCLE
8
JA
 10
15.24
 20
1075.6805
 30
0
 40
0.915
 39
  0
0
CIRCLE
8
JA
 10
17.779999
 20
1075.6805
 30
0
 40
0.915
 39
  0
0
CIRCLE
8
JA
 10
20.32
 20
1075.6805
 30
0
 40
0.915
 39
  0
0
CIRCLE
8
JA
 10
5.08
 20
1073.1405
 30
0
 40
0.915
 39
  0
0
CIRCLE
8
JA
 10
7.62
 20
1073.1405
 30
0
 40
0.915
 39
  0
0
CIRCLE
8
JA
 10
10.16
 20
1073.1405
 30
0
 40
0.915
 39
  0
0
CIRCLE
8
JA
 10
12.7
 20
1073.1405
 30
0
 40
0.585
 39
  0
0
CIRCLE
8
JA
 10
20.32
 20
1073.1405
 30
0
 40
0.915
 39
  0
0
CIRCLE
8
JA
 10
12.7
 20
1070.6005
 30
0
 40
0.585
 39
  0
0
CIRCLE
8
JA
 10
15.24
 20
1070.6005
 30
0
 40
0.915
 39
  0
0
CIRCLE
8
JA
 10
20.32
 20
1070.6005
 30
0
 40
0.915
 39
  0
0
CIRCLE
8
JA
 10
5.08
 20
1068.0604
 30
0
 40
0.915
 39
  0
0
CIRCLE
8
JA
 10
7.62
 20
1068.0604
 30
0
 40
0.915
 39
  0
0
CIRCLE
8
JA
 10
10.16
 20
1068.0604
 30
0
 40
0.915
 39
  0
0
CIRCLE
8
JA
 10
12.7
 20
1068.0604
 30
0
 40
0.585
 39
  0
0
CIRCLE
8
JA
 10
20.32
 20
1068.0604
 30
0
 40
0.915
 39
  0
0
CIRCLE
8
JA
 10
2.54
 20
1065.5204
 30
0
 40
0.915
 39
  0
0
CIRCLE
8
JA
 10
10.16
 20
1065.5204
 30
0
 40
0.915
 39
  0
0
CIRCLE
8
JA
 10
12.7
 20
1065.5204
 30
0
 40
0.585
 39
  0
0
CIRCLE
8
JA
 10
15.24
 20
1065.5204
 30
0
 40
0.915
 39
  0
0
CIRCLE
8
JA
 10
20.32
 20
1065.5204
 30
0
 40
0.915
 39
  0
0
CIRCLE
8
JA
 10
10.16
 20
1062.9803
 30
0
 40
0.915
 39
  0
0
CIRCLE
8
JA
 10
12.7
 20
1062.9803
 30
0
 40
0.585
 39
  0
0
CIRCLE
8
JA
 10
20.32
 20
1062.9803
 30
0
 40
0.915
 39
  0
0
CIRCLE
8
JA
 10
10.16
 20
1060.4403
 30
0
 40
0.915
 39
  0
0
CIRCLE
8
JA
 10
12.7
 20
1060.4403
 30
0
 40
0.585
 39
  0
0
CIRCLE
8
JA
 10
17.779999
 20
1060.4403
 30
0
 40
0.915
 39
  0
0
CIRCLE
8
JA
 10
20.32
 20
1060.4403
 30
0
 40
0.915
 39
  0
0
CIRCLE
8
JA
 10
5.08
 20
1057.9003
 30
0
 40
0.915
 39
  0
0
CIRCLE
8
JA
 10
7.62
 20
1057.9003
 30
0
 40
0.915
 39
  0
0
CIRCLE
8
JA
 10
10.16
 20
1057.9003
 30
0
 40
0.915
 39
  0
0
CIRCLE
8
JA
 10
12.7
 20
1057.9003
 30
0
 40
0.585
 39
  0
0
CIRCLE
8
JA
 10
20.32
 20
1057.9003
 30
0
 40
0.915
 39
  0
0
CIRCLE
8
JA
 10
12.7
 20
1055.3602
 30
0
 40
0.585
 39
  0
0
CIRCLE
8
JA
 10
15.24
 20
1055.3602
 30
0
 40
0.915
 39
  0
0
CIRCLE
8
JA
 10
20.32
 20
1055.3602
 30
0
 40
0.915
 39
  0
0
CIRCLE
8
JA
 10
5.08
 20
1052.8202
 30
0
 40
0.915
 39
  0
0
CIRCLE
8
JA
 10
10.16
 20
1052.8202
 30
0
 40
0.915
 39
  0
0
CIRCLE
8
JA
 10
12.7
 20
1052.8202
 30
0
 40
0.585
 39
  0
0
CIRCLE
8
JA
 10
15.24
 20
1052.8202
 30
0
 40
0.915
 39
  0
0
CIRCLE
8
JA
 10
20.32
 20
1052.8202
 30
0
 40
0.915
 39
  0
0
CIRCLE
8
JA
 10
5.08
 20
1050.2802
 30
0
 40
0.915
 39
  0
0
CIRCLE
8
JA
 10
7.62
 20
1050.2802
 30
0
 40
0.915
 39
  0
0
CIRCLE
8
JA
 10
10.16
 20
1050.2802
 30
0
 40
0.915
 39
  0
0
CIRCLE
8
JA
 10
12.7
 20
1050.2802
 30
0
 40
0.585
 39
  0
0
CIRCLE
8
JA
 10
15.24
 20
1050.2802
 30
0
 40
0.915
 39
  0
0
CIRCLE
8
JA
 10
20.32
 20
1050.2802
 30
0
 40
0.915
 39
  0
0
CIRCLE
8
JA
 10
12.7
 20
1047.7401
 30
0
 40
0.585
 39
  0
0
CIRCLE
8
JA
 10
15.24
 20
1047.7401
 30
0
 40
0.915
 39
  0
0
CIRCLE
8
JA
 10
20.32
 20
1047.7401
 30
0
 40
0.915
 39
  0
0
CIRCLE
8
JA
 10
5.08
 20
1045.2001
 30
0
 40
0.915
 39
  0
0
CIRCLE
8
JA
 10
7.62
 20
1045.2001
 30
0
 40
0.915
 39
  0
0
CIRCLE
8
JA
 10
10.16
 20
1045.2001
 30
0
 40
0.915
 39
  0
0
CIRCLE
8
JA
 10
12.7
 20
1045.2001
 30
0
 40
0.585
 39
  0
0
CIRCLE
8
JA
 10
20.32
 20
1045.2001
 30
0
 40
0.915
 39
  0
0
CIRCLE
8
JA
 10
2.54
 20
1042.66
 30
0
 40
0.915
 39
  0
0
CIRCLE
8
JA
 10
12.7
 20
1042.66
 30
0
 40
0.585
 39
  0
0
CIRCLE
8
JA
 10
20.32
 20
1042.66
 30
0
 40
0.915
 39
  0
0
CIRCLE
8
JA
 10
12.7
 20
1040.12
 30
0
 40
0.585
 39
  0
0
CIRCLE
8
JA
 10
15.24
 20
1040.12
 30
0
 40
0.915
 39
  0
0
CIRCLE
8
JA
 10
20.32
 20
1040.12
 30
0
 40
0.915
 39
  0
0
CIRCLE
8
JA
 10
2.54
 20
1037.58
 30
0
 40
0.915
 39
  0
0
CIRCLE
8
JA
 10
5.08
 20
1037.58
 30
0
 40
0.915
 39
  0
0
CIRCLE
8
JA
 10
10.16
 20
1037.58
 30
0
 40
0.915
 39
  0
0
CIRCLE
8
JA
 10
12.7
 20
1037.58
 30
0
 40
0.585
 39
  0
0
CIRCLE
8
JA
 10
17.779999
 20
1037.58
 30
0
 40
0.915
 39
  0
0
CIRCLE
8
JA
 10
20.32
 20
1037.58
 30
0
 40
0.915
 39
  0
0
CIRCLE
8
JA
 10
5.08
 20
1035.0399
 30
0
 40
0.915
 39
  0
0
CIRCLE
8
JA
 10
7.62
 20
1035.0399
 30
0
 40
0.915
 39
  0
0
CIRCLE
8
JA
 10
10.16
 20
1035.0399
 30
0
 40
0.915
 39
  0
0
CIRCLE
8
JA
 10
12.7
 20
1035.0399
 30
0
 40
0.585
 39
  0
0
CIRCLE
8
JA
 10
15.24
 20
1035.0399
 30
0
 40
0.915
 39
  0
0
CIRCLE
8
JA
 10
20.32
 20
1035.0399
 30
0
 40
0.915
 39
  0
0
CIRCLE
8
JA
 10
10.16
 20
1032.4999
 30
0
 40
0.915
 39
  0
0
CIRCLE
8
JA
 10
12.7
 20
1032.4999
 30
0
 40
0.585
 39
  0
0
CIRCLE
8
JA
 10
15.24
 20
1032.4999
 30
0
 40
0.915
 39
  0
0
CIRCLE
8
JA
 10
20.32
 20
1032.4999
 30
0
 40
0.915
 39
  0
0
CIRCLE
8
JA
 10
12.7
 20
1029.9598
 30
0
 40
0.585
 39
  0
0
CIRCLE
8
JA
 10
20.32
 20
1029.9598
 30
0
 40
0.915
 39
  0
0
CIRCLE
8
JA
 10
5.08
 20
1027.4198
 30
0
 40
0.915
 39
  0
0
CIRCLE
8
JA
 10
12.7
 20
1027.4198
 30
0
 40
0.585
 39
  0
0
CIRCLE
8
JA
 10
20.32
 20
1027.4198
 30
0
 40
0.915
 39
  0
0
CIRCLE
8
JA
 10
12.7
 20
1024.8798
 30
0
 40
0.585
 39
  0
0
CIRCLE
8
JA
 10
15.24
 20
1024.8798
 30
0
 40
0.915
 39
  0
0
CIRCLE
8
JA
 10
20.32
 20
1024.8798
 30
0
 40
0.915
 39
  0
0
CIRCLE
8
JA
 10
2.54
 20
1022.3398
 30
0
 40
0.915
 39
  0
0
CIRCLE
8
JA
 10
5.08
 20
1022.3398
 30
0
 40
0.915
 39
  0
0
CIRCLE
8
JA
 10
10.16
 20
1022.3398
 30
0
 40
0.915
 39
  0
0
CIRCLE
8
JA
 10
12.7
 20
1022.3398
 30
0
 40
0.585
 39
  0
0
CIRCLE
8
JA
 10
17.779999
 20
1022.3398
 30
0
 40
0.915
 39
  0
0
CIRCLE
8
JA
 10
20.32
 20
1022.3398
 30
0
 40
0.915
 39
  0
0
CIRCLE
8
JA
 10
2.54
 20
1019.7998
 30
0
 40
0.915
 39
  0
0
CIRCLE
8
JA
 10
12.7
 20
1019.7998
 30
0
 40
0.585
 39
  0
0
CIRCLE
8
JA
 10
20.32
 20
1019.7998
 30
0
 40
0.915
 39
  0
0
CIRCLE
8
JA
 10
10.16
 20
1017.2598
 30
0
 40
0.915
 39
  0
0
CIRCLE
8
JA
 10
12.7
 20
1017.2598
 30
0
 40
0.585
 39
  0
0
CIRCLE
8
JA
 10
20.32
 20
1017.2598
 30
0
 40
0.915
 39
  0
0
CIRCLE
8
JA
 10
7.62
 20
1014.71985
 30
0
 40
0.915
 39
  0
0
CIRCLE
8
JA
 10
12.7
 20
1014.71985
 30
0
 40
0.585
 39
  0
0
CIRCLE
8
JA
 10
17.779999
 20
1014.71985
 30
0
 40
0.915
 39
  0
0
CIRCLE
8
JA
 10
20.32
 20
1014.71985
 30
0
 40
0.915
 39
  0
0
CIRCLE
8
JA
 10
5.08
 20
1012.1799
 30
0
 40
0.915
 39
  0
0
CIRCLE
8
JA
 10
12.7
 20
1012.1799
 30
0
 40
0.585
 39
  0
0
CIRCLE
8
JA
 10
20.32
 20
1012.1799
 30
0
 40
0.915
 39
  0
0
CIRCLE
8
JA
 10
12.7
 20
1009.6399
 30
0
 40
0.585
 39
  0
0
CIRCLE
8
JA
 10
15.24
 20
1009.6399
 30
0
 40
0.915
 39
  0
0
CIRCLE
8
JA
 10
20.32
 20
1009.6399
 30
0
 40
0.915
 39
  0
0
CIRCLE
8
JA
 10
7.62
 20
1007.0999
 30
0
 40
0.915
 39
  0
0
CIRCLE
8
JA
 10
12.7
 20
1007.0999
 30
0
 40
0.585
 39
  0
0
CIRCLE
8
JA
 10
15.24
 20
1007.0999
 30
0
 40
0.915
 39
  0
0
CIRCLE
8
JA
 10
20.32
 20
1007.0999
 30
0
 40
0.915
 39
  0
0
CIRCLE
8
JA
 10
5.08
 20
1004.55994
 30
0
 40
0.915
 39
  0
0
CIRCLE
8
JA
 10
7.62
 20
1004.55994
 30
0
 40
0.915
 39
  0
0
CIRCLE
8
JA
 10
10.16
 20
1004.55994
 30
0
 40
0.915
 39
  0
0
CIRCLE
8
JA
 10
12.7
 20
1004.55994
 30
0
 40
0.585
 39
  0
0
CIRCLE
8
JA
 10
15.24
 20
1004.55994
 30
0
 40
0.915
 39
  0
0
CIRCLE
8
JA
 10
20.32
 20
1004.55994
 30
0
 40
0.915
 39
  0
0
CIRCLE
8
JA
 10
12.7
 20
1002.01996
 30
0
 40
0.585
 39
  0
0
CIRCLE
8
JA
 10
20.32
 20
1002.01996
 30
0
 40
0.915
 39
  0
0
CIRCLE
8
JA
 10
2.54
 20
999.48
 30
0
 40
0.915
 39
  0
0
CIRCLE
8
JA
 10
5.08
 20
999.48
 30
0
 40
0.915
 39
  0
0
CIRCLE
8
JA
 10
7.62
 20
999.48
 30
0
 40
0.915
 39
  0
0
CIRCLE
8
JA
 10
10.16
 20
999.48
 30
0
 40
0.915
 39
  0
0
CIRCLE
8
JA
 10
12.7
 20
999.48
 30
0
 40
0.585
 39
  0
0
CIRCLE
8
JA
 10
20.32
 20
999.48
 30
0
 40
0.915
 39
  0
0
CIRCLE
8
JA
 10
2.54
 20
996.94
 30
0
 40
0.915
 39
  0
0
CIRCLE
8
JA
 10
12.7
 20
996.94
 30
0
 40
0.585
 39
  0
0
CIRCLE
8
JA
 10
15.24
 20
996.94
 30
0
 40
0.915
 39
  0
0
CIRCLE
8
JA
 10
20.32
 20
996.94
 30
0
 40
0.915
 39
  0
0
CIRCLE
8
JA
 10
12.7
 20
994.4
 30
0
 40
0.585
 39
  0
0
CIRCLE
8
JA
 10
15.24
 20
994.4
 30
0
 40
0.915
 39
  0
0
CIRCLE
8
JA
 10
20.32
 20
994.4
 30
0
 40
0.915
 39
  0
0
CIRCLE
8
JA
 10
2.54
 20
991.86005
 30
0
 40
0.915
 39
  0
0
CIRCLE
8
JA
 10
5.08
 20
991.86005
 30
0
 40
0.915
 39
  0
0
CIRCLE
8
JA
 10
10.16
 20
991.86005
 30
0
 40
0.915
 39
  0
0
CIRCLE
8
JA
 10
12.7
 20
991.86005
 30
0
 40
0.585
 39
  0
0
CIRCLE
8
JA
 10
15.24
 20
991.86005
 30
0
 40
0.915
 39
  0
0
CIRCLE
8
JA
 10
20.32
 20
991.86005
 30
0
 40
0.915
 39
  0
0
CIRCLE
8
JA
 10
2.54
 20
989.32007
 30
0
 40
0.915
 39
  0
0
CIRCLE
8
JA
 10
5.08
 20
989.32007
 30
0
 40
0.915
 39
  0
0
CIRCLE
8
JA
 10
12.7
 20
989.32007
 30
0
 40
0.585
 39
  0
0
CIRCLE
8
JA
 10
20.32
 20
989.32007
 30
0
 40
0.915
 39
  0
0
CIRCLE
8
JA
 10
12.7
 20
986.7801
 30
0
 40
0.585
 39
  0
0
CIRCLE
8
JA
 10
15.24
 20
986.7801
 30
0
 40
0.915
 39
  0
0
CIRCLE
8
JA
 10
20.32
 20
986.7801
 30
0
 40
0.915
 39
  0
0
CIRCLE
8
JA
 10
2.54
 20
984.2401
 30
0
 40
0.915
 39
  0
0
CIRCLE
8
JA
 10
5.08
 20
984.2401
 30
0
 40
0.915
 39
  0
0
CIRCLE
8
JA
 10
10.16
 20
984.2401
 30
0
 40
0.915
 39
  0
0
CIRCLE
8
JA
 10
12.7
 20
984.2401
 30
0
 40
0.585
 39
  0
0
CIRCLE
8
JA
 10
15.24
 20
984.2401
 30
0
 40
0.915
 39
  0
0
CIRCLE
8
JA
 10
17.779999
 20
984.2401
 30
0
 40
0.915
 39
  0
0
CIRCLE
8
JA
 10
20.32
 20
984.2401
 30
0
 40
0.915
 39
  0
0
CIRCLE
8
JA
 10
5.08
 20
981.70013
 30
0
 40
0.915
 39
  0
0
CIRCLE
8
JA
 10
12.7
 20
981.70013
 30
0
 40
0.585
 39
  0
0
CIRCLE
8
JA
 10
20.32
 20
981.70013
 30
0
 40
0.915
 39
  0
0
CIRCLE
8
JA
 10
12.7
 20
979.16016
 30
0
 40
0.585
 39
  0
0
CIRCLE
8
JA
 10
15.24
 20
979.16016
 30
0
 40
0.915
 39
  0
0
CIRCLE
8
JA
 10
20.32
 20
979.16016
 30
0
 40
0.915
 39
  0
0
CIRCLE
8
JA
 10
2.54
 20
976.6202
 30
0
 40
0.915
 39
  0
0
CIRCLE
8
JA
 10
5.08
 20
976.6202
 30
0
 40
0.915
 39
  0
0
CIRCLE
8
JA
 10
10.16
 20
976.6202
 30
0
 40
0.915
 39
  0
0
CIRCLE
8
JA
 10
12.7
 20
976.6202
 30
0
 40
0.585
 39
  0
0
CIRCLE
8
JA
 10
15.24
 20
976.6202
 30
0
 40
0.915
 39
  0
0
CIRCLE
8
JA
 10
20.32
 20
976.6202
 30
0
 40
0.915
 39
  0
0
CIRCLE
8
JA
 10
2.54
 20
974.0802
 30
0
 40
0.915
 39
  0
0
CIRCLE
8
JA
 10
12.7
 20
974.0802
 30
0
 40
0.585
 39
  0
0
CIRCLE
8
JA
 10
20.32
 20
974.0802
 30
0
 40
0.915
 39
  0
0
CIRCLE
8
JA
 10
10.16
 20
971.5402
 30
0
 40
0.915
 39
  0
0
CIRCLE
8
JA
 10
12.7
 20
971.5402
 30
0
 40
0.585
 39
  0
0
CIRCLE
8
JA
 10
20.32
 20
971.5402
 30
0
 40
0.915
 39
  0
0
CIRCLE
8
JA
 10
12.7
 20
969.00024
 30
0
 40
0.585
 39
  0
0
CIRCLE
8
JA
 10
20.32
 20
969.00024
 30
0
 40
0.915
 39
  0
0
CIRCLE
8
JA
 10
5.08
 20
966.46027
 30
0
 40
0.915
 39
  0
0
CIRCLE
8
JA
 10
7.62
 20
966.46027
 30
0
 40
0.915
 39
  0
0
CIRCLE
8
JA
 10
10.16
 20
966.46027
 30
0
 40
0.915
 39
  0
0
CIRCLE
8
JA
 10
12.7
 20
966.46027
 30
0
 40
0.585
 39
  0
0
CIRCLE
8
JA
 10
15.24
 20
966.46027
 30
0
 40
0.915
 39
  0
0
CIRCLE
8
JA
 10
20.32
 20
966.46027
 30
0
 40
0.915
 39
  0
0
CIRCLE
8
JA
 10
10.16
 20
963.9203
 30
0
 40
0.915
 39
  0
0
CIRCLE
8
JA
 10
12.7
 20
963.9203
 30
0
 40
0.585
 39
  0
0
CIRCLE
8
JA
 10
15.24
 20
963.9203
 30
0
 40
0.915
 39
  0
0
CIRCLE
8
JA
 10
20.32
 20
963.9203
 30
0
 40
0.915
 39
  0
0
CIRCLE
8
JA
 10
5.08
 20
961.3803
 30
0
 40
0.915
 39
  0
0
CIRCLE
8
JA
 10
12.7
 20
961.3803
 30
0
 40
0.585
 39
  0
0
CIRCLE
8
JA
 10
20.32
 20
961.3803
 30
0
 40
0.915
 39
  0
0
CIRCLE
8
JA
 10
5.08
 20
958.84033
 30
0
 40
0.915
 39
  0
0
CIRCLE
8
JA
 10
12.7
 20
958.84033
 30
0
 40
0.585
 39
  0
0
CIRCLE
8
JA
 10
20.32
 20
958.84033
 30
0
 40
0.915
 39
  0
0
CIRCLE
8
JA
 10
12.7
 20
956.30035
 30
0
 40
0.585
 39
  0
0
CIRCLE
8
JA
 10
15.24
 20
956.30035
 30
0
 40
0.915
 39
  0
0
CIRCLE
8
JA
 10
20.32
 20
956.30035
 30
0
 40
0.915
 39
  0
0
CIRCLE
8
JA
 10
2.54
 20
953.7604
 30
0
 40
0.915
 39
  0
0
CIRCLE
8
JA
 10
5.08
 20
953.7604
 30
0
 40
0.915
 39
  0
0
CIRCLE
8
JA
 10
10.16
 20
953.7604
 30
0
 40
0.915
 39
  0
0
CIRCLE
8
JA
 10
12.7
 20
953.7604
 30
0
 40
0.585
 39
  0
0
CIRCLE
8
JA
 10
17.779999
 20
953.7604
 30
0
 40
0.915
 39
  0
0
CIRCLE
8
JA
 10
20.32
 20
953.7604
 30
0
 40
0.915
 39
  0
0
CIRCLE
8
JA
 10
2.54
 20
951.2204
 30
0
 40
0.915
 39
  0
0
CIRCLE
8
JA
 10
12.7
 20
951.2204
 30
0
 40
0.585
 39
  0
0
CIRCLE
8
JA
 10
20.32
 20
951.2204
 30
0
 40
0.915
 39
  0
0
CIRCLE
8
JA
 10
12.7
 20
948.6804
 30
0
 40
0.585
 39
  0
0
CIRCLE
8
JA
 10
15.24
 20
948.6804
 30
0
 40
0.915
 39
  0
0
CIRCLE
8
JA
 10
20.32
 20
948.6804
 30
0
 40
0.915
 39
  0
0
CIRCLE
8
JA
 10
2.54
 20
946.14044
 30
0
 40
0.915
 39
  0
0
CIRCLE
8
JA
 10
5.08
 20
946.14044
 30
0
 40
0.915
 39
  0
0
CIRCLE
8
JA
 10
10.16
 20
946.14044
 30
0
 40
0.915
 39
  0
0
CIRCLE
8
JA
 10
12.7
 20
946.14044
 30
0
 40
0.585
 39
  0
0
CIRCLE
8
JA
 10
20.32
 20
946.14044
 30
0
 40
0.915
 39
  0
0
CIRCLE
8
JA
 10
2.54
 20
943.60046
 30
0
 40
0.915
 39
  0
0
CIRCLE
8
JA
 10
5.08
 20
943.60046
 30
0
 40
0.915
 39
  0
0
CIRCLE
8
JA
 10
7.62
 20
943.60046
 30
0
 40
0.915
 39
  0
0
CIRCLE
8
JA
 10
12.7
 20
943.60046
 30
0
 40
0.585
 39
  0
0
CIRCLE
8
JA
 10
20.32
 20
943.60046
 30
0
 40
0.915
 39
  0
0
CIRCLE
8
JA
 10
12.7
 20
941.0605
 30
0
 40
0.585
 39
  0
0
CIRCLE
8
JA
 10
20.32
 20
941.0605
 30
0
 40
0.915
 39
  0
0
CIRCLE
8
JA
 10
12.7
 20
938.5205
 30
0
 40
0.585
 39
  0
0
CIRCLE
8
JA
 10
17.779999
 20
938.5205
 30
0
 40
0.915
 39
  0
0
CIRCLE
8
JA
 10
20.32
 20
938.5205
 30
0
 40
0.915
 39
  0
0
CIRCLE
8
JA
 10
2.54
 20
935.9805
 30
0
 40
0.915
 39
  0
0
CIRCLE
8
JA
 10
10.16
 20
935.9805
 30
0
 40
0.915
 39
  0
0
CIRCLE
8
JA
 10
12.7
 20
935.9805
 30
0
 40
0.585
 39
  0
0
CIRCLE
8
JA
 10
15.24
 20
935.9805
 30
0
 40
0.915
 39
  0
0
CIRCLE
8
JA
 10
20.32
 20
935.9805
 30
0
 40
0.915
 39
  0
0
CIRCLE
8
JA
 10
12.7
 20
933.44055
 30
0
 40
0.585
 39
  0
0
CIRCLE
8
JA
 10
15.24
 20
933.44055
 30
0
 40
0.915
 39
  0
0
CIRCLE
8
JA
 10
20.32
 20
933.44055
 30
0
 40
0.915
 39
  0
0
CIRCLE
8
JA
 10
2.54
 20
930.9006
 30
0
 40
0.915
 39
  0
0
CIRCLE
8
JA
 10
5.08
 20
930.9006
 30
0
 40
0.915
 39
  0
0
CIRCLE
8
JA
 10
7.62
 20
930.9006
 30
0
 40
0.915
 39
  0
0
CIRCLE
8
JA
 10
10.16
 20
930.9006
 30
0
 40
0.915
 39
  0
0
CIRCLE
8
JA
 10
12.7
 20
930.9006
 30
0
 40
0.585
 39
  0
0
CIRCLE
8
JA
 10
17.779999
 20
930.9006
 30
0
 40
0.915
 39
  0
0
CIRCLE
8
JA
 10
20.32
 20
930.9006
 30
0
 40
0.915
 39
  0
0
CIRCLE
8
JA
 10
5.08
 20
928.3606
 30
0
 40
0.915
 39
  0
0
CIRCLE
8
JA
 10
7.62
 20
928.3606
 30
0
 40
0.915
 39
  0
0
CIRCLE
8
JA
 10
10.16
 20
928.3606
 30
0
 40
0.915
 39
  0
0
CIRCLE
8
JA
 10
12.7
 20
928.3606
 30
0
 40
0.585
 39
  0
0
CIRCLE
8
JA
 10
20.32
 20
928.3606
 30
0
 40
0.915
 39
  0
0
CIRCLE
8
JA
 10
12.7
 20
925.8206
 30
0
 40
0.585
 39
  0
0
CIRCLE
8
JA
 10
20.32
 20
925.8206
 30
0
 40
0.915
 39
  0
0
CIRCLE
8
JA
 10
2.54
 20
923.28064
 30
0
 40
0.915
 39
  0
0
CIRCLE
8
JA
 10
5.08
 20
923.28064
 30
0
 40
0.915
 39
  0
0
CIRCLE
8
JA
 10
7.62
 20
923.28064
 30
0
 40
0.915
 39
  0
0
CIRCLE
8
JA
 10
10.16
 20
923.28064
 30
0
 40
0.915
 39
  0
0
CIRCLE
8
JA
 10
12.7
 20
923.28064
 30
0
 40
0.585
 39
  0
0
CIRCLE
8
JA
 10
20.32
 20
923.28064
 30
0
 40
0.915
 39
  0
0
CIRCLE
8
JA
 10
2.54
 20
920.74066
 30
0
 40
0.915
 39
  0
0
CIRCLE
8
JA
 10
12.7
 20
920.74066
 30
0
 40
0.585
 39
  0
0
CIRCLE
8
JA
 10
20.32
 20
920.74066
 30
0
 40
0.915
 39
  0
0
CIRCLE
8
JA
 10
12.7
 20
918.2007
 30
0
 40
0.585
 39
  0
0
CIRCLE
8
JA
 10
15.24
 20
918.2007
 30
0
 40
0.915
 39
  0
0
CIRCLE
8
JA
 10
20.32
 20
918.2007
 30
0
 40
0.915
 39
  0
0
CIRCLE
8
JA
 10
2.54
 20
915.6607
 30
0
 40
0.915
 39
  0
0
CIRCLE
8
JA
 10
5.08
 20
915.6607
 30
0
 40
0.915
 39
  0
0
CIRCLE
8
JA
 10
7.62
 20
915.6607
 30
0
 40
0.915
 39
  0
0
CIRCLE
8
JA
 10
10.16
 20
915.6607
 30
0
 40
0.915
 39
  0
0
CIRCLE
8
JA
 10
12.7
 20
915.6607
 30
0
 40
0.585
 39
  0
0
CIRCLE
8
JA
 10
20.32
 20
915.6607
 30
0
 40
0.915
 39
  0
0
CIRCLE
8
JA
 10
2.54
 20
913.1207
 30
0
 40
0.915
 39
  0
0
CIRCLE
8
JA
 10
10.16
 20
913.1207
 30
0
 40
0.915
 39
  0
0
CIRCLE
8
JA
 10
12.7
 20
913.1207
 30
0
 40
0.585
 39
  0
0
CIRCLE
8
JA
 10
15.24
 20
913.1207
 30
0
 40
0.915
 39
  0
0
CIRCLE
8
JA
 10
20.32
 20
913.1207
 30
0
 40
0.915
 39
  0
0
CIRCLE
8
JA
 10
10.16
 20
910.58075
 30
0
 40
0.915
 39
  0
0
CIRCLE
8
JA
 10
12.7
 20
910.58075
 30
0
 40
0.585
 39
  0
0
CIRCLE
8
JA
 10
20.32
 20
910.58075
 30
0
 40
0.915
 39
  0
0
CIRCLE
8
JA
 10
10.16
 20
908.0408
 30
0
 40
0.915
 39
  0
0
CIRCLE
8
JA
 10
12.7
 20
908.0408
 30
0
 40
0.585
 39
  0
0
CIRCLE
8
JA
 10
15.24
 20
908.0408
 30
0
 40
0.915
 39
  0
0
CIRCLE
8
JA
 10
20.32
 20
908.0408
 30
0
 40
0.915
 39
  0
0
CIRCLE
8
JA
 10
5.08
 20
905.5008
 30
0
 40
0.915
 39
  0
0
CIRCLE
8
JA
 10
12.7
 20
905.5008
 30
0
 40
0.585
 39
  0
0
CIRCLE
8
JA
 10
20.32
 20
905.5008
 30
0
 40
0.915
 39
  0
0
CIRCLE
8
JA
 10
12.7
 20
902.9608
 30
0
 40
0.585
 39
  0
0
CIRCLE
8
JA
 10
15.24
 20
902.9608
 30
0
 40
0.915
 39
  0
0
CIRCLE
8
JA
 10
20.32
 20
902.9608
 30
0
 40
0.915
 39
  0
0
CIRCLE
8
JA
 10
2.54
 20
900.42084
 30
0
 40
0.915
 39
  0
0
CIRCLE
8
JA
 10
5.08
 20
900.42084
 30
0
 40
0.915
 39
  0
0
CIRCLE
8
JA
 10
7.62
 20
900.42084
 30
0
 40
0.915
 39
  0
0
CIRCLE
8
JA
 10
10.16
 20
900.42084
 30
0
 40
0.915
 39
  0
0
CIRCLE
8
JA
 10
12.7
 20
900.42084
 30
0
 40
0.585
 39
  0
0
CIRCLE
8
JA
 10
20.32
 20
900.42084
 30
0
 40
0.915
 39
  0
0
CIRCLE
8
JA
 10
5.08
 20
897.88086
 30
0
 40
0.915
 39
  0
0
CIRCLE
8
JA
 10
7.62
 20
897.88086
 30
0
 40
0.915
 39
  0
0
CIRCLE
8
JA
 10
10.16
 20
897.88086
 30
0
 40
0.915
 39
  0
0
CIRCLE
8
JA
 10
12.7
 20
897.88086
 30
0
 40
0.585
 39
  0
0
CIRCLE
8
JA
 10
15.24
 20
897.88086
 30
0
 40
0.915
 39
  0
0
CIRCLE
8
JA
 10
20.32
 20
897.88086
 30
0
 40
0.915
 39
  0
0
CIRCLE
8
JA
 10
12.7
 20
895.3409
 30
0
 40
0.585
 39
  0
0
CIRCLE
8
JA
 10
15.24
 20
895.3409
 30
0
 40
0.915
 39
  0
0
CIRCLE
8
JA
 10
20.32
 20
895.3409
 30
0
 40
0.915
 39
  0
0
CIRCLE
8
JA
 10
2.54
 20
892.8009
 30
0
 40
0.915
 39
  0
0
CIRCLE
8
JA
 10
5.08
 20
892.8009
 30
0
 40
0.915
 39
  0
0
CIRCLE
8
JA
 10
12.7
 20
892.8009
 30
0
 40
0.585
 39
  0
0
CIRCLE
8
JA
 10
17.779999
 20
892.8009
 30
0
 40
0.915
 39
  0
0
CIRCLE
8
JA
 10
20.32
 20
892.8009
 30
0
 40
0.915
 39
  0
0
CIRCLE
8
JA
 10
5.08
 20
890.2609
 30
0
 40
0.915
 39
  0
0
CIRCLE
8
JA
 10
7.62
 20
890.2609
 30
0
 40
0.915
 39
  0
0
CIRCLE
8
JA
 10
10.16
 20
890.2609
 30
0
 40
0.915
 39
  0
0
CIRCLE
8
JA
 10
12.7
 20
890.2609
 30
0
 40
0.585
 39
  0
0
CIRCLE
8
JA
 10
15.24
 20
890.2609
 30
0
 40
0.915
 39
  0
0
CIRCLE
8
JA
 10
20.32
 20
890.2609
 30
0
 40
0.915
 39
  0
0
CIRCLE
8
JA
 10
10.16
 20
887.72095
 30
0
 40
0.915
 39
  0
0
CIRCLE
8
JA
 10
12.7
 20
887.72095
 30
0
 40
0.585
 39
  0
0
CIRCLE
8
JA
 10
15.24
 20
887.72095
 30
0
 40
0.915
 39
  0
0
CIRCLE
8
JA
 10
20.32
 20
887.72095
 30
0
 40
0.915
 39
  0
0
CIRCLE
8
JA
 10
2.54
 20
885.18097
 30
0
 40
0.915
 39
  0
0
CIRCLE
8
JA
 10
12.7
 20
885.18097
 30
0
 40
0.585
 39
  0
0
CIRCLE
8
JA
 10
20.32
 20
885.18097
 30
0
 40
0.915
 39
  0
0
CIRCLE
8
JA
 10
5.08
 20
882.641
 30
0
 40
0.915
 39
  0
0
CIRCLE
8
JA
 10
12.7
 20
882.641
 30
0
 40
0.585
 39
  0
0
CIRCLE
8
JA
 10
20.32
 20
882.641
 30
0
 40
0.915
 39
  0
0
CIRCLE
8
JA
 10
12.7
 20
880.101
 30
0
 40
0.585
 39
  0
0
CIRCLE
8
JA
 10
15.24
 20
880.101
 30
0
 40
0.915
 39
  0
0
CIRCLE
8
JA
 10
20.32
 20
880.101
 30
0
 40
0.915
 39
  0
0
CIRCLE
8
JA
 10
2.54
 20
877.56104
 30
0
 40
0.915
 39
  0
0
CIRCLE
8
JA
 10
5.08
 20
877.56104
 30
0
 40
0.915
 39
  0
0
CIRCLE
8
JA
 10
10.16
 20
877.56104
 30
0
 40
0.915
 39
  0
0
CIRCLE
8
JA
 10
12.7
 20
877.56104
 30
0
 40
0.585
 39
  0
0
CIRCLE
8
JA
 10
17.779999
 20
877.56104
 30
0
 40
0.915
 39
  0
0
CIRCLE
8
JA
 10
20.32
 20
877.56104
 30
0
 40
0.915
 39
  0
0
CIRCLE
8
JA
 10
2.54
 20
875.02106
 30
0
 40
0.915
 39
  0
0
CIRCLE
8
JA
 10
7.62
 20
875.02106
 30
0
 40
0.915
 39
  0
0
CIRCLE
8
JA
 10
12.7
 20
875.02106
 30
0
 40
0.585
 39
  0
0
CIRCLE
8
JA
 10
20.32
 20
875.02106
 30
0
 40
0.915
 39
  0
0
CIRCLE
8
JA
 10
12.7
 20
872.4811
 30
0
 40
0.585
 39
  0
0
CIRCLE
8
JA
 10
15.24
 20
872.4811
 30
0
 40
0.915
 39
  0
0
CIRCLE
8
JA
 10
20.32
 20
872.4811
 30
0
 40
0.915
 39
  0
0
CIRCLE
8
JA
 10
2.54
 20
869.9411
 30
0
 40
0.915
 39
  0
0
CIRCLE
8
JA
 10
5.08
 20
869.9411
 30
0
 40
0.915
 39
  0
0
CIRCLE
8
JA
 10
10.16
 20
869.9411
 30
0
 40
0.915
 39
  0
0
CIRCLE
8
JA
 10
12.7
 20
869.9411
 30
0
 40
0.585
 39
  0
0
CIRCLE
8
JA
 10
17.779999
 20
869.9411
 30
0
 40
0.915
 39
  0
0
CIRCLE
8
JA
 10
20.32
 20
869.9411
 30
0
 40
0.915
 39
  0
0
CIRCLE
8
JA
 10
2.54
 20
867.4011
 30
0
 40
0.915
 39
  0
0
CIRCLE
8
JA
 10
10.16
 20
867.4011
 30
0
 40
0.915
 39
  0
0
CIRCLE
8
JA
 10
12.7
 20
867.4011
 30
0
 40
0.585
 39
  0
0
CIRCLE
8
JA
 10
20.32
 20
867.4011
 30
0
 40
0.915
 39
  0
0
CIRCLE
8
JA
 10
10.16
 20
864.86115
 30
0
 40
0.915
 39
  0
0
CIRCLE
8
JA
 10
12.7
 20
864.86115
 30
0
 40
0.585
 39
  0
0
CIRCLE
8
JA
 10
20.32
 20
864.86115
 30
0
 40
0.915
 39
  0
0
CIRCLE
8
JA
 10
12.7
 20
862.32117
 30
0
 40
0.585
 39
  0
0
CIRCLE
8
JA
 10
17.779999
 20
862.32117
 30
0
 40
0.915
 39
  0
0
CIRCLE
8
JA
 10
20.32
 20
862.32117
 30
0
 40
0.915
 39
  0
0
CIRCLE
8
JA
 10
5.08
 20
859.7812
 30
0
 40
0.915
 39
  0
0
CIRCLE
8
JA
 10
7.62
 20
859.7812
 30
0
 40
0.915
 39
  0
0
CIRCLE
8
JA
 10
10.16
 20
859.7812
 30
0
 40
0.915
 39
  0
0
CIRCLE
8
JA
 10
12.7
 20
859.7812
 30
0
 40
0.585
 39
  0
0
CIRCLE
8
JA
 10
20.32
 20
859.7812
 30
0
 40
0.915
 39
  0
0
CIRCLE
8
JA
 10
12.7
 20
857.2412
 30
0
 40
0.585
 39
  0
0
CIRCLE
8
JA
 10
20.32
 20
857.2412
 30
0
 40
0.915
 39
  0
0
CIRCLE
8
JA
 10
2.54
 20
854.70123
 30
0
 40
0.915
 39
  0
0
CIRCLE
8
JA
 10
5.08
 20
854.70123
 30
0
 40
0.915
 39
  0
0
CIRCLE
8
JA
 10
7.62
 20
854.70123
 30
0
 40
0.915
 39
  0
0
CIRCLE
8
JA
 10
10.16
 20
854.70123
 30
0
 40
0.915
 39
  0
0
CIRCLE
8
JA
 10
12.7
 20
854.70123
 30
0
 40
0.585
 39
  0
0
CIRCLE
8
JA
 10
20.32
 20
854.70123
 30
0
 40
0.915
 39
  0
0
CIRCLE
8
JA
 10
2.54
 20
852.16125
 30
0
 40
0.915
 39
  0
0
CIRCLE
8
JA
 10
12.7
 20
852.16125
 30
0
 40
0.585
 39
  0
0
CIRCLE
8
JA
 10
20.32
 20
852.16125
 30
0
 40
0.915
 39
  0
0
CIRCLE
8
JA
 10
12.7
 20
849.6213
 30
0
 40
0.585
 39
  0
0
CIRCLE
8
JA
 10
20.32
 20
849.6213
 30
0
 40
0.915
 39
  0
0
CIRCLE
8
JA
 10
2.54
 20
847.0813
 30
0
 40
0.915
 39
  0
0
CIRCLE
8
JA
 10
10.16
 20
847.0813
 30
0
 40
0.915
 39
  0
0
CIRCLE
8
JA
 10
12.7
 20
847.0813
 30
0
 40
0.585
 39
  0
0
CIRCLE
8
JA
 10
15.24
 20
847.0813
 30
0
 40
0.915
 39
  0
0
CIRCLE
8
JA
 10
20.32
 20
847.0813
 30
0
 40
0.915
 39
  0
0
CIRCLE
8
JA
 10
5.08
 20
844.5413
 30
0
 40
0.915
 39
  0
0
CIRCLE
8
JA
 10
12.7
 20
844.5413
 30
0
 40
0.585
 39
  0
0
CIRCLE
8
JA
 10
20.32
 20
844.5413
 30
0
 40
0.915
 39
  0
0
CIRCLE
8
JA
 10
12.7
 20
842.00134
 30
0
 40
0.585
 39
  0
0
CIRCLE
8
JA
 10
15.24
 20
842.00134
 30
0
 40
0.915
 39
  0
0
CIRCLE
8
JA
 10
20.32
 20
842.00134
 30
0
 40
0.915
 39
  0
0
CIRCLE
8
JA
 10
7.62
 20
839.46136
 30
0
 40
0.915
 39
  0
0
CIRCLE
8
JA
 10
12.7
 20
839.46136
 30
0
 40
0.585
 39
  0
0
CIRCLE
8
JA
 10
15.24
 20
839.46136
 30
0
 40
0.915
 39
  0
0
CIRCLE
8
JA
 10
20.32
 20
839.46136
 30
0
 40
0.915
 39
  0
0
CIRCLE
8
JA
 10
2.54
 20
836.9214
 30
0
 40
0.915
 39
  0
0
CIRCLE
8
JA
 10
12.7
 20
836.9214
 30
0
 40
0.585
 39
  0
0
CIRCLE
8
JA
 10
20.32
 20
836.9214
 30
0
 40
0.915
 39
  0
0
CIRCLE
8
JA
 10
10.16
 20
834.3814
 30
0
 40
0.915
 39
  0
0
CIRCLE
8
JA
 10
12.7
 20
834.3814
 30
0
 40
0.585
 39
  0
0
CIRCLE
8
JA
 10
20.32
 20
834.3814
 30
0
 40
0.915
 39
  0
0
CIRCLE
8
JA
 10
10.16
 20
831.84143
 30
0
 40
0.915
 39
  0
0
CIRCLE
8
JA
 10
12.7
 20
831.84143
 30
0
 40
0.585
 39
  0
0
CIRCLE
8
JA
 10
15.24
 20
831.84143
 30
0
 40
0.915
 39
  0
0
CIRCLE
8
JA
 10
17.779999
 20
831.84143
 30
0
 40
0.915
 39
  0
0
CIRCLE
8
JA
 10
20.32
 20
831.84143
 30
0
 40
0.915
 39
  0
0
CIRCLE
8
JA
 10
5.08
 20
829.30145
 30
0
 40
0.915
 39
  0
0
CIRCLE
8
JA
 10
12.7
 20
829.30145
 30
0
 40
0.585
 39
  0
0
CIRCLE
8
JA
 10
20.32
 20
829.30145
 30
0
 40
0.915
 39
  0
0
CIRCLE
8
JA
 10
12.7
 20
826.7615
 30
0
 40
0.585
 39
  0
0
CIRCLE
8
JA
 10
20.32
 20
826.7615
 30
0
 40
0.915
 39
  0
0
CIRCLE
8
JA
 10
2.54
 20
824.2215
 30
0
 40
0.915
 39
  0
0
CIRCLE
8
JA
 10
10.16
 20
824.2215
 30
0
 40
0.915
 39
  0
0
CIRCLE
8
JA
 10
12.7
 20
824.2215
 30
0
 40
0.585
 39
  0
0
CIRCLE
8
JA
 10
15.24
 20
824.2215
 30
0
 40
0.915
 39
  0
0
CIRCLE
8
JA
 10
17.779999
 20
824.2215
 30
0
 40
0.915
 39
  0
0
CIRCLE
8
JA
 10
20.32
 20
824.2215
 30
0
 40
0.915
 39
  0
0
CIRCLE
8
JA
 10
5.08
 20
821.6815
 30
0
 40
0.915
 39
  0
0
CIRCLE
8
JA
 10
7.62
 20
821.6815
 30
0
 40
0.915
 39
  0
0
CIRCLE
8
JA
 10
10.16
 20
821.6815
 30
0
 40
0.915
 39
  0
0
CIRCLE
8
JA
 10
12.7
 20
821.6815
 30
0
 40
0.585
 39
  0
0
CIRCLE
8
JA
 10
15.24
 20
821.6815
 30
0
 40
0.915
 39
  0
0
CIRCLE
8
JA
 10
20.32
 20
821.6815
 30
0
 40
0.915
 39
  0
0
CIRCLE
8
JA
 10
12.7
 20
819.14154
 30
0
 40
0.585
 39
  0
0
CIRCLE
8
JA
 10
20.32
 20
819.14154
 30
0
 40
0.915
 39
  0
0
CIRCLE
8
JA
 10
2.54
 20
816.60156
 30
0
 40
0.915
 39
  0
0
CIRCLE
8
JA
 10
12.7
 20
816.60156
 30
0
 40
0.585
 39
  0
0
CIRCLE
8
JA
 10
20.32
 20
816.60156
 30
0
 40
0.915
 39
  0
0
CIRCLE
8
JA
 10
12.7
 20
814.0616
 30
0
 40
0.585
 39
  0
0
CIRCLE
8
JA
 10
20.32
 20
814.0616
 30
0
 40
0.915
 39
  0
0
CIRCLE
8
JA
 10
12.7
 20
811.5216
 30
0
 40
0.585
 39
  0
0
CIRCLE
8
JA
 10
20.32
 20
811.5216
 30
0
 40
0.915
 39
  0
0
CIRCLE
8
JA
 10
12.7
 20
808.9816
 30
0
 40
0.585
 39
  0
0
CIRCLE
8
JA
 10
20.32
 20
808.9816
 30
0
 40
0.915
 39
  0
0
CIRCLE
8
JA
 10
12.7
 20
806.44165
 30
0
 40
0.585
 39
  0
0
CIRCLE
8
JA
 10
20.32
 20
806.44165
 30
0
 40
0.915
 39
  0
0
CIRCLE
8
JA
 10
12.7
 20
803.9017
 30
0
 40
0.585
 39
  0
0
CIRCLE
8
JA
 10
20.32
 20
803.9017
 30
0
 40
0.915
 39
  0
0
CIRCLE
8
JA
 10
12.7
 20
801.3617
 30
0
 40
0.585
 39
  0
0
CIRCLE
8
JA
 10
20.32
 20
801.3617
 30
0
 40
0.915
 39
  0
0
CIRCLE
8
JA
 10
12.7
 20
798.8217
 30
0
 40
0.585
 39
  0
0
CIRCLE
8
JA
 10
20.32
 20
798.8217
 30
0
 40
0.915
 39
  0
0
CIRCLE
8
JA
 10
12.7
 20
796.28174
 30
0
 40
0.585
 39
  0
0
CIRCLE
8
JA
 10
20.32
 20
796.28174
 30
0
 40
0.915
 39
  0
0
CIRCLE
8
JA
 10
12.7
 20
793.74176
 30
0
 40
0.585
 39
  0
0
CIRCLE
8
JA
 10
20.32
 20
793.74176
 30
0
 40
0.915
 39
  0
0
CIRCLE
8
JA
 10
5.08
 20
791.2018
 30
0
 40
0.915
 39
  0
0
CIRCLE
8
JA
 10
7.62
 20
791.2018
 30
0
 40
0.915
 39
  0
0
CIRCLE
8
JA
 10
12.7
 20
791.2018
 30
0
 40
0.585
 39
  0
0
CIRCLE
8
JA
 10
15.24
 20
791.2018
 30
0
 40
0.915
 39
  0
0
CIRCLE
8
JA
 10
20.32
 20
791.2018
 30
0
 40
0.915
 39
  0
0
CIRCLE
8
JA
 10
2.54
 20
788.6618
 30
0
 40
0.915
 39
  0
0
CIRCLE
8
JA
 10
10.16
 20
788.6618
 30
0
 40
0.915
 39
  0
0
CIRCLE
8
JA
 10
12.7
 20
788.6618
 30
0
 40
0.585
 39
  0
0
CIRCLE
8
JA
 10
15.24
 20
788.6618
 30
0
 40
0.915
 39
  0
0
CIRCLE
8
JA
 10
20.32
 20
788.6618
 30
0
 40
0.915
 39
  0
0
CIRCLE
8
JA
 10
7.62
 20
786.1218
 30
0
 40
0.915
 39
  0
0
CIRCLE
8
JA
 10
10.16
 20
786.1218
 30
0
 40
0.915
 39
  0
0
CIRCLE
8
JA
 10
12.7
 20
786.1218
 30
0
 40
0.585
 39
  0
0
CIRCLE
8
JA
 10
17.779999
 20
786.1218
 30
0
 40
0.915
 39
  0
0
CIRCLE
8
JA
 10
20.32
 20
786.1218
 30
0
 40
0.915
 39
  0
0
CIRCLE
8
JA
 10
12.7
 20
783.58185
 30
0
 40
0.585
 39
  0
0
CIRCLE
8
JA
 10
20.32
 20
783.58185
 30
0
 40
0.915
 39
  0
0
CIRCLE
8
JA
 10
7.62
 20
781.0419
 30
0
 40
0.915
 39
  0
0
CIRCLE
8
JA
 10
12.7
 20
781.0419
 30
0
 40
0.585
 39
  0
0
CIRCLE
8
JA
 10
15.24
 20
781.0419
 30
0
 40
0.915
 39
  0
0
CIRCLE
8
JA
 10
20.32
 20
781.0419
 30
0
 40
0.915
 39
  0
0
CIRCLE
8
JA
 10
7.62
 20
778.5019
 30
0
 40
0.915
 39
  0
0
CIRCLE
8
JA
 10
12.7
 20
778.5019
 30
0
 40
0.585
 39
  0
0
CIRCLE
8
JA
 10
20.32
 20
778.5019
 30
0
 40
0.915
 39
  0
0
CIRCLE
8
JA
 10
12.7
 20
775.9619
 30
0
 40
0.585
 39
  0
0
CIRCLE
8
JA
 10
15.24
 20
775.9619
 30
0
 40
0.915
 39
  0
0
CIRCLE
8
JA
 10
20.32
 20
775.9619
 30
0
 40
0.915
 39
  0
0
CIRCLE
8
JA
 10
5.08
 20
773.42194
 30
0
 40
0.915
 39
  0
0
CIRCLE
8
JA
 10
12.7
 20
773.42194
 30
0
 40
0.585
 39
  0
0
CIRCLE
8
JA
 10
20.32
 20
773.42194
 30
0
 40
0.915
 39
  0
0
CIRCLE
8
JA
 10
2.54
 20
770.88196
 30
0
 40
0.915
 39
  0
0
CIRCLE
8
JA
 10
5.08
 20
770.88196
 30
0
 40
0.915
 39
  0
0
CIRCLE
8
JA
 10
7.62
 20
770.88196
 30
0
 40
0.915
 39
  0
0
CIRCLE
8
JA
 10
10.16
 20
770.88196
 30
0
 40
0.915
 39
  0
0
CIRCLE
8
JA
 10
12.7
 20
770.88196
 30
0
 40
0.585
 39
  0
0
CIRCLE
8
JA
 10
17.779999
 20
770.88196
 30
0
 40
0.915
 39
  0
0
CIRCLE
8
JA
 10
20.32
 20
770.88196
 30
0
 40
0.915
 39
  0
0
CIRCLE
8
JA
 10
2.54
 20
768.342
 30
0
 40
0.915
 39
  0
0
CIRCLE
8
JA
 10
10.16
 20
768.342
 30
0
 40
0.915
 39
  0
0
CIRCLE
8
JA
 10
12.7
 20
768.342
 30
0
 40
0.585
 39
  0
0
CIRCLE
8
JA
 10
15.24
 20
768.342
 30
0
 40
0.915
 39
  0
0
CIRCLE
8
JA
 10
20.32
 20
768.342
 30
0
 40
0.915
 39
  0
0
CIRCLE
8
JA
 10
7.62
 20
765.802
 30
0
 40
0.915
 39
  0
0
CIRCLE
8
JA
 10
10.16
 20
765.802
 30
0
 40
0.915
 39
  0
0
CIRCLE
8
JA
 10
12.7
 20
765.802
 30
0
 40
0.585
 39
  0
0
CIRCLE
8
JA
 10
20.32
 20
765.802
 30
0
 40
0.915
 39
  0
0
CIRCLE
8
JA
 10
5.08
 20
763.262
 30
0
 40
0.915
 39
  0
0
CIRCLE
8
JA
 10
7.62
 20
763.262
 30
0
 40
0.915
 39
  0
0
CIRCLE
8
JA
 10
12.7
 20
763.262
 30
0
 40
0.585
 39
  0
0
CIRCLE
8
JA
 10
20.32
 20
763.262
 30
0
 40
0.915
 39
  0
0
CIRCLE
8
JA
 10
5.08
 20
760.72205
 30
0
 40
0.915
 39
  0
0
CIRCLE
8
JA
 10
7.62
 20
760.72205
 30
0
 40
0.915
 39
  0
0
CIRCLE
8
JA
 10
12.7
 20
760.72205
 30
0
 40
0.585
 39
  0
0
CIRCLE
8
JA
 10
20.32
 20
760.72205
 30
0
 40
0.915
 39
  0
0
CIRCLE
8
JA
 10
2.54
 20
758.18207
 30
0
 40
0.915
 39
  0
0
CIRCLE
8
JA
 10
5.08
 20
758.18207
 30
0
 40
0.915
 39
  0
0
CIRCLE
8
JA
 10
12.7
 20
758.18207
 30
0
 40
0.585
 39
  0
0
CIRCLE
8
JA
 10
15.24
 20
758.18207
 30
0
 40
0.915
 39
  0
0
CIRCLE
8
JA
 10
20.32
 20
758.18207
 30
0
 40
0.915
 39
  0
0
CIRCLE
8
JA
 10
2.54
 20
755.6421
 30
0
 40
0.915
 39
  0
0
CIRCLE
8
JA
 10
10.16
 20
755.6421
 30
0
 40
0.915
 39
  0
0
CIRCLE
8
JA
 10
12.7
 20
755.6421
 30
0
 40
0.585
 39
  0
0
CIRCLE
8
JA
 10
15.24
 20
755.6421
 30
0
 40
0.915
 39
  0
0
CIRCLE
8
JA
 10
17.779999
 20
755.6421
 30
0
 40
0.915
 39
  0
0
CIRCLE
8
JA
 10
20.32
 20
755.6421
 30
0
 40
0.915
 39
  0
0
CIRCLE
8
JA
 10
12.7
 20
753.1021
 30
0
 40
0.585
 39
  0
0
CIRCLE
8
JA
 10
20.32
 20
753.1021
 30
0
 40
0.915
 39
  0
0
CIRCLE
8
JA
 10
10.16
 20
750.56213
 30
0
 40
0.915
 39
  0
0
CIRCLE
8
JA
 10
12.7
 20
750.56213
 30
0
 40
0.585
 39
  0
0
CIRCLE
8
JA
 10
20.32
 20
750.56213
 30
0
 40
0.915
 39
  0
0
CIRCLE
8
JA
 10
12.7
 20
748.02216
 30
0
 40
0.585
 39
  0
0
CIRCLE
8
JA
 10
20.32
 20
748.02216
 30
0
 40
0.915
 39
  0
0
CIRCLE
8
JA
 10
7.62
 20
745.4822
 30
0
 40
0.915
 39
  0
0
CIRCLE
8
JA
 10
10.16
 20
745.4822
 30
0
 40
0.915
 39
  0
0
CIRCLE
8
JA
 10
12.7
 20
745.4822
 30
0
 40
0.585
 39
  0
0
CIRCLE
8
JA
 10
15.24
 20
745.4822
 30
0
 40
0.915
 39
  0
0
CIRCLE
8
JA
 10
20.32
 20
745.4822
 30
0
 40
0.915
 39
  0
0
CIRCLE
8
JA
 10
7.62
 20
742.9422
 30
0
 40
0.915
 39
  0
0
CIRCLE
8
JA
 10
10.16
 20
742.9422
 30
0
 40
0.915
 39
  0
0
CIRCLE
8
JA
 10
12.7
 20
742.9422
 30
0
 40
0.585
 39
  0
0
CIRCLE
8
JA
 10
20.32
 20
742.9422
 30
0
 40
0.915
 39
  0
0
CIRCLE
8
JA
 10
5.08
 20
740.4022
 30
0
 40
0.915
 39
  0
0
CIRCLE
8
JA
 10
7.62
 20
740.4022
 30
0
 40
0.915
 39
  0
0
CIRCLE
8
JA
 10
12.7
 20
740.4022
 30
0
 40
0.585
 39
  0
0
CIRCLE
8
JA
 10
15.24
 20
740.4022
 30
0
 40
0.915
 39
  0
0
CIRCLE
8
JA
 10
20.32
 20
740.4022
 30
0
 40
0.915
 39
  0
0
CIRCLE
8
JA
 10
2.54
 20
737.86224
 30
0
 40
0.915
 39
  0
0
CIRCLE
8
JA
 10
5.08
 20
737.86224
 30
0
 40
0.915
 39
  0
0
CIRCLE
8
JA
 10
7.62
 20
737.86224
 30
0
 40
0.915
 39
  0
0
CIRCLE
8
JA
 10
10.16
 20
737.86224
 30
0
 40
0.915
 39
  0
0
CIRCLE
8
JA
 10
12.7
 20
737.86224
 30
0
 40
0.585
 39
  0
0
CIRCLE
8
JA
 10
15.24
 20
737.86224
 30
0
 40
0.915
 39
  0
0
CIRCLE
8
JA
 10
20.32
 20
737.86224
 30
0
 40
0.915
 39
  0
0
CIRCLE
8
JA
 10
2.54
 20
735.32227
 30
0
 40
0.915
 39
  0
0
CIRCLE
8
JA
 10
5.08
 20
735.32227
 30
0
 40
0.915
 39
  0
0
CIRCLE
8
JA
 10
7.62
 20
735.32227
 30
0
 40
0.915
 39
  0
0
CIRCLE
8
JA
 10
12.7
 20
735.32227
 30
0
 40
0.585
 39
  0
0
CIRCLE
8
JA
 10
15.24
 20
735.32227
 30
0
 40
0.915
 39
  0
0
CIRCLE
8
JA
 10
20.32
 20
735.32227
 30
0
 40
0.915
 39
  0
0
CIRCLE
8
JA
 10
5.08
 20
732.7823
 30
0
 40
0.915
 39
  0
0
CIRCLE
8
JA
 10
7.62
 20
732.7823
 30
0
 40
0.915
 39
  0
0
CIRCLE
8
JA
 10
12.7
 20
732.7823
 30
0
 40
0.585
 39
  0
0
CIRCLE
8
JA
 10
15.24
 20
732.7823
 30
0
 40
0.915
 39
  0
0
CIRCLE
8
JA
 10
17.779999
 20
732.7823
 30
0
 40
0.915
 39
  0
0
CIRCLE
8
JA
 10
20.32
 20
732.7823
 30
0
 40
0.915
 39
  0
0
CIRCLE
8
JA
 10
2.54
 20
730.2423
 30
0
 40
0.915
 39
  0
0
CIRCLE
8
JA
 10
5.08
 20
730.2423
 30
0
 40
0.915
 39
  0
0
CIRCLE
8
JA
 10
10.16
 20
730.2423
 30
0
 40
0.915
 39
  0
0
CIRCLE
8
JA
 10
12.7
 20
730.2423
 30
0
 40
0.585
 39
  0
0
CIRCLE
8
JA
 10
15.24
 20
730.2423
 30
0
 40
0.915
 39
  0
0
CIRCLE
8
JA
 10
20.32
 20
730.2423
 30
0
 40
0.915
 39
  0
0
CIRCLE
8
JA
 10
2.54
 20
727.70233
 30
0
 40
0.915
 39
  0
0
CIRCLE
8
JA
 10
5.08
 20
727.70233
 30
0
 40
0.915
 39
  0
0
CIRCLE
8
JA
 10
7.62
 20
727.70233
 30
0
 40
0.915
 39
  0
0
CIRCLE
8
JA
 10
10.16
 20
727.70233
 30
0
 40
0.915
 39
  0
0
CIRCLE
8
JA
 10
12.7
 20
727.70233
 30
0
 40
0.585
 39
  0
0
CIRCLE
8
JA
 10
15.24
 20
727.70233
 30
0
 40
0.915
 39
  0
0
CIRCLE
8
JA
 10
20.32
 20
727.70233
 30
0
 40
0.915
 39
  0
0
CIRCLE
8
JA
 10
2.54
 20
725.16235
 30
0
 40
0.915
 39
  0
0
CIRCLE
8
JA
 10
5.08
 20
725.16235
 30
0
 40
0.915
 39
  0
0
CIRCLE
8
JA
 10
7.62
 20
725.16235
 30
0
 40
0.915
 39
  0
0
CIRCLE
8
JA
 10
10.16
 20
725.16235
 30
0
 40
0.915
 39
  0
0
CIRCLE
8
JA
 10
12.7
 20
725.16235
 30
0
 40
0.585
 39
  0
0
CIRCLE
8
JA
 10
15.24
 20
725.16235
 30
0
 40
0.915
 39
  0
0
CIRCLE
8
JA
 10
17.779999
 20
725.16235
 30
0
 40
0.915
 39
  0
0
CIRCLE
8
JA
 10
20.32
 20
725.16235
 30
0
 40
0.915
 39
  0
0
CIRCLE
8
JA
 10
2.54
 20
722.6224
 30
0
 40
0.915
 39
  0
0
CIRCLE
8
JA
 10
7.62
 20
722.6224
 30
0
 40
0.915
 39
  0
0
CIRCLE
8
JA
 10
10.16
 20
722.6224
 30
0
 40
0.915
 39
  0
0
CIRCLE
8
JA
 10
12.7
 20
722.6224
 30
0
 40
0.585
 39
  0
0
CIRCLE
8
JA
 10
15.24
 20
722.6224
 30
0
 40
0.915
 39
  0
0
CIRCLE
8
JA
 10
20.32
 20
722.6224
 30
0
 40
0.915
 39
  0
0
CIRCLE
8
JA
 10
2.54
 20
720.0824
 30
0
 40
0.915
 39
  0
0
CIRCLE
8
JA
 10
5.08
 20
720.0824
 30
0
 40
0.915
 39
  0
0
CIRCLE
8
JA
 10
7.62
 20
720.0824
 30
0
 40
0.915
 39
  0
0
CIRCLE
8
JA
 10
10.16
 20
720.0824
 30
0
 40
0.915
 39
  0
0
CIRCLE
8
JA
 10
12.7
 20
720.0824
 30
0
 40
0.585
 39
  0
0
CIRCLE
8
JA
 10
15.24
 20
720.0824
 30
0
 40
0.915
 39
  0
0
CIRCLE
8
JA
 10
20.32
 20
720.0824
 30
0
 40
0.915
 39
  0
0
CIRCLE
8
JA
 10
2.54
 20
717.5424
 30
0
 40
0.915
 39
  0
0
CIRCLE
8
JA
 10
5.08
 20
717.5424
 30
0
 40
0.915
 39
  0
0
CIRCLE
8
JA
 10
7.62
 20
717.5424
 30
0
 40
0.915
 39
  0
0
CIRCLE
8
JA
 10
10.16
 20
717.5424
 30
0
 40
0.915
 39
  0
0
CIRCLE
8
JA
 10
12.7
 20
717.5424
 30
0
 40
0.585
 39
  0
0
CIRCLE
8
JA
 10
15.24
 20
717.5424
 30
0
 40
0.915
 39
  0
0
CIRCLE
8
JA
 10
17.779999
 20
717.5424
 30
0
 40
0.915
 39
  0
0
CIRCLE
8
JA
 10
20.32
 20
717.5424
 30
0
 40
0.915
 39
  0
0
CIRCLE
8
JA
 10
2.54
 20
715.00244
 30
0
 40
0.915
 39
  0
0
CIRCLE
8
JA
 10
12.7
 20
715.00244
 30
0
 40
0.585
 39
  0
0
CIRCLE
8
JA
 10
15.24
 20
715.00244
 30
0
 40
0.915
 39
  0
0
CIRCLE
8
JA
 10
20.32
 20
715.00244
 30
0
 40
0.915
 39
  0
0
CIRCLE
8
JA
 10
2.54
 20
712.46246
 30
0
 40
0.915
 39
  0
0
CIRCLE
8
JA
 10
10.16
 20
712.46246
 30
0
 40
0.915
 39
  0
0
CIRCLE
8
JA
 10
12.7
 20
712.46246
 30
0
 40
0.585
 39
  0
0
CIRCLE
8
JA
 10
15.24
 20
712.46246
 30
0
 40
0.915
 39
  0
0
CIRCLE
8
JA
 10
20.32
 20
712.46246
 30
0
 40
0.915
 39
  0
0
CIRCLE
8
JA
 10
7.62
 20
709.9225
 30
0
 40
0.915
 39
  0
0
CIRCLE
8
JA
 10
12.7
 20
709.9225
 30
0
 40
0.585
 39
  0
0
CIRCLE
8
JA
 10
15.24
 20
709.9225
 30
0
 40
0.915
 39
  0
0
CIRCLE
8
JA
 10
17.779999
 20
709.9225
 30
0
 40
0.915
 39
  0
0
CIRCLE
8
JA
 10
20.32
 20
709.9225
 30
0
 40
0.915
 39
  0
0
CIRCLE
8
JA
 10
12.7
 20
707.3825
 30
0
 40
0.585
 39
  0
0
CIRCLE
8
JA
 10
20.32
 20
707.3825
 30
0
 40
0.915
 39
  0
0
CIRCLE
8
JA
 10
12.7
 20
704.8425
 30
0
 40
0.585
 39
  0
0
CIRCLE
8
JA
 10
15.24
 20
704.8425
 30
0
 40
0.915
 39
  0
0
CIRCLE
8
JA
 10
20.32
 20
704.8425
 30
0
 40
0.915
 39
  0
0
CIRCLE
8
JA
 10
12.7
 20
702.30255
 30
0
 40
0.585
 39
  0
0
CIRCLE
8
JA
 10
20.32
 20
702.30255
 30
0
 40
0.915
 39
  0
0
CIRCLE
8
JA
 10
10.16
 20
699.7626
 30
0
 40
0.915
 39
  0
0
CIRCLE
8
JA
 10
12.7
 20
699.7626
 30
0
 40
0.585
 39
  0
0
CIRCLE
8
JA
 10
15.24
 20
699.7626
 30
0
 40
0.915
 39
  0
0
CIRCLE
8
JA
 10
20.32
 20
699.7626
 30
0
 40
0.915
 39
  0
0
CIRCLE
8
JA
 10
2.54
 20
697.2226
 30
0
 40
0.915
 39
  0
0
CIRCLE
8
JA
 10
5.08
 20
697.2226
 30
0
 40
0.915
 39
  0
0
CIRCLE
8
JA
 10
7.62
 20
697.2226
 30
0
 40
0.915
 39
  0
0
CIRCLE
8
JA
 10
12.7
 20
697.2226
 30
0
 40
0.585
 39
  0
0
CIRCLE
8
JA
 10
20.32
 20
697.2226
 30
0
 40
0.915
 39
  0
0
CIRCLE
8
JA
 10
12.7
 20
694.6826
 30
0
 40
0.585
 39
  0
0
CIRCLE
8
JA
 10
20.32
 20
694.6826
 30
0
 40
0.915
 39
  0
0
CIRCLE
8
JA
 10
5.08
 20
692.14264
 30
0
 40
0.915
 39
  0
0
CIRCLE
8
JA
 10
12.7
 20
692.14264
 30
0
 40
0.585
 39
  0
0
CIRCLE
8
JA
 10
20.32
 20
692.14264
 30
0
 40
0.915
 39
  0
0
CIRCLE
8
JA
 10
5.08
 20
689.60266
 30
0
 40
0.915
 39
  0
0
CIRCLE
8
JA
 10
12.7
 20
689.60266
 30
0
 40
0.585
 39
  0
0
CIRCLE
8
JA
 10
20.32
 20
689.60266
 30
0
 40
0.915
 39
  0
0
CIRCLE
8
JA
 10
12.7
 20
687.0627
 30
0
 40
0.585
 39
  0
0
CIRCLE
8
JA
 10
20.32
 20
687.0627
 30
0
 40
0.915
 39
  0
0
CIRCLE
8
JA
 10
12.7
 20
684.5227
 30
0
 40
0.585
 39
  0
0
CIRCLE
8
JA
 10
20.32
 20
684.5227
 30
0
 40
0.915
 39
  0
0
CIRCLE
8
JA
 10
5.08
 20
681.9827
 30
0
 40
0.915
 39
  0
0
CIRCLE
8
JA
 10
12.7
 20
681.9827
 30
0
 40
0.585
 39
  0
0
CIRCLE
8
JA
 10
20.32
 20
681.9827
 30
0
 40
0.915
 39
  0
0
CIRCLE
8
JA
 10
12.7
 20
679.44275
 30
0
 40
0.585
 39
  0
0
CIRCLE
8
JA
 10
20.32
 20
679.44275
 30
0
 40
0.915
 39
  0
0
CIRCLE
8
JA
 10
12.7
 20
676.9028
 30
0
 40
0.585
 39
  0
0
CIRCLE
8
JA
 10
20.32
 20
676.9028
 30
0
 40
0.915
 39
  0
0
CIRCLE
8
JA
 10
12.7
 20
674.3628
 30
0
 40
0.585
 39
  0
0
CIRCLE
8
JA
 10
20.32
 20
674.3628
 30
0
 40
0.915
 39
  0
0
CIRCLE
8
JA
 10
12.7
 20
671.8228
 30
0
 40
0.585
 39
  0
0
CIRCLE
8
JA
 10
17.779999
 20
671.8228
 30
0
 40
0.915
 39
  0
0
CIRCLE
8
JA
 10
20.32
 20
671.8228
 30
0
 40
0.915
 39
  0
0
CIRCLE
8
JA
 10
5.08
 20
669.28284
 30
0
 40
0.915
 39
  0
0
CIRCLE
8
JA
 10
7.62
 20
669.28284
 30
0
 40
0.915
 39
  0
0
CIRCLE
8
JA
 10
10.16
 20
669.28284
 30
0
 40
0.915
 39
  0
0
CIRCLE
8
JA
 10
12.7
 20
669.28284
 30
0
 40
0.585
 39
  0
0
CIRCLE
8
JA
 10
15.24
 20
669.28284
 30
0
 40
0.915
 39
  0
0
CIRCLE
8
JA
 10
20.32
 20
669.28284
 30
0
 40
0.915
 39
  0
0
CIRCLE
8
JA
 10
12.7
 20
666.74286
 30
0
 40
0.585
 39
  0
0
CIRCLE
8
JA
 10
20.32
 20
666.74286
 30
0
 40
0.915
 39
  0
0
CIRCLE
8
JA
 10
2.54
 20
664.2029
 30
0
 40
0.915
 39
  0
0
CIRCLE
8
JA
 10
7.62
 20
664.2029
 30
0
 40
0.915
 39
  0
0
CIRCLE
8
JA
 10
12.7
 20
664.2029
 30
0
 40
0.585
 39
  0
0
CIRCLE
8
JA
 10
20.32
 20
664.2029
 30
0
 40
0.915
 39
  0
0
CIRCLE
8
JA
 10
5.08
 20
661.6629
 30
0
 40
0.915
 39
  0
0
CIRCLE
8
JA
 10
7.62
 20
661.6629
 30
0
 40
0.915
 39
  0
0
CIRCLE
8
JA
 10
10.16
 20
661.6629
 30
0
 40
0.915
 39
  0
0
CIRCLE
8
JA
 10
12.7
 20
661.6629
 30
0
 40
0.585
 39
  0
0
CIRCLE
8
JA
 10
15.24
 20
661.6629
 30
0
 40
0.915
 39
  0
0
CIRCLE
8
JA
 10
20.32
 20
661.6629
 30
0
 40
0.915
 39
  0
0
CIRCLE
8
JA
 10
12.7
 20
659.1229
 30
0
 40
0.585
 39
  0
0
CIRCLE
8
JA
 10
20.32
 20
659.1229
 30
0
 40
0.915
 39
  0
0
CIRCLE
8
JA
 10
2.54
 20
656.58295
 30
0
 40
0.915
 39
  0
0
CIRCLE
8
JA
 10
5.08
 20
656.58295
 30
0
 40
0.915
 39
  0
0
CIRCLE
8
JA
 10
12.7
 20
656.58295
 30
0
 40
0.585
 39
  0
0
CIRCLE
8
JA
 10
15.24
 20
656.58295
 30
0
 40
0.915
 39
  0
0
CIRCLE
8
JA
 10
20.32
 20
656.58295
 30
0
 40
0.915
 39
  0
0
CIRCLE
8
JA
 10
5.08
 20
654.04297
 30
0
 40
0.915
 39
  0
0
CIRCLE
8
JA
 10
7.62
 20
654.04297
 30
0
 40
0.915
 39
  0
0
CIRCLE
8
JA
 10
10.16
 20
654.04297
 30
0
 40
0.915
 39
  0
0
CIRCLE
8
JA
 10
12.7
 20
654.04297
 30
0
 40
0.585
 39
  0
0
CIRCLE
8
JA
 10
15.24
 20
654.04297
 30
0
 40
0.915
 39
  0
0
CIRCLE
8
JA
 10
20.32
 20
654.04297
 30
0
 40
0.915
 39
  0
0
CIRCLE
8
JA
 10
12.7
 20
651.503
 30
0
 40
0.585
 39
  0
0
CIRCLE
8
JA
 10
15.24
 20
651.503
 30
0
 40
0.915
 39
  0
0
CIRCLE
8
JA
 10
20.32
 20
651.503
 30
0
 40
0.915
 39
  0
0
CIRCLE
8
JA
 10
2.54
 20
648.963
 30
0
 40
0.915
 39
  0
0
CIRCLE
8
JA
 10
7.62
 20
648.963
 30
0
 40
0.915
 39
  0
0
CIRCLE
8
JA
 10
12.7
 20
648.963
 30
0
 40
0.585
 39
  0
0
CIRCLE
8
JA
 10
15.24
 20
648.963
 30
0
 40
0.915
 39
  0
0
CIRCLE
8
JA
 10
20.32
 20
648.963
 30
0
 40
0.915
 39
  0
0
CIRCLE
8
JA
 10
12.7
 20
646.42303
 30
0
 40
0.585
 39
  0
0
CIRCLE
8
JA
 10
20.32
 20
646.42303
 30
0
 40
0.915
 39
  0
0
CIRCLE
8
JA
 10
12.7
 20
643.88306
 30
0
 40
0.585
 39
  0
0
CIRCLE
8
JA
 10
20.32
 20
643.88306
 30
0
 40
0.915
 39
  0
0
CIRCLE
8
JA
 10
12.7
 20
641.3431
 30
0
 40
0.585
 39
  0
0
CIRCLE
8
JA
 10
20.32
 20
641.3431
 30
0
 40
0.915
 39
  0
0
CIRCLE
8
JA
 10
2.54
 20
638.8031
 30
0
 40
0.915
 39
  0
0
CIRCLE
8
JA
 10
5.08
 20
638.8031
 30
0
 40
0.915
 39
  0
0
CIRCLE
8
JA
 10
7.62
 20
638.8031
 30
0
 40
0.915
 39
  0
0
CIRCLE
8
JA
 10
10.16
 20
638.8031
 30
0
 40
0.915
 39
  0
0
CIRCLE
8
JA
 10
12.7
 20
638.8031
 30
0
 40
0.585
 39
  0
0
CIRCLE
8
JA
 10
15.24
 20
638.8031
 30
0
 40
0.915
 39
  0
0
CIRCLE
8
JA
 10
20.32
 20
638.8031
 30
0
 40
0.915
 39
  0
0
CIRCLE
8
JA
 10
2.54
 20
636.2631
 30
0
 40
0.915
 39
  0
0
CIRCLE
8
JA
 10
5.08
 20
636.2631
 30
0
 40
0.915
 39
  0
0
CIRCLE
8
JA
 10
7.62
 20
636.2631
 30
0
 40
0.915
 39
  0
0
CIRCLE
8
JA
 10
10.16
 20
636.2631
 30
0
 40
0.915
 39
  0
0
CIRCLE
8
JA
 10
12.7
 20
636.2631
 30
0
 40
0.585
 39
  0
0
CIRCLE
8
JA
 10
15.24
 20
636.2631
 30
0
 40
0.915
 39
  0
0
CIRCLE
8
JA
 10
20.32
 20
636.2631
 30
0
 40
0.915
 39
  0
0
CIRCLE
8
JA
 10
2.54
 20
633.72314
 30
0
 40
0.915
 39
  0
0
CIRCLE
8
JA
 10
5.08
 20
633.72314
 30
0
 40
0.915
 39
  0
0
CIRCLE
8
JA
 10
10.16
 20
633.72314
 30
0
 40
0.915
 39
  0
0
CIRCLE
8
JA
 10
12.7
 20
633.72314
 30
0
 40
0.585
 39
  0
0
CIRCLE
8
JA
 10
15.24
 20
633.72314
 30
0
 40
0.915
 39
  0
0
CIRCLE
8
JA
 10
20.32
 20
633.72314
 30
0
 40
0.915
 39
  0
0
CIRCLE
8
JA
 10
2.54
 20
631.18317
 30
0
 40
0.915
 39
  0
0
CIRCLE
8
JA
 10
7.62
 20
631.18317
 30
0
 40
0.915
 39
  0
0
CIRCLE
8
JA
 10
10.16
 20
631.18317
 30
0
 40
0.915
 39
  0
0
CIRCLE
8
JA
 10
12.7
 20
631.18317
 30
0
 40
0.585
 39
  0
0
CIRCLE
8
JA
 10
20.32
 20
631.18317
 30
0
 40
0.915
 39
  0
0
CIRCLE
8
JA
 10
12.7
 20
628.6432
 30
0
 40
0.585
 39
  0
0
CIRCLE
8
JA
 10
20.32
 20
628.6432
 30
0
 40
0.915
 39
  0
0
CIRCLE
8
JA
 10
12.7
 20
626.1032
 30
0
 40
0.585
 39
  0
0
CIRCLE
8
JA
 10
15.24
 20
626.1032
 30
0
 40
0.915
 39
  0
0
CIRCLE
8
JA
 10
20.32
 20
626.1032
 30
0
 40
0.915
 39
  0
0
CIRCLE
8
JA
 10
5.08
 20
623.56323
 30
0
 40
0.915
 39
  0
0
CIRCLE
8
JA
 10
7.62
 20
623.56323
 30
0
 40
0.915
 39
  0
0
CIRCLE
8
JA
 10
10.16
 20
623.56323
 30
0
 40
0.915
 39
  0
0
CIRCLE
8
JA
 10
12.7
 20
623.56323
 30
0
 40
0.585
 39
  0
0
CIRCLE
8
JA
 10
20.32
 20
623.56323
 30
0
 40
0.915
 39
  0
0
CIRCLE
8
JA
 10
12.7
 20
621.02325
 30
0
 40
0.585
 39
  0
0
CIRCLE
8
JA
 10
20.32
 20
621.02325
 30
0
 40
0.915
 39
  0
0
CIRCLE
8
JA
 10
2.54
 20
618.4833
 30
0
 40
0.915
 39
  0
0
CIRCLE
8
JA
 10
12.7
 20
618.4833
 30
0
 40
0.585
 39
  0
0
CIRCLE
8
JA
 10
20.32
 20
618.4833
 30
0
 40
0.915
 39
  0
0
CIRCLE
8
JA
 10
12.7
 20
615.9433
 30
0
 40
0.585
 39
  0
0
CIRCLE
8
JA
 10
20.32
 20
615.9433
 30
0
 40
0.915
 39
  0
0
CIRCLE
8
JA
 10
12.7
 20
613.4033
 30
0
 40
0.585
 39
  0
0
CIRCLE
8
JA
 10
20.32
 20
613.4033
 30
0
 40
0.915
 39
  0
0
CIRCLE
8
JA
 10
12.7
 20
610.86334
 30
0
 40
0.585
 39
  0
0
CIRCLE
8
JA
 10
17.779999
 20
610.86334
 30
0
 40
0.915
 39
  0
0
CIRCLE
8
JA
 10
20.32
 20
610.86334
 30
0
 40
0.915
 39
  0
0
CIRCLE
8
JA
 10
5.08
 20
608.32336
 30
0
 40
0.915
 39
  0
0
CIRCLE
8
JA
 10
7.62
 20
608.32336
 30
0
 40
0.915
 39
  0
0
CIRCLE
8
JA
 10
10.16
 20
608.32336
 30
0
 40
0.915
 39
  0
0
CIRCLE
8
JA
 10
12.7
 20
608.32336
 30
0
 40
0.585
 39
  0
0
CIRCLE
8
JA
 10
15.24
 20
608.32336
 30
0
 40
0.915
 39
  0
0
CIRCLE
8
JA
 10
20.32
 20
608.32336
 30
0
 40
0.915
 39
  0
0
CIRCLE
8
JA
 10
12.7
 20
605.7834
 30
0
 40
0.585
 39
  0
0
CIRCLE
8
JA
 10
20.32
 20
605.7834
 30
0
 40
0.915
 39
  0
0
CIRCLE
8
JA
 10
5.08
 20
603.2434
 30
0
 40
0.915
 39
  0
0
CIRCLE
8
JA
 10
7.62
 20
603.2434
 30
0
 40
0.915
 39
  0
0
CIRCLE
8
JA
 10
12.7
 20
603.2434
 30
0
 40
0.585
 39
  0
0
CIRCLE
8
JA
 10
15.24
 20
603.2434
 30
0
 40
0.915
 39
  0
0
CIRCLE
8
JA
 10
20.32
 20
603.2434
 30
0
 40
0.915
 39
  0
0
CIRCLE
8
JA
 10
2.54
 20
600.7034
 30
0
 40
0.915
 39
  0
0
CIRCLE
8
JA
 10
12.7
 20
600.7034
 30
0
 40
0.585
 39
  0
0
CIRCLE
8
JA
 10
20.32
 20
600.7034
 30
0
 40
0.915
 39
  0
0
CIRCLE
8
JA
 10
10.16
 20
598.16345
 30
0
 40
0.915
 39
  0
0
CIRCLE
8
JA
 10
12.7
 20
598.16345
 30
0
 40
0.585
 39
  0
0
CIRCLE
8
JA
 10
20.32
 20
598.16345
 30
0
 40
0.915
 39
  0
0
CIRCLE
8
JA
 10
7.62
 20
595.6235
 30
0
 40
0.915
 39
  0
0
CIRCLE
8
JA
 10
12.7
 20
595.6235
 30
0
 40
0.585
 39
  0
0
CIRCLE
8
JA
 10
15.24
 20
595.6235
 30
0
 40
0.915
 39
  0
0
CIRCLE
8
JA
 10
17.779999
 20
595.6235
 30
0
 40
0.915
 39
  0
0
CIRCLE
8
JA
 10
20.32
 20
595.6235
 30
0
 40
0.915
 39
  0
0
CIRCLE
8
JA
 10
5.08
 20
593.0835
 30
0
 40
0.915
 39
  0
0
CIRCLE
8
JA
 10
12.7
 20
593.0835
 30
0
 40
0.585
 39
  0
0
CIRCLE
8
JA
 10
20.32
 20
593.0835
 30
0
 40
0.915
 39
  0
0
CIRCLE
8
JA
 10
12.7
 20
590.5435
 30
0
 40
0.585
 39
  0
0
CIRCLE
8
JA
 10
20.32
 20
590.5435
 30
0
 40
0.915
 39
  0
0
CIRCLE
8
JA
 10
12.7
 20
588.00354
 30
0
 40
0.585
 39
  0
0
CIRCLE
8
JA
 10
15.24
 20
588.00354
 30
0
 40
0.915
 39
  0
0
CIRCLE
8
JA
 10
20.32
 20
588.00354
 30
0
 40
0.915
 39
  0
0
CIRCLE
8
JA
 10
5.08
 20
585.46356
 30
0
 40
0.915
 39
  0
0
CIRCLE
8
JA
 10
7.62
 20
585.46356
 30
0
 40
0.915
 39
  0
0
CIRCLE
8
JA
 10
10.16
 20
585.46356
 30
0
 40
0.915
 39
  0
0
CIRCLE
8
JA
 10
12.7
 20
585.46356
 30
0
 40
0.585
 39
  0
0
CIRCLE
8
JA
 10
15.24
 20
585.46356
 30
0
 40
0.915
 39
  0
0
CIRCLE
8
JA
 10
20.32
 20
585.46356
 30
0
 40
0.915
 39
  0
0
CIRCLE
8
JA
 10
12.7
 20
582.9236
 30
0
 40
0.585
 39
  0
0
CIRCLE
8
JA
 10
15.24
 20
582.9236
 30
0
 40
0.915
 39
  0
0
CIRCLE
8
JA
 10
20.32
 20
582.9236
 30
0
 40
0.915
 39
  0
0
CIRCLE
8
JA
 10
2.54
 20
580.3836
 30
0
 40
0.915
 39
  0
0
CIRCLE
8
JA
 10
7.62
 20
580.3836
 30
0
 40
0.915
 39
  0
0
CIRCLE
8
JA
 10
10.16
 20
580.3836
 30
0
 40
0.915
 39
  0
0
CIRCLE
8
JA
 10
12.7
 20
580.3836
 30
0
 40
0.585
 39
  0
0
CIRCLE
8
JA
 10
15.24
 20
580.3836
 30
0
 40
0.915
 39
  0
0
CIRCLE
8
JA
 10
17.779999
 20
580.3836
 30
0
 40
0.915
 39
  0
0
CIRCLE
8
JA
 10
20.32
 20
580.3836
 30
0
 40
0.915
 39
  0
0
CIRCLE
8
JA
 10
12.7
 20
577.8436
 30
0
 40
0.585
 39
  0
0
CIRCLE
8
JA
 10
20.32
 20
577.8436
 30
0
 40
0.915
 39
  0
0
CIRCLE
8
JA
 10
12.7
 20
575.30365
 30
0
 40
0.585
 39
  0
0
CIRCLE
8
JA
 10
20.32
 20
575.30365
 30
0
 40
0.915
 39
  0
0
CIRCLE
8
JA
 10
12.7
 20
572.7637
 30
0
 40
0.585
 39
  0
0
CIRCLE
8
JA
 10
20.32
 20
572.7637
 30
0
 40
0.915
 39
  0
0
CIRCLE
8
JA
 10
12.7
 20
570.2237
 30
0
 40
0.585
 39
  0
0
CIRCLE
8
JA
 10
20.32
 20
570.2237
 30
0
 40
0.915
 39
  0
0
CIRCLE
8
JA
 10
12.7
 20
567.6837
 30
0
 40
0.585
 39
  0
0
CIRCLE
8
JA
 10
20.32
 20
567.6837
 30
0
 40
0.915
 39
  0
0
CIRCLE
8
JA
 10
12.7
 20
565.14374
 30
0
 40
0.585
 39
  0
0
CIRCLE
8
JA
 10
20.32
 20
565.14374
 30
0
 40
0.915
 39
  0
0
CIRCLE
8
JA
 10
5.08
 20
562.60376
 30
0
 40
0.915
 39
  0
0
CIRCLE
8
JA
 10
10.16
 20
562.60376
 30
0
 40
0.915
 39
  0
0
CIRCLE
8
JA
 10
12.7
 20
562.60376
 30
0
 40
0.585
 39
  0
0
CIRCLE
8
JA
 10
15.24
 20
562.60376
 30
0
 40
0.915
 39
  0
0
CIRCLE
8
JA
 10
20.32
 20
562.60376
 30
0
 40
0.915
 39
  0
0
CIRCLE
8
JA
 10
12.7
 20
560.0638
 30
0
 40
0.585
 39
  0
0
CIRCLE
8
JA
 10
20.32
 20
560.0638
 30
0
 40
0.915
 39
  0
0
CIRCLE
8
JA
 10
10.16
 20
557.5238
 30
0
 40
0.915
 39
  0
0
CIRCLE
8
JA
 10
12.7
 20
557.5238
 30
0
 40
0.585
 39
  0
0
CIRCLE
8
JA
 10
17.779999
 20
557.5238
 30
0
 40
0.915
 39
  0
0
CIRCLE
8
JA
 10
20.32
 20
557.5238
 30
0
 40
0.915
 39
  0
0
CIRCLE
8
JA
 10
12.7
 20
554.9838
 30
0
 40
0.585
 39
  0
0
CIRCLE
8
JA
 10
20.32
 20
554.9838
 30
0
 40
0.915
 39
  0
0
CIRCLE
8
JA
 10
2.54
 20
552.44385
 30
0
 40
0.915
 39
  0
0
CIRCLE
8
JA
 10
5.08
 20
552.44385
 30
0
 40
0.915
 39
  0
0
CIRCLE
8
JA
 10
10.16
 20
552.44385
 30
0
 40
0.915
 39
  0
0
CIRCLE
8
JA
 10
12.7
 20
552.44385
 30
0
 40
0.585
 39
  0
0
CIRCLE
8
JA
 10
15.24
 20
552.44385
 30
0
 40
0.915
 39
  0
0
CIRCLE
8
JA
 10
20.32
 20
552.44385
 30
0
 40
0.915
 39
  0
0
CIRCLE
8
JA
 10
5.08
 20
549.9039
 30
0
 40
0.915
 39
  0
0
CIRCLE
8
JA
 10
7.62
 20
549.9039
 30
0
 40
0.915
 39
  0
0
CIRCLE
8
JA
 10
10.16
 20
549.9039
 30
0
 40
0.915
 39
  0
0
CIRCLE
8
JA
 10
12.7
 20
549.9039
 30
0
 40
0.585
 39
  0
0
CIRCLE
8
JA
 10
17.779999
 20
549.9039
 30
0
 40
0.915
 39
  0
0
CIRCLE
8
JA
 10
20.32
 20
549.9039
 30
0
 40
0.915
 39
  0
0
CIRCLE
8
JA
 10
12.7
 20
547.3639
 30
0
 40
0.585
 39
  0
0
CIRCLE
8
JA
 10
12.7
 20
544.8239
 30
0
 40
0.585
 39
  0
0
CIRCLE
8
JA
 10
12.7
 20
542.28394
 30
0
 40
0.585
 39
  0
0
CIRCLE
8
JA
 10
2.54
 20
539.74396
 30
0
 40
0.915
 39
  0
0
CIRCLE
8
JA
 10
5.08
 20
539.74396
 30
0
 40
0.915
 39
  0
0
CIRCLE
8
JA
 10
7.62
 20
539.74396
 30
0
 40
0.915
 39
  0
0
CIRCLE
8
JA
 10
10.16
 20
539.74396
 30
0
 40
0.915
 39
  0
0
CIRCLE
8
JA
 10
12.7
 20
539.74396
 30
0
 40
0.585
 39
  0
0
CIRCLE
8
JA
 10
15.24
 20
539.74396
 30
0
 40
0.915
 39
  0
0
CIRCLE
8
JA
 10
20.32
 20
539.74396
 30
0
 40
0.915
 39
  0
0
CIRCLE
8
JA
 10
2.54
 20
537.204
 30
0
 40
0.915
 39
  0
0
CIRCLE
8
JA
 10
5.08
 20
537.204
 30
0
 40
0.915
 39
  0
0
CIRCLE
8
JA
 10
7.62
 20
537.204
 30
0
 40
0.915
 39
  0
0
CIRCLE
8
JA
 10
10.16
 20
537.204
 30
0
 40
0.915
 39
  0
0
CIRCLE
8
JA
 10
12.7
 20
537.204
 30
0
 40
0.585
 39
  0
0
CIRCLE
8
JA
 10
15.24
 20
537.204
 30
0
 40
0.915
 39
  0
0
CIRCLE
8
JA
 10
20.32
 20
537.204
 30
0
 40
0.915
 39
  0
0
CIRCLE
8
JA
 10
2.54
 20
534.664
 30
0
 40
0.915
 39
  0
0
CIRCLE
8
JA
 10
5.08
 20
534.664
 30
0
 40
0.915
 39
  0
0
CIRCLE
8
JA
 10
7.62
 20
534.664
 30
0
 40
0.915
 39
  0
0
CIRCLE
8
JA
 10
12.7
 20
534.664
 30
0
 40
0.585
 39
  0
0
CIRCLE
8
JA
 10
15.24
 20
534.664
 30
0
 40
0.915
 39
  0
0
CIRCLE
8
JA
 10
20.32
 20
534.664
 30
0
 40
0.915
 39
  0
0
CIRCLE
8
JA
 10
5.08
 20
532.124
 30
0
 40
0.915
 39
  0
0
CIRCLE
8
JA
 10
12.7
 20
532.124
 30
0
 40
0.585
 39
  0
0
CIRCLE
8
JA
 10
20.32
 20
532.124
 30
0
 40
0.915
 39
  0
0
CIRCLE
8
JA
 10
10.16
 20
529.58405
 30
0
 40
0.915
 39
  0
0
CIRCLE
8
JA
 10
12.7
 20
529.58405
 30
0
 40
0.585
 39
  0
0
CIRCLE
8
JA
 10
20.32
 20
529.58405
 30
0
 40
0.915
 39
  0
0
CIRCLE
8
JA
 10
2.54
 20
527.04407
 30
0
 40
0.915
 39
  0
0
CIRCLE
8
JA
 10
12.7
 20
527.04407
 30
0
 40
0.585
 39
  0
0
CIRCLE
8
JA
 10
20.32
 20
527.04407
 30
0
 40
0.915
 39
  0
0
CIRCLE
8
JA
 10
5.08
 20
524.5041
 30
0
 40
0.915
 39
  0
0
CIRCLE
8
JA
 10
12.7
 20
524.5041
 30
0
 40
0.585
 39
  0
0
CIRCLE
8
JA
 10
20.32
 20
524.5041
 30
0
 40
0.915
 39
  0
0
CIRCLE
8
JA
 10
10.16
 20
521.9641
 30
0
 40
0.915
 39
  0
0
CIRCLE
8
JA
 10
12.7
 20
521.9641
 30
0
 40
0.585
 39
  0
0
CIRCLE
8
JA
 10
20.32
 20
521.9641
 30
0
 40
0.915
 39
  0
0
CIRCLE
8
JA
 10
5.08
 20
519.42413
 30
0
 40
0.915
 39
  0
0
CIRCLE
8
JA
 10
10.16
 20
519.42413
 30
0
 40
0.915
 39
  0
0
CIRCLE
8
JA
 10
12.7
 20
519.42413
 30
0
 40
0.585
 39
  0
0
CIRCLE
8
JA
 10
20.32
 20
519.42413
 30
0
 40
0.915
 39
  0
0
CIRCLE
8
JA
 10
12.7
 20
516.88416
 30
0
 40
0.585
 39
  0
0
CIRCLE
8
JA
 10
20.32
 20
516.88416
 30
0
 40
0.915
 39
  0
0
CIRCLE
8
JA
 10
7.62
 20
514.3442
 30
0
 40
0.915
 39
  0
0
CIRCLE
8
JA
 10
10.16
 20
514.3442
 30
0
 40
0.915
 39
  0
0
CIRCLE
8
JA
 10
12.7
 20
514.3442
 30
0
 40
0.585
 39
  0
0
CIRCLE
8
JA
 10
20.32
 20
514.3442
 30
0
 40
0.915
 39
  0
0
CIRCLE
8
JA
 10
12.7
 20
511.80417
 30
0
 40
0.585
 39
  0
0
CIRCLE
8
JA
 10
20.32
 20
511.80417
 30
0
 40
0.915
 39
  0
0
CIRCLE
8
JA
 10
2.54
 20
509.26416
 30
0
 40
0.915
 39
  0
0
CIRCLE
8
JA
 10
12.7
 20
509.26416
 30
0
 40
0.585
 39
  0
0
CIRCLE
8
JA
 10
20.32
 20
509.26416
 30
0
 40
0.915
 39
  0
0
CIRCLE
8
JA
 10
10.16
 20
506.72415
 30
0
 40
0.915
 39
  0
0
CIRCLE
8
JA
 10
12.7
 20
506.72415
 30
0
 40
0.585
 39
  0
0
CIRCLE
8
JA
 10
20.32
 20
506.72415
 30
0
 40
0.915
 39
  0
0
CIRCLE
8
JA
 10
5.08
 20
504.18414
 30
0
 40
0.915
 39
  0
0
CIRCLE
8
JA
 10
12.7
 20
504.18414
 30
0
 40
0.585
 39
  0
0
CIRCLE
8
JA
 10
15.24
 20
504.18414
 30
0
 40
0.915
 39
  0
0
CIRCLE
8
JA
 10
17.779999
 20
504.18414
 30
0
 40
0.915
 39
  0
0
CIRCLE
8
JA
 10
20.32
 20
504.18414
 30
0
 40
0.915
 39
  0
0
CIRCLE
8
JA
 10
7.62
 20
501.64413
 30
0
 40
0.915
 39
  0
0
CIRCLE
8
JA
 10
12.7
 20
501.64413
 30
0
 40
0.585
 39
  0
0
CIRCLE
8
JA
 10
15.24
 20
501.64413
 30
0
 40
0.915
 39
  0
0
CIRCLE
8
JA
 10
20.32
 20
501.64413
 30
0
 40
0.915
 39
  0
0
CIRCLE
8
JA
 10
12.7
 20
499.10413
 30
0
 40
0.585
 39
  0
0
CIRCLE
8
JA
 10
20.32
 20
499.10413
 30
0
 40
0.915
 39
  0
0
CIRCLE
8
JA
 10
12.7
 20
496.56412
 30
0
 40
0.585
 39
  0
0
CIRCLE
8
JA
 10
20.32
 20
496.56412
 30
0
 40
0.915
 39
  0
0
CIRCLE
8
JA
 10
2.54
 20
494.0241
 30
0
 40
0.915
 39
  0
0
CIRCLE
8
JA
 10
12.7
 20
494.0241
 30
0
 40
0.585
 39
  0
0
CIRCLE
8
JA
 10
20.32
 20
494.0241
 30
0
 40
0.915
 39
  0
0
CIRCLE
8
JA
 10
10.16
 20
491.4841
 30
0
 40
0.915
 39
  0
0
CIRCLE
8
JA
 10
12.7
 20
491.4841
 30
0
 40
0.585
 39
  0
0
CIRCLE
8
JA
 10
20.32
 20
491.4841
 30
0
 40
0.915
 39
  0
0
CIRCLE
8
JA
 10
5.08
 20
488.9441
 30
0
 40
0.915
 39
  0
0
CIRCLE
8
JA
 10
10.16
 20
488.9441
 30
0
 40
0.915
 39
  0
0
CIRCLE
8
JA
 10
12.7
 20
488.9441
 30
0
 40
0.585
 39
  0
0
CIRCLE
8
JA
 10
20.32
 20
488.9441
 30
0
 40
0.915
 39
  0
0
CIRCLE
8
JA
 10
5.08
 20
486.40408
 30
0
 40
0.915
 39
  0
0
CIRCLE
8
JA
 10
7.62
 20
486.40408
 30
0
 40
0.915
 39
  0
0
CIRCLE
8
JA
 10
10.16
 20
486.40408
 30
0
 40
0.915
 39
  0
0
CIRCLE
8
JA
 10
12.7
 20
486.40408
 30
0
 40
0.585
 39
  0
0
CIRCLE
8
JA
 10
15.24
 20
486.40408
 30
0
 40
0.915
 39
  0
0
CIRCLE
8
JA
 10
20.32
 20
486.40408
 30
0
 40
0.915
 39
  0
0
CIRCLE
8
JA
 10
12.7
 20
483.86407
 30
0
 40
0.585
 39
  0
0
CIRCLE
8
JA
 10
20.32
 20
483.86407
 30
0
 40
0.915
 39
  0
0
CIRCLE
8
JA
 10
2.54
 20
481.32407
 30
0
 40
0.915
 39
  0
0
CIRCLE
8
JA
 10
5.08
 20
481.32407
 30
0
 40
0.915
 39
  0
0
CIRCLE
8
JA
 10
12.7
 20
481.32407
 30
0
 40
0.585
 39
  0
0
CIRCLE
8
JA
 10
20.32
 20
481.32407
 30
0
 40
0.915
 39
  0
0
CIRCLE
8
JA
 10
5.08
 20
478.78406
 30
0
 40
0.915
 39
  0
0
CIRCLE
8
JA
 10
10.16
 20
478.78406
 30
0
 40
0.915
 39
  0
0
CIRCLE
8
JA
 10
12.7
 20
478.78406
 30
0
 40
0.585
 39
  0
0
CIRCLE
8
JA
 10
15.24
 20
478.78406
 30
0
 40
0.915
 39
  0
0
CIRCLE
8
JA
 10
20.32
 20
478.78406
 30
0
 40
0.915
 39
  0
0
CIRCLE
8
JA
 10
12.7
 20
476.24405
 30
0
 40
0.585
 39
  0
0
CIRCLE
8
JA
 10
20.32
 20
476.24405
 30
0
 40
0.915
 39
  0
0
CIRCLE
8
JA
 10
10.16
 20
473.70404
 30
0
 40
0.915
 39
  0
0
CIRCLE
8
JA
 10
12.7
 20
473.70404
 30
0
 40
0.585
 39
  0
0
CIRCLE
8
JA
 10
17.779999
 20
473.70404
 30
0
 40
0.915
 39
  0
0
CIRCLE
8
JA
 10
20.32
 20
473.70404
 30
0
 40
0.915
 39
  0
0
CIRCLE
8
JA
 10
7.62
 20
471.16403
 30
0
 40
0.915
 39
  0
0
CIRCLE
8
JA
 10
12.7
 20
471.16403
 30
0
 40
0.585
 39
  0
0
CIRCLE
8
JA
 10
20.32
 20
471.16403
 30
0
 40
0.915
 39
  0
0
CIRCLE
8
JA
 10
2.54
 20
468.62402
 30
0
 40
0.915
 39
  0
0
CIRCLE
8
JA
 10
12.7
 20
468.62402
 30
0
 40
0.585
 39
  0
0
CIRCLE
8
JA
 10
20.32
 20
468.62402
 30
0
 40
0.915
 39
  0
0
CIRCLE
8
JA
 10
7.62
 20
466.084
 30
0
 40
0.915
 39
  0
0
CIRCLE
8
JA
 10
10.16
 20
466.084
 30
0
 40
0.915
 39
  0
0
CIRCLE
8
JA
 10
12.7
 20
466.084
 30
0
 40
0.585
 39
  0
0
CIRCLE
8
JA
 10
17.779999
 20
466.084
 30
0
 40
0.915
 39
  0
0
CIRCLE
8
JA
 10
20.32
 20
466.084
 30
0
 40
0.915
 39
  0
0
CIRCLE
8
JA
 10
12.7
 20
463.544
 30
0
 40
0.585
 39
  0
0
CIRCLE
8
JA
 10
12.7
 20
461.004
 30
0
 40
0.585
 39
  0
0
CIRCLE
8
JA
 10
12.7
 20
458.464
 30
0
 40
0.585
 39
  0
0
CIRCLE
8
JA
 10
2.54
 20
455.92398
 30
0
 40
0.915
 39
  0
0
CIRCLE
8
JA
 10
5.08
 20
455.92398
 30
0
 40
0.915
 39
  0
0
CIRCLE
8
JA
 10
7.62
 20
455.92398
 30
0
 40
0.915
 39
  0
0
CIRCLE
8
JA
 10
10.16
 20
455.92398
 30
0
 40
0.915
 39
  0
0
CIRCLE
8
JA
 10
12.7
 20
455.92398
 30
0
 40
0.585
 39
  0
0
CIRCLE
8
JA
 10
15.24
 20
455.92398
 30
0
 40
0.915
 39
  0
0
CIRCLE
8
JA
 10
20.32
 20
455.92398
 30
0
 40
0.915
 39
  0
0
CIRCLE
8
JA
 10
2.54
 20
453.38397
 30
0
 40
0.915
 39
  0
0
CIRCLE
8
JA
 10
5.08
 20
453.38397
 30
0
 40
0.915
 39
  0
0
CIRCLE
8
JA
 10
7.62
 20
453.38397
 30
0
 40
0.915
 39
  0
0
CIRCLE
8
JA
 10
10.16
 20
453.38397
 30
0
 40
0.915
 39
  0
0
CIRCLE
8
JA
 10
12.7
 20
453.38397
 30
0
 40
0.585
 39
  0
0
CIRCLE
8
JA
 10
15.24
 20
453.38397
 30
0
 40
0.915
 39
  0
0
CIRCLE
8
JA
 10
20.32
 20
453.38397
 30
0
 40
0.915
 39
  0
0
CIRCLE
8
JA
 10
2.54
 20
450.84396
 30
0
 40
0.915
 39
  0
0
CIRCLE
8
JA
 10
5.08
 20
450.84396
 30
0
 40
0.915
 39
  0
0
CIRCLE
8
JA
 10
7.62
 20
450.84396
 30
0
 40
0.915
 39
  0
0
CIRCLE
8
JA
 10
12.7
 20
450.84396
 30
0
 40
0.585
 39
  0
0
CIRCLE
8
JA
 10
15.24
 20
450.84396
 30
0
 40
0.915
 39
  0
0
CIRCLE
8
JA
 10
20.32
 20
450.84396
 30
0
 40
0.915
 39
  0
0
CIRCLE
8
JA
 10
5.08
 20
448.30396
 30
0
 40
0.915
 39
  0
0
CIRCLE
8
JA
 10
12.7
 20
448.30396
 30
0
 40
0.585
 39
  0
0
CIRCLE
8
JA
 10
20.32
 20
448.30396
 30
0
 40
0.915
 39
  0
0
CIRCLE
8
JA
 10
10.16
 20
445.76395
 30
0
 40
0.915
 39
  0
0
CIRCLE
8
JA
 10
12.7
 20
445.76395
 30
0
 40
0.585
 39
  0
0
CIRCLE
8
JA
 10
20.32
 20
445.76395
 30
0
 40
0.915
 39
  0
0
CIRCLE
8
JA
 10
2.54
 20
443.22394
 30
0
 40
0.915
 39
  0
0
CIRCLE
8
JA
 10
5.08
 20
443.22394
 30
0
 40
0.915
 39
  0
0
CIRCLE
8
JA
 10
12.7
 20
443.22394
 30
0
 40
0.585
 39
  0
0
CIRCLE
8
JA
 10
20.32
 20
443.22394
 30
0
 40
0.915
 39
  0
0
CIRCLE
8
JA
 10
5.08
 20
440.68393
 30
0
 40
0.915
 39
  0
0
CIRCLE
8
JA
 10
12.7
 20
440.68393
 30
0
 40
0.585
 39
  0
0
CIRCLE
8
JA
 10
20.32
 20
440.68393
 30
0
 40
0.915
 39
  0
0
CIRCLE
8
JA
 10
10.16
 20
438.14392
 30
0
 40
0.915
 39
  0
0
CIRCLE
8
JA
 10
12.7
 20
438.14392
 30
0
 40
0.585
 39
  0
0
CIRCLE
8
JA
 10
20.32
 20
438.14392
 30
0
 40
0.915
 39
  0
0
CIRCLE
8
JA
 10
5.08
 20
435.6039
 30
0
 40
0.915
 39
  0
0
CIRCLE
8
JA
 10
10.16
 20
435.6039
 30
0
 40
0.915
 39
  0
0
CIRCLE
8
JA
 10
12.7
 20
435.6039
 30
0
 40
0.585
 39
  0
0
CIRCLE
8
JA
 10
20.32
 20
435.6039
 30
0
 40
0.915
 39
  0
0
CIRCLE
8
JA
 10
12.7
 20
433.0639
 30
0
 40
0.585
 39
  0
0
CIRCLE
8
JA
 10
20.32
 20
433.0639
 30
0
 40
0.915
 39
  0
0
CIRCLE
8
JA
 10
7.62
 20
430.5239
 30
0
 40
0.915
 39
  0
0
CIRCLE
8
JA
 10
10.16
 20
430.5239
 30
0
 40
0.915
 39
  0
0
CIRCLE
8
JA
 10
12.7
 20
430.5239
 30
0
 40
0.585
 39
  0
0
CIRCLE
8
JA
 10
20.32
 20
430.5239
 30
0
 40
0.915
 39
  0
0
CIRCLE
8
JA
 10
12.7
 20
427.9839
 30
0
 40
0.585
 39
  0
0
CIRCLE
8
JA
 10
20.32
 20
427.9839
 30
0
 40
0.915
 39
  0
0
CIRCLE
8
JA
 10
2.54
 20
425.44388
 30
0
 40
0.915
 39
  0
0
CIRCLE
8
JA
 10
12.7
 20
425.44388
 30
0
 40
0.585
 39
  0
0
CIRCLE
8
JA
 10
20.32
 20
425.44388
 30
0
 40
0.915
 39
  0
0
CIRCLE
8
JA
 10
10.16
 20
422.90387
 30
0
 40
0.915
 39
  0
0
CIRCLE
8
JA
 10
12.7
 20
422.90387
 30
0
 40
0.585
 39
  0
0
CIRCLE
8
JA
 10
20.32
 20
422.90387
 30
0
 40
0.915
 39
  0
0
CIRCLE
8
JA
 10
5.08
 20
420.36386
 30
0
 40
0.915
 39
  0
0
CIRCLE
8
JA
 10
12.7
 20
420.36386
 30
0
 40
0.585
 39
  0
0
CIRCLE
8
JA
 10
15.24
 20
420.36386
 30
0
 40
0.915
 39
  0
0
CIRCLE
8
JA
 10
17.779999
 20
420.36386
 30
0
 40
0.915
 39
  0
0
CIRCLE
8
JA
 10
20.32
 20
420.36386
 30
0
 40
0.915
 39
  0
0
CIRCLE
8
JA
 10
7.62
 20
417.82385
 30
0
 40
0.915
 39
  0
0
CIRCLE
8
JA
 10
12.7
 20
417.82385
 30
0
 40
0.585
 39
  0
0
CIRCLE
8
JA
 10
15.24
 20
417.82385
 30
0
 40
0.915
 39
  0
0
CIRCLE
8
JA
 10
20.32
 20
417.82385
 30
0
 40
0.915
 39
  0
0
CIRCLE
8
JA
 10
12.7
 20
415.28384
 30
0
 40
0.585
 39
  0
0
CIRCLE
8
JA
 10
20.32
 20
415.28384
 30
0
 40
0.915
 39
  0
0
CIRCLE
8
JA
 10
12.7
 20
412.74384
 30
0
 40
0.585
 39
  0
0
CIRCLE
8
JA
 10
20.32
 20
412.74384
 30
0
 40
0.915
 39
  0
0
CIRCLE
8
JA
 10
2.54
 20
410.20383
 30
0
 40
0.915
 39
  0
0
CIRCLE
8
JA
 10
12.7
 20
410.20383
 30
0
 40
0.585
 39
  0
0
CIRCLE
8
JA
 10
20.32
 20
410.20383
 30
0
 40
0.915
 39
  0
0
CIRCLE
8
JA
 10
10.16
 20
407.66382
 30
0
 40
0.915
 39
  0
0
CIRCLE
8
JA
 10
12.7
 20
407.66382
 30
0
 40
0.585
 39
  0
0
CIRCLE
8
JA
 10
20.32
 20
407.66382
 30
0
 40
0.915
 39
  0
0
CIRCLE
8
JA
 10
5.08
 20
405.1238
 30
0
 40
0.915
 39
  0
0
CIRCLE
8
JA
 10
10.16
 20
405.1238
 30
0
 40
0.915
 39
  0
0
CIRCLE
8
JA
 10
12.7
 20
405.1238
 30
0
 40
0.585
 39
  0
0
CIRCLE
8
JA
 10
20.32
 20
405.1238
 30
0
 40
0.915
 39
  0
0
CIRCLE
8
JA
 10
5.08
 20
402.5838
 30
0
 40
0.915
 39
  0
0
CIRCLE
8
JA
 10
7.62
 20
402.5838
 30
0
 40
0.915
 39
  0
0
CIRCLE
8
JA
 10
10.16
 20
402.5838
 30
0
 40
0.915
 39
  0
0
CIRCLE
8
JA
 10
12.7
 20
402.5838
 30
0
 40
0.585
 39
  0
0
CIRCLE
8
JA
 10
15.24
 20
402.5838
 30
0
 40
0.915
 39
  0
0
CIRCLE
8
JA
 10
20.32
 20
402.5838
 30
0
 40
0.915
 39
  0
0
CIRCLE
8
JA
 10
12.7
 20
400.0438
 30
0
 40
0.585
 39
  0
0
CIRCLE
8
JA
 10
20.32
 20
400.0438
 30
0
 40
0.915
 39
  0
0
CIRCLE
8
JA
 10
2.54
 20
397.50378
 30
0
 40
0.915
 39
  0
0
CIRCLE
8
JA
 10
5.08
 20
397.50378
 30
0
 40
0.915
 39
  0
0
CIRCLE
8
JA
 10
7.62
 20
397.50378
 30
0
 40
0.915
 39
  0
0
CIRCLE
8
JA
 10
12.7
 20
397.50378
 30
0
 40
0.585
 39
  0
0
CIRCLE
8
JA
 10
17.779999
 20
397.50378
 30
0
 40
0.915
 39
  0
0
CIRCLE
8
JA
 10
20.32
 20
397.50378
 30
0
 40
0.915
 39
  0
0
CIRCLE
8
JA
 10
5.08
 20
394.96378
 30
0
 40
0.915
 39
  0
0
CIRCLE
8
JA
 10
10.16
 20
394.96378
 30
0
 40
0.915
 39
  0
0
CIRCLE
8
JA
 10
12.7
 20
394.96378
 30
0
 40
0.585
 39
  0
0
CIRCLE
8
JA
 10
15.24
 20
394.96378
 30
0
 40
0.915
 39
  0
0
CIRCLE
8
JA
 10
20.32
 20
394.96378
 30
0
 40
0.915
 39
  0
0
CIRCLE
8
JA
 10
12.7
 20
392.42377
 30
0
 40
0.585
 39
  0
0
CIRCLE
8
JA
 10
20.32
 20
392.42377
 30
0
 40
0.915
 39
  0
0
CIRCLE
8
JA
 10
10.16
 20
389.88376
 30
0
 40
0.915
 39
  0
0
CIRCLE
8
JA
 10
12.7
 20
389.88376
 30
0
 40
0.585
 39
  0
0
CIRCLE
8
JA
 10
17.779999
 20
389.88376
 30
0
 40
0.915
 39
  0
0
CIRCLE
8
JA
 10
20.32
 20
389.88376
 30
0
 40
0.915
 39
  0
0
CIRCLE
8
JA
 10
7.62
 20
387.34375
 30
0
 40
0.915
 39
  0
0
CIRCLE
8
JA
 10
12.7
 20
387.34375
 30
0
 40
0.585
 39
  0
0
CIRCLE
8
JA
 10
20.32
 20
387.34375
 30
0
 40
0.915
 39
  0
0
CIRCLE
8
JA
 10
2.54
 20
384.80374
 30
0
 40
0.915
 39
  0
0
CIRCLE
8
JA
 10
12.7
 20
384.80374
 30
0
 40
0.585
 39
  0
0
CIRCLE
8
JA
 10
20.32
 20
384.80374
 30
0
 40
0.915
 39
  0
0
CIRCLE
8
JA
 10
2.54
 20
382.26373
 30
0
 40
0.915
 39
  0
0
CIRCLE
8
JA
 10
10.16
 20
382.26373
 30
0
 40
0.915
 39
  0
0
CIRCLE
8
JA
 10
12.7
 20
382.26373
 30
0
 40
0.585
 39
  0
0
CIRCLE
8
JA
 10
15.24
 20
382.26373
 30
0
 40
0.915
 39
  0
0
CIRCLE
8
JA
 10
20.32
 20
382.26373
 30
0
 40
0.915
 39
  0
0
CIRCLE
8
JA
 10
12.7
 20
379.72372
 30
0
 40
0.585
 39
  0
0
CIRCLE
8
JA
 10
12.7
 20
377.18372
 30
0
 40
0.585
 39
  0
0
CIRCLE
8
JA
 10
12.7
 20
374.6437
 30
0
 40
0.585
 39
  0
0
CIRCLE
8
JA
 10
2.54
 20
372.1037
 30
0
 40
0.915
 39
  0
0
CIRCLE
8
JA
 10
5.08
 20
372.1037
 30
0
 40
0.915
 39
  0
0
CIRCLE
8
JA
 10
7.62
 20
372.1037
 30
0
 40
0.915
 39
  0
0
CIRCLE
8
JA
 10
10.16
 20
372.1037
 30
0
 40
0.915
 39
  0
0
CIRCLE
8
JA
 10
12.7
 20
372.1037
 30
0
 40
0.585
 39
  0
0
CIRCLE
8
JA
 10
15.24
 20
372.1037
 30
0
 40
0.915
 39
  0
0
CIRCLE
8
JA
 10
20.32
 20
372.1037
 30
0
 40
0.915
 39
  0
0
CIRCLE
8
JA
 10
2.54
 20
369.5637
 30
0
 40
0.915
 39
  0
0
CIRCLE
8
JA
 10
5.08
 20
369.5637
 30
0
 40
0.915
 39
  0
0
CIRCLE
8
JA
 10
7.62
 20
369.5637
 30
0
 40
0.915
 39
  0
0
CIRCLE
8
JA
 10
10.16
 20
369.5637
 30
0
 40
0.915
 39
  0
0
CIRCLE
8
JA
 10
12.7
 20
369.5637
 30
0
 40
0.585
 39
  0
0
CIRCLE
8
JA
 10
15.24
 20
369.5637
 30
0
 40
0.915
 39
  0
0
CIRCLE
8
JA
 10
20.32
 20
369.5637
 30
0
 40
0.915
 39
  0
0
CIRCLE
8
JA
 10
2.54
 20
367.02368
 30
0
 40
0.915
 39
  0
0
CIRCLE
8
JA
 10
5.08
 20
367.02368
 30
0
 40
0.915
 39
  0
0
CIRCLE
8
JA
 10
7.62
 20
367.02368
 30
0
 40
0.915
 39
  0
0
CIRCLE
8
JA
 10
12.7
 20
367.02368
 30
0
 40
0.585
 39
  0
0
CIRCLE
8
JA
 10
15.24
 20
367.02368
 30
0
 40
0.915
 39
  0
0
CIRCLE
8
JA
 10
20.32
 20
367.02368
 30
0
 40
0.915
 39
  0
0
CIRCLE
8
JA
 10
5.08
 20
364.48367
 30
0
 40
0.915
 39
  0
0
CIRCLE
8
JA
 10
12.7
 20
364.48367
 30
0
 40
0.585
 39
  0
0
CIRCLE
8
JA
 10
20.32
 20
364.48367
 30
0
 40
0.915
 39
  0
0
CIRCLE
8
JA
 10
10.16
 20
361.94366
 30
0
 40
0.915
 39
  0
0
CIRCLE
8
JA
 10
12.7
 20
361.94366
 30
0
 40
0.585
 39
  0
0
CIRCLE
8
JA
 10
15.24
 20
361.94366
 30
0
 40
0.915
 39
  0
0
CIRCLE
8
JA
 10
20.32
 20
361.94366
 30
0
 40
0.915
 39
  0
0
CIRCLE
8
JA
 10
12.7
 20
359.40366
 30
0
 40
0.585
 39
  0
0
CIRCLE
8
JA
 10
20.32
 20
359.40366
 30
0
 40
0.915
 39
  0
0
CIRCLE
8
JA
 10
5.08
 20
356.86365
 30
0
 40
0.915
 39
  0
0
CIRCLE
8
JA
 10
12.7
 20
356.86365
 30
0
 40
0.585
 39
  0
0
CIRCLE
8
JA
 10
20.32
 20
356.86365
 30
0
 40
0.915
 39
  0
0
CIRCLE
8
JA
 10
10.16
 20
354.32364
 30
0
 40
0.915
 39
  0
0
CIRCLE
8
JA
 10
12.7
 20
354.32364
 30
0
 40
0.585
 39
  0
0
CIRCLE
8
JA
 10
20.32
 20
354.32364
 30
0
 40
0.915
 39
  0
0
CIRCLE
8
JA
 10
5.08
 20
351.78363
 30
0
 40
0.915
 39
  0
0
CIRCLE
8
JA
 10
10.16
 20
351.78363
 30
0
 40
0.915
 39
  0
0
CIRCLE
8
JA
 10
12.7
 20
351.78363
 30
0
 40
0.585
 39
  0
0
CIRCLE
8
JA
 10
20.32
 20
351.78363
 30
0
 40
0.915
 39
  0
0
CIRCLE
8
JA
 10
12.7
 20
349.24362
 30
0
 40
0.585
 39
  0
0
CIRCLE
8
JA
 10
20.32
 20
349.24362
 30
0
 40
0.915
 39
  0
0
CIRCLE
8
JA
 10
7.62
 20
346.7036
 30
0
 40
0.915
 39
  0
0
CIRCLE
8
JA
 10
10.16
 20
346.7036
 30
0
 40
0.915
 39
  0
0
CIRCLE
8
JA
 10
12.7
 20
346.7036
 30
0
 40
0.585
 39
  0
0
CIRCLE
8
JA
 10
20.32
 20
346.7036
 30
0
 40
0.915
 39
  0
0
CIRCLE
8
JA
 10
12.7
 20
344.1636
 30
0
 40
0.585
 39
  0
0
CIRCLE
8
JA
 10
20.32
 20
344.1636
 30
0
 40
0.915
 39
  0
0
CIRCLE
8
JA
 10
2.54
 20
341.6236
 30
0
 40
0.915
 39
  0
0
CIRCLE
8
JA
 10
12.7
 20
341.6236
 30
0
 40
0.585
 39
  0
0
CIRCLE
8
JA
 10
20.32
 20
341.6236
 30
0
 40
0.915
 39
  0
0
CIRCLE
8
JA
 10
10.16
 20
339.0836
 30
0
 40
0.915
 39
  0
0
CIRCLE
8
JA
 10
12.7
 20
339.0836
 30
0
 40
0.585
 39
  0
0
CIRCLE
8
JA
 10
20.32
 20
339.0836
 30
0
 40
0.915
 39
  0
0
CIRCLE
8
JA
 10
5.08
 20
336.54358
 30
0
 40
0.915
 39
  0
0
CIRCLE
8
JA
 10
12.7
 20
336.54358
 30
0
 40
0.585
 39
  0
0
CIRCLE
8
JA
 10
15.24
 20
336.54358
 30
0
 40
0.915
 39
  0
0
CIRCLE
8
JA
 10
17.779999
 20
336.54358
 30
0
 40
0.915
 39
  0
0
CIRCLE
8
JA
 10
20.32
 20
336.54358
 30
0
 40
0.915
 39
  0
0
CIRCLE
8
JA
 10
7.62
 20
334.00357
 30
0
 40
0.915
 39
  0
0
CIRCLE
8
JA
 10
12.7
 20
334.00357
 30
0
 40
0.585
 39
  0
0
CIRCLE
8
JA
 10
15.24
 20
334.00357
 30
0
 40
0.915
 39
  0
0
CIRCLE
8
JA
 10
20.32
 20
334.00357
 30
0
 40
0.915
 39
  0
0
CIRCLE
8
JA
 10
12.7
 20
331.46356
 30
0
 40
0.585
 39
  0
0
CIRCLE
8
JA
 10
20.32
 20
331.46356
 30
0
 40
0.915
 39
  0
0
CIRCLE
8
JA
 10
12.7
 20
328.92355
 30
0
 40
0.585
 39
  0
0
CIRCLE
8
JA
 10
20.32
 20
328.92355
 30
0
 40
0.915
 39
  0
0
CIRCLE
8
JA
 10
2.54
 20
326.38354
 30
0
 40
0.915
 39
  0
0
CIRCLE
8
JA
 10
12.7
 20
326.38354
 30
0
 40
0.585
 39
  0
0
CIRCLE
8
JA
 10
20.32
 20
326.38354
 30
0
 40
0.915
 39
  0
0
CIRCLE
8
JA
 10
10.16
 20
323.84354
 30
0
 40
0.915
 39
  0
0
CIRCLE
8
JA
 10
12.7
 20
323.84354
 30
0
 40
0.585
 39
  0
0
CIRCLE
8
JA
 10
20.32
 20
323.84354
 30
0
 40
0.915
 39
  0
0
CIRCLE
8
JA
 10
5.08
 20
321.30353
 30
0
 40
0.915
 39
  0
0
CIRCLE
8
JA
 10
10.16
 20
321.30353
 30
0
 40
0.915
 39
  0
0
CIRCLE
8
JA
 10
12.7
 20
321.30353
 30
0
 40
0.585
 39
  0
0
CIRCLE
8
JA
 10
20.32
 20
321.30353
 30
0
 40
0.915
 39
  0
0
CIRCLE
8
JA
 10
5.08
 20
318.76352
 30
0
 40
0.915
 39
  0
0
CIRCLE
8
JA
 10
7.62
 20
318.76352
 30
0
 40
0.915
 39
  0
0
CIRCLE
8
JA
 10
10.16
 20
318.76352
 30
0
 40
0.915
 39
  0
0
CIRCLE
8
JA
 10
12.7
 20
318.76352
 30
0
 40
0.585
 39
  0
0
CIRCLE
8
JA
 10
15.24
 20
318.76352
 30
0
 40
0.915
 39
  0
0
CIRCLE
8
JA
 10
20.32
 20
318.76352
 30
0
 40
0.915
 39
  0
0
CIRCLE
8
JA
 10
12.7
 20
316.2235
 30
0
 40
0.585
 39
  0
0
CIRCLE
8
JA
 10
15.24
 20
316.2235
 30
0
 40
0.915
 39
  0
0
CIRCLE
8
JA
 10
20.32
 20
316.2235
 30
0
 40
0.915
 39
  0
0
CIRCLE
8
JA
 10
5.08
 20
313.6835
 30
0
 40
0.915
 39
  0
0
CIRCLE
8
JA
 10
7.62
 20
313.6835
 30
0
 40
0.915
 39
  0
0
CIRCLE
8
JA
 10
12.7
 20
313.6835
 30
0
 40
0.585
 39
  0
0
CIRCLE
8
JA
 10
20.32
 20
313.6835
 30
0
 40
0.915
 39
  0
0
CIRCLE
8
JA
 10
5.08
 20
311.1435
 30
0
 40
0.915
 39
  0
0
CIRCLE
8
JA
 10
10.16
 20
311.1435
 30
0
 40
0.915
 39
  0
0
CIRCLE
8
JA
 10
12.7
 20
311.1435
 30
0
 40
0.585
 39
  0
0
CIRCLE
8
JA
 10
15.24
 20
311.1435
 30
0
 40
0.915
 39
  0
0
CIRCLE
8
JA
 10
20.32
 20
311.1435
 30
0
 40
0.915
 39
  0
0
CIRCLE
8
JA
 10
12.7
 20
308.6035
 30
0
 40
0.585
 39
  0
0
CIRCLE
8
JA
 10
20.32
 20
308.6035
 30
0
 40
0.915
 39
  0
0
CIRCLE
8
JA
 10
10.16
 20
306.06348
 30
0
 40
0.915
 39
  0
0
CIRCLE
8
JA
 10
12.7
 20
306.06348
 30
0
 40
0.585
 39
  0
0
CIRCLE
8
JA
 10
17.779999
 20
306.06348
 30
0
 40
0.915
 39
  0
0
CIRCLE
8
JA
 10
20.32
 20
306.06348
 30
0
 40
0.915
 39
  0
0
CIRCLE
8
JA
 10
7.62
 20
303.52347
 30
0
 40
0.915
 39
  0
0
CIRCLE
8
JA
 10
12.7
 20
303.52347
 30
0
 40
0.585
 39
  0
0
CIRCLE
8
JA
 10
20.32
 20
303.52347
 30
0
 40
0.915
 39
  0
0
CIRCLE
8
JA
 10
2.54
 20
300.98346
 30
0
 40
0.915
 39
  0
0
CIRCLE
8
JA
 10
12.7
 20
300.98346
 30
0
 40
0.585
 39
  0
0
CIRCLE
8
JA
 10
15.24
 20
300.98346
 30
0
 40
0.915
 39
  0
0
CIRCLE
8
JA
 10
20.32
 20
300.98346
 30
0
 40
0.915
 39
  0
0
CIRCLE
8
JA
 10
5.08
 20
298.44345
 30
0
 40
0.915
 39
  0
0
CIRCLE
8
JA
 10
10.16
 20
298.44345
 30
0
 40
0.915
 39
  0
0
CIRCLE
8
JA
 10
12.7
 20
298.44345
 30
0
 40
0.585
 39
  0
0
CIRCLE
8
JA
 10
17.779999
 20
298.44345
 30
0
 40
0.915
 39
  0
0
CIRCLE
8
JA
 10
20.32
 20
298.44345
 30
0
 40
0.915
 39
  0
0
CIRCLE
8
JA
 10
12.7
 20
295.90344
 30
0
 40
0.585
 39
  0
0
CIRCLE
8
JA
 10
12.7
 20
293.36343
 30
0
 40
0.585
 39
  0
0
CIRCLE
8
JA
 10
12.7
 20
290.82343
 30
0
 40
0.585
 39
  0
0
CIRCLE
8
JA
 10
2.54
 20
288.28342
 30
0
 40
0.915
 39
  0
0
CIRCLE
8
JA
 10
5.08
 20
288.28342
 30
0
 40
0.915
 39
  0
0
CIRCLE
8
JA
 10
7.62
 20
288.28342
 30
0
 40
0.915
 39
  0
0
CIRCLE
8
JA
 10
10.16
 20
288.28342
 30
0
 40
0.915
 39
  0
0
CIRCLE
8
JA
 10
12.7
 20
288.28342
 30
0
 40
0.585
 39
  0
0
CIRCLE
8
JA
 10
15.24
 20
288.28342
 30
0
 40
0.915
 39
  0
0
CIRCLE
8
JA
 10
20.32
 20
288.28342
 30
0
 40
0.915
 39
  0
0
CIRCLE
8
JA
 10
2.54
 20
285.7434
 30
0
 40
0.915
 39
  0
0
CIRCLE
8
JA
 10
5.08
 20
285.7434
 30
0
 40
0.915
 39
  0
0
CIRCLE
8
JA
 10
7.62
 20
285.7434
 30
0
 40
0.915
 39
  0
0
CIRCLE
8
JA
 10
10.16
 20
285.7434
 30
0
 40
0.915
 39
  0
0
CIRCLE
8
JA
 10
12.7
 20
285.7434
 30
0
 40
0.585
 39
  0
0
CIRCLE
8
JA
 10
15.24
 20
285.7434
 30
0
 40
0.915
 39
  0
0
CIRCLE
8
JA
 10
20.32
 20
285.7434
 30
0
 40
0.915
 39
  0
0
CIRCLE
8
JA
 10
2.54
 20
283.2034
 30
0
 40
0.915
 39
  0
0
CIRCLE
8
JA
 10
5.08
 20
283.2034
 30
0
 40
0.915
 39
  0
0
CIRCLE
8
JA
 10
7.62
 20
283.2034
 30
0
 40
0.915
 39
  0
0
CIRCLE
8
JA
 10
12.7
 20
283.2034
 30
0
 40
0.585
 39
  0
0
CIRCLE
8
JA
 10
15.24
 20
283.2034
 30
0
 40
0.915
 39
  0
0
CIRCLE
8
JA
 10
20.32
 20
283.2034
 30
0
 40
0.915
 39
  0
0
CIRCLE
8
JA
 10
5.08
 20
280.6634
 30
0
 40
0.915
 39
  0
0
CIRCLE
8
JA
 10
12.7
 20
280.6634
 30
0
 40
0.585
 39
  0
0
CIRCLE
8
JA
 10
20.32
 20
280.6634
 30
0
 40
0.915
 39
  0
0
CIRCLE
8
JA
 10
10.16
 20
278.12338
 30
0
 40
0.915
 39
  0
0
CIRCLE
8
JA
 10
12.7
 20
278.12338
 30
0
 40
0.585
 39
  0
0
CIRCLE
8
JA
 10
15.24
 20
278.12338
 30
0
 40
0.915
 39
  0
0
CIRCLE
8
JA
 10
20.32
 20
278.12338
 30
0
 40
0.915
 39
  0
0
CIRCLE
8
JA
 10
5.08
 20
275.58337
 30
0
 40
0.915
 39
  0
0
CIRCLE
8
JA
 10
12.7
 20
275.58337
 30
0
 40
0.585
 39
  0
0
CIRCLE
8
JA
 10
20.32
 20
275.58337
 30
0
 40
0.915
 39
  0
0
CIRCLE
8
JA
 10
5.08
 20
273.04337
 30
0
 40
0.915
 39
  0
0
CIRCLE
8
JA
 10
12.7
 20
273.04337
 30
0
 40
0.585
 39
  0
0
CIRCLE
8
JA
 10
20.32
 20
273.04337
 30
0
 40
0.915
 39
  0
0
CIRCLE
8
JA
 10
10.16
 20
270.50336
 30
0
 40
0.915
 39
  0
0
CIRCLE
8
JA
 10
12.7
 20
270.50336
 30
0
 40
0.585
 39
  0
0
CIRCLE
8
JA
 10
20.32
 20
270.50336
 30
0
 40
0.915
 39
  0
0
CIRCLE
8
JA
 10
5.08
 20
267.96335
 30
0
 40
0.915
 39
  0
0
CIRCLE
8
JA
 10
10.16
 20
267.96335
 30
0
 40
0.915
 39
  0
0
CIRCLE
8
JA
 10
12.7
 20
267.96335
 30
0
 40
0.585
 39
  0
0
CIRCLE
8
JA
 10
20.32
 20
267.96335
 30
0
 40
0.915
 39
  0
0
CIRCLE
8
JA
 10
12.7
 20
265.42334
 30
0
 40
0.585
 39
  0
0
CIRCLE
8
JA
 10
20.32
 20
265.42334
 30
0
 40
0.915
 39
  0
0
CIRCLE
8
JA
 10
7.62
 20
262.88333
 30
0
 40
0.915
 39
  0
0
CIRCLE
8
JA
 10
10.16
 20
262.88333
 30
0
 40
0.915
 39
  0
0
CIRCLE
8
JA
 10
12.7
 20
262.88333
 30
0
 40
0.585
 39
  0
0
CIRCLE
8
JA
 10
20.32
 20
262.88333
 30
0
 40
0.915
 39
  0
0
CIRCLE
8
JA
 10
12.7
 20
260.34332
 30
0
 40
0.585
 39
  0
0
CIRCLE
8
JA
 10
20.32
 20
260.34332
 30
0
 40
0.915
 39
  0
0
CIRCLE
8
JA
 10
2.54
 20
257.8033
 30
0
 40
0.915
 39
  0
0
CIRCLE
8
JA
 10
12.7
 20
257.8033
 30
0
 40
0.585
 39
  0
0
CIRCLE
8
JA
 10
20.32
 20
257.8033
 30
0
 40
0.915
 39
  0
0
CIRCLE
8
JA
 10
10.16
 20
255.26332
 30
0
 40
0.915
 39
  0
0
CIRCLE
8
JA
 10
12.7
 20
255.26332
 30
0
 40
0.585
 39
  0
0
CIRCLE
8
JA
 10
20.32
 20
255.26332
 30
0
 40
0.915
 39
  0
0
CIRCLE
8
JA
 10
5.08
 20
252.72333
 30
0
 40
0.915
 39
  0
0
CIRCLE
8
JA
 10
12.7
 20
252.72333
 30
0
 40
0.585
 39
  0
0
CIRCLE
8
JA
 10
15.24
 20
252.72333
 30
0
 40
0.915
 39
  0
0
CIRCLE
8
JA
 10
17.779999
 20
252.72333
 30
0
 40
0.915
 39
  0
0
CIRCLE
8
JA
 10
20.32
 20
252.72333
 30
0
 40
0.915
 39
  0
0
CIRCLE
8
JA
 10
7.62
 20
250.18333
 30
0
 40
0.915
 39
  0
0
CIRCLE
8
JA
 10
12.7
 20
250.18333
 30
0
 40
0.585
 39
  0
0
CIRCLE
8
JA
 10
15.24
 20
250.18333
 30
0
 40
0.915
 39
  0
0
CIRCLE
8
JA
 10
20.32
 20
250.18333
 30
0
 40
0.915
 39
  0
0
CIRCLE
8
JA
 10
12.7
 20
247.64334
 30
0
 40
0.585
 39
  0
0
CIRCLE
8
JA
 10
20.32
 20
247.64334
 30
0
 40
0.915
 39
  0
0
CIRCLE
8
JA
 10
12.7
 20
245.10335
 30
0
 40
0.585
 39
  0
0
CIRCLE
8
JA
 10
20.32
 20
245.10335
 30
0
 40
0.915
 39
  0
0
CIRCLE
8
JA
 10
2.54
 20
242.56335
 30
0
 40
0.915
 39
  0
0
CIRCLE
8
JA
 10
12.7
 20
242.56335
 30
0
 40
0.585
 39
  0
0
CIRCLE
8
JA
 10
20.32
 20
242.56335
 30
0
 40
0.915
 39
  0
0
CIRCLE
8
JA
 10
10.16
 20
240.02336
 30
0
 40
0.915
 39
  0
0
CIRCLE
8
JA
 10
12.7
 20
240.02336
 30
0
 40
0.585
 39
  0
0
CIRCLE
8
JA
 10
20.32
 20
240.02336
 30
0
 40
0.915
 39
  0
0
CIRCLE
8
JA
 10
5.08
 20
237.48337
 30
0
 40
0.915
 39
  0
0
CIRCLE
8
JA
 10
10.16
 20
237.48337
 30
0
 40
0.915
 39
  0
0
CIRCLE
8
JA
 10
12.7
 20
237.48337
 30
0
 40
0.585
 39
  0
0
CIRCLE
8
JA
 10
20.32
 20
237.48337
 30
0
 40
0.915
 39
  0
0
CIRCLE
8
JA
 10
5.08
 20
234.94337
 30
0
 40
0.915
 39
  0
0
CIRCLE
8
JA
 10
7.62
 20
234.94337
 30
0
 40
0.915
 39
  0
0
CIRCLE
8
JA
 10
10.16
 20
234.94337
 30
0
 40
0.915
 39
  0
0
CIRCLE
8
JA
 10
12.7
 20
234.94337
 30
0
 40
0.585
 39
  0
0
CIRCLE
8
JA
 10
15.24
 20
234.94337
 30
0
 40
0.915
 39
  0
0
CIRCLE
8
JA
 10
20.32
 20
234.94337
 30
0
 40
0.915
 39
  0
0
CIRCLE
8
JA
 10
12.7
 20
232.40338
 30
0
 40
0.585
 39
  0
0
CIRCLE
8
JA
 10
15.24
 20
232.40338
 30
0
 40
0.915
 39
  0
0
CIRCLE
8
JA
 10
20.32
 20
232.40338
 30
0
 40
0.915
 39
  0
0
CIRCLE
8
JA
 10
2.54
 20
229.86339
 30
0
 40
0.915
 39
  0
0
CIRCLE
8
JA
 10
12.7
 20
229.86339
 30
0
 40
0.585
 39
  0
0
CIRCLE
8
JA
 10
17.779999
 20
229.86339
 30
0
 40
0.915
 39
  0
0
CIRCLE
8
JA
 10
20.32
 20
229.86339
 30
0
 40
0.915
 39
  0
0
CIRCLE
8
JA
 10
5.08
 20
227.3234
 30
0
 40
0.915
 39
  0
0
CIRCLE
8
JA
 10
10.16
 20
227.3234
 30
0
 40
0.915
 39
  0
0
CIRCLE
8
JA
 10
12.7
 20
227.3234
 30
0
 40
0.585
 39
  0
0
CIRCLE
8
JA
 10
15.24
 20
227.3234
 30
0
 40
0.915
 39
  0
0
CIRCLE
8
JA
 10
20.32
 20
227.3234
 30
0
 40
0.915
 39
  0
0
CIRCLE
8
JA
 10
12.7
 20
224.7834
 30
0
 40
0.585
 39
  0
0
CIRCLE
8
JA
 10
20.32
 20
224.7834
 30
0
 40
0.915
 39
  0
0
CIRCLE
8
JA
 10
10.16
 20
222.24341
 30
0
 40
0.915
 39
  0
0
CIRCLE
8
JA
 10
12.7
 20
222.24341
 30
0
 40
0.585
 39
  0
0
CIRCLE
8
JA
 10
17.779999
 20
222.24341
 30
0
 40
0.915
 39
  0
0
CIRCLE
8
JA
 10
20.32
 20
222.24341
 30
0
 40
0.915
 39
  0
0
CIRCLE
8
JA
 10
7.62
 20
219.70341
 30
0
 40
0.915
 39
  0
0
CIRCLE
8
JA
 10
12.7
 20
219.70341
 30
0
 40
0.585
 39
  0
0
CIRCLE
8
JA
 10
20.32
 20
219.70341
 30
0
 40
0.915
 39
  0
0
CIRCLE
8
JA
 10
2.54
 20
217.16342
 30
0
 40
0.915
 39
  0
0
CIRCLE
8
JA
 10
12.7
 20
217.16342
 30
0
 40
0.585
 39
  0
0
CIRCLE
8
JA
 10
15.24
 20
217.16342
 30
0
 40
0.915
 39
  0
0
CIRCLE
8
JA
 10
20.32
 20
217.16342
 30
0
 40
0.915
 39
  0
0
CIRCLE
8
JA
 10
2.54
 20
214.62343
 30
0
 40
0.915
 39
  0
0
CIRCLE
8
JA
 10
7.62
 20
214.62343
 30
0
 40
0.915
 39
  0
0
CIRCLE
8
JA
 10
10.16
 20
214.62343
 30
0
 40
0.915
 39
  0
0
CIRCLE
8
JA
 10
12.7
 20
214.62343
 30
0
 40
0.585
 39
  0
0
CIRCLE
8
JA
 10
15.24
 20
214.62343
 30
0
 40
0.915
 39
  0
0
CIRCLE
8
JA
 10
20.32
 20
214.62343
 30
0
 40
0.915
 39
  0
0
CIRCLE
8
JA
 10
12.7
 20
212.08344
 30
0
 40
0.585
 39
  0
0
CIRCLE
8
JA
 10
12.7
 20
209.54344
 30
0
 40
0.585
 39
  0
0
CIRCLE
8
JA
 10
12.7
 20
207.00345
 30
0
 40
0.585
 39
  0
0
CIRCLE
8
JA
 10
2.54
 20
204.46346
 30
0
 40
0.915
 39
  0
0
CIRCLE
8
JA
 10
5.08
 20
204.46346
 30
0
 40
0.915
 39
  0
0
CIRCLE
8
JA
 10
7.62
 20
204.46346
 30
0
 40
0.915
 39
  0
0
CIRCLE
8
JA
 10
10.16
 20
204.46346
 30
0
 40
0.915
 39
  0
0
CIRCLE
8
JA
 10
12.7
 20
204.46346
 30
0
 40
0.585
 39
  0
0
CIRCLE
8
JA
 10
15.24
 20
204.46346
 30
0
 40
0.915
 39
  0
0
CIRCLE
8
JA
 10
20.32
 20
204.46346
 30
0
 40
0.915
 39
  0
0
CIRCLE
8
JA
 10
2.54
 20
201.92346
 30
0
 40
0.915
 39
  0
0
CIRCLE
8
JA
 10
5.08
 20
201.92346
 30
0
 40
0.915
 39
  0
0
CIRCLE
8
JA
 10
7.62
 20
201.92346
 30
0
 40
0.915
 39
  0
0
CIRCLE
8
JA
 10
10.16
 20
201.92346
 30
0
 40
0.915
 39
  0
0
CIRCLE
8
JA
 10
12.7
 20
201.92346
 30
0
 40
0.585
 39
  0
0
CIRCLE
8
JA
 10
15.24
 20
201.92346
 30
0
 40
0.915
 39
  0
0
CIRCLE
8
JA
 10
20.32
 20
201.92346
 30
0
 40
0.915
 39
  0
0
CIRCLE
8
JA
 10
2.54
 20
199.38347
 30
0
 40
0.915
 39
  0
0
CIRCLE
8
JA
 10
5.08
 20
199.38347
 30
0
 40
0.915
 39
  0
0
CIRCLE
8
JA
 10
7.62
 20
199.38347
 30
0
 40
0.915
 39
  0
0
CIRCLE
8
JA
 10
12.7
 20
199.38347
 30
0
 40
0.585
 39
  0
0
CIRCLE
8
JA
 10
15.24
 20
199.38347
 30
0
 40
0.915
 39
  0
0
CIRCLE
8
JA
 10
20.32
 20
199.38347
 30
0
 40
0.915
 39
  0
0
CIRCLE
8
JA
 10
5.08
 20
196.84348
 30
0
 40
0.915
 39
  0
0
CIRCLE
8
JA
 10
12.7
 20
196.84348
 30
0
 40
0.585
 39
  0
0
CIRCLE
8
JA
 10
20.32
 20
196.84348
 30
0
 40
0.915
 39
  0
0
CIRCLE
8
JA
 10
10.16
 20
194.30348
 30
0
 40
0.915
 39
  0
0
CIRCLE
8
JA
 10
12.7
 20
194.30348
 30
0
 40
0.585
 39
  0
0
CIRCLE
8
JA
 10
15.24
 20
194.30348
 30
0
 40
0.915
 39
  0
0
CIRCLE
8
JA
 10
20.32
 20
194.30348
 30
0
 40
0.915
 39
  0
0
CIRCLE
8
JA
 10
2.54
 20
191.76349
 30
0
 40
0.915
 39
  0
0
CIRCLE
8
JA
 10
12.7
 20
191.76349
 30
0
 40
0.585
 39
  0
0
CIRCLE
8
JA
 10
20.32
 20
191.76349
 30
0
 40
0.915
 39
  0
0
CIRCLE
8
JA
 10
5.08
 20
189.2235
 30
0
 40
0.915
 39
  0
0
CIRCLE
8
JA
 10
12.7
 20
189.2235
 30
0
 40
0.585
 39
  0
0
CIRCLE
8
JA
 10
20.32
 20
189.2235
 30
0
 40
0.915
 39
  0
0
CIRCLE
8
JA
 10
10.16
 20
186.6835
 30
0
 40
0.915
 39
  0
0
CIRCLE
8
JA
 10
12.7
 20
186.6835
 30
0
 40
0.585
 39
  0
0
CIRCLE
8
JA
 10
20.32
 20
186.6835
 30
0
 40
0.915
 39
  0
0
CIRCLE
8
JA
 10
5.08
 20
184.14351
 30
0
 40
0.915
 39
  0
0
CIRCLE
8
JA
 10
10.16
 20
184.14351
 30
0
 40
0.915
 39
  0
0
CIRCLE
8
JA
 10
12.7
 20
184.14351
 30
0
 40
0.585
 39
  0
0
CIRCLE
8
JA
 10
20.32
 20
184.14351
 30
0
 40
0.915
 39
  0
0
CIRCLE
8
JA
 10
12.7
 20
181.60352
 30
0
 40
0.585
 39
  0
0
CIRCLE
8
JA
 10
20.32
 20
181.60352
 30
0
 40
0.915
 39
  0
0
CIRCLE
8
JA
 10
7.62
 20
179.06352
 30
0
 40
0.915
 39
  0
0
CIRCLE
8
JA
 10
10.16
 20
179.06352
 30
0
 40
0.915
 39
  0
0
CIRCLE
8
JA
 10
12.7
 20
179.06352
 30
0
 40
0.585
 39
  0
0
CIRCLE
8
JA
 10
20.32
 20
179.06352
 30
0
 40
0.915
 39
  0
0
CIRCLE
8
JA
 10
12.7
 20
176.52353
 30
0
 40
0.585
 39
  0
0
CIRCLE
8
JA
 10
20.32
 20
176.52353
 30
0
 40
0.915
 39
  0
0
CIRCLE
8
JA
 10
2.54
 20
173.98354
 30
0
 40
0.915
 39
  0
0
CIRCLE
8
JA
 10
12.7
 20
173.98354
 30
0
 40
0.585
 39
  0
0
CIRCLE
8
JA
 10
20.32
 20
173.98354
 30
0
 40
0.915
 39
  0
0
CIRCLE
8
JA
 10
10.16
 20
171.44354
 30
0
 40
0.915
 39
  0
0
CIRCLE
8
JA
 10
12.7
 20
171.44354
 30
0
 40
0.585
 39
  0
0
CIRCLE
8
JA
 10
20.32
 20
171.44354
 30
0
 40
0.915
 39
  0
0
CIRCLE
8
JA
 10
5.08
 20
168.90355
 30
0
 40
0.915
 39
  0
0
CIRCLE
8
JA
 10
12.7
 20
168.90355
 30
0
 40
0.585
 39
  0
0
CIRCLE
8
JA
 10
15.24
 20
168.90355
 30
0
 40
0.915
 39
  0
0
CIRCLE
8
JA
 10
17.779999
 20
168.90355
 30
0
 40
0.915
 39
  0
0
CIRCLE
8
JA
 10
20.32
 20
168.90355
 30
0
 40
0.915
 39
  0
0
CIRCLE
8
JA
 10
7.62
 20
166.36356
 30
0
 40
0.915
 39
  0
0
CIRCLE
8
JA
 10
12.7
 20
166.36356
 30
0
 40
0.585
 39
  0
0
CIRCLE
8
JA
 10
15.24
 20
166.36356
 30
0
 40
0.915
 39
  0
0
CIRCLE
8
JA
 10
20.32
 20
166.36356
 30
0
 40
0.915
 39
  0
0
CIRCLE
8
JA
 10
12.7
 20
163.82356
 30
0
 40
0.585
 39
  0
0
CIRCLE
8
JA
 10
20.32
 20
163.82356
 30
0
 40
0.915
 39
  0
0
CIRCLE
8
JA
 10
12.7
 20
161.28357
 30
0
 40
0.585
 39
  0
0
CIRCLE
8
JA
 10
20.32
 20
161.28357
 30
0
 40
0.915
 39
  0
0
CIRCLE
8
JA
 10
2.54
 20
158.74358
 30
0
 40
0.915
 39
  0
0
CIRCLE
8
JA
 10
12.7
 20
158.74358
 30
0
 40
0.585
 39
  0
0
CIRCLE
8
JA
 10
20.32
 20
158.74358
 30
0
 40
0.915
 39
  0
0
CIRCLE
8
JA
 10
10.16
 20
156.20358
 30
0
 40
0.915
 39
  0
0
CIRCLE
8
JA
 10
12.7
 20
156.20358
 30
0
 40
0.585
 39
  0
0
CIRCLE
8
JA
 10
20.32
 20
156.20358
 30
0
 40
0.915
 39
  0
0
CIRCLE
8
JA
 10
5.08
 20
153.66359
 30
0
 40
0.915
 39
  0
0
CIRCLE
8
JA
 10
10.16
 20
153.66359
 30
0
 40
0.915
 39
  0
0
CIRCLE
8
JA
 10
12.7
 20
153.66359
 30
0
 40
0.585
 39
  0
0
CIRCLE
8
JA
 10
20.32
 20
153.66359
 30
0
 40
0.915
 39
  0
0
CIRCLE
8
JA
 10
5.08
 20
151.1236
 30
0
 40
0.915
 39
  0
0
CIRCLE
8
JA
 10
7.62
 20
151.1236
 30
0
 40
0.915
 39
  0
0
CIRCLE
8
JA
 10
10.16
 20
151.1236
 30
0
 40
0.915
 39
  0
0
CIRCLE
8
JA
 10
12.7
 20
151.1236
 30
0
 40
0.585
 39
  0
0
CIRCLE
8
JA
 10
15.24
 20
151.1236
 30
0
 40
0.915
 39
  0
0
CIRCLE
8
JA
 10
20.32
 20
151.1236
 30
0
 40
0.915
 39
  0
0
CIRCLE
8
JA
 10
12.7
 20
148.5836
 30
0
 40
0.585
 39
  0
0
CIRCLE
8
JA
 10
15.24
 20
148.5836
 30
0
 40
0.915
 39
  0
0
CIRCLE
8
JA
 10
20.32
 20
148.5836
 30
0
 40
0.915
 39
  0
0
CIRCLE
8
JA
 10
2.54
 20
146.04361
 30
0
 40
0.915
 39
  0
0
CIRCLE
8
JA
 10
7.62
 20
146.04361
 30
0
 40
0.915
 39
  0
0
CIRCLE
8
JA
 10
12.7
 20
146.04361
 30
0
 40
0.585
 39
  0
0
CIRCLE
8
JA
 10
15.24
 20
146.04361
 30
0
 40
0.915
 39
  0
0
CIRCLE
8
JA
 10
17.779999
 20
146.04361
 30
0
 40
0.915
 39
  0
0
CIRCLE
8
JA
 10
20.32
 20
146.04361
 30
0
 40
0.915
 39
  0
0
CIRCLE
8
JA
 10
5.08
 20
143.50362
 30
0
 40
0.915
 39
  0
0
CIRCLE
8
JA
 10
10.16
 20
143.50362
 30
0
 40
0.915
 39
  0
0
CIRCLE
8
JA
 10
12.7
 20
143.50362
 30
0
 40
0.585
 39
  0
0
CIRCLE
8
JA
 10
15.24
 20
143.50362
 30
0
 40
0.915
 39
  0
0
CIRCLE
8
JA
 10
20.32
 20
143.50362
 30
0
 40
0.915
 39
  0
0
CIRCLE
8
JA
 10
12.7
 20
140.96362
 30
0
 40
0.585
 39
  0
0
CIRCLE
8
JA
 10
20.32
 20
140.96362
 30
0
 40
0.915
 39
  0
0
CIRCLE
8
JA
 10
10.16
 20
138.42363
 30
0
 40
0.915
 39
  0
0
CIRCLE
8
JA
 10
12.7
 20
138.42363
 30
0
 40
0.585
 39
  0
0
CIRCLE
8
JA
 10
17.779999
 20
138.42363
 30
0
 40
0.915
 39
  0
0
CIRCLE
8
JA
 10
20.32
 20
138.42363
 30
0
 40
0.915
 39
  0
0
CIRCLE
8
JA
 10
7.62
 20
135.88364
 30
0
 40
0.915
 39
  0
0
CIRCLE
8
JA
 10
12.7
 20
135.88364
 30
0
 40
0.585
 39
  0
0
CIRCLE
8
JA
 10
20.32
 20
135.88364
 30
0
 40
0.915
 39
  0
0
CIRCLE
8
JA
 10
2.54
 20
133.34364
 30
0
 40
0.915
 39
  0
0
CIRCLE
8
JA
 10
10.16
 20
133.34364
 30
0
 40
0.915
 39
  0
0
CIRCLE
8
JA
 10
12.7
 20
133.34364
 30
0
 40
0.585
 39
  0
0
CIRCLE
8
JA
 10
20.32
 20
133.34364
 30
0
 40
0.915
 39
  0
0
CIRCLE
8
JA
 10
7.62
 20
130.80365
 30
0
 40
0.915
 39
  0
0
CIRCLE
8
JA
 10
12.7
 20
130.80365
 30
0
 40
0.585
 39
  0
0
CIRCLE
8
JA
 10
20.32
 20
130.80365
 30
0
 40
0.915
 39
  0
0
CIRCLE
8
JA
 10
12.7
 20
128.26366
 30
0
 40
0.585
 39
  0
0
CIRCLE
8
JA
 10
12.7
 20
125.723656
 30
0
 40
0.585
 39
  0
0
CIRCLE
8
JA
 10
12.7
 20
123.183655
 30
0
 40
0.585
 39
  0
0
CIRCLE
8
JA
 10
5.08
 20
120.643654
 30
0
 40
0.915
 39
  0
0
CIRCLE
8
JA
 10
7.62
 20
120.643654
 30
0
 40
0.915
 39
  0
0
CIRCLE
8
JA
 10
10.16
 20
120.643654
 30
0
 40
0.915
 39
  0
0
CIRCLE
8
JA
 10
12.7
 20
120.643654
 30
0
 40
0.585
 39
  0
0
CIRCLE
8
JA
 10
15.24
 20
120.643654
 30
0
 40
0.915
 39
  0
0
CIRCLE
8
JA
 10
20.32
 20
120.643654
 30
0
 40
0.915
 39
  0
0
CIRCLE
8
JA
 10
12.7
 20
118.10365
 30
0
 40
0.585
 39
  0
0
CIRCLE
8
JA
 10
20.32
 20
118.10365
 30
0
 40
0.915
 39
  0
0
CIRCLE
8
JA
 10
12.7
 20
115.56365
 30
0
 40
0.585
 39
  0
0
CIRCLE
8
JA
 10
17.779999
 20
115.56365
 30
0
 40
0.915
 39
  0
0
CIRCLE
8
JA
 10
20.32
 20
115.56365
 30
0
 40
0.915
 39
  0
0
CIRCLE
8
JA
 10
5.08
 20
113.02365
 30
0
 40
0.915
 39
  0
0
CIRCLE
8
JA
 10
7.62
 20
113.02365
 30
0
 40
0.915
 39
  0
0
CIRCLE
8
JA
 10
10.16
 20
113.02365
 30
0
 40
0.915
 39
  0
0
CIRCLE
8
JA
 10
12.7
 20
113.02365
 30
0
 40
0.585
 39
  0
0
CIRCLE
8
JA
 10
15.24
 20
113.02365
 30
0
 40
0.915
 39
  0
0
CIRCLE
8
JA
 10
20.32
 20
113.02365
 30
0
 40
0.915
 39
  0
0
CIRCLE
8
JA
 10
12.7
 20
110.48365
 30
0
 40
0.585
 39
  0
0
CIRCLE
8
JA
 10
15.24
 20
110.48365
 30
0
 40
0.915
 39
  0
0
CIRCLE
8
JA
 10
20.32
 20
110.48365
 30
0
 40
0.915
 39
  0
0
CIRCLE
8
JA
 10
2.54
 20
107.94365
 30
0
 40
0.915
 39
  0
0
CIRCLE
8
JA
 10
7.62
 20
107.94365
 30
0
 40
0.915
 39
  0
0
CIRCLE
8
JA
 10
10.16
 20
107.94365
 30
0
 40
0.915
 39
  0
0
CIRCLE
8
JA
 10
12.7
 20
107.94365
 30
0
 40
0.585
 39
  0
0
CIRCLE
8
JA
 10
15.24
 20
107.94365
 30
0
 40
0.915
 39
  0
0
CIRCLE
8
JA
 10
17.779999
 20
107.94365
 30
0
 40
0.915
 39
  0
0
CIRCLE
8
JA
 10
20.32
 20
107.94365
 30
0
 40
0.915
 39
  0
0
CIRCLE
8
JA
 10
12.7
 20
105.40365
 30
0
 40
0.585
 39
  0
0
CIRCLE
8
JA
 10
12.7
 20
102.86365
 30
0
 40
0.585
 39
  0
0
CIRCLE
8
JA
 10
12.7
 20
100.32365
 30
0
 40
0.585
 39
  0
0
CIRCLE
8
JA
 10
12.7
 20
97.783646
 30
0
 40
0.585
 39
  0
0
CIRCLE
8
JA
 10
12.7
 20
95.243645
 30
0
 40
0.585
 39
  0
0
CIRCLE
8
JA
 10
12.7
 20
92.70364
 30
0
 40
0.585
 39
  0
0
CIRCLE
8
JA
 10
12.7
 20
90.16364
 30
0
 40
0.585
 39
  0
0
CIRCLE
8
JA
 10
12.7
 20
87.62364
 30
0
 40
0.585
 39
  0
0
CIRCLE
8
JA
 10
12.7
 20
85.08364
 30
0
 40
0.585
 39
  0
0
CIRCLE
8
JA
 10
12.7
 20
82.54364
 30
0
 40
0.585
 39
  0
0
CIRCLE
8
JA
 10
12.7
 20
80.00364
 30
0
 40
0.585
 39
  0
0
CIRCLE
8
JA
 10
12.7
 20
77.46364
 30
0
 40
0.585
 39
  0
0
CIRCLE
8
JA
 10
12.7
 20
74.92364
 30
0
 40
0.585
 39
  0
0
CIRCLE
8
JA
 10
12.7
 20
72.38364
 30
0
 40
0.585
 39
  0
0
CIRCLE
8
JA
 10
12.7
 20
69.843636
 30
0
 40
0.585
 39
  0
0
CIRCLE
8
JA
 10
12.7
 20
67.303635
 30
0
 40
0.585
 39
  0
0
CIRCLE
8
JA
 10
12.7
 20
64.76363
 30
0
 40
0.585
 39
  0
0
CIRCLE
8
JA
 10
12.7
 20
62.223633
 30
0
 40
0.585
 39
  0
0
CIRCLE
8
JA
 10
12.7
 20
59.68363
 30
0
 40
0.585
 39
  0
0
CIRCLE
8
JA
 10
12.7
 20
57.14363
 30
0
 40
0.585
 39
  0
0
CIRCLE
8
JA
 10
12.7
 20
54.60363
 30
0
 40
0.585
 39
  0
0
CIRCLE
8
JA
 10
12.7
 20
52.06363
 30
0
 40
0.585
 39
  0
0
CIRCLE
8
JA
 10
12.7
 20
49.52363
 30
0
 40
0.585
 39
  0
0
CIRCLE
8
JA
 10
12.7
 20
46.983627
 30
0
 40
0.585
 39
  0
0
CIRCLE
8
JA
 10
12.7
 20
44.443626
 30
0
 40
0.585
 39
  0
0
CIRCLE
8
JA
 10
12.7
 20
41.903625
 30
0
 40
0.585
 39
  0
0
CIRCLE
8
JA
 10
12.7
 20
39.363625
 30
0
 40
0.585
 39
  0
0
CIRCLE
8
JA
 10
12.7
 20
36.823624
 30
0
 40
0.585
 39
  0
0
CIRCLE
8
JA
 10
12.7
 20
34.283623
 30
0
 40
0.585
 39
  0
0
CIRCLE
8
JA
 10
12.7
 20
31.743622
 30
0
 40
0.585
 39
  0
0
CIRCLE
8
JA
 10
12.7
 20
29.20362
 30
0
 40
0.585
 39
  0
0
CIRCLE
8
JA
 10
12.7
 20
26.66362
 30
0
 40
0.585
 39
  0
0
CIRCLE
8
JA
 10
12.7
 20
24.12362
 30
0
 40
0.585
 39
  0
0
CIRCLE
8
JA
 10
12.7
 20
21.583618
 30
0
 40
0.585
 39
  0
0
CIRCLE
8
JA
 10
12.7
 20
19.043617
 30
0
 40
0.585
 39
  0
0
CIRCLE
8
JA
 10
12.7
 20
16.503616
 30
0
 40
0.585
 39
  0
0
CIRCLE
8
JA
 10
12.7
 20
13.963616
 30
0
 40
0.585
 39
  0
0
CIRCLE
8
JA
 10
12.7
 20
11.423616
 30
0
 40
0.585
 39
  0
0
CIRCLE
8
JA
 10
12.7
 20
8.883616
 30
0
 40
0.585
 39
  0
0
CIRCLE
8
JA
 10
12.7
 20
6.3436165
 30
0
 40
0.585
 39
  0
0
CIRCLE
8
JA
 10
12.7
 20
3.8036165
 30
0
 40
0.585
 39
  0
0
CIRCLE
8
JA
 10
12.7
 20
1.2636166
 30
0
 40
0.585
 39
  0
0
ENDSEC
  0
EOF
