  0
SECTION
  2
HEADER
  9
$ACADVER
  1
AC1009
  9
$INSBASE
 10
0.0
 20
0.0
 30
0.0
  9
$EXTMIN
 10
  0
 20
  0
 30
  0
  9
$EXTMAX
 10
368
 20
326
 30
0.0
  9
$LIMMIN
 10
0.0
 20
0.0
  9
$LIMMAX
 10
100.0
 20
100.0
  9
$ORTHOMODE
 70
     1
  9
$DIMSCALE
 40
1
  9
$DIMSTYLE
  2
STANDARD
  9
$FILLETRAD
 40
0.0
  9
$PSLTSCALE
 70
     1
  0
ENDSEC
  0
SECTION
  2
TABLES
  0
TABLE
  2
VPORT
 70
     2
  0
VPORT
  2
*ACTIVE
 70
     0
 10
0.0
 20
0.0
 11
1.0
 21
1.0
 12
50.0
 22
50.0
 13
0.0
 23
0.0
 14
1.0
 24
1.0
 15
0.0
 25
0.0
 16
0.0
 26
0.0
 36
1.0
 17
0.0
 27
0.0
 37
0.0
 40
100.0
 41
1.55
 42
50.0
 43
0.0
 44
0.0
 50
0.0
 51
0.0
 71
     0
 72
   100
 73
     1
 74
     1
 75
     0
 76
     0
 77
     0
 78
     0
  0
ENDTAB
  0
TABLE
  2
LTYPE
 70
     1
  0
LTYPE
  2
CONTINUOUS
  70
     0
  3
Solid Line
 72
    65
 73
     0
 40
0.0
  0
ENDTAB
  0
TABLE
  2
LAYER
 70
     3
  0
LAYER
  2
0
 70
     0
 62
     7
  6
CONTINUOUS
  0
LAYER
  2
JA
 70
     0
 62
     7
  6
CONTINUOUS
  0
LAYER
  2
DEFPOINTS
 70
     0
 62
     7
 6
CONTINUOUS
  0
ENDTAB
  0
TABLE
  2
VIEW
 70
     0
  0
ENDTAB
  0
TABLE
  2
DIMSTYLE
 70
     1
  0
DIMSTYLE
  2
STANDARD
 70
     0
  3

  4

  5

  6

  7

 40
1.0
 41
0.125
 42
0.04
 43
0.25
 44
0.125
 45
0.0
 46
0.0
 47
0.0
 48
0.0
140
0.125
141
0.06
142
0.0
143
25.4
144
1.0
145
0.0
146
1.0
147
0.09
 71
     0
 72
     0
 73
     1
 74
     1
 75
     0
 76
     0
 77
     0
 78
     0
170
     0
171
     2
172
     0
173
     0
174
     0
175
     0
176
     0
177
     0
178
     0
  0
ENDTAB
  0
ENDSEC
  0
SECTION
  2
BLOCKS
  0
ENDSEC
  0
SECTION
  2
ENTITIES
  0
LINE
8
JA
 10
0
 20
0
 30
0
 11
0
 21
81.28
 31
0
0
LINE
8
JA
 10
10.16
 20
0
 30
0
 11
10.16
 21
81.28
 31
0
0
LINE
8
JA
 10
0
 20
81.28
 30
0
 11
10.16
 21
81.28
 31
0
0
LINE
8
JA
 10
0
 20
81.28
 30
6
 11
10.16
 21
81.28
 31
0
0
LINE
8
JA
 10
10.16
 20
0
 30
0
 11
0
 21
0
 31
0
0
CIRCLE
8
JA
 10
2.54
 20
80.01
 30
0
 40
0.915
 39
  0
0
CIRCLE
8
JA
 10
5.08
 20
80.01
 30
0
 40
0.915
 39
  0
0
CIRCLE
8
JA
 10
7.62
 20
80.01
 30
0
 40
0.585
 39
  0
0
CIRCLE
8
JA
 10
2.54
 20
77.47
 30
0
 40
0.915
 39
  0
0
CIRCLE
8
JA
 10
5.08
 20
77.47
 30
0
 40
0.915
 39
  0
0
CIRCLE
8
JA
 10
7.62
 20
77.47
 30
0
 40
0.585
 39
  0
0
CIRCLE
8
JA
 10
2.54
 20
74.93
 30
0
 40
0.915
 39
  0
0
CIRCLE
8
JA
 10
7.62
 20
74.93
 30
0
 40
0.585
 39
  0
0
CIRCLE
8
JA
 10
5.08
 20
72.39
 30
0
 40
0.915
 39
  0
0
CIRCLE
8
JA
 10
7.62
 20
72.39
 30
0
 40
0.585
 39
  0
0
CIRCLE
8
JA
 10
2.54
 20
69.85
 30
0
 40
0.915
 39
  0
0
CIRCLE
8
JA
 10
7.62
 20
69.85
 30
0
 40
0.585
 39
  0
0
CIRCLE
8
JA
 10
5.08
 20
67.31
 30
0
 40
0.915
 39
  0
0
CIRCLE
8
JA
 10
7.62
 20
67.31
 30
0
 40
0.585
 39
  0
0
CIRCLE
8
JA
 10
2.54
 20
64.77
 30
0
 40
0.915
 39
  0
0
CIRCLE
8
JA
 10
7.62
 20
64.77
 30
0
 40
0.585
 39
  0
0
CIRCLE
8
JA
 10
2.54
 20
62.229996
 30
0
 40
0.915
 39
  0
0
CIRCLE
8
JA
 10
7.62
 20
62.229996
 30
0
 40
0.585
 39
  0
0
CIRCLE
8
JA
 10
2.54
 20
59.689995
 30
0
 40
0.915
 39
  0
0
CIRCLE
8
JA
 10
5.08
 20
59.689995
 30
0
 40
0.915
 39
  0
0
CIRCLE
8
JA
 10
7.62
 20
59.689995
 30
0
 40
0.585
 39
  0
0
CIRCLE
8
JA
 10
5.08
 20
57.149994
 30
0
 40
0.915
 39
  0
0
CIRCLE
8
JA
 10
7.62
 20
57.149994
 30
0
 40
0.585
 39
  0
0
CIRCLE
8
JA
 10
2.54
 20
54.609993
 30
0
 40
0.915
 39
  0
0
CIRCLE
8
JA
 10
7.62
 20
54.609993
 30
0
 40
0.585
 39
  0
0
CIRCLE
8
JA
 10
5.08
 20
52.069992
 30
0
 40
0.915
 39
  0
0
CIRCLE
8
JA
 10
7.62
 20
52.069992
 30
0
 40
0.585
 39
  0
0
CIRCLE
8
JA
 10
5.08
 20
49.52999
 30
0
 40
0.915
 39
  0
0
CIRCLE
8
JA
 10
7.62
 20
49.52999
 30
0
 40
0.585
 39
  0
0
CIRCLE
8
JA
 10
2.54
 20
46.98999
 30
0
 40
0.915
 39
  0
0
CIRCLE
8
JA
 10
7.62
 20
46.98999
 30
0
 40
0.585
 39
  0
0
CIRCLE
8
JA
 10
5.08
 20
44.44999
 30
0
 40
0.915
 39
  0
0
CIRCLE
8
JA
 10
7.62
 20
44.44999
 30
0
 40
0.585
 39
  0
0
CIRCLE
8
JA
 10
2.54
 20
41.90999
 30
0
 40
0.915
 39
  0
0
CIRCLE
8
JA
 10
5.08
 20
41.90999
 30
0
 40
0.915
 39
  0
0
CIRCLE
8
JA
 10
7.62
 20
41.90999
 30
0
 40
0.585
 39
  0
0
CIRCLE
8
JA
 10
5.08
 20
39.369987
 30
0
 40
0.915
 39
  0
0
CIRCLE
8
JA
 10
7.62
 20
39.369987
 30
0
 40
0.585
 39
  0
0
CIRCLE
8
JA
 10
2.54
 20
36.829987
 30
0
 40
0.915
 39
  0
0
CIRCLE
8
JA
 10
7.62
 20
36.829987
 30
0
 40
0.585
 39
  0
0
CIRCLE
8
JA
 10
2.54
 20
34.289986
 30
0
 40
0.915
 39
  0
0
CIRCLE
8
JA
 10
7.62
 20
34.289986
 30
0
 40
0.585
 39
  0
0
CIRCLE
8
JA
 10
2.54
 20
31.749985
 30
0
 40
0.915
 39
  0
0
CIRCLE
8
JA
 10
7.62
 20
31.749985
 30
0
 40
0.585
 39
  0
0
CIRCLE
8
JA
 10
2.54
 20
29.209984
 30
0
 40
0.915
 39
  0
0
CIRCLE
8
JA
 10
7.62
 20
29.209984
 30
0
 40
0.585
 39
  0
0
CIRCLE
8
JA
 10
5.08
 20
26.669983
 30
0
 40
0.915
 39
  0
0
CIRCLE
8
JA
 10
7.62
 20
26.669983
 30
0
 40
0.585
 39
  0
0
CIRCLE
8
JA
 10
2.54
 20
24.129982
 30
0
 40
0.915
 39
  0
0
CIRCLE
8
JA
 10
5.08
 20
24.129982
 30
0
 40
0.915
 39
  0
0
CIRCLE
8
JA
 10
7.62
 20
24.129982
 30
0
 40
0.585
 39
  0
0
CIRCLE
8
JA
 10
2.54
 20
21.589981
 30
0
 40
0.915
 39
  0
0
CIRCLE
8
JA
 10
7.62
 20
21.589981
 30
0
 40
0.585
 39
  0
0
CIRCLE
8
JA
 10
2.54
 20
19.04998
 30
0
 40
0.915
 39
  0
0
CIRCLE
8
JA
 10
7.62
 20
19.04998
 30
0
 40
0.585
 39
  0
0
CIRCLE
8
JA
 10
5.08
 20
16.50998
 30
0
 40
0.915
 39
  0
0
CIRCLE
8
JA
 10
7.62
 20
16.50998
 30
0
 40
0.585
 39
  0
0
CIRCLE
8
JA
 10
5.08
 20
13.969979
 30
0
 40
0.915
 39
  0
0
CIRCLE
8
JA
 10
7.62
 20
13.969979
 30
0
 40
0.585
 39
  0
0
CIRCLE
8
JA
 10
2.54
 20
11.429979
 30
0
 40
0.915
 39
  0
0
CIRCLE
8
JA
 10
7.62
 20
11.429979
 30
0
 40
0.585
 39
  0
0
CIRCLE
8
JA
 10
2.54
 20
8.889979
 30
0
 40
0.915
 39
  0
0
CIRCLE
8
JA
 10
7.62
 20
8.889979
 30
0
 40
0.585
 39
  0
0
CIRCLE
8
JA
 10
2.54
 20
6.3499794
 30
0
 40
0.915
 39
  0
0
CIRCLE
8
JA
 10
5.08
 20
6.3499794
 30
0
 40
0.915
 39
  0
0
CIRCLE
8
JA
 10
7.62
 20
6.3499794
 30
0
 40
0.585
 39
  0
0
CIRCLE
8
JA
 10
2.54
 20
3.8099794
 30
0
 40
0.915
 39
  0
0
CIRCLE
8
JA
 10
7.62
 20
3.8099794
 30
0
 40
0.585
 39
  0
0
CIRCLE
8
JA
 10
5.08
 20
1.2699795
 30
0
 40
0.915
 39
  0
0
CIRCLE
8
JA
 10
7.62
 20
1.2699795
 30
0
 40
0.585
 39
  0
0
LINE
8
JA
 10
10.16
 20
0
 30
0
 11
10.16
 21
81.28
 31
0
0
LINE
8
JA
 10
20.32
 20
0
 30
0
 11
20.32
 21
81.28
 31
0
0
LINE
8
JA
 10
10.16
 20
81.28
 30
6
 11
20.32
 21
81.28
 31
0
0
LINE
8
JA
 10
20.32
 20
0
 30
0
 11
10.16
 21
0
 31
0
0
CIRCLE
8
JA
 10
15.24
 20
80.01
 30
0
 40
0.915
 39
  0
0
CIRCLE
8
JA
 10
17.779999
 20
80.01
 30
0
 40
0.585
 39
  0
0
CIRCLE
8
JA
 10
15.24
 20
77.47
 30
0
 40
0.915
 39
  0
0
CIRCLE
8
JA
 10
17.779999
 20
77.47
 30
0
 40
0.585
 39
  0
0
CIRCLE
8
JA
 10
15.24
 20
74.93
 30
0
 40
0.915
 39
  0
0
CIRCLE
8
JA
 10
17.779999
 20
74.93
 30
0
 40
0.585
 39
  0
0
CIRCLE
8
JA
 10
12.7
 20
72.39
 30
0
 40
0.915
 39
  0
0
CIRCLE
8
JA
 10
17.779999
 20
72.39
 30
0
 40
0.585
 39
  0
0
CIRCLE
8
JA
 10
12.7
 20
69.85
 30
0
 40
0.915
 39
  0
0
CIRCLE
8
JA
 10
15.24
 20
69.85
 30
0
 40
0.915
 39
  0
0
CIRCLE
8
JA
 10
17.779999
 20
69.85
 30
0
 40
0.585
 39
  0
0
CIRCLE
8
JA
 10
15.24
 20
67.31
 30
0
 40
0.915
 39
  0
0
CIRCLE
8
JA
 10
17.779999
 20
67.31
 30
0
 40
0.585
 39
  0
0
CIRCLE
8
JA
 10
12.7
 20
64.77
 30
0
 40
0.915
 39
  0
0
CIRCLE
8
JA
 10
17.779999
 20
64.77
 30
0
 40
0.585
 39
  0
0
CIRCLE
8
JA
 10
15.24
 20
62.229996
 30
0
 40
0.915
 39
  0
0
CIRCLE
8
JA
 10
17.779999
 20
62.229996
 30
0
 40
0.585
 39
  0
0
CIRCLE
8
JA
 10
12.7
 20
59.689995
 30
0
 40
0.915
 39
  0
0
CIRCLE
8
JA
 10
17.779999
 20
59.689995
 30
0
 40
0.585
 39
  0
0
CIRCLE
8
JA
 10
15.24
 20
57.149994
 30
0
 40
0.915
 39
  0
0
CIRCLE
8
JA
 10
17.779999
 20
57.149994
 30
0
 40
0.585
 39
  0
0
CIRCLE
8
JA
 10
12.7
 20
54.609993
 30
0
 40
0.915
 39
  0
0
CIRCLE
8
JA
 10
17.779999
 20
54.609993
 30
0
 40
0.585
 39
  0
0
CIRCLE
8
JA
 10
12.7
 20
52.069992
 30
0
 40
0.915
 39
  0
0
CIRCLE
8
JA
 10
15.24
 20
52.069992
 30
0
 40
0.915
 39
  0
0
CIRCLE
8
JA
 10
17.779999
 20
52.069992
 30
0
 40
0.585
 39
  0
0
CIRCLE
8
JA
 10
12.7
 20
49.52999
 30
0
 40
0.915
 39
  0
0
CIRCLE
8
JA
 10
17.779999
 20
49.52999
 30
0
 40
0.585
 39
  0
0
CIRCLE
8
JA
 10
12.7
 20
46.98999
 30
0
 40
0.915
 39
  0
0
CIRCLE
8
JA
 10
17.779999
 20
46.98999
 30
0
 40
0.585
 39
  0
0
CIRCLE
8
JA
 10
12.7
 20
44.44999
 30
0
 40
0.915
 39
  0
0
CIRCLE
8
JA
 10
17.779999
 20
44.44999
 30
0
 40
0.585
 39
  0
0
CIRCLE
8
JA
 10
12.7
 20
41.90999
 30
0
 40
0.915
 39
  0
0
CIRCLE
8
JA
 10
17.779999
 20
41.90999
 30
0
 40
0.585
 39
  0
0
CIRCLE
8
JA
 10
12.7
 20
39.369987
 30
0
 40
0.915
 39
  0
0
CIRCLE
8
JA
 10
17.779999
 20
39.369987
 30
0
 40
0.585
 39
  0
0
CIRCLE
8
JA
 10
12.7
 20
36.829987
 30
0
 40
0.915
 39
  0
0
CIRCLE
8
JA
 10
15.24
 20
36.829987
 30
0
 40
0.915
 39
  0
0
CIRCLE
8
JA
 10
17.779999
 20
36.829987
 30
0
 40
0.585
 39
  0
0
CIRCLE
8
JA
 10
15.24
 20
34.289986
 30
0
 40
0.915
 39
  0
0
CIRCLE
8
JA
 10
17.779999
 20
34.289986
 30
0
 40
0.585
 39
  0
0
CIRCLE
8
JA
 10
12.7
 20
31.749985
 30
0
 40
0.915
 39
  0
0
CIRCLE
8
JA
 10
17.779999
 20
31.749985
 30
0
 40
0.585
 39
  0
0
CIRCLE
8
JA
 10
12.7
 20
29.209984
 30
0
 40
0.915
 39
  0
0
CIRCLE
8
JA
 10
17.779999
 20
29.209984
 30
0
 40
0.585
 39
  0
0
CIRCLE
8
JA
 10
12.7
 20
26.669983
 30
0
 40
0.915
 39
  0
0
CIRCLE
8
JA
 10
17.779999
 20
26.669983
 30
0
 40
0.585
 39
  0
0
CIRCLE
8
JA
 10
12.7
 20
24.129982
 30
0
 40
0.915
 39
  0
0
CIRCLE
8
JA
 10
17.779999
 20
24.129982
 30
0
 40
0.585
 39
  0
0
CIRCLE
8
JA
 10
12.7
 20
21.589981
 30
0
 40
0.915
 39
  0
0
CIRCLE
8
JA
 10
15.24
 20
21.589981
 30
0
 40
0.915
 39
  0
0
CIRCLE
8
JA
 10
17.779999
 20
21.589981
 30
0
 40
0.585
 39
  0
0
CIRCLE
8
JA
 10
15.24
 20
19.04998
 30
0
 40
0.915
 39
  0
0
CIRCLE
8
JA
 10
17.779999
 20
19.04998
 30
0
 40
0.585
 39
  0
0
CIRCLE
8
JA
 10
15.24
 20
16.50998
 30
0
 40
0.915
 39
  0
0
CIRCLE
8
JA
 10
17.779999
 20
16.50998
 30
0
 40
0.585
 39
  0
0
CIRCLE
8
JA
 10
12.7
 20
13.969979
 30
0
 40
0.915
 39
  0
0
CIRCLE
8
JA
 10
17.779999
 20
13.969979
 30
0
 40
0.585
 39
  0
0
CIRCLE
8
JA
 10
12.7
 20
11.429979
 30
0
 40
0.915
 39
  0
0
CIRCLE
8
JA
 10
17.779999
 20
11.429979
 30
0
 40
0.585
 39
  0
0
CIRCLE
8
JA
 10
12.7
 20
8.889979
 30
0
 40
0.915
 39
  0
0
CIRCLE
8
JA
 10
17.779999
 20
8.889979
 30
0
 40
0.585
 39
  0
0
CIRCLE
8
JA
 10
12.7
 20
6.3499794
 30
0
 40
0.915
 39
  0
0
CIRCLE
8
JA
 10
15.24
 20
6.3499794
 30
0
 40
0.915
 39
  0
0
CIRCLE
8
JA
 10
17.779999
 20
6.3499794
 30
0
 40
0.585
 39
  0
0
CIRCLE
8
JA
 10
15.24
 20
3.8099794
 30
0
 40
0.915
 39
  0
0
CIRCLE
8
JA
 10
17.779999
 20
3.8099794
 30
0
 40
0.585
 39
  0
0
CIRCLE
8
JA
 10
15.24
 20
1.2699795
 30
0
 40
0.915
 39
  0
0
CIRCLE
8
JA
 10
17.779999
 20
1.2699795
 30
0
 40
0.585
 39
  0
0
LINE
8
JA
 10
20.32
 20
0
 30
0
 11
20.32
 21
81.28
 31
0
0
LINE
8
JA
 10
30.48
 20
0
 30
0
 11
30.48
 21
81.28
 31
0
0
LINE
8
JA
 10
20.32
 20
81.28
 30
6
 11
30.48
 21
81.28
 31
0
0
LINE
8
JA
 10
30.48
 20
0
 30
0
 11
20.32
 21
0
 31
0
0
CIRCLE
8
JA
 10
25.400002
 20
80.01
 30
0
 40
0.915
 39
  0
0
CIRCLE
8
JA
 10
27.940002
 20
80.01
 30
0
 40
0.585
 39
  0
0
CIRCLE
8
JA
 10
22.86
 20
77.47
 30
0
 40
0.915
 39
  0
0
CIRCLE
8
JA
 10
27.940002
 20
77.47
 30
0
 40
0.585
 39
  0
0
CIRCLE
8
JA
 10
22.86
 20
74.93
 30
0
 40
0.915
 39
  0
0
CIRCLE
8
JA
 10
27.940002
 20
74.93
 30
0
 40
0.585
 39
  0
0
CIRCLE
8
JA
 10
22.86
 20
72.39
 30
0
 40
0.915
 39
  0
0
CIRCLE
8
JA
 10
25.400002
 20
72.39
 30
0
 40
0.915
 39
  0
0
CIRCLE
8
JA
 10
27.940002
 20
72.39
 30
0
 40
0.585
 39
  0
0
CIRCLE
8
JA
 10
25.400002
 20
69.85
 30
0
 40
0.915
 39
  0
0
CIRCLE
8
JA
 10
27.940002
 20
69.85
 30
0
 40
0.585
 39
  0
0
CIRCLE
8
JA
 10
25.400002
 20
67.31
 30
0
 40
0.915
 39
  0
0
CIRCLE
8
JA
 10
27.940002
 20
67.31
 30
0
 40
0.585
 39
  0
0
CIRCLE
8
JA
 10
25.400002
 20
64.77
 30
0
 40
0.915
 39
  0
0
CIRCLE
8
JA
 10
27.940002
 20
64.77
 30
0
 40
0.585
 39
  0
0
CIRCLE
8
JA
 10
22.86
 20
62.229996
 30
0
 40
0.915
 39
  0
0
CIRCLE
8
JA
 10
27.940002
 20
62.229996
 30
0
 40
0.585
 39
  0
0
CIRCLE
8
JA
 10
22.86
 20
59.689995
 30
0
 40
0.915
 39
  0
0
CIRCLE
8
JA
 10
25.400002
 20
59.689995
 30
0
 40
0.915
 39
  0
0
CIRCLE
8
JA
 10
27.940002
 20
59.689995
 30
0
 40
0.585
 39
  0
0
CIRCLE
8
JA
 10
25.400002
 20
57.149994
 30
0
 40
0.915
 39
  0
0
CIRCLE
8
JA
 10
27.940002
 20
57.149994
 30
0
 40
0.585
 39
  0
0
CIRCLE
8
JA
 10
25.400002
 20
54.609993
 30
0
 40
0.915
 39
  0
0
CIRCLE
8
JA
 10
27.940002
 20
54.609993
 30
0
 40
0.585
 39
  0
0
CIRCLE
8
JA
 10
25.400002
 20
52.069992
 30
0
 40
0.915
 39
  0
0
CIRCLE
8
JA
 10
27.940002
 20
52.069992
 30
0
 40
0.585
 39
  0
0
CIRCLE
8
JA
 10
25.400002
 20
49.52999
 30
0
 40
0.915
 39
  0
0
CIRCLE
8
JA
 10
27.940002
 20
49.52999
 30
0
 40
0.585
 39
  0
0
CIRCLE
8
JA
 10
25.400002
 20
46.98999
 30
0
 40
0.915
 39
  0
0
CIRCLE
8
JA
 10
27.940002
 20
46.98999
 30
0
 40
0.585
 39
  0
0
CIRCLE
8
JA
 10
22.86
 20
44.44999
 30
0
 40
0.915
 39
  0
0
CIRCLE
8
JA
 10
25.400002
 20
44.44999
 30
0
 40
0.915
 39
  0
0
CIRCLE
8
JA
 10
27.940002
 20
44.44999
 30
0
 40
0.585
 39
  0
0
CIRCLE
8
JA
 10
22.86
 20
41.90999
 30
0
 40
0.915
 39
  0
0
CIRCLE
8
JA
 10
27.940002
 20
41.90999
 30
0
 40
0.585
 39
  0
0
CIRCLE
8
JA
 10
25.400002
 20
39.369987
 30
0
 40
0.915
 39
  0
0
CIRCLE
8
JA
 10
27.940002
 20
39.369987
 30
0
 40
0.585
 39
  0
0
CIRCLE
8
JA
 10
25.400002
 20
36.829987
 30
0
 40
0.915
 39
  0
0
CIRCLE
8
JA
 10
27.940002
 20
36.829987
 30
0
 40
0.585
 39
  0
0
CIRCLE
8
JA
 10
25.400002
 20
34.289986
 30
0
 40
0.915
 39
  0
0
CIRCLE
8
JA
 10
27.940002
 20
34.289986
 30
0
 40
0.585
 39
  0
0
CIRCLE
8
JA
 10
25.400002
 20
31.749985
 30
0
 40
0.915
 39
  0
0
CIRCLE
8
JA
 10
27.940002
 20
31.749985
 30
0
 40
0.585
 39
  0
0
CIRCLE
8
JA
 10
22.86
 20
29.209984
 30
0
 40
0.915
 39
  0
0
CIRCLE
8
JA
 10
25.400002
 20
29.209984
 30
0
 40
0.915
 39
  0
0
CIRCLE
8
JA
 10
27.940002
 20
29.209984
 30
0
 40
0.585
 39
  0
0
CIRCLE
8
JA
 10
22.86
 20
26.669983
 30
0
 40
0.915
 39
  0
0
CIRCLE
8
JA
 10
27.940002
 20
26.669983
 30
0
 40
0.585
 39
  0
0
CIRCLE
8
JA
 10
22.86
 20
24.129982
 30
0
 40
0.915
 39
  0
0
CIRCLE
8
JA
 10
27.940002
 20
24.129982
 30
0
 40
0.585
 39
  0
0
CIRCLE
8
JA
 10
25.400002
 20
21.589981
 30
0
 40
0.915
 39
  0
0
CIRCLE
8
JA
 10
27.940002
 20
21.589981
 30
0
 40
0.585
 39
  0
0
CIRCLE
8
JA
 10
25.400002
 20
19.04998
 30
0
 40
0.915
 39
  0
0
CIRCLE
8
JA
 10
27.940002
 20
19.04998
 30
0
 40
0.585
 39
  0
0
CIRCLE
8
JA
 10
25.400002
 20
16.50998
 30
0
 40
0.915
 39
  0
0
CIRCLE
8
JA
 10
27.940002
 20
16.50998
 30
0
 40
0.585
 39
  0
0
CIRCLE
8
JA
 10
22.86
 20
13.969979
 30
0
 40
0.915
 39
  0
0
CIRCLE
8
JA
 10
25.400002
 20
13.969979
 30
0
 40
0.915
 39
  0
0
CIRCLE
8
JA
 10
27.940002
 20
13.969979
 30
0
 40
0.585
 39
  0
0
CIRCLE
8
JA
 10
22.86
 20
11.429979
 30
0
 40
0.915
 39
  0
0
CIRCLE
8
JA
 10
27.940002
 20
11.429979
 30
0
 40
0.585
 39
  0
0
CIRCLE
8
JA
 10
22.86
 20
8.889979
 30
0
 40
0.915
 39
  0
0
CIRCLE
8
JA
 10
27.940002
 20
8.889979
 30
0
 40
0.585
 39
  0
0
CIRCLE
8
JA
 10
22.86
 20
6.3499794
 30
0
 40
0.915
 39
  0
0
CIRCLE
8
JA
 10
27.940002
 20
6.3499794
 30
0
 40
0.585
 39
  0
0
CIRCLE
8
JA
 10
25.400002
 20
3.8099794
 30
0
 40
0.915
 39
  0
0
CIRCLE
8
JA
 10
27.940002
 20
3.8099794
 30
0
 40
0.585
 39
  0
0
CIRCLE
8
JA
 10
25.400002
 20
1.2699795
 30
0
 40
0.915
 39
  0
0
CIRCLE
8
JA
 10
27.940002
 20
1.2699795
 30
0
 40
0.585
 39
  0
0
LINE
8
JA
 10
30.48
 20
0
 30
0
 11
30.48
 21
81.28
 31
0
0
LINE
8
JA
 10
40.64
 20
0
 30
0
 11
40.64
 21
81.28
 31
0
0
LINE
8
JA
 10
30.48
 20
81.28
 30
6
 11
40.64
 21
81.28
 31
0
0
LINE
8
JA
 10
40.64
 20
0
 30
0
 11
30.48
 21
0
 31
0
0
CIRCLE
8
JA
 10
33.02
 20
80.01
 30
0
 40
0.915
 39
  0
0
CIRCLE
8
JA
 10
35.56
 20
80.01
 30
0
 40
0.915
 39
  0
0
CIRCLE
8
JA
 10
38.100002
 20
80.01
 30
0
 40
0.585
 39
  0
0
CIRCLE
8
JA
 10
33.02
 20
77.47
 30
0
 40
0.915
 39
  0
0
CIRCLE
8
JA
 10
38.100002
 20
77.47
 30
0
 40
0.585
 39
  0
0
CIRCLE
8
JA
 10
33.02
 20
74.93
 30
0
 40
0.915
 39
  0
0
CIRCLE
8
JA
 10
38.100002
 20
74.93
 30
0
 40
0.585
 39
  0
0
CIRCLE
8
JA
 10
33.02
 20
72.39
 30
0
 40
0.915
 39
  0
0
CIRCLE
8
JA
 10
38.100002
 20
72.39
 30
0
 40
0.585
 39
  0
0
CIRCLE
8
JA
 10
33.02
 20
69.85
 30
0
 40
0.915
 39
  0
0
CIRCLE
8
JA
 10
38.100002
 20
69.85
 30
0
 40
0.585
 39
  0
0
CIRCLE
8
JA
 10
35.56
 20
67.31
 30
0
 40
0.915
 39
  0
0
CIRCLE
8
JA
 10
38.100002
 20
67.31
 30
0
 40
0.585
 39
  0
0
CIRCLE
8
JA
 10
33.02
 20
64.77
 30
0
 40
0.915
 39
  0
0
CIRCLE
8
JA
 10
35.56
 20
64.77
 30
0
 40
0.915
 39
  0
0
CIRCLE
8
JA
 10
38.100002
 20
64.77
 30
0
 40
0.585
 39
  0
0
CIRCLE
8
JA
 10
33.02
 20
62.229996
 30
0
 40
0.915
 39
  0
0
CIRCLE
8
JA
 10
38.100002
 20
62.229996
 30
0
 40
0.585
 39
  0
0
CIRCLE
8
JA
 10
33.02
 20
59.689995
 30
0
 40
0.915
 39
  0
0
CIRCLE
8
JA
 10
38.100002
 20
59.689995
 30
0
 40
0.585
 39
  0
0
CIRCLE
8
JA
 10
33.02
 20
57.149994
 30
0
 40
0.915
 39
  0
0
CIRCLE
8
JA
 10
38.100002
 20
57.149994
 30
0
 40
0.585
 39
  0
0
CIRCLE
8
JA
 10
35.56
 20
54.609993
 30
0
 40
0.915
 39
  0
0
CIRCLE
8
JA
 10
38.100002
 20
54.609993
 30
0
 40
0.585
 39
  0
0
CIRCLE
8
JA
 10
35.56
 20
52.069992
 30
0
 40
0.915
 39
  0
0
CIRCLE
8
JA
 10
38.100002
 20
52.069992
 30
0
 40
0.585
 39
  0
0
CIRCLE
8
JA
 10
35.56
 20
49.52999
 30
0
 40
0.915
 39
  0
0
CIRCLE
8
JA
 10
38.100002
 20
49.52999
 30
0
 40
0.585
 39
  0
0
CIRCLE
8
JA
 10
33.02
 20
46.98999
 30
0
 40
0.915
 39
  0
0
CIRCLE
8
JA
 10
35.56
 20
46.98999
 30
0
 40
0.915
 39
  0
0
CIRCLE
8
JA
 10
38.100002
 20
46.98999
 30
0
 40
0.585
 39
  0
0
CIRCLE
8
JA
 10
33.02
 20
44.44999
 30
0
 40
0.915
 39
  0
0
CIRCLE
8
JA
 10
38.100002
 20
44.44999
 30
0
 40
0.585
 39
  0
0
CIRCLE
8
JA
 10
35.56
 20
41.90999
 30
0
 40
0.915
 39
  0
0
CIRCLE
8
JA
 10
38.100002
 20
41.90999
 30
0
 40
0.585
 39
  0
0
CIRCLE
8
JA
 10
33.02
 20
39.369987
 30
0
 40
0.915
 39
  0
0
CIRCLE
8
JA
 10
38.100002
 20
39.369987
 30
0
 40
0.585
 39
  0
0
CIRCLE
8
JA
 10
35.56
 20
36.829987
 30
0
 40
0.915
 39
  0
0
CIRCLE
8
JA
 10
38.100002
 20
36.829987
 30
0
 40
0.585
 39
  0
0
CIRCLE
8
JA
 10
33.02
 20
34.289986
 30
0
 40
0.915
 39
  0
0
CIRCLE
8
JA
 10
38.100002
 20
34.289986
 30
0
 40
0.585
 39
  0
0
CIRCLE
8
JA
 10
35.56
 20
31.749985
 30
0
 40
0.915
 39
  0
0
CIRCLE
8
JA
 10
38.100002
 20
31.749985
 30
0
 40
0.585
 39
  0
0
CIRCLE
8
JA
 10
33.02
 20
29.209984
 30
0
 40
0.915
 39
  0
0
CIRCLE
8
JA
 10
35.56
 20
29.209984
 30
0
 40
0.915
 39
  0
0
CIRCLE
8
JA
 10
38.100002
 20
29.209984
 30
0
 40
0.585
 39
  0
0
CIRCLE
8
JA
 10
35.56
 20
26.669983
 30
0
 40
0.915
 39
  0
0
CIRCLE
8
JA
 10
38.100002
 20
26.669983
 30
0
 40
0.585
 39
  0
0
CIRCLE
8
JA
 10
35.56
 20
24.129982
 30
0
 40
0.915
 39
  0
0
CIRCLE
8
JA
 10
38.100002
 20
24.129982
 30
0
 40
0.585
 39
  0
0
CIRCLE
8
JA
 10
33.02
 20
21.589981
 30
0
 40
0.915
 39
  0
0
CIRCLE
8
JA
 10
38.100002
 20
21.589981
 30
0
 40
0.585
 39
  0
0
CIRCLE
8
JA
 10
33.02
 20
19.04998
 30
0
 40
0.915
 39
  0
0
CIRCLE
8
JA
 10
38.100002
 20
19.04998
 30
0
 40
0.585
 39
  0
0
CIRCLE
8
JA
 10
35.56
 20
16.50998
 30
0
 40
0.915
 39
  0
0
CIRCLE
8
JA
 10
38.100002
 20
16.50998
 30
0
 40
0.585
 39
  0
0
CIRCLE
8
JA
 10
35.56
 20
13.969979
 30
0
 40
0.915
 39
  0
0
CIRCLE
8
JA
 10
38.100002
 20
13.969979
 30
0
 40
0.585
 39
  0
0
CIRCLE
8
JA
 10
33.02
 20
11.429979
 30
0
 40
0.915
 39
  0
0
CIRCLE
8
JA
 10
35.56
 20
11.429979
 30
0
 40
0.915
 39
  0
0
CIRCLE
8
JA
 10
38.100002
 20
11.429979
 30
0
 40
0.585
 39
  0
0
CIRCLE
8
JA
 10
35.56
 20
8.889979
 30
0
 40
0.915
 39
  0
0
CIRCLE
8
JA
 10
38.100002
 20
8.889979
 30
0
 40
0.585
 39
  0
0
CIRCLE
8
JA
 10
33.02
 20
6.3499794
 30
0
 40
0.915
 39
  0
0
CIRCLE
8
JA
 10
38.100002
 20
6.3499794
 30
0
 40
0.585
 39
  0
0
CIRCLE
8
JA
 10
33.02
 20
3.8099794
 30
0
 40
0.915
 39
  0
0
CIRCLE
8
JA
 10
38.100002
 20
3.8099794
 30
0
 40
0.585
 39
  0
0
CIRCLE
8
JA
 10
35.56
 20
1.2699795
 30
0
 40
0.915
 39
  0
0
CIRCLE
8
JA
 10
38.100002
 20
1.2699795
 30
0
 40
0.585
 39
  0
0
LINE
8
JA
 10
40.64
 20
0
 30
0
 11
40.64
 21
81.28
 31
0
0
LINE
8
JA
 10
50.8
 20
0
 30
0
 11
50.8
 21
81.28
 31
0
0
LINE
8
JA
 10
40.64
 20
81.28
 30
6
 11
50.8
 21
81.28
 31
0
0
LINE
8
JA
 10
50.8
 20
0
 30
0
 11
40.64
 21
0
 31
0
0
CIRCLE
8
JA
 10
43.18
 20
80.01
 30
0
 40
0.915
 39
  0
0
CIRCLE
8
JA
 10
48.260002
 20
80.01
 30
0
 40
0.585
 39
  0
0
CIRCLE
8
JA
 10
45.72
 20
77.47
 30
0
 40
0.915
 39
  0
0
CIRCLE
8
JA
 10
48.260002
 20
77.47
 30
0
 40
0.585
 39
  0
0
CIRCLE
8
JA
 10
43.18
 20
74.93
 30
0
 40
0.915
 39
  0
0
CIRCLE
8
JA
 10
45.72
 20
74.93
 30
0
 40
0.915
 39
  0
0
CIRCLE
8
JA
 10
48.260002
 20
74.93
 30
0
 40
0.585
 39
  0
0
CIRCLE
8
JA
 10
45.72
 20
72.39
 30
0
 40
0.915
 39
  0
0
CIRCLE
8
JA
 10
48.260002
 20
72.39
 30
0
 40
0.585
 39
  0
0
CIRCLE
8
JA
 10
43.18
 20
69.85
 30
0
 40
0.915
 39
  0
0
CIRCLE
8
JA
 10
48.260002
 20
69.85
 30
0
 40
0.585
 39
  0
0
CIRCLE
8
JA
 10
43.18
 20
67.31
 30
0
 40
0.915
 39
  0
0
CIRCLE
8
JA
 10
45.72
 20
67.31
 30
0
 40
0.915
 39
  0
0
CIRCLE
8
JA
 10
48.260002
 20
67.31
 30
0
 40
0.585
 39
  0
0
CIRCLE
8
JA
 10
43.18
 20
64.77
 30
0
 40
0.915
 39
  0
0
CIRCLE
8
JA
 10
48.260002
 20
64.77
 30
0
 40
0.585
 39
  0
0
CIRCLE
8
JA
 10
45.72
 20
62.229996
 30
0
 40
0.915
 39
  0
0
CIRCLE
8
JA
 10
48.260002
 20
62.229996
 30
0
 40
0.585
 39
  0
0
CIRCLE
8
JA
 10
45.72
 20
59.689995
 30
0
 40
0.915
 39
  0
0
CIRCLE
8
JA
 10
48.260002
 20
59.689995
 30
0
 40
0.585
 39
  0
0
CIRCLE
8
JA
 10
45.72
 20
57.149994
 30
0
 40
0.915
 39
  0
0
CIRCLE
8
JA
 10
48.260002
 20
57.149994
 30
0
 40
0.585
 39
  0
0
CIRCLE
8
JA
 10
43.18
 20
54.609993
 30
0
 40
0.915
 39
  0
0
CIRCLE
8
JA
 10
45.72
 20
54.609993
 30
0
 40
0.915
 39
  0
0
CIRCLE
8
JA
 10
48.260002
 20
54.609993
 30
0
 40
0.585
 39
  0
0
CIRCLE
8
JA
 10
43.18
 20
52.069992
 30
0
 40
0.915
 39
  0
0
CIRCLE
8
JA
 10
48.260002
 20
52.069992
 30
0
 40
0.585
 39
  0
0
CIRCLE
8
JA
 10
45.72
 20
49.52999
 30
0
 40
0.915
 39
  0
0
CIRCLE
8
JA
 10
48.260002
 20
49.52999
 30
0
 40
0.585
 39
  0
0
CIRCLE
8
JA
 10
43.18
 20
46.98999
 30
0
 40
0.915
 39
  0
0
CIRCLE
8
JA
 10
48.260002
 20
46.98999
 30
0
 40
0.585
 39
  0
0
CIRCLE
8
JA
 10
45.72
 20
44.44999
 30
0
 40
0.915
 39
  0
0
CIRCLE
8
JA
 10
48.260002
 20
44.44999
 30
0
 40
0.585
 39
  0
0
CIRCLE
8
JA
 10
43.18
 20
41.90999
 30
0
 40
0.915
 39
  0
0
CIRCLE
8
JA
 10
45.72
 20
41.90999
 30
0
 40
0.915
 39
  0
0
CIRCLE
8
JA
 10
48.260002
 20
41.90999
 30
0
 40
0.585
 39
  0
0
CIRCLE
8
JA
 10
43.18
 20
39.369987
 30
0
 40
0.915
 39
  0
0
CIRCLE
8
JA
 10
48.260002
 20
39.369987
 30
0
 40
0.585
 39
  0
0
CIRCLE
8
JA
 10
45.72
 20
36.829987
 30
0
 40
0.915
 39
  0
0
CIRCLE
8
JA
 10
48.260002
 20
36.829987
 30
0
 40
0.585
 39
  0
0
CIRCLE
8
JA
 10
45.72
 20
34.289986
 30
0
 40
0.915
 39
  0
0
CIRCLE
8
JA
 10
48.260002
 20
34.289986
 30
0
 40
0.585
 39
  0
0
CIRCLE
8
JA
 10
43.18
 20
31.749985
 30
0
 40
0.915
 39
  0
0
CIRCLE
8
JA
 10
45.72
 20
31.749985
 30
0
 40
0.915
 39
  0
0
CIRCLE
8
JA
 10
48.260002
 20
31.749985
 30
0
 40
0.585
 39
  0
0
CIRCLE
8
JA
 10
45.72
 20
29.209984
 30
0
 40
0.915
 39
  0
0
CIRCLE
8
JA
 10
48.260002
 20
29.209984
 30
0
 40
0.585
 39
  0
0
CIRCLE
8
JA
 10
43.18
 20
26.669983
 30
0
 40
0.915
 39
  0
0
CIRCLE
8
JA
 10
45.72
 20
26.669983
 30
0
 40
0.915
 39
  0
0
CIRCLE
8
JA
 10
48.260002
 20
26.669983
 30
0
 40
0.585
 39
  0
0
CIRCLE
8
JA
 10
45.72
 20
24.129982
 30
0
 40
0.915
 39
  0
0
CIRCLE
8
JA
 10
48.260002
 20
24.129982
 30
0
 40
0.585
 39
  0
0
CIRCLE
8
JA
 10
45.72
 20
21.589981
 30
0
 40
0.915
 39
  0
0
CIRCLE
8
JA
 10
48.260002
 20
21.589981
 30
0
 40
0.585
 39
  0
0
CIRCLE
8
JA
 10
43.18
 20
19.04998
 30
0
 40
0.915
 39
  0
0
CIRCLE
8
JA
 10
48.260002
 20
19.04998
 30
0
 40
0.585
 39
  0
0
CIRCLE
8
JA
 10
45.72
 20
16.50998
 30
0
 40
0.915
 39
  0
0
CIRCLE
8
JA
 10
48.260002
 20
16.50998
 30
0
 40
0.585
 39
  0
0
CIRCLE
8
JA
 10
43.18
 20
13.969979
 30
0
 40
0.915
 39
  0
0
CIRCLE
8
JA
 10
45.72
 20
13.969979
 30
0
 40
0.915
 39
  0
0
CIRCLE
8
JA
 10
48.260002
 20
13.969979
 30
0
 40
0.585
 39
  0
0
CIRCLE
8
JA
 10
43.18
 20
11.429979
 30
0
 40
0.915
 39
  0
0
CIRCLE
8
JA
 10
48.260002
 20
11.429979
 30
0
 40
0.585
 39
  0
0
CIRCLE
8
JA
 10
43.18
 20
8.889979
 30
0
 40
0.915
 39
  0
0
CIRCLE
8
JA
 10
48.260002
 20
8.889979
 30
0
 40
0.585
 39
  0
0
CIRCLE
8
JA
 10
45.72
 20
6.3499794
 30
0
 40
0.915
 39
  0
0
CIRCLE
8
JA
 10
48.260002
 20
6.3499794
 30
0
 40
0.585
 39
  0
0
CIRCLE
8
JA
 10
43.18
 20
3.8099794
 30
0
 40
0.915
 39
  0
0
CIRCLE
8
JA
 10
45.72
 20
3.8099794
 30
0
 40
0.915
 39
  0
0
CIRCLE
8
JA
 10
48.260002
 20
3.8099794
 30
0
 40
0.585
 39
  0
0
CIRCLE
8
JA
 10
45.72
 20
1.2699795
 30
0
 40
0.915
 39
  0
0
CIRCLE
8
JA
 10
48.260002
 20
1.2699795
 30
0
 40
0.585
 39
  0
0
LINE
8
JA
 10
50.8
 20
0
 30
0
 11
50.8
 21
81.28
 31
0
0
LINE
8
JA
 10
60.96
 20
0
 30
0
 11
60.96
 21
81.28
 31
0
0
LINE
8
JA
 10
50.8
 20
81.28
 30
6
 11
60.96
 21
81.28
 31
0
0
LINE
8
JA
 10
60.96
 20
0
 30
0
 11
50.8
 21
0
 31
0
0
CIRCLE
8
JA
 10
55.88
 20
80.01
 30
0
 40
0.915
 39
  0
0
CIRCLE
8
JA
 10
58.420002
 20
80.01
 30
0
 40
0.585
 39
  0
0
CIRCLE
8
JA
 10
55.88
 20
77.47
 30
0
 40
0.915
 39
  0
0
CIRCLE
8
JA
 10
58.420002
 20
77.47
 30
0
 40
0.585
 39
  0
0
CIRCLE
8
JA
 10
55.88
 20
74.93
 30
0
 40
0.915
 39
  0
0
CIRCLE
8
JA
 10
58.420002
 20
74.93
 30
0
 40
0.585
 39
  0
0
CIRCLE
8
JA
 10
53.34
 20
72.39
 30
0
 40
0.915
 39
  0
0
CIRCLE
8
JA
 10
55.88
 20
72.39
 30
0
 40
0.915
 39
  0
0
CIRCLE
8
JA
 10
58.420002
 20
72.39
 30
0
 40
0.585
 39
  0
0
CIRCLE
8
JA
 10
55.88
 20
69.85
 30
0
 40
0.915
 39
  0
0
CIRCLE
8
JA
 10
58.420002
 20
69.85
 30
0
 40
0.585
 39
  0
0
CIRCLE
8
JA
 10
55.88
 20
67.31
 30
0
 40
0.915
 39
  0
0
CIRCLE
8
JA
 10
58.420002
 20
67.31
 30
0
 40
0.585
 39
  0
0
CIRCLE
8
JA
 10
53.34
 20
64.77
 30
0
 40
0.915
 39
  0
0
CIRCLE
8
JA
 10
55.88
 20
64.77
 30
0
 40
0.915
 39
  0
0
CIRCLE
8
JA
 10
58.420002
 20
64.77
 30
0
 40
0.585
 39
  0
0
CIRCLE
8
JA
 10
55.88
 20
62.229996
 30
0
 40
0.915
 39
  0
0
CIRCLE
8
JA
 10
58.420002
 20
62.229996
 30
0
 40
0.585
 39
  0
0
CIRCLE
8
JA
 10
53.34
 20
59.689995
 30
0
 40
0.915
 39
  0
0
CIRCLE
8
JA
 10
58.420002
 20
59.689995
 30
0
 40
0.585
 39
  0
0
CIRCLE
8
JA
 10
53.34
 20
57.149994
 30
0
 40
0.915
 39
  0
0
CIRCLE
8
JA
 10
58.420002
 20
57.149994
 30
0
 40
0.585
 39
  0
0
CIRCLE
8
JA
 10
53.34
 20
54.609993
 30
0
 40
0.915
 39
  0
0
CIRCLE
8
JA
 10
58.420002
 20
54.609993
 30
0
 40
0.585
 39
  0
0
CIRCLE
8
JA
 10
53.34
 20
52.069992
 30
0
 40
0.915
 39
  0
0
CIRCLE
8
JA
 10
55.88
 20
52.069992
 30
0
 40
0.915
 39
  0
0
CIRCLE
8
JA
 10
58.420002
 20
52.069992
 30
0
 40
0.585
 39
  0
0
CIRCLE
8
JA
 10
53.34
 20
49.52999
 30
0
 40
0.915
 39
  0
0
CIRCLE
8
JA
 10
58.420002
 20
49.52999
 30
0
 40
0.585
 39
  0
0
CIRCLE
8
JA
 10
55.88
 20
46.98999
 30
0
 40
0.915
 39
  0
0
CIRCLE
8
JA
 10
58.420002
 20
46.98999
 30
0
 40
0.585
 39
  0
0
CIRCLE
8
JA
 10
53.34
 20
44.44999
 30
0
 40
0.915
 39
  0
0
CIRCLE
8
JA
 10
58.420002
 20
44.44999
 30
0
 40
0.585
 39
  0
0
CIRCLE
8
JA
 10
53.34
 20
41.90999
 30
0
 40
0.915
 39
  0
0
CIRCLE
8
JA
 10
55.88
 20
41.90999
 30
0
 40
0.915
 39
  0
0
CIRCLE
8
JA
 10
58.420002
 20
41.90999
 30
0
 40
0.585
 39
  0
0
CIRCLE
8
JA
 10
55.88
 20
39.369987
 30
0
 40
0.915
 39
  0
0
CIRCLE
8
JA
 10
58.420002
 20
39.369987
 30
0
 40
0.585
 39
  0
0
CIRCLE
8
JA
 10
53.34
 20
36.829987
 30
0
 40
0.915
 39
  0
0
CIRCLE
8
JA
 10
58.420002
 20
36.829987
 30
0
 40
0.585
 39
  0
0
CIRCLE
8
JA
 10
55.88
 20
34.289986
 30
0
 40
0.915
 39
  0
0
CIRCLE
8
JA
 10
58.420002
 20
34.289986
 30
0
 40
0.585
 39
  0
0
CIRCLE
8
JA
 10
55.88
 20
31.749985
 30
0
 40
0.915
 39
  0
0
CIRCLE
8
JA
 10
58.420002
 20
31.749985
 30
0
 40
0.585
 39
  0
0
CIRCLE
8
JA
 10
53.34
 20
29.209984
 30
0
 40
0.915
 39
  0
0
CIRCLE
8
JA
 10
55.88
 20
29.209984
 30
0
 40
0.915
 39
  0
0
CIRCLE
8
JA
 10
58.420002
 20
29.209984
 30
0
 40
0.585
 39
  0
0
CIRCLE
8
JA
 10
53.34
 20
26.669983
 30
0
 40
0.915
 39
  0
0
CIRCLE
8
JA
 10
58.420002
 20
26.669983
 30
0
 40
0.585
 39
  0
0
CIRCLE
8
JA
 10
53.34
 20
24.129982
 30
0
 40
0.915
 39
  0
0
CIRCLE
8
JA
 10
58.420002
 20
24.129982
 30
0
 40
0.585
 39
  0
0
CIRCLE
8
JA
 10
53.34
 20
21.589981
 30
0
 40
0.915
 39
  0
0
CIRCLE
8
JA
 10
55.88
 20
21.589981
 30
0
 40
0.915
 39
  0
0
CIRCLE
8
JA
 10
58.420002
 20
21.589981
 30
0
 40
0.585
 39
  0
0
CIRCLE
8
JA
 10
53.34
 20
19.04998
 30
0
 40
0.915
 39
  0
0
CIRCLE
8
JA
 10
58.420002
 20
19.04998
 30
0
 40
0.585
 39
  0
0
CIRCLE
8
JA
 10
55.88
 20
16.50998
 30
0
 40
0.915
 39
  0
0
CIRCLE
8
JA
 10
58.420002
 20
16.50998
 30
0
 40
0.585
 39
  0
0
CIRCLE
8
JA
 10
53.34
 20
13.969979
 30
0
 40
0.915
 39
  0
0
CIRCLE
8
JA
 10
55.88
 20
13.969979
 30
0
 40
0.915
 39
  0
0
CIRCLE
8
JA
 10
58.420002
 20
13.969979
 30
0
 40
0.585
 39
  0
0
CIRCLE
8
JA
 10
53.34
 20
11.429979
 30
0
 40
0.915
 39
  0
0
CIRCLE
8
JA
 10
58.420002
 20
11.429979
 30
0
 40
0.585
 39
  0
0
CIRCLE
8
JA
 10
53.34
 20
8.889979
 30
0
 40
0.915
 39
  0
0
CIRCLE
8
JA
 10
58.420002
 20
8.889979
 30
0
 40
0.585
 39
  0
0
CIRCLE
8
JA
 10
53.34
 20
6.3499794
 30
0
 40
0.915
 39
  0
0
CIRCLE
8
JA
 10
58.420002
 20
6.3499794
 30
0
 40
0.585
 39
  0
0
CIRCLE
8
JA
 10
53.34
 20
3.8099794
 30
0
 40
0.915
 39
  0
0
CIRCLE
8
JA
 10
55.88
 20
3.8099794
 30
0
 40
0.915
 39
  0
0
CIRCLE
8
JA
 10
58.420002
 20
3.8099794
 30
0
 40
0.585
 39
  0
0
CIRCLE
8
JA
 10
55.88
 20
1.2699795
 30
0
 40
0.915
 39
  0
0
CIRCLE
8
JA
 10
58.420002
 20
1.2699795
 30
0
 40
0.585
 39
  0
0
LINE
8
JA
 10
60.96
 20
0
 30
0
 11
60.96
 21
81.28
 31
0
0
LINE
8
JA
 10
71.119995
 20
0
 30
0
 11
71.119995
 21
81.28
 31
0
0
LINE
8
JA
 10
60.96
 20
81.28
 30
6
 11
71.119995
 21
81.28
 31
0
0
LINE
8
JA
 10
71.119995
 20
0
 30
0
 11
60.96
 21
0
 31
0
0
CIRCLE
8
JA
 10
63.5
 20
80.01
 30
0
 40
0.915
 39
  0
0
CIRCLE
8
JA
 10
68.58
 20
80.01
 30
0
 40
0.585
 39
  0
0
CIRCLE
8
JA
 10
63.5
 20
77.47
 30
0
 40
0.915
 39
  0
0
CIRCLE
8
JA
 10
68.58
 20
77.47
 30
0
 40
0.585
 39
  0
0
CIRCLE
8
JA
 10
66.04
 20
74.93
 30
0
 40
0.915
 39
  0
0
CIRCLE
8
JA
 10
68.58
 20
74.93
 30
0
 40
0.585
 39
  0
0
CIRCLE
8
JA
 10
63.5
 20
72.39
 30
0
 40
0.915
 39
  0
0
CIRCLE
8
JA
 10
66.04
 20
72.39
 30
0
 40
0.915
 39
  0
0
CIRCLE
8
JA
 10
68.58
 20
72.39
 30
0
 40
0.585
 39
  0
0
CIRCLE
8
JA
 10
63.5
 20
69.85
 30
0
 40
0.915
 39
  0
0
CIRCLE
8
JA
 10
68.58
 20
69.85
 30
0
 40
0.585
 39
  0
0
CIRCLE
8
JA
 10
63.5
 20
67.31
 30
0
 40
0.915
 39
  0
0
CIRCLE
8
JA
 10
68.58
 20
67.31
 30
0
 40
0.585
 39
  0
0
CIRCLE
8
JA
 10
66.04
 20
64.77
 30
0
 40
0.915
 39
  0
0
CIRCLE
8
JA
 10
68.58
 20
64.77
 30
0
 40
0.585
 39
  0
0
CIRCLE
8
JA
 10
63.5
 20
62.229996
 30
0
 40
0.915
 39
  0
0
CIRCLE
8
JA
 10
68.58
 20
62.229996
 30
0
 40
0.585
 39
  0
0
CIRCLE
8
JA
 10
63.5
 20
59.689995
 30
0
 40
0.915
 39
  0
0
CIRCLE
8
JA
 10
66.04
 20
59.689995
 30
0
 40
0.915
 39
  0
0
CIRCLE
8
JA
 10
68.58
 20
59.689995
 30
0
 40
0.585
 39
  0
0
CIRCLE
8
JA
 10
66.04
 20
57.149994
 30
0
 40
0.915
 39
  0
0
CIRCLE
8
JA
 10
68.58
 20
57.149994
 30
0
 40
0.585
 39
  0
0
CIRCLE
8
JA
 10
63.5
 20
54.609993
 30
0
 40
0.915
 39
  0
0
CIRCLE
8
JA
 10
68.58
 20
54.609993
 30
0
 40
0.585
 39
  0
0
CIRCLE
8
JA
 10
66.04
 20
52.069992
 30
0
 40
0.915
 39
  0
0
CIRCLE
8
JA
 10
68.58
 20
52.069992
 30
0
 40
0.585
 39
  0
0
CIRCLE
8
JA
 10
63.5
 20
49.52999
 30
0
 40
0.915
 39
  0
0
CIRCLE
8
JA
 10
66.04
 20
49.52999
 30
0
 40
0.915
 39
  0
0
CIRCLE
8
JA
 10
68.58
 20
49.52999
 30
0
 40
0.585
 39
  0
0
CIRCLE
8
JA
 10
66.04
 20
46.98999
 30
0
 40
0.915
 39
  0
0
CIRCLE
8
JA
 10
68.58
 20
46.98999
 30
0
 40
0.585
 39
  0
0
CIRCLE
8
JA
 10
66.04
 20
44.44999
 30
0
 40
0.915
 39
  0
0
CIRCLE
8
JA
 10
68.58
 20
44.44999
 30
0
 40
0.585
 39
  0
0
CIRCLE
8
JA
 10
66.04
 20
41.90999
 30
0
 40
0.915
 39
  0
0
CIRCLE
8
JA
 10
68.58
 20
41.90999
 30
0
 40
0.585
 39
  0
0
CIRCLE
8
JA
 10
63.5
 20
39.369987
 30
0
 40
0.915
 39
  0
0
CIRCLE
8
JA
 10
66.04
 20
39.369987
 30
0
 40
0.915
 39
  0
0
CIRCLE
8
JA
 10
68.58
 20
39.369987
 30
0
 40
0.585
 39
  0
0
CIRCLE
8
JA
 10
63.5
 20
36.829987
 30
0
 40
0.915
 39
  0
0
CIRCLE
8
JA
 10
68.58
 20
36.829987
 30
0
 40
0.585
 39
  0
0
CIRCLE
8
JA
 10
63.5
 20
34.289986
 30
0
 40
0.915
 39
  0
0
CIRCLE
8
JA
 10
66.04
 20
34.289986
 30
0
 40
0.915
 39
  0
0
CIRCLE
8
JA
 10
68.58
 20
34.289986
 30
0
 40
0.585
 39
  0
0
CIRCLE
8
JA
 10
66.04
 20
31.749985
 30
0
 40
0.915
 39
  0
0
CIRCLE
8
JA
 10
68.58
 20
31.749985
 30
0
 40
0.585
 39
  0
0
CIRCLE
8
JA
 10
66.04
 20
29.209984
 30
0
 40
0.915
 39
  0
0
CIRCLE
8
JA
 10
68.58
 20
29.209984
 30
0
 40
0.585
 39
  0
0
CIRCLE
8
JA
 10
63.5
 20
26.669983
 30
0
 40
0.915
 39
  0
0
CIRCLE
8
JA
 10
68.58
 20
26.669983
 30
0
 40
0.585
 39
  0
0
CIRCLE
8
JA
 10
63.5
 20
24.129982
 30
0
 40
0.915
 39
  0
0
CIRCLE
8
JA
 10
66.04
 20
24.129982
 30
0
 40
0.915
 39
  0
0
CIRCLE
8
JA
 10
68.58
 20
24.129982
 30
0
 40
0.585
 39
  0
0
CIRCLE
8
JA
 10
66.04
 20
21.589981
 30
0
 40
0.915
 39
  0
0
CIRCLE
8
JA
 10
68.58
 20
21.589981
 30
0
 40
0.585
 39
  0
0
CIRCLE
8
JA
 10
66.04
 20
19.04998
 30
0
 40
0.915
 39
  0
0
CIRCLE
8
JA
 10
68.58
 20
19.04998
 30
0
 40
0.585
 39
  0
0
CIRCLE
8
JA
 10
66.04
 20
16.50998
 30
0
 40
0.915
 39
  0
0
CIRCLE
8
JA
 10
68.58
 20
16.50998
 30
0
 40
0.585
 39
  0
0
CIRCLE
8
JA
 10
63.5
 20
13.969979
 30
0
 40
0.915
 39
  0
0
CIRCLE
8
JA
 10
68.58
 20
13.969979
 30
0
 40
0.585
 39
  0
0
CIRCLE
8
JA
 10
63.5
 20
11.429979
 30
0
 40
0.915
 39
  0
0
CIRCLE
8
JA
 10
66.04
 20
11.429979
 30
0
 40
0.915
 39
  0
0
CIRCLE
8
JA
 10
68.58
 20
11.429979
 30
0
 40
0.585
 39
  0
0
CIRCLE
8
JA
 10
66.04
 20
8.889979
 30
0
 40
0.915
 39
  0
0
CIRCLE
8
JA
 10
68.58
 20
8.889979
 30
0
 40
0.585
 39
  0
0
CIRCLE
8
JA
 10
63.5
 20
6.3499794
 30
0
 40
0.915
 39
  0
0
CIRCLE
8
JA
 10
68.58
 20
6.3499794
 30
0
 40
0.585
 39
  0
0
CIRCLE
8
JA
 10
63.5
 20
3.8099794
 30
0
 40
0.915
 39
  0
0
CIRCLE
8
JA
 10
68.58
 20
3.8099794
 30
0
 40
0.585
 39
  0
0
CIRCLE
8
JA
 10
63.5
 20
1.2699795
 30
0
 40
0.915
 39
  0
0
CIRCLE
8
JA
 10
66.04
 20
1.2699795
 30
0
 40
0.915
 39
  0
0
CIRCLE
8
JA
 10
68.58
 20
1.2699795
 30
0
 40
0.585
 39
  0
0
LINE
8
JA
 10
71.119995
 20
0
 30
0
 11
71.119995
 21
55.879997
 31
0
0
LINE
8
JA
 10
81.28
 20
0
 30
0
 11
81.28
 21
55.879997
 31
0
0
LINE
8
JA
 10
71.119995
 20
0
 30
0
 11
81.28
 21
0
 31
0
0
LINE
8
JA
 10
71.119995
 20
55.879997
 30
7
 11
81.28
 21
55.879997
 31
0
0
CIRCLE
8
JA
 10
73.659996
 20
54.609997
 30
0
 40
0.915
 39
  0
0
CIRCLE
8
JA
 10
78.74
 20
54.609997
 30
0
 40
0.585
 39
  0
0
CIRCLE
8
JA
 10
76.2
 20
52.069996
 30
0
 40
0.915
 39
  0
0
CIRCLE
8
JA
 10
78.74
 20
52.069996
 30
0
 40
0.585
 39
  0
0
CIRCLE
8
JA
 10
76.2
 20
49.529995
 30
0
 40
0.915
 39
  0
0
CIRCLE
8
JA
 10
78.74
 20
49.529995
 30
0
 40
0.585
 39
  0
0
CIRCLE
8
JA
 10
73.659996
 20
46.989994
 30
0
 40
0.915
 39
  0
0
CIRCLE
8
JA
 10
78.74
 20
46.989994
 30
0
 40
0.585
 39
  0
0
CIRCLE
8
JA
 10
73.659996
 20
44.449993
 30
0
 40
0.915
 39
  0
0
CIRCLE
8
JA
 10
76.2
 20
44.449993
 30
0
 40
0.915
 39
  0
0
CIRCLE
8
JA
 10
78.74
 20
44.449993
 30
0
 40
0.585
 39
  0
0
CIRCLE
8
JA
 10
73.659996
 20
41.909992
 30
0
 40
0.915
 39
  0
0
CIRCLE
8
JA
 10
78.74
 20
41.909992
 30
0
 40
0.585
 39
  0
0
CIRCLE
8
JA
 10
76.2
 20
39.36999
 30
0
 40
0.915
 39
  0
0
CIRCLE
8
JA
 10
78.74
 20
39.36999
 30
0
 40
0.585
 39
  0
0
CIRCLE
8
JA
 10
73.659996
 20
36.82999
 30
0
 40
0.915
 39
  0
0
CIRCLE
8
JA
 10
78.74
 20
36.82999
 30
0
 40
0.585
 39
  0
0
CIRCLE
8
JA
 10
73.659996
 20
34.28999
 30
0
 40
0.915
 39
  0
0
CIRCLE
8
JA
 10
78.74
 20
34.28999
 30
0
 40
0.585
 39
  0
0
CIRCLE
8
JA
 10
73.659996
 20
31.749989
 30
0
 40
0.915
 39
  0
0
CIRCLE
8
JA
 10
76.2
 20
31.749989
 30
0
 40
0.915
 39
  0
0
CIRCLE
8
JA
 10
78.74
 20
31.749989
 30
0
 40
0.585
 39
  0
0
CIRCLE
8
JA
 10
73.659996
 20
29.209988
 30
0
 40
0.915
 39
  0
0
CIRCLE
8
JA
 10
78.74
 20
29.209988
 30
0
 40
0.585
 39
  0
0
CIRCLE
8
JA
 10
73.659996
 20
26.669987
 30
0
 40
0.915
 39
  0
0
CIRCLE
8
JA
 10
78.74
 20
26.669987
 30
0
 40
0.585
 39
  0
0
CIRCLE
8
JA
 10
76.2
 20
24.129986
 30
0
 40
0.915
 39
  0
0
CIRCLE
8
JA
 10
78.74
 20
24.129986
 30
0
 40
0.585
 39
  0
0
CIRCLE
8
JA
 10
76.2
 20
21.589985
 30
0
 40
0.915
 39
  0
0
CIRCLE
8
JA
 10
78.74
 20
21.589985
 30
0
 40
0.585
 39
  0
0
CIRCLE
8
JA
 10
73.659996
 20
19.049984
 30
0
 40
0.915
 39
  0
0
CIRCLE
8
JA
 10
76.2
 20
19.049984
 30
0
 40
0.915
 39
  0
0
CIRCLE
8
JA
 10
78.74
 20
19.049984
 30
0
 40
0.585
 39
  0
0
CIRCLE
8
JA
 10
76.2
 20
16.509983
 30
0
 40
0.915
 39
  0
0
CIRCLE
8
JA
 10
78.74
 20
16.509983
 30
0
 40
0.585
 39
  0
0
CIRCLE
8
JA
 10
76.2
 20
13.969983
 30
0
 40
0.915
 39
  0
0
CIRCLE
8
JA
 10
78.74
 20
13.969983
 30
0
 40
0.585
 39
  0
0
CIRCLE
8
JA
 10
73.659996
 20
11.429983
 30
0
 40
0.915
 39
  0
0
CIRCLE
8
JA
 10
78.74
 20
11.429983
 30
0
 40
0.585
 39
  0
0
CIRCLE
8
JA
 10
73.659996
 20
8.889983
 30
0
 40
0.915
 39
  0
0
CIRCLE
8
JA
 10
78.74
 20
8.889983
 30
0
 40
0.585
 39
  0
0
CIRCLE
8
JA
 10
76.2
 20
6.349983
 30
0
 40
0.915
 39
  0
0
CIRCLE
8
JA
 10
78.74
 20
6.349983
 30
0
 40
0.585
 39
  0
0
CIRCLE
8
JA
 10
73.659996
 20
3.8099833
 30
0
 40
0.915
 39
  0
0
CIRCLE
8
JA
 10
78.74
 20
3.8099833
 30
0
 40
0.585
 39
  0
0
CIRCLE
8
JA
 10
73.659996
 20
1.2699833
 30
0
 40
0.915
 39
  0
0
CIRCLE
8
JA
 10
76.2
 20
1.2699833
 30
0
 40
0.915
 39
  0
0
CIRCLE
8
JA
 10
78.74
 20
1.2699833
 30
0
 40
0.585
 39
  0
0
ENDSEC
  0
EOF
703.57996
 20
3.81
 30
0
 40
0.915
 39
  0
0
CIRCLE
8
JA
 10
706.11993
 20
3.81
 30
0
 40
0.915
 39
  0
0
CIRCLE
8
JA
 10
708.6599
 20
3.81
 30
0
 40
0.585
 39
  0
0
CIRCLE
8
JA
 10
703.57996
 20
1.27
 30
0
 40
0.915
 39
  0
0
CIRCLE
8
JA
 10
708.6599
 20
1.27
 30
0
 40
0.585
 39
  0
0
LINE
8
JA
 10
711.2
 20
0
 30
0
 11
711.2
 21
5.08
 31
0
0
LINE
8
JA
 10
721.36
 20
0
 30
0
 11
721.36
 21
5.08
 31
0
0
LINE
8
JA
 10
711.2
 20
5.08
 30
6
 11
721.36
 21
5.08
 31
0
0
LINE
8
JA
 10
721.36
 20
0
 30
0
 11
711.2
 21
0
 31
0
0
CIRCLE
8
JA
 10
716.27997
 20
3.81
 30
0
 40
0.915
 39
  0
0
CIRCLE
8
JA
 10
718.81995
 20
3.81
 30
0
 40
0.585
 39
  0
0
CIRCLE
8
JA
 10
713.74
 20
1.27
 30
0
 40
0.915
 39
  0
0
CIRCLE
8
JA
 10
718.81995
 20
1.27
 30
0
 40
0.585
 39
  0
0
LINE
8
JA
 10
721.36
 20
0
 30
0
 11
721.36
 21
5.08
 31
0
0
LINE
8
JA
 10
731.51996
 20
0
 30
0
 11
731.51996
 21
5.08
 31
0
0
LINE
8
JA
 10
721.36
 20
5.08
 30
6
 11
731.51996
 21
5.08
 31
0
0
LINE
8
JA
 10
731.51996
 20
0
 30
0
 11
721.36
 21
0
 31
0
0
CIRCLE
8
JA
 10
726.43994
 20
3.81
 30
0
 40
0.915
 39
  0
0
CIRCLE
8
JA
 10
728.9799
 20
3.81
 30
0
 40
0.585
 39
  0
0
CIRCLE
8
JA
 10
723.89996
 20
1.27
 30
0
 40
0.915
 39
  0
0
CIRCLE
8
JA
 10
726.43994
 20
1.27
 30
0
 40
0.915
 39
  0
0
CIRCLE
8
JA
 10
728.9799
 20
1.27
 30
0
 40
0.585
 39
  0
0
LINE
8
JA
 10
731.52
 20
0
 30
0
 11
731.52
 21
5.08
 31
0
0
LINE
8
JA
 10
741.68
 20
0
 30
0
 11
741.68
 21
5.08
 31
0
0
LINE
8
JA
 10
731.52
 20
5.08
 30
6
 11
741.68
 21
5.08
 31
0
0
LINE
8
JA
 10
741.68
 20
0
 30
0
 11
731.52
 21
0
 31
0
0
CIRCLE
8
JA
 10
734.06
 20
3.81
 30
0
 40
0.915
 39
  0
0
CIRCLE
8
JA
 10
739.13995
 20
3.81
 30
0
 40
0.585
 39
  0
0
CIRCLE
8
JA
 10
736.6
 20
1.27
 30
0
 40
0.915
 39
  0
0
CIRCLE
8
JA
 10
739.13995
 20
1.27
 30
0
 40
0.585
 39
  0
0
LINE
8
JA
 10
741.68
 20
0
 30
0
 11
741.68
 21
5.08
 31
0
0
LINE
8
JA
 10
751.83997
 20
0
 30
0
 11
751.83997
 21
5.08
 31
0
0
LINE
8
JA
 10
741.68
 20
5.08
 30
6
 11
751.83997
 21
5.08
 31
0
0
LINE
8
JA
 10
751.83997
 20
0
 30
0
 11
741.68
 21
0
 31
0
0
CIRCLE
8
JA
 10
746.75995
 20
3.81
 30
0
 40
0.915
 39
  0
0
CIRCLE
8
JA
 10
749.2999
 20
3.81
 30
0
 40
0.585
 39
  0
0
CIRCLE
8
JA
 10
744.22
 20
1.27
 30
0
 40
0.915
 39
  0
0
CIRCLE
8
JA
 10
746.75995
 20
1.27
 30
0
 40
0.915
 39
  0
0
CIRCLE
8
JA
 10
749.2999
 20
1.27
 30
0
 40
0.585
 39
  0
0
LINE
8
JA
 10
751.83997
 20
0
 30
0
 11
751.83997
 21
5.08
 31
0
0
LINE
8
JA
 10
761.99994
 20
0
 30
0
 11
761.99994
 21
5.08
 31
0
0
LINE
8
JA
 10
751.83997
 20
5.08
 30
6
 11
761.99994
 21
5.08
 31
0
0
LINE
8
JA
 10
761.99994
 20
0
 30
0
 11
751.83997
 21
0
 31
0
0
CIRCLE
8
JA
 10
756.9199
 20
3.81
 30
0
 40
0.915
 39
  0
0
CIRCLE
8
JA
 10
759.4599
 20
3.81
 30
0
 40
0.585
 39
  0
0
CIRCLE
8
JA
 10
754.37994
 20
1.27
 30
0
 40
0.915
 39
  0
0
CIRCLE
8
JA
 10
756.9199
 20
1.27
 30
0
 40
0.915
 39
  0
0
CIRCLE
8
JA
 10
759.4599
 20
1.27
 30
0
 40
0.585
 39
  0
0
LINE
8
JA
 10
762
 20
0
 30
0
 11
762
 21
5.08
 31
0
0
LINE
8
JA
 10
772.16
 20
0
 30
0
 11
772.16
 21
5.08
 31
0
0
LINE
8
JA
 10
762
 20
5.08
 30
6
 11
772.16
 21
5.08
 31
0
0
LINE
8
JA
 10
772.16
 20
0
 30
0
 11
762
 21
0
 31
0
0
CIRCLE
8
JA
 10
767.07996
 20
3.81
 30
0
 40
0.915
 39
  0
0
CIRCLE
8
JA
 10
769.61993
 20
3.81
 30
0
 40
0.585
 39
  0
0
CIRCLE
8
JA
 10
767.07996
 20
1.27
 30
0
 40
0.915
 39
  0
0
CIRCLE
8
JA
 10
769.61993
 20
1.27
 30
0
 40
0.585
 39
  0
0
LINE
8
JA
 10
772.16
 20
0
 30
0
 11
772.16
 21
5.08
 31
0
0
LINE
8
JA
 10
782.31995
 20
0
 30
0
 11
782.31995
 21
5.08
 31
0
0
LINE
8
JA
 10
772.16
 20
5.08
 30
6
 11
782.31995
 21
5.08
 31
0
0
LINE
8
JA
 10
782.31995
 20
0
 30
0
 11
772.16
 21
0
 31
0
0
CIRCLE
8
JA
 10
774.69995
 20
3.81
 30
0
 40
0.915
 39
  0
0
CIRCLE
8
JA
 10
779.7799
 20
3.81
 30
0
 40
0.585
 39
  0
0
CIRCLE
8
JA
 10
777.2399
 20
1.27
 30
0
 40
0.915
 39
  0
0
CIRCLE
8
JA
 10
779.7799
 20
1.27
 30
0
 40
0.585
 39
  0
0
LINE
8
JA
 10
782.32
 20
0
 30
0
 11
782.32
 21
5.08
 31
0
0
LINE
8
JA
 10
792.48
 20
0
 30
0
 11
792.48
 21
5.08
 31
0
0
LINE
8
JA
 10
782.32
 20
5.08
 30
6
 11
792.48
 21
5.08
 31
0
0
LINE
8
JA
 10
792.48
 20
0
 30
0
 11
782.32
 21
0
 31
0
0
CIRCLE
8
JA
 10
784.86
 20
3.81
 30
0
 40
0.915
 39
  0
0
CIRCLE
8
JA
 10
787.39996
 20
3.81
 30
0
 40
0.915
 39
  0
0
CIRCLE
8
JA
 10
789.93994
 20
3.81
 30
0
 40
0.585
 39
  0
0
CIRCLE
8
JA
 10
784.86
 20
1.27
 30
0
 40
0.915
 39
  0
0
CIRCLE
8
JA
 10
789.93994
 20
1.27
 30
0
 40
0.585
 39
  0
0
LINE
8
JA
 10
792.48
 20
0
 30
0
 11
792.48
 21
5.08
 31
0
0
LINE
8
JA
 10
802.63995
 20
0
 30
0
 11
802.63995
 21
5.08
 31
0
0
LINE
8
JA
 10
792.48
 20
5.08
 30
6
 11
802.63995
 21
5.08
 31
0
0
LINE
8
JA
 10
802.63995
 20
0
 30
0
 11
792.48
 21
0
 31
0
0
CIRCLE
8
JA
 10
795.01996
 20
3.81
 30
0
 40
0.915
 39
  0
0
CIRCLE
8
JA
 10
800.0999
 20
3.81
 30
0
 40
0.585
 39
  0
0
CIRCLE
8
JA
 10
797.55994
 20
1.27
 30
0
 40
0.915
 39
  0
0
CIRCLE
8
JA
 10
800.0999
 20
1.27
 30
0
 40
0.585
 39
  0
0
LINE
8
JA
 10
802.64
 20
0
 30
0
 11
802.64
 21
5.08
 31
0
0
LINE
8
JA
 10
812.8
 20
0
 30
0
 11
812.8
 21
5.08
 31
0
0
LINE
8
JA
 10
802.64
 20
5.08
 30
6
 11
812.8
 21
5.08
 31
0
0
LINE
8
JA
 10
812.8
 20
0
 30
0
 11
802.64
 21
0
 31
0
0
CIRCLE
8
JA
 10
805.18
 20
3.81
 30
0
 40
0.915
 39
  0
0
CIRCLE
8
JA
 10
807.72
 20
3.81
 30
0
 40
0.915
 39
  0
0
CIRCLE
8
JA
 10
810.25995
 20
3.81
 30
0
 40
0.585
 39
  0
0
CIRCLE
8
JA
 10
807.72
 20
1.27
 30
0
 40
0.915
 39
  0
0
CIRCLE
8
JA
 10
810.25995
 20
1.27
 30
0
 40
0.585
 39
  0
0
LINE
8
JA
 10
812.8
 20
0
 30
0
 11
812.8
 21
5.08
 31
0
0
LINE
8
JA
 10
822.95996
 20
0
 30
0
 11
822.95996
 21
5.08
 31
0
0
LINE
8
JA
 10
812.8
 20
5.08
 30
6
 11
822.95996
 21
5.08
 31
0
0
LINE
8
JA
 10
822.95996
 20
0
 30
0
 11
812.8
 21
0
 31
0
0
CIRCLE
8
JA
 10
817.87994
 20
3.81
 30
0
 40
0.915
 39
  0
0
CIRCLE
8
JA
 10
820.4199
 20
3.81
 30
0
 40
0.585
 39
  0
0
CIRCLE
8
JA
 10
817.87994
 20
1.27
 30
0
 40
0.915
 39
  0
0
CIRCLE
8
JA
 10
820.4199
 20
1.27
 30
0
 40
0.585
 39
  0
0
LINE
8
JA
 10
822.95996
 20
0
 30
0
 11
822.95996
 21
5.08
 31
0
0
LINE
8
JA
 10
833.11993
 20
0
 30
0
 11
833.11993
 21
5.08
 31
0
0
LINE
8
JA
 10
822.95996
 20
5.08
 30
6
 11
833.11993
 21
5.08
 31
0
0
LINE
8
JA
 10
833.11993
 20
0
 30
0
 11
822.95996
 21
0
 31
0
0
CIRCLE
8
JA
 10
828.0399
 20
3.81
 30
0
 40
0.915
 39
  0
0
CIRCLE
8
JA
 10
830.5799
 20
3.81
 30
0
 40
0.585
 39
  0
0
CIRCLE
8
JA
 10
825.49994
 20
1.27
 30
0
 40
0.915
 39
  0
0
CIRCLE
8
JA
 10
828.0399
 20
1.27
 30
0
 40
0.915
 39
  0
0
CIRCLE
8
JA
 10
830.5799
 20
1.27
 30
0
 40
0.585
 39
  0
0
LINE
8
JA
 10
833.12
 20
0
 30
0
 11
833.12
 21
5.08
 31
0
0
LINE
8
JA
 10
843.27997
 20
0
 30
0
 11
843.27997
 21
5.08
 31
0
0
LINE
8
JA
 10
833.12
 20
5.08
 30
6
 11
843.27997
 21
5.08
 31
0
0
LINE
8
JA
 10
843.27997
 20
0
 30
0
 11
833.12
 21
0
 31
0
0
CIRCLE
8
JA
 10
838.19995
 20
3.81
 30
0
 40
0.915
 39
  0
0
CIRCLE
8
JA
 10
840.7399
 20
3.81
 30
0
 40
0.585
 39
  0
0
CIRCLE
8
JA
 10
838.19995
 20
1.27
 30
0
 40
0.915
 39
  0
0
CIRCLE
8
JA
 10
840.7399
 20
1.27
 30
0
 40
0.585
 39
  0
0
LINE
8
JA
 10
843.27997
 20
0
 30
0
 11
843.27997
 21
5.08
 31
0
0
LINE
8
JA
 10
853.43994
 20
0
 30
0
 11
853.43994
 21
5.08
 31
0
0
LINE
8
JA
 10
843.27997
 20
5.08
 30
6
 11
853.43994
 21
5.08
 31
0
0
LINE
8
JA
 10
853.43994
 20
0
 30
0
 11
843.27997
 21
0
 31
0
0
CIRCLE
8
JA
 10
845.81995
 20
3.81
 30
0
 40
0.915
 39
  0
0
CIRCLE
8
JA
 10
848.3599
 20
3.81
 30
0
 40
0.915
 39
  0
0
CIRCLE
8
JA
 10
850.8999
 20
3.81
 30
0
 40
0.585
 39
  0
0
CIRCLE
8
JA
 10
848.3599
 20
1.27
 30
0
 40
0.915
 39
  0
0
CIRCLE
8
JA
 10
850.8999
 20
1.27
 30
0
 40
0.585
 39
  0
0
LINE
8
JA
 10
853.44
 20
0
 30
0
 11
853.44
 21
5.08
 31
0
0
LINE
8
JA
 10
863.6
 20
0
 30
0
 11
863.6
 21
5.08
 31
0
0
LINE
8
JA
 10
853.44
 20
5.08
 30
6
 11
863.6
 21
5.08
 31
0
0
LINE
8
JA
 10
863.6
 20
0
 30
0
 11
853.44
 21
0
 31
0
0
CIRCLE
8
JA
 10
855.98
 20
3.81
 30
0
 40
0.915
 39
  0
0
CIRCLE
8
JA
 10
861.05994
 20
3.81
 30
0
 40
0.585
 39
  0
0
CIRCLE
8
JA
 10
855.98
 20
1.27
 30
0
 40
0.915
 39
  0
0
CIRCLE
8
JA
 10
861.05994
 20
1.27
 30
0
 40
0.585
 39
  0
0
LINE
8
JA
 10
863.6
 20
0
 30
0
 11
863.6
 21
5.08
 31
0
0
LINE
8
JA
 10
873.75995
 20
0
 30
0
 11
873.75995
 21
5.08
 31
0
0
LINE
8
JA
 10
863.6
 20
5.08
 30
6
 11
873.75995
 21
5.08
 31
0
0
LINE
8
JA
 10
873.75995
 20
0
 30
0
 11
863.6
 21
0
 31
0
0
CIRCLE
8
JA
 10
866.13995
 20
3.81
 30
0
 40
0.915
 39
  0
0
CIRCLE
8
JA
 10
871.2199
 20
3.81
 30
0
 40
0.585
 39
  0
0
CIRCLE
8
JA
 10
866.13995
 20
1.27
 30
0
 40
0.915
 39
  0
0
CIRCLE
8
JA
 10
868.67993
 20
1.27
 30
0
 40
0.915
 39
  0
0
CIRCLE
8
JA
 10
871.2199
 20
1.27
 30
0
 40
0.585
 39
  0
0
LINE
8
JA
 10
873.76
 20
0
 30
0
 11
873.76
 21
5.08
 31
0
0
LINE
8
JA
 10
883.92
 20
0
 30
0
 11
883.92
 21
5.08
 31
0
0
LINE
8
JA
 10
873.76
 20
5.08
 30
6
 11
883.92
 21
5.08
 31
0
0
LINE
8
JA
 10
883.92
 20
0
 30
0
 11
873.76
 21
0
 31
0
0
CIRCLE
8
JA
 10
876.3
 20
3.81
 30
0
 40
0.915
 39
  0
0
CIRCLE
8
JA
 10
881.37994
 20
3.81
 30
0
 40
0.585
 39
  0
0
CIRCLE
8
JA
 10
878.83997
 20
1.27
 30
0
 40
0.915
 39
  0
0
CIRCLE
8
JA
 10
881.37994
 20
1.27
 30
0
 40
0.585
 39
  0
0
LINE
8
JA
 10
883.92
 20
0
 30
0
 11
883.92
 21
5.08
 31
0
0
LINE
8
JA
 10
894.07996
 20
0
 30
0
 11
894.07996
 21
5.08
 31
0
0
LINE
8
JA
 10
883.92
 20
5.08
 30
6
 11
894.07996
 21
5.08
 31
0
0
LINE
8
JA
 10
894.07996
 20
0
 30
0
 11
883.92
 21
0
 31
0
0
CIRCLE
8
JA
 10
886.45996
 20
3.81
 30
0
 40
0.915
 39
  0
0
CIRCLE
8
JA
 10
891.5399
 20
3.81
 30
0
 40
0.585
 39
  0
0
CIRCLE
8
JA
 10
886.45996
 20
1.27
 30
0
 40
0.915
 39
  0
0
CIRCLE
8
JA
 10
888.99994
 20
1.27
 30
0
 40
0.915
 39
  0
0
CIRCLE
8
JA
 10
891.5399
 20
1.27
 30
0
 40
0.585
 39
  0
0
LINE
8
JA
 10
894.07996
 20
0
 30
0
 11
894.07996
 21
5.08
 31
0
0
LINE
8
JA
 10
904.2399
 20
0
 30
0
 11
904.2399
 21
5.08
 31
0
0
LINE
8
JA
 10
894.07996
 20
5.08
 30
6
 11
904.2399
 21
5.08
 31
0
0
LINE
8
JA
 10
904.2399
 20
0
 30
0
 11
894.07996
 21
0
 31
0
0
CIRCLE
8
JA
 10
899.1599
 20
3.81
 30
0
 40
0.915
 39
  0
0
CIRCLE
8
JA
 10
901.6999
 20
3.81
 30
0
 40
0.585
 39
  0
0
CIRCLE
8
JA
 10
896.61993
 20
1.27
 30
0
 40
0.915
 39
  0
0
CIRCLE
8
JA
 10
901.6999
 20
1.27
 30
0
 40
0.585
 39
  0
0
LINE
8
JA
 10
904.24
 20
0
 30
0
 11
904.24
 21
5.08
 31
0
0
LINE
8
JA
 10
914.39996
 20
0
 30
0
 11
914.39996
 21
5.08
 31
0
0
LINE
8
JA
 10
904.24
 20
5.08
 30
6
 11
914.39996
 21
5.08
 31
0
0
LINE
8
JA
 10
914.39996
 20
0
 30
0
 11
904.24
 21
0
 31
0
0
CIRCLE
8
JA
 10
909.31995
 20
3.81
 30
0
 40
0.915
 39
  0
0
CIRCLE
8
JA
 10
911.8599
 20
3.81
 30
0
 40
0.585
 39
  0
0
CIRCLE
8
JA
 10
909.31995
 20
1.27
 30
0
 40
0.915
 39
  0
0
CIRCLE
8
JA
 10
911.8599
 20
1.27
 30
0
 40
0.585
 39
  0
0
LINE
8
JA
 10
914.39996
 20
0
 30
0
 11
914.39996
 21
5.08
 31
0
0
LINE
8
JA
 10
924.55994
 20
0
 30
0
 11
924.55994
 21
5.08
 31
0
0
LINE
8
JA
 10
914.39996
 20
5.08
 30
6
 11
924.55994
 21
5.08
 31
0
0
LINE
8
JA
 10
924.55994
 20
0
 30
0
 11
914.39996
 21
0
 31
0
0
CIRCLE
8
JA
 10
916.93994
 20
3.81
 30
0
 40
0.915
 39
  0
0
CIRCLE
8
JA
 10
919.4799
 20
3.81
 30
0
 40
0.915
 39
  0
0
CIRCLE
8
JA
 10
922.0199
 20
3.81
 30
0
 40
0.585
 39
  0
0
CIRCLE
8
JA
 10
916.93994
 20
1.27
 30
0
 40
0.915
 39
  0
0
CIRCLE
8
JA
 10
922.0199
 20
1.27
 30
0
 40
0.585
 39
  0
0
LINE
8
JA
 10
924.56
 20
0
 30
0
 11
924.56
 21
5.08
 31
0
0
LINE
8
JA
 10
934.72
 20
0
 30
0
 11
934.72
 21
5.08
 31
0
0
LINE
8
JA
 10
924.56
 20
5.08
 30
6
 11
934.72
 21
5.08
 31
0
0
LINE
8
JA
 10
934.72
 20
0
 30
0
 11
924.56
 21
0
 31
0
0
CIRCLE
8
JA
 10
927.1
 20
3.81
 30
0
 40
0.915
 39
  0
0
CIRCLE
8
JA
 10
932.17993
 20
3.81
 30
0
 40
0.585
 39
  0
0
CIRCLE
8
JA
 10
927.1
 20
1.27
 30
0
 40
0.915
 39
  0
0
CIRCLE
8
JA
 10
929.63995
 20
1.27
 30
0
 40
0.915
 39
  0
0
CIRCLE
8
JA
 10
932.17993
 20
1.27
 30
0
 40
0.585
 39
  0
0
LINE
8
JA
 10
934.72
 20
0
 30
0
 11
934.72
 21
5.08
 31
0
0
LINE
8
JA
 10
944.87994
 20
0
 30
0
 11
944.87994
 21
5.08
 31
0
0
LINE
8
JA
 10
934.72
 20
5.08
 30
6
 11
944.87994
 21
5.08
 31
0
0
LINE
8
JA
 10
944.87994
 20
0
 30
0
 11
934.72
 21
0
 31
0
0
CIRCLE
8
JA
 10
937.25995
 20
3.81
 30
0
 40
0.915
 39
  0
0
CIRCLE
8
JA
 10
942.3399
 20
3.81
 30
0
 40
0.585
 39
  0
0
CIRCLE
8
JA
 10
939.7999
 20
1.27
 30
0
 40
0.915
 39
  0
0
CIRCLE
8
JA
 10
942.3399
 20
1.27
 30
0
 40
0.585
 39
  0
0
LINE
8
JA
 10
944.88
 20
0
 30
0
 11
944.88
 21
5.08
 31
0
0
LINE
8
JA
 10
955.04
 20
0
 30
0
 11
955.04
 21
5.08
 31
0
0
LINE
8
JA
 10
944.88
 20
5.08
 30
6
 11
955.04
 21
5.08
 31
0
0
LINE
8
JA
 10
955.04
 20
0
 30
0
 11
944.88
 21
0
 31
0
0
CIRCLE
8
JA
 10
947.42
 20
3.81
 30
0
 40
0.915
 39
  0
0
CIRCLE
8
JA
 10
949.95996
 20
3.81
 30
0
 40
0.915
 39
  0
0
CIRCLE
8
JA
 10
952.49994
 20
3.81
 30
0
 40
0.585
 39
  0
0
CIRCLE
8
JA
 10
947.42
 20
1.27
 30
0
 40
0.915
 39
  0
0
CIRCLE
8
JA
 10
952.49994
 20
1.27
 30
0
 40
0.585
 39
  0
0
LINE
8
JA
 10
955.04
 20
0
 30
0
 11
955.04
 21
5.08
 31
0
0
LINE
8
JA
 10
965.19995
 20
0
 30
0
 11
965.19995
 21
5.08
 31
0
0
LINE
8
JA
 10
955.04
 20
5.08
 30
6
 11
965.19995
 21
5.08
 31
0
0
LINE
8
JA
 10
965.19995
 20
0
 30
0
 11
955.04
 21
0
 31
0
0
CIRCLE
8
JA
 10
957.57996
 20
3.81
 30
0
 40
0.915
 39
  0
0
CIRCLE
8
JA
 10
962.6599
 20
3.81
 30
0
 40
0.585
 39
  0
0
CIRCLE
8
JA
 10
957.57996
 20
1.27
 30
0
 40
0.915
 39
  0
0
CIRCLE
8
JA
 10
962.6599
 20
1.27
 30
0
 40
0.585
 39
  0
0
LINE
8
JA
 10
965.2
 20
0
 30
0
 11
965.2
 21
5.08
 31
0
0
LINE
8
JA
 10
975.36
 20
0
 30
0
 11
975.36
 21
5.08
 31
0
0
LINE
8
JA
 10
965.2
 20
5.08
 30
6
 11
975.36
 21
5.08
 31
0
0
LINE
8
JA
 10
975.36
 20
0
 30
0
 11
965.2
 21
0
 31
0
0
CIRCLE
8
JA
 10
967.74
 20
3.81
 30
0
 40
0.915
 39
  0
0
CIRCLE
8
JA
 10
970.27997
 20
3.81
 30
0
 40
0.915
 39
  0
0
CIRCLE
8
JA
 10
972.81995
 20
3.81
 30
0
 40
0.585
 39
  0
0
CIRCLE
8
JA
 10
970.27997
 20
1.27
 30
0
 40
0.915
 39
  0
0
CIRCLE
8
JA
 10
972.81995
 20
1.27
 30
0
 40
0.585
 39
  0
0
LINE
8
JA
 10
975.36
 20
0
 30
0
 11
975.36
 21
5.08
 31
0
0
LINE
8
JA
 10
985.51996
 20
0
 30
0
 11
985.51996
 21
5.08
 31
0
0
LINE
8
JA
 10
975.36
 20
5.08
 30
6
 11
985.51996
 21
5.08
 31
0
0
LINE
8
JA
 10
985.51996
 20
0
 30
0
 11
975.36
 21
0
 31
0
0
CIRCLE
8
JA
 10
977.89996
 20
3.81
 30
0
 40
0.915
 39
  0
0
CIRCLE
8
JA
 10
982.9799
 20
3.81
 30
0
 40
0.585
 39
  0
0
CIRCLE
8
JA
 10
977.89996
 20
1.27
 30
0
 40
0.915
 39
  0
0
CIRCLE
8
JA
 10
982.9799
 20
1.27
 30
0
 40
0.585
 39
  0
0
LINE
8
JA
 10
985.51996
 20
0
 30
0
 11
985.51996
 21
5.08
 31
0
0
LINE
8
JA
 10
995.67993
 20
0
 30
0
 11
995.67993
 21
5.08
 31
0
0
LINE
8
JA
 10
985.51996
 20
5.08
 30
6
 11
995.67993
 21
5.08
 31
0
0
LINE
8
JA
 10
995.67993
 20
0
 30
0
 11
985.51996
 21
0
 31
0
0
CIRCLE
8
JA
 10
990.5999
 20
3.81
 30
0
 40
0.915
 39
  0
0
CIRCLE
8
JA
 10
993.1399
 20
3.81
 30
0
 40
0.585
 39
  0
0
CIRCLE
8
JA
 10
988.05994
 20
1.27
 30
0
 40
0.915
 39
  0
0
CIRCLE
8
JA
 10
990.5999
 20
1.27
 30
0
 40
0.915
 39
  0
0
CIRCLE
8
JA
 10
993.1399
 20
1.27
 30
0
 40
0.585
 39
  0
0
LINE
8
JA
 10
995.68
 20
0
 30
0
 11
995.68
 21
5.08
 31
0
0
LINE
8
JA
 10
1005.83997
 20
0
 30
0
 11
1005.83997
 21
5.08
 31
0
0
LINE
8
JA
 10
995.68
 20
5.08
 30
6
 11
1005.83997
 21
5.08
 31
0
0
LINE
8
JA
 10
1005.83997
 20
0
 30
0
 11
995.68
 21
0
 31
0
0
CIRCLE
8
JA
 10
998.22
 20
3.81
 30
0
 40
0.915
 39
  0
0
CIRCLE
8
JA
 10
1003.2999
 20
3.81
 30
0
 40
0.585
 39
  0
0
CIRCLE
8
JA
 10
998.22
 20
1.27
 30
0
 40
0.915
 39
  0
0
CIRCLE
8
JA
 10
1003.2999
 20
1.27
 30
0
 40
0.585
 39
  0
0
LINE
8
JA
 10
1005.83997
 20
0
 30
0
 11
1005.83997
 21
5.08
 31
0
0
LINE
8
JA
 10
1015.99994
 20
0
 30
0
 11
1015.99994
 21
5.08
 31
0
0
LINE
8
JA
 10
1005.83997
 20
5.08
 30
6
 11
1015.99994
 21
5.08
 31
0
0
LINE
8
JA
 10
1015.99994
 20
0
 30
0
 11
1005.83997
 21
0
 31
0
0
CIRCLE
8
JA
 10
1010.9199
 20
3.81
 30
0
 40
0.915
 39
  0
0
CIRCLE
8
JA
 10
1013.4599
 20
3.81
 30
0
 40
0.585
 39
  0
0
CIRCLE
8
JA
 10
1008.37994
 20
1.27
 30
0
 40
0.915
 39
  0
0
CIRCLE
8
JA
 10
1013.4599
 20
1.27
 30
0
 40
0.585
 39
  0
0
LINE
8
JA
 10
1016
 20
0
 30
0
 11
1016
 21
5.08
 31
0
0
LINE
8
JA
 10
1026.16
 20
0
 30
0
 11
1026.16
 21
5.08
 31
0
0
LINE
8
JA
 10
1016
 20
5.08
 30
6
 11
1026.16
 21
5.08
 31
0
0
LINE
8
JA
 10
1026.16
 20
0
 30
0
 11
1016
 21
0
 31
0
0
CIRCLE
8
JA
 10
1018.54
 20
3.81
 30
0
 40
0.915
 39
  0
0
CIRCLE
8
JA
 10
1021.07996
 20
3.81
 30
0
 40
0.915
 39
  0
0
CIRCLE
8
JA
 10
1023.61993
 20
3.81
 30
0
 40
0.585
 39
  0
0
CIRCLE
8
JA
 10
1021.07996
 20
1.27
 30
0
 40
0.915
 39
  0
0
CIRCLE
8
JA
 10
1023.61993
 20
1.27
 30
0
 40
0.585
 39
  0
0
LINE
8
JA
 10
1026.16
 20
0
 30
0
 11
1026.16
 21
5.08
 31
0
0
LINE
8
JA
 10
1036.3201
 20
0
 30
0
 11
1036.3201
 21
5.08
 31
0
0
LINE
8
JA
 10
1026.16
 20
5.08
 30
6
 11
1036.3201
 21
5.08
 31
0
0
LINE
8
JA
 10
1036.3201
 20
0
 30
0
 11
1026.16
 21
0
 31
0
0
CIRCLE
8
JA
 10
1028.7001
 20
3.81
 30
0
 40
0.915
 39
  0
0
CIRCLE
8
JA
 10
1033.7802
 20
3.81
 30
0
 40
0.585
 39
  0
0
CIRCLE
8
JA
 10
1031.2401
 20
1.27
 30
0
 40
0.915
 39
  0
0
CIRCLE
8
JA
 10
1033.7802
 20
1.27
 30
0
 40
0.585
 39
  0
0
LINE
8
JA
 10
1036.32
 20
0
 30
0
 11
1036.32
 21
5.08
 31
0
0
LINE
8
JA
 10
1046.48
 20
0
 30
0
 11
1046.48
 21
5.08
 31
0
0
LINE
8
JA
 10
1036.32
 20
5.08
 30
6
 11
1046.48
 21
5.08
 31
0
0
LINE
8
JA
 10
1046.48
 20
0
 30
0
 11
1036.32
 21
0
 31
0
0
CIRCLE
8
JA
 10
1038.86
 20
3.81
 30
0
 40
0.915
 39
  0
0
CIRCLE
8
JA
 10
1041.4
 20
3.81
 30
0
 40
0.915
 39
  0
0
CIRCLE
8
JA
 10
1043.9401
 20
3.81
 30
0
 40
0.585
 39
  0
0
CIRCLE
8
JA
 10
1041.4
 20
1.27
 30
0
 40
0.915
 39
  0
0
CIRCLE
8
JA
 10
1043.9401
 20
1.27
 30
0
 40
0.585
 39
  0
0
LINE
8
JA
 10
1046.48
 20
0
 30
0
 11
1046.48
 21
5.08
 31
0
0
LINE
8
JA
 10
1056.64
 20
0
 30
0
 11
1056.64
 21
5.08
 31
0
0
LINE
8
JA
 10
1046.48
 20
5.08
 30
6
 11
1056.64
 21
5.08
 31
0
0
LINE
8
JA
 10
1056.64
 20
0
 30
0
 11
1046.48
 21
0
 31
0
0
CIRCLE
8
JA
 10
1051.56
 20
3.81
 30
0
 40
0.915
 39
  0
0
CIRCLE
8
JA
 10
1054.1001
 20
3.81
 30
0
 40
0.585
 39
  0
0
CIRCLE
8
JA
 10
1051.56
 20
1.27
 30
0
 40
0.915
 39
  0
0
CIRCLE
8
JA
 10
1054.1001
 20
1.27
 30
0
 40
0.585
 39
  0
0
LINE
8
JA
 10
1056.64
 20
0
 30
0
 11
1056.64
 21
5.08
 31
0
0
LINE
8
JA
 10
1066.8
 20
0
 30
0
 11
1066.8
 21
5.08
 31
0
0
LINE
8
JA
 10
1056.64
 20
5.08
 30
6
 11
1066.8
 21
5.08
 31
0
0
LINE
8
JA
 10
1066.8
 20
0
 30
0
 11
1056.64
 21
0
 31
0
0
CIRCLE
8
JA
 10
1059.18
 20
3.81
 30
0
 40
0.915
 39
  0
0
CIRCLE
8
JA
 10
1061.7201
 20
3.81
 30
0
 40
0.915
 39
  0
0
CIRCLE
8
JA
 10
1064.2601
 20
3.81
 30
0
 40
0.585
 39
  0
0
CIRCLE
8
JA
 10
1059.18
 20
1.27
 30
0
 40
0.915
 39
  0
0
CIRCLE
8
JA
 10
1064.2601
 20
1.27
 30
0
 40
0.585
 39
  0
0
LINE
8
JA
 10
1066.7999
 20
0
 30
0
 11
1066.7999
 21
5.08
 31
0
0
LINE
8
JA
 10
1076.96
 20
0
 30
0
 11
1076.96
 21
5.08
 31
0
0
LINE
8
JA
 10
1066.7999
 20
5.08
 30
6
 11
1076.96
 21
5.08
 31
0
0
LINE
8
JA
 10
1076.96
 20
0
 30
0
 11
1066.7999
 21
0
 31
0
0
CIRCLE
8
JA
 10
1069.34
 20
3.81
 30
0
 40
0.915
 39
  0
0
CIRCLE
8
JA
 10
1071.88
 20
3.81
 30
0
 40
0.915
 39
  0
0
CIRCLE
8
JA
 10
1074.42
 20
3.81
 30
0
 40
0.585
 39
  0
0
CIRCLE
8
JA
 10
1071.88
 20
1.27
 30
0
 40
0.915
 39
  0
0
CIRCLE
8
JA
 10
1074.42
 20
1.27
 30
0
 40
0.585
 39
  0
0
LINE
8
JA
 10
1076.96
 20
0
 30
0
 11
1076.96
 21
5.08
 31
0
0
LINE
8
JA
 10
1087.12
 20
0
 30
0
 11
1087.12
 21
5.08
 31
0
0
LINE
8
JA
 10
1076.96
 20
5.08
 30
6
 11
1087.12
 21
5.08
 31
0
0
LINE
8
JA
 10
1087.12
 20
0
 30
0
 11
1076.96
 21
0
 31
0
0
CIRCLE
8
JA
 10
1082.04
 20
3.81
 30
0
 40
0.915
 39
  0
0
CIRCLE
8
JA
 10
1084.5801
 20
3.81
 30
0
 40
0.585
 39
  0
0
CIRCLE
8
JA
 10
1079.5
 20
1.27
 30
0
 40
0.915
 39
  0
0
CIRCLE
8
JA
 10
1084.5801
 20
1.27
 30
0
 40
0.585
 39
  0
0
LINE
8
JA
 10
1087.12
 20
0
 30
0
 11
1087.12
 21
5.08
 31
0
0
LINE
8
JA
 10
1097.28
 20
0
 30
0
 11
1097.28
 21
5.08
 31
0
0
LINE
8
JA
 10
1087.12
 20
5.08
 30
6
 11
1097.28
 21
5.08
 31
0
0
LINE
8
JA
 10
1097.28
 20
0
 30
0
 11
1087.12
 21
0
 31
0
0
CIRCLE
8
JA
 10
1089.66
 20
3.81
 30
0
 40
0.915
 39
  0
0
CIRCLE
8
JA
 10
1092.2001
 20
3.81
 30
0
 40
0.915
 39
  0
0
CIRCLE
8
JA
 10
1094.7401
 20
3.81
 30
0
 40
0.585
 39
  0
0
CIRCLE
8
JA
 10
1092.2001
 20
1.27
 30
0
 40
0.915
 39
  0
0
CIRCLE
8
JA
 10
1094.7401
 20
1.27
 30
0
 40
0.585
 39
  0
0
LINE
8
JA
 10
1097.28
 20
0
 30
0
 11
1097.28
 21
5.08
 31
0
0
LINE
8
JA
 10
1107.4401
 20
0
 30
0
 11
1107.4401
 21
5.08
 31
0
0
LINE
8
JA
 10
1097.28
 20
5.08
 30
6
 11
1107.4401
 21
5.08
 31
0
0
LINE
8
JA
 10
1107.4401
 20
0
 30
0
 11
1097.28
 21
0
 31
0
0
CIRCLE
8
JA
 10
1102.3601
 20
3.81
 30
0
 40
0.915
 39
  0
0
CIRCLE
8
JA
 10
1104.9001
 20
3.81
 30
0
 40
0.585
 39
  0
0
CIRCLE
8
JA
 10
1102.3601
 20
1.27
 30
0
 40
0.915
 39
  0
0
CIRCLE
8
JA
 10
1104.9001
 20
1.27
 30
0
 40
0.585
 39
  0
0
LINE
8
JA
 10
1107.44
 20
0
 30
0
 11
1107.44
 21
5.08
 31
0
0
LINE
8
JA
 10
1117.6
 20
0
 30
0
 11
1117.6
 21
5.08
 31
0
0
LINE
8
JA
 10
1107.44
 20
5.08
 30
6
 11
1117.6
 21
5.08
 31
0
0
LINE
8
JA
 10
1117.6
 20
0
 30
0
 11
1107.44
 21
0
 31
0
0
CIRCLE
8
JA
 10
1109.98
 20
3.81
 30
0
 40
0.915
 39
  0
0
CIRCLE
8
JA
 10
1115.06
 20
3.81
 30
0
 40
0.585
 39
  0
0
CIRCLE
8
JA
 10
1109.98
 20
1.27
 30
0
 40
0.915
 39
  0
0
CIRCLE
8
JA
 10
1112.52
 20
1.27
 30
0
 40
0.915
 39
  0
0
CIRCLE
8
JA
 10
1115.06
 20
1.27
 30
0
 40
0.585
 39
  0
0
LINE
8
JA
 10
1117.6
 20
0
 30
0
 11
1117.6
 21
5.08
 31
0
0
LINE
8
JA
 10
1127.76
 20
0
 30
0
 11
1127.76
 21
5.08
 31
0
0
LINE
8
JA
 10
1117.6
 20
5.08
 30
6
 11
1127.76
 21
5.08
 31
0
0
LINE
8
JA
 10
1127.76
 20
0
 30
0
 11
1117.6
 21
0
 31
0
0
CIRCLE
8
JA
 10
1122.68
 20
3.81
 30
0
 40
0.915
 39
  0
0
CIRCLE
8
JA
 10
1125.2201
 20
3.81
 30
0
 40
0.585
 39
  0
0
CIRCLE
8
JA
 10
1120.14
 20
1.27
 30
0
 40
0.915
 39
  0
0
CIRCLE
8
JA
 10
1125.2201
 20
1.27
 30
0
 40
0.585
 39
  0
0
LINE
8
JA
 10
1127.76
 20
0
 30
0
 11
1127.76
 21
5.08
 31
0
0
LINE
8
JA
 10
1137.92
 20
0
 30
0
 11
1137.92
 21
5.08
 31
0
0
LINE
8
JA
 10
1127.76
 20
5.08
 30
6
 11
1137.92
 21
5.08
 31
0
0
LINE
8
JA
 10
1137.92
 20
0
 30
0
 11
1127.76
 21
0
 31
0
0
CIRCLE
8
JA
 10
1130.3
 20
3.81
 30
0
 40
0.915
 39
  0
0
CIRCLE
8
JA
 10
1135.3801
 20
3.81
 30
0
 40
0.585
 39
  0
0
CIRCLE
8
JA
 10
1130.3
 20
1.27
 30
0
 40
0.915
 39
  0
0
CIRCLE
8
JA
 10
1132.8401
 20
1.27
 30
0
 40
0.915
 39
  0
0
CIRCLE
8
JA
 10
1135.3801
 20
1.27
 30
0
 40
0.585
 39
  0
0
LINE
8
JA
 10
1137.9199
 20
0
 30
0
 11
1137.9199
 21
5.08
 31
0
0
LINE
8
JA
 10
1148.08
 20
0
 30
0
 11
1148.08
 21
5.08
 31
0
0
LINE
8
JA
 10
1137.9199
 20
5.08
 30
6
 11
1148.08
 21
5.08
 31
0
0
LINE
8
JA
 10
1148.08
 20
0
 30
0
 11
1137.9199
 21
0
 31
0
0
CIRCLE
8
JA
 10
1140.46
 20
3.81
 30
0
 40
0.915
 39
  0
0
CIRCLE
8
JA
 10
1145.54
 20
3.81
 30
0
 40
0.585
 39
  0
0
CIRCLE
8
JA
 10
1143
 20
1.27
 30
0
 40
0.915
 39
  0
0
CIRCLE
8
JA
 10
1145.54
 20
1.27
 30
0
 40
0.585
 39
  0
0
LINE
8
JA
 10
1148.08
 20
0
 30
0
 11
1148.08
 21
5.08
 31
0
0
LINE
8
JA
 10
1158.24
 20
0
 30
0
 11
1158.24
 21
5.08
 31
0
0
LINE
8
JA
 10
1148.08
 20
5.08
 30
6
 11
1158.24
 21
5.08
 31
0
0
LINE
8
JA
 10
1158.24
 20
0
 30
0
 11
1148.08
 21
0
 31
0
0
CIRCLE
8
JA
 10
1153.16
 20
3.81
 30
0
 40
0.915
 39
  0
0
CIRCLE
8
JA
 10
1155.7001
 20
3.81
 30
0
 40
0.585
 39
  0
0
CIRCLE
8
JA
 10
1150.62
 20
1.27
 30
0
 40
0.915
 39
  0
0
CIRCLE
8
JA
 10
1155.7001
 20
1.27
 30
0
 40
0.585
 39
  0
0
LINE
8
JA
 10
1158.24
 20
0
 30
0
 11
1158.24
 21
5.08
 31
0
0
LINE
8
JA
 10
1168.4
 20
0
 30
0
 11
1168.4
 21
5.08
 31
0
0
LINE
8
JA
 10
1158.24
 20
5.08
 30
6
 11
1168.4
 21
5.08
 31
0
0
LINE
8
JA
 10
1168.4
 20
0
 30
0
 11
1158.24
 21
0
 31
0
0
CIRCLE
8
JA
 10
1160.78
 20
3.81
 30
0
 40
0.915
 39
  0
0
CIRCLE
8
JA
 10
1163.3201
 20
3.81
 30
0
 40
0.915
 39
  0
0
CIRCLE
8
JA
 10
1165.8601
 20
3.81
 30
0
 40
0.585
 39
  0
0
CIRCLE
8
JA
 10
1160.78
 20
1.27
 30
0
 40
0.915
 39
  0
0
CIRCLE
8
JA
 10
1165.8601
 20
1.27
 30
0
 40
0.585
 39
  0
0
LINE
8
JA
 10
1168.4
 20
0
 30
0
 11
1168.4
 21
5.08
 31
0
0
LINE
8
JA
 10
1178.56
 20
0
 30
0
 11
1178.56
 21
5.08
 31
0
0
LINE
8
JA
 10
1168.4
 20
5.08
 30
6
 11
1178.56
 21
5.08
 31
0
0
LINE
8
JA
 10
1178.56
 20
0
 30
0
 11
1168.4
 21
0
 31
0
0
CIRCLE
8
JA
 10
1173.4801
 20
3.81
 30
0
 40
0.915
 39
  0
0
CIRCLE
8
JA
 10
1176.0201
 20
3.81
 30
0
 40
0.585
 39
  0
0
CIRCLE
8
JA
 10
1170.9401
 20
1.27
 30
0
 40
0.915
 39
  0
0
CIRCLE
8
JA
 10
1176.0201
 20
1.27
 30
0
 40
0.585
 39
  0
0
LINE
8
JA
 10
1178.5599
 20
0
 30
0
 11
1178.5599
 21
5.08
 31
0
0
LINE
8
JA
 10
1188.72
 20
0
 30
0
 11
1188.72
 21
5.08
 31
0
0
LINE
8
JA
 10
1178.5599
 20
5.08
 30
6
 11
1188.72
 21
5.08
 31
0
0
LINE
8
JA
 10
1188.72
 20
0
 30
0
 11
1178.5599
 21
0
 31
0
0
CIRCLE
8
JA
 10
1181.1
 20
3.81
 30
0
 40
0.915
 39
  0
0
CIRCLE
8
JA
 10
1186.18
 20
3.81
 30
0
 40
0.585
 39
  0
0
CIRCLE
8
JA
 10
1181.1
 20
1.27
 30
0
 40
0.915
 39
  0
0
CIRCLE
8
JA
 10
1183.64
 20
1.27
 30
0
 40
0.915
 39
  0
0
CIRCLE
8
JA
 10
1186.18
 20
1.27
 30
0
 40
0.585
 39
  0
0
LINE
8
JA
 10
1188.72
 20
0
 30
0
 11
1188.72
 21
5.08
 31
0
0
LINE
8
JA
 10
1198.88
 20
0
 30
0
 11
1198.88
 21
5.08
 31
0
0
LINE
8
JA
 10
1188.72
 20
5.08
 30
6
 11
1198.88
 21
5.08
 31
0
0
LINE
8
JA
 10
1198.88
 20
0
 30
0
 11
1188.72
 21
0
 31
0
0
CIRCLE
8
JA
 10
1191.26
 20
3.81
 30
0
 40
0.915
 39
  0
0
CIRCLE
8
JA
 10
1196.3401
 20
3.81
 30
0
 40
0.585
 39
  0
0
CIRCLE
8
JA
 10
1191.26
 20
1.27
 30
0
 40
0.915
 39
  0
0
CIRCLE
8
JA
 10
1196.3401
 20
1.27
 30
0
 40
0.585
 39
  0
0
LINE
8
JA
 10
1198.88
 20
0
 30
0
 11
1198.88
 21
5.08
 31
0
0
LINE
8
JA
 10
1209.04
 20
0
 30
0
 11
1209.04
 21
5.08
 31
0
0
LINE
8
JA
 10
1198.88
 20
5.08
 30
6
 11
1209.04
 21
5.08
 31
0
0
LINE
8
JA
 10
1209.04
 20
0
 30
0
 11
1198.88
 21
0
 31
0
0
CIRCLE
8
JA
 10
1203.9601
 20
3.81
 30
0
 40
0.915
 39
  0
0
CIRCLE
8
JA
 10
1206.5001
 20
3.81
 30
0
 40
0.585
 39
  0
0
CIRCLE
8
JA
 10
1203.9601
 20
1.27
 30
0
 40
0.915
 39
  0
0
CIRCLE
8
JA
 10
1206.5001
 20
1.27
 30
0
 40
0.585
 39
  0
0
LINE
8
JA
 10
1209.04
 20
0
 30
0
 11
1209.04
 21
5.08
 31
0
0
LINE
8
JA
 10
1219.2001
 20
0
 30
0
 11
1219.2001
 21
5.08
 31
0
0
LINE
8
JA
 10
1209.04
 20
5.08
 30
6
 11
1219.2001
 21
5.08
 31
0
0
LINE
8
JA
 10
1219.2001
 20
0
 30
0
 11
1209.04
 21
0
 31
0
0
CIRCLE
8
JA
 10
1211.5801
 20
3.81
 30
0
 40
0.915
 39
  0
0
CIRCLE
8
JA
 10
1214.1201
 20
3.81
 30
0
 40
0.915
 39
  0
0
CIRCLE
8
JA
 10
1216.6602
 20
3.81
 30
0
 40
0.585
 39
  0
0
CIRCLE
8
JA
 10
1214.1201
 20
1.27
 30
0
 40
0.915
 39
  0
0
CIRCLE
8
JA
 10
1216.6602
 20
1.27
 30
0
 40
0.585
 39
  0
0
LINE
8
JA
 10
1219.2
 20
0
 30
0
 11
1219.2
 21
5.08
 31
0
0
LINE
8
JA
 10
1229.36
 20
0
 30
0
 11
1229.36
 21
5.08
 31
0
0
LINE
8
JA
 10
1219.2
 20
5.08
 30
6
 11
1229.36
 21
5.08
 31
0
0
LINE
8
JA
 10
1229.36
 20
0
 30
0
 11
1219.2
 21
0
 31
0
0
CIRCLE
8
JA
 10
1224.28
 20
3.81
 30
0
 40
0.915
 39
  0
0
CIRCLE
8
JA
 10
1226.8201
 20
3.81
 30
0
 40
0.585
 39
  0
0
CIRCLE
8
JA
 10
1221.74
 20
1.27
 30
0
 40
0.915
 39
  0
0
CIRCLE
8
JA
 10
1226.8201
 20
1.27
 30
0
 40
0.585
 39
  0
0
LINE
8
JA
 10
1229.36
 20
0
 30
0
 11
1229.36
 21
5.08
 31
0
0
LINE
8
JA
 10
1239.52
 20
0
 30
0
 11
1239.52
 21
5.08
 31
0
0
LINE
8
JA
 10
1229.36
 20
5.08
 30
6
 11
1239.52
 21
5.08
 31
0
0
LINE
8
JA
 10
1239.52
 20
0
 30
0
 11
1229.36
 21
0
 31
0
0
CIRCLE
8
JA
 10
1231.9
 20
3.81
 30
0
 40
0.915
 39
  0
0
CIRCLE
8
JA
 10
1236.9801
 20
3.81
 30
0
 40
0.585
 39
  0
0
CIRCLE
8
JA
 10
1234.4401
 20
1.27
 30
0
 40
0.915
 39
  0
0
CIRCLE
8
JA
 10
1236.9801
 20
1.27
 30
0
 40
0.585
 39
  0
0
LINE
8
JA
 10
1239.52
 20
0
 30
0
 11
1239.52
 21
5.08
 31
0
0
LINE
8
JA
 10
1249.68
 20
0
 30
0
 11
1249.68
 21
5.08
 31
0
0
LINE
8
JA
 10
1239.52
 20
5.08
 30
6
 11
1249.68
 21
5.08
 31
0
0
LINE
8
JA
 10
1249.68
 20
0
 30
0
 11
1239.52
 21
0
 31
0
0
CIRCLE
8
JA
 10
1242.06
 20
3.81
 30
0
 40
0.915
 39
  0
0
CIRCLE
8
JA
 10
1247.1401
 20
3.81
 30
0
 40
0.585
 39
  0
0
CIRCLE
8
JA
 10
1242.06
 20
1.27
 30
0
 40
0.915
 39
  0
0
CIRCLE
8
JA
 10
1244.6001
 20
1.27
 30
0
 40
0.915
 39
  0
0
CIRCLE
8
JA
 10
1247.1401
 20
1.27
 30
0
 40
0.585
 39
  0
0
LINE
8
JA
 10
1249.6799
 20
0
 30
0
 11
1249.6799
 21
0
 31
0
0
LINE
8
JA
 10
1259.84
 20
0
 30
0
 11
1259.84
 21
0
 31
0
0
LINE
8
JA
 10
1249.6799
 20
0
 30
0
 11
1259.84
 21
0
 31
0
0
LINE
8
JA
 10
1249.6799
 20
0
 30
7
 11
1259.84
 21
0
 31
0
0
ENDSEC
  0
EOF
 39
  0
0
CIRCLE
8
JA
 10
1684.0201
 20
1.27
 30
0
 40
0.585
 39
  0
0
LINE
8
JA
 10
1686.5599
 20
0
 30
0
 11
1686.5599
 21
2.54
 31
0
0
LINE
8
JA
 10
1696.72
 20
0
 30
0
 11
1696.72
 21
2.54
 31
0
0
LINE
8
JA
 10
1686.5599
 20
2.54
 30
6
 11
1696.72
 21
2.54
 31
0
0
LINE
8
JA
 10
1696.72
 20
0
 30
0
 11
1686.5599
 21
0
 31
0
0
CIRCLE
8
JA
 10
1689.1
 20
1.27
 30
0
 40
0.915
 39
  0
0
CIRCLE
8
JA
 10
1691.64
 20
1.27
 30
0
 40
0.915
 39
  0
0
CIRCLE
8
JA
 10
1694.18
 20
1.27
 30
0
 40
0.585
 39
  0
0
LINE
8
JA
 10
1696.72
 20
0
 30
0
 11
1696.72
 21
2.54
 31
0
0
LINE
8
JA
 10
1706.88
 20
0
 30
0
 11
1706.88
 21
2.54
 31
0
0
LINE
8
JA
 10
1696.72
 20
2.54
 30
6
 11
1706.88
 21
2.54
 31
0
0
LINE
8
JA
 10
1706.88
 20
0
 30
0
 11
1696.72
 21
0
 31
0
0
CIRCLE
8
JA
 10
1701.8
 20
1.27
 30
0
 40
0.915
 39
  0
0
CIRCLE
8
JA
 10
1704.3401
 20
1.27
 30
0
 40
0.585
 39
  0
0
LINE
8
JA
 10
1706.88
 20
0
 30
0
 11
1706.88
 21
2.54
 31
0
0
LINE
8
JA
 10
1717.04
 20
0
 30
0
 11
1717.04
 21
2.54
 31
0
0
LINE
8
JA
 10
1706.88
 20
2.54
 30
6
 11
1717.04
 21
2.54
 31
0
0
LINE
8
JA
 10
1717.04
 20
0
 30
0
 11
1706.88
 21
0
 31
0
0
CIRCLE
8
JA
 10
1709.42
 20
1.27
 30
0
 40
0.915
 39
  0
0
CIRCLE
8
JA
 10
1714.5001
 20
1.27
 30
0
 40
0.585
 39
  0
0
LINE
8
JA
 10
1717.0399
 20
0
 30
0
 11
1717.0399
 21
2.54
 31
0
0
LINE
8
JA
 10
1727.2
 20
0
 30
0
 11
1727.2
 21
2.54
 31
0
0
LINE
8
JA
 10
1717.0399
 20
2.54
 30
6
 11
1727.2
 21
2.54
 31
0
0
LINE
8
JA
 10
1727.2
 20
0
 30
0
 11
1717.0399
 21
0
 31
0
0
CIRCLE
8
JA
 10
1719.58
 20
1.27
 30
0
 40
0.915
 39
  0
0
CIRCLE
8
JA
 10
1724.66
 20
1.27
 30
0
 40
0.585
 39
  0
0
LINE
8
JA
 10
1727.2
 20
0
 30
0
 11
1727.2
 21
2.54
 31
0
0
LINE
8
JA
 10
1737.36
 20
0
 30
0
 11
1737.36
 21
2.54
 31
0
0
LINE
8
JA
 10
1727.2
 20
2.54
 30
6
 11
1737.36
 21
2.54
 31
0
0
LINE
8
JA
 10
1737.36
 20
0
 30
0
 11
1727.2
 21
0
 31
0
0
CIRCLE
8
JA
 10
1729.74
 20
1.27
 30
0
 40
0.915
 39
  0
0
CIRCLE
8
JA
 10
1734.8201
 20
1.27
 30
0
 40
0.585
 39
  0
0
LINE
8
JA
 10
1737.36
 20
0
 30
0
 11
1737.36
 21
2.54
 31
0
0
LINE
8
JA
 10
1747.52
 20
0
 30
0
 11
1747.52
 21
2.54
 31
0
0
LINE
8
JA
 10
1737.36
 20
2.54
 30
6
 11
1747.52
 21
2.54
 31
0
0
LINE
8
JA
 10
1747.52
 20
0
 30
0
 11
1737.36
 21
0
 31
0
0
CIRCLE
8
JA
 10
1739.9
 20
1.27
 30
0
 40
0.915
 39
  0
0
CIRCLE
8
JA
 10
1742.4401
 20
1.27
 30
0
 40
0.915
 39
  0
0
CIRCLE
8
JA
 10
1744.9801
 20
1.27
 30
0
 40
0.585
 39
  0
0
LINE
8
JA
 10
1747.52
 20
0
 30
0
 11
1747.52
 21
2.54
 31
0
0
LINE
8
JA
 10
1757.68
 20
0
 30
0
 11
1757.68
 21
2.54
 31
0
0
LINE
8
JA
 10
1747.52
 20
2.54
 30
6
 11
1757.68
 21
2.54
 31
0
0
LINE
8
JA
 10
1757.68
 20
0
 30
0
 11
1747.52
 21
0
 31
0
0
CIRCLE
8
JA
 10
1750.06
 20
1.27
 30
0
 40
0.915
 39
  0
0
CIRCLE
8
JA
 10
1755.1401
 20
1.27
 30
0
 40
0.585
 39
  0
0
LINE
8
JA
 10
1757.6799
 20
0
 30
0
 11
1757.6799
 21
2.54
 31
0
0
LINE
8
JA
 10
1767.84
 20
0
 30
0
 11
1767.84
 21
2.54
 31
0
0
LINE
8
JA
 10
1757.6799
 20
2.54
 30
6
 11
1767.84
 21
2.54
 31
0
0
LINE
8
JA
 10
1767.84
 20
0
 30
0
 11
1757.6799
 21
0
 31
0
0
CIRCLE
8
JA
 10
1762.76
 20
1.27
 30
0
 40
0.915
 39
  0
0
CIRCLE
8
JA
 10
1765.3
 20
1.27
 30
0
 40
0.585
 39
  0
0
LINE
8
JA
 10
1767.84
 20
0
 30
0
 11
1767.84
 21
2.54
 31
0
0
LINE
8
JA
 10
1778
 20
0
 30
0
 11
1778
 21
2.54
 31
0
0
LINE
8
JA
 10
1767.84
 20
2.54
 30
6
 11
1778
 21
2.54
 31
0
0
LINE
8
JA
 10
1778
 20
0
 30
0
 11
1767.84
 21
0
 31
0
0
CIRCLE
8
JA
 10
1770.38
 20
1.27
 30
0
 40
0.915
 39
  0
0
CIRCLE
8
JA
 10
1775.4601
 20
1.27
 30
0
 40
0.585
 39
  0
0
LINE
8
JA
 10
1778
 20
0
 30
0
 11
1778
 21
2.54
 31
0
0
LINE
8
JA
 10
1788.16
 20
0
 30
0
 11
1788.16
 21
2.54
 31
0
0
LINE
8
JA
 10
1778
 20
2.54
 30
6
 11
1788.16
 21
2.54
 31
0
0
LINE
8
JA
 10
1788.16
 20
0
 30
0
 11
1778
 21
0
 31
0
0
CIRCLE
8
JA
 10
1780.54
 20
1.27
 30
0
 40
0.915
 39
  0
0
CIRCLE
8
JA
 10
1783.0801
 20
1.27
 30
0
 40
0.915
 39
  0
0
CIRCLE
8
JA
 10
1785.6201
 20
1.27
 30
0
 40
0.585
 39
  0
0
LINE
8
JA
 10
1788.1599
 20
0
 30
0
 11
1788.1599
 21
2.54
 31
0
0
LINE
8
JA
 10
1798.32
 20
0
 30
0
 11
1798.32
 21
2.54
 31
0
0
LINE
8
JA
 10
1788.1599
 20
2.54
 30
6
 11
1798.32
 21
2.54
 31
0
0
LINE
8
JA
 10
1798.32
 20
0
 30
0
 11
1788.1599
 21
0
 31
0
0
CIRCLE
8
JA
 10
1793.24
 20
1.27
 30
0
 40
0.915
 39
  0
0
CIRCLE
8
JA
 10
1795.78
 20
1.27
 30
0
 40
0.585
 39
  0
0
LINE
8
JA
 10
1798.32
 20
0
 30
0
 11
1798.32
 21
2.54
 31
0
0
LINE
8
JA
 10
1808.48
 20
0
 30
0
 11
1808.48
 21
2.54
 31
0
0
LINE
8
JA
 10
1798.32
 20
2.54
 30
6
 11
1808.48
 21
2.54
 31
0
0
LINE
8
JA
 10
1808.48
 20
0
 30
0
 11
1798.32
 21
0
 31
0
0
CIRCLE
8
JA
 10
1800.86
 20
1.27
 30
0
 40
0.915
 39
  0
0
CIRCLE
8
JA
 10
1805.9401
 20
1.27
 30
0
 40
0.585
 39
  0
0
LINE
8
JA
 10
1808.48
 20
0
 30
0
 11
1808.48
 21
2.54
 31
0
0
LINE
8
JA
 10
1818.64
 20
0
 30
0
 11
1818.64
 21
2.54
 31
0
0
LINE
8
JA
 10
1808.48
 20
2.54
 30
6
 11
1818.64
 21
2.54
 31
0
0
LINE
8
JA
 10
1818.64
 20
0
 30
0
 11
1808.48
 21
0
 31
0
0
CIRCLE
8
JA
 10
1813.56
 20
1.27
 30
0
 40
0.915
 39
  0
0
CIRCLE
8
JA
 10
1816.1001
 20
1.27
 30
0
 40
0.585
 39
  0
0
LINE
8
JA
 10
1818.64
 20
0
 30
0
 11
1818.64
 21
2.54
 31
0
0
LINE
8
JA
 10
1828.8
 20
0
 30
0
 11
1828.8
 21
2.54
 31
0
0
LINE
8
JA
 10
1818.64
 20
2.54
 30
6
 11
1828.8
 21
2.54
 31
0
0
LINE
8
JA
 10
1828.8
 20
0
 30
0
 11
1818.64
 21
0
 31
0
0
CIRCLE
8
JA
 10
1823.7201
 20
1.27
 30
0
 40
0.915
 39
  0
0
CIRCLE
8
JA
 10
1826.2601
 20
1.27
 30
0
 40
0.585
 39
  0
0
LINE
8
JA
 10
1828.7999
 20
0
 30
0
 11
1828.7999
 21
2.54
 31
0
0
LINE
8
JA
 10
1838.96
 20
0
 30
0
 11
1838.96
 21
2.54
 31
0
0
LINE
8
JA
 10
1828.7999
 20
2.54
 30
6
 11
1838.96
 21
2.54
 31
0
0
LINE
8
JA
 10
1838.96
 20
0
 30
0
 11
1828.7999
 21
0
 31
0
0
CIRCLE
8
JA
 10
1831.34
 20
1.27
 30
0
 40
0.915
 39
  0
0
CIRCLE
8
JA
 10
1833.88
 20
1.27
 30
0
 40
0.915
 39
  0
0
CIRCLE
8
JA
 10
1836.42
 20
1.27
 30
0
 40
0.585
 39
  0
0
LINE
8
JA
 10
1838.96
 20
0
 30
0
 11
1838.96
 21
2.54
 31
0
0
LINE
8
JA
 10
1849.12
 20
0
 30
0
 11
1849.12
 21
2.54
 31
0
0
LINE
8
JA
 10
1838.96
 20
2.54
 30
6
 11
1849.12
 21
2.54
 31
0
0
LINE
8
JA
 10
1849.12
 20
0
 30
0
 11
1838.96
 21
0
 31
0
0
CIRCLE
8
JA
 10
1841.5
 20
1.27
 30
0
 40
0.915
 39
  0
0
CIRCLE
8
JA
 10
1846.5801
 20
1.27
 30
0
 40
0.585
 39
  0
0
LINE
8
JA
 10
1849.12
 20
0
 30
0
 11
1849.12
 21
2.54
 31
0
0
LINE
8
JA
 10
1859.28
 20
0
 30
0
 11
1859.28
 21
2.54
 31
0
0
LINE
8
JA
 10
1849.12
 20
2.54
 30
6
 11
1859.28
 21
2.54
 31
0
0
LINE
8
JA
 10
1859.28
 20
0
 30
0
 11
1849.12
 21
0
 31
0
0
CIRCLE
8
JA
 10
1851.66
 20
1.27
 30
0
 40
0.915
 39
  0
0
CIRCLE
8
JA
 10
1856.7401
 20
1.27
 30
0
 40
0.585
 39
  0
0
LINE
8
JA
 10
1859.28
 20
0
 30
0
 11
1859.28
 21
2.54
 31
0
0
LINE
8
JA
 10
1869.4401
 20
0
 30
0
 11
1869.4401
 21
2.54
 31
0
0
LINE
8
JA
 10
1859.28
 20
2.54
 30
6
 11
1869.4401
 21
2.54
 31
0
0
LINE
8
JA
 10
1869.4401
 20
0
 30
0
 11
1859.28
 21
0
 31
0
0
CIRCLE
8
JA
 10
1861.8201
 20
1.27
 30
0
 40
0.915
 39
  0
0
CIRCLE
8
JA
 10
1864.3601
 20
1.27
 30
0
 40
0.915
 39
  0
0
CIRCLE
8
JA
 10
1866.9001
 20
1.27
 30
0
 40
0.585
 39
  0
0
LINE
8
JA
 10
1869.44
 20
0
 30
0
 11
1869.44
 21
2.54
 31
0
0
LINE
8
JA
 10
1879.6
 20
0
 30
0
 11
1879.6
 21
2.54
 31
0
0
LINE
8
JA
 10
1869.44
 20
2.54
 30
6
 11
1879.6
 21
2.54
 31
0
0
LINE
8
JA
 10
1879.6
 20
0
 30
0
 11
1869.44
 21
0
 31
0
0
CIRCLE
8
JA
 10
1871.98
 20
1.27
 30
0
 40
0.915
 39
  0
0
CIRCLE
8
JA
 10
1877.06
 20
1.27
 30
0
 40
0.585
 39
  0
0
LINE
8
JA
 10
1879.6
 20
0
 30
0
 11
1879.6
 21
2.54
 31
0
0
LINE
8
JA
 10
1889.76
 20
0
 30
0
 11
1889.76
 21
2.54
 31
0
0
LINE
8
JA
 10
1879.6
 20
2.54
 30
6
 11
1889.76
 21
2.54
 31
0
0
LINE
8
JA
 10
1889.76
 20
0
 30
0
 11
1879.6
 21
0
 31
0
0
CIRCLE
8
JA
 10
1884.68
 20
1.27
 30
0
 40
0.915
 39
  0
0
CIRCLE
8
JA
 10
1887.2201
 20
1.27
 30
0
 40
0.585
 39
  0
0
LINE
8
JA
 10
1889.76
 20
0
 30
0
 11
1889.76
 21
2.54
 31
0
0
LINE
8
JA
 10
1899.92
 20
0
 30
0
 11
1899.92
 21
2.54
 31
0
0
LINE
8
JA
 10
1889.76
 20
2.54
 30
6
 11
1899.92
 21
2.54
 31
0
0
LINE
8
JA
 10
1899.92
 20
0
 30
0
 11
1889.76
 21
0
 31
0
0
CIRCLE
8
JA
 10
1892.3
 20
1.27
 30
0
 40
0.915
 39
  0
0
CIRCLE
8
JA
 10
1894.8401
 20
1.27
 30
0
 40
0.915
 39
  0
0
CIRCLE
8
JA
 10
1897.3801
 20
1.27
 30
0
 40
0.585
 39
  0
0
LINE
8
JA
 10
1899.9199
 20
0
 30
0
 11
1899.9199
 21
2.54
 31
0
0
LINE
8
JA
 10
1910.08
 20
0
 30
0
 11
1910.08
 21
2.54
 31
0
0
LINE
8
JA
 10
1899.9199
 20
2.54
 30
6
 11
1910.08
 21
2.54
 31
0
0
LINE
8
JA
 10
1910.08
 20
0
 30
0
 11
1899.9199
 21
0
 31
0
0
CIRCLE
8
JA
 10
1902.46
 20
1.27
 30
0
 40
0.915
 39
  0
0
CIRCLE
8
JA
 10
1907.54
 20
1.27
 30
0
 40
0.585
 39
  0
0
LINE
8
JA
 10
1910.08
 20
0
 30
0
 11
1910.08
 21
2.54
 31
0
0
LINE
8
JA
 10
1920.24
 20
0
 30
0
 11
1920.24
 21
2.54
 31
0
0
LINE
8
JA
 10
1910.08
 20
2.54
 30
6
 11
1920.24
 21
2.54
 31
0
0
LINE
8
JA
 10
1920.24
 20
0
 30
0
 11
1910.08
 21
0
 31
0
0
CIRCLE
8
JA
 10
1912.62
 20
1.27
 30
0
 40
0.915
 39
  0
0
CIRCLE
8
JA
 10
1917.7001
 20
1.27
 30
0
 40
0.585
 39
  0
0
LINE
8
JA
 10
1920.24
 20
0
 30
0
 11
1920.24
 21
2.54
 31
0
0
LINE
8
JA
 10
1930.4
 20
0
 30
0
 11
1930.4
 21
2.54
 31
0
0
LINE
8
JA
 10
1920.24
 20
2.54
 30
6
 11
1930.4
 21
2.54
 31
0
0
LINE
8
JA
 10
1930.4
 20
0
 30
0
 11
1920.24
 21
0
 31
0
0
CIRCLE
8
JA
 10
1922.78
 20
1.27
 30
0
 40
0.915
 39
  0
0
CIRCLE
8
JA
 10
1927.8601
 20
1.27
 30
0
 40
0.585
 39
  0
0
LINE
8
JA
 10
1930.4
 20
0
 30
0
 11
1930.4
 21
2.54
 31
0
0
LINE
8
JA
 10
1940.56
 20
0
 30
0
 11
1940.56
 21
2.54
 31
0
0
LINE
8
JA
 10
1930.4
 20
2.54
 30
6
 11
1940.56
 21
2.54
 31
0
0
LINE
8
JA
 10
1940.56
 20
0
 30
0
 11
1930.4
 21
0
 31
0
0
CIRCLE
8
JA
 10
1932.9401
 20
1.27
 30
0
 40
0.915
 39
  0
0
CIRCLE
8
JA
 10
1935.4801
 20
1.27
 30
0
 40
0.915
 39
  0
0
CIRCLE
8
JA
 10
1938.0201
 20
1.27
 30
0
 40
0.585
 39
  0
0
LINE
8
JA
 10
1940.5599
 20
0
 30
0
 11
1940.5599
 21
2.54
 31
0
0
LINE
8
JA
 10
1950.72
 20
0
 30
0
 11
1950.72
 21
2.54
 31
0
0
LINE
8
JA
 10
1940.5599
 20
2.54
 30
6
 11
1950.72
 21
2.54
 31
0
0
LINE
8
JA
 10
1950.72
 20
0
 30
0
 11
1940.5599
 21
0
 31
0
0
CIRCLE
8
JA
 10
1945.64
 20
1.27
 30
0
 40
0.915
 39
  0
0
CIRCLE
8
JA
 10
1948.18
 20
1.27
 30
0
 40
0.585
 39
  0
0
LINE
8
JA
 10
1950.72
 20
0
 30
0
 11
1950.72
 21
2.54
 31
0
0
LINE
8
JA
 10
1960.88
 20
0
 30
0
 11
1960.88
 21
2.54
 31
0
0
LINE
8
JA
 10
1950.72
 20
2.54
 30
6
 11
1960.88
 21
2.54
 31
0
0
LINE
8
JA
 10
1960.88
 20
0
 30
0
 11
1950.72
 21
0
 31
0
0
CIRCLE
8
JA
 10
1953.26
 20
1.27
 30
0
 40
0.915
 39
  0
0
CIRCLE
8
JA
 10
1958.3401
 20
1.27
 30
0
 40
0.585
 39
  0
0
LINE
8
JA
 10
1960.88
 20
0
 30
0
 11
1960.88
 21
2.54
 31
0
0
LINE
8
JA
 10
1971.04
 20
0
 30
0
 11
1971.04
 21
2.54
 31
0
0
LINE
8
JA
 10
1960.88
 20
2.54
 30
6
 11
1971.04
 21
2.54
 31
0
0
LINE
8
JA
 10
1971.04
 20
0
 30
0
 11
1960.88
 21
0
 31
0
0
CIRCLE
8
JA
 10
1963.42
 20
1.27
 30
0
 40
0.915
 39
  0
0
CIRCLE
8
JA
 10
1968.5001
 20
1.27
 30
0
 40
0.585
 39
  0
0
LINE
8
JA
 10
1971.0399
 20
0
 30
0
 11
1971.0399
 21
2.54
 31
0
0
LINE
8
JA
 10
1981.2
 20
0
 30
0
 11
1981.2
 21
2.54
 31
0
0
LINE
8
JA
 10
1971.0399
 20
2.54
 30
6
 11
1981.2
 21
2.54
 31
0
0
LINE
8
JA
 10
1981.2
 20
0
 30
0
 11
1971.0399
 21
0
 31
0
0
CIRCLE
8
JA
 10
1976.12
 20
1.27
 30
0
 40
0.915
 39
  0
0
CIRCLE
8
JA
 10
1978.66
 20
1.27
 30
0
 40
0.585
 39
  0
0
LINE
8
JA
 10
1981.2
 20
0
 30
0
 11
1981.2
 21
2.54
 31
0
0
LINE
8
JA
 10
1991.36
 20
0
 30
0
 11
1991.36
 21
2.54
 31
0
0
LINE
8
JA
 10
1981.2
 20
2.54
 30
6
 11
1991.36
 21
2.54
 31
0
0
LINE
8
JA
 10
1991.36
 20
0
 30
0
 11
1981.2
 21
0
 31
0
0
CIRCLE
8
JA
 10
1983.74
 20
1.27
 30
0
 40
0.915
 39
  0
0
CIRCLE
8
JA
 10
1986.28
 20
1.27
 30
0
 40
0.915
 39
  0
0
CIRCLE
8
JA
 10
1988.8201
 20
1.27
 30
0
 40
0.585
 39
  0
0
LINE
8
JA
 10
1991.36
 20
0
 30
0
 11
1991.36
 21
2.54
 31
0
0
LINE
8
JA
 10
2001.52
 20
0
 30
0
 11
2001.52
 21
2.54
 31
0
0
LINE
8
JA
 10
1991.36
 20
2.54
 30
6
 11
2001.52
 21
2.54
 31
0
0
LINE
8
JA
 10
2001.52
 20
0
 30
0
 11
1991.36
 21
0
 31
0
0
CIRCLE
8
JA
 10
1993.9
 20
1.27
 30
0
 40
0.915
 39
  0
0
CIRCLE
8
JA
 10
1998.9801
 20
1.27
 30
0
 40
0.585
 39
  0
0
LINE
8
JA
 10
2001.52
 20
0
 30
0
 11
2001.52
 21
2.54
 31
0
0
LINE
8
JA
 10
2011.68
 20
0
 30
0
 11
2011.68
 21
2.54
 31
0
0
LINE
8
JA
 10
2001.52
 20
2.54
 30
6
 11
2011.68
 21
2.54
 31
0
0
LINE
8
JA
 10
2011.68
 20
0
 30
0
 11
2001.52
 21
0
 31
0
0
CIRCLE
8
JA
 10
2004.06
 20
1.27
 30
0
 40
0.915
 39
  0
0
CIRCLE
8
JA
 10
2009.1401
 20
1.27
 30
0
 40
0.585
 39
  0
0
LINE
8
JA
 10
2011.6799
 20
0
 30
0
 11
2011.6799
 21
2.54
 31
0
0
LINE
8
JA
 10
2021.84
 20
0
 30
0
 11
2021.84
 21
2.54
 31
0
0
LINE
8
JA
 10
2011.6799
 20
2.54
 30
6
 11
2021.84
 21
2.54
 31
0
0
LINE
8
JA
 10
2021.84
 20
0
 30
0
 11
2011.6799
 21
0
 31
0
0
CIRCLE
8
JA
 10
2016.76
 20
1.27
 30
0
 40
0.915
 39
  0
0
CIRCLE
8
JA
 10
2019.3
 20
1.27
 30
0
 40
0.585
 39
  0
0
LINE
8
JA
 10
2021.84
 20
0
 30
0
 11
2021.84
 21
2.54
 31
0
0
LINE
8
JA
 10
2032
 20
0
 30
0
 11
2032
 21
2.54
 31
0
0
LINE
8
JA
 10
2021.84
 20
2.54
 30
6
 11
2032
 21
2.54
 31
0
0
LINE
8
JA
 10
2032
 20
0
 30
0
 11
2021.84
 21
0
 31
0
0
CIRCLE
8
JA
 10
2024.38
 20
1.27
 30
0
 40
0.915
 39
  0
0
CIRCLE
8
JA
 10
2029.4601
 20
1.27
 30
0
 40
0.585
 39
  0
0
LINE
8
JA
 10
2032
 20
0
 30
0
 11
2032
 21
2.54
 31
0
0
LINE
8
JA
 10
2042.16
 20
0
 30
0
 11
2042.16
 21
2.54
 31
0
0
LINE
8
JA
 10
2032
 20
2.54
 30
6
 11
2042.16
 21
2.54
 31
0
0
LINE
8
JA
 10
2042.16
 20
0
 30
0
 11
2032
 21
0
 31
0
0
CIRCLE
8
JA
 10
2034.54
 20
1.27
 30
0
 40
0.915
 39
  0
0
CIRCLE
8
JA
 10
2037.0801
 20
1.27
 30
0
 40
0.915
 39
  0
0
CIRCLE
8
JA
 10
2039.6201
 20
1.27
 30
0
 40
0.585
 39
  0
0
LINE
8
JA
 10
2042.1599
 20
0
 30
0
 11
2042.1599
 21
2.54
 31
0
0
LINE
8
JA
 10
2052.3198
 20
0
 30
0
 11
2052.3198
 21
2.54
 31
0
0
LINE
8
JA
 10
2042.1599
 20
2.54
 30
6
 11
2052.3198
 21
2.54
 31
0
0
LINE
8
JA
 10
2052.3198
 20
0
 30
0
 11
2042.1599
 21
0
 31
0
0
CIRCLE
8
JA
 10
2047.24
 20
1.27
 30
0
 40
0.915
 39
  0
0
CIRCLE
8
JA
 10
2049.78
 20
1.27
 30
0
 40
0.585
 39
  0
0
LINE
8
JA
 10
2052.32
 20
0
 30
0
 11
2052.32
 21
2.54
 31
0
0
LINE
8
JA
 10
2062.48
 20
0
 30
0
 11
2062.48
 21
2.54
 31
0
0
LINE
8
JA
 10
2052.32
 20
2.54
 30
6
 11
2062.48
 21
2.54
 31
0
0
LINE
8
JA
 10
2062.48
 20
0
 30
0
 11
2052.32
 21
0
 31
0
0
CIRCLE
8
JA
 10
2054.86
 20
1.27
 30
0
 40
0.915
 39
  0
0
CIRCLE
8
JA
 10
2059.9402
 20
1.27
 30
0
 40
0.585
 39
  0
0
LINE
8
JA
 10
2062.48
 20
0
 30
0
 11
2062.48
 21
2.54
 31
0
0
LINE
8
JA
 10
2072.64
 20
0
 30
0
 11
2072.64
 21
2.54
 31
0
0
LINE
8
JA
 10
2062.48
 20
2.54
 30
6
 11
2072.64
 21
2.54
 31
0
0
LINE
8
JA
 10
2072.64
 20
0
 30
0
 11
2062.48
 21
0
 31
0
0
CIRCLE
8
JA
 10
2067.56
 20
1.27
 30
0
 40
0.915
 39
  0
0
CIRCLE
8
JA
 10
2070.1
 20
1.27
 30
0
 40
0.585
 39
  0
0
LINE
8
JA
 10
2072.64
 20
0
 30
0
 11
2072.64
 21
2.54
 31
0
0
LINE
8
JA
 10
2082.7998
 20
0
 30
0
 11
2082.7998
 21
2.54
 31
0
0
LINE
8
JA
 10
2072.64
 20
2.54
 30
6
 11
2082.7998
 21
2.54
 31
0
0
LINE
8
JA
 10
2082.7998
 20
0
 30
0
 11
2072.64
 21
0
 31
0
0
CIRCLE
8
JA
 10
2075.18
 20
1.27
 30
0
 40
0.915
 39
  0
0
CIRCLE
8
JA
 10
2077.72
 20
1.27
 30
0
 40
0.915
 39
  0
0
CIRCLE
8
JA
 10
2080.26
 20
1.27
 30
0
 40
0.585
 39
  0
0
LINE
8
JA
 10
2082.8
 20
0
 30
0
 11
2082.8
 21
2.54
 31
0
0
LINE
8
JA
 10
2092.96
 20
0
 30
0
 11
2092.96
 21
2.54
 31
0
0
LINE
8
JA
 10
2082.8
 20
2.54
 30
6
 11
2092.96
 21
2.54
 31
0
0
LINE
8
JA
 10
2092.96
 20
0
 30
0
 11
2082.8
 21
0
 31
0
0
CIRCLE
8
JA
 10
2087.8801
 20
1.27
 30
0
 40
0.915
 39
  0
0
CIRCLE
8
JA
 10
2090.4202
 20
1.27
 30
0
 40
0.585
 39
  0
0
LINE
8
JA
 10
2092.96
 20
0
 30
0
 11
2092.96
 21
2.54
 31
0
0
LINE
8
JA
 10
2103.1199
 20
0
 30
0
 11
2103.1199
 21
2.54
 31
0
0
LINE
8
JA
 10
2092.96
 20
2.54
 30
6
 11
2103.1199
 21
2.54
 31
0
0
LINE
8
JA
 10
2103.1199
 20
0
 30
0
 11
2092.96
 21
0
 31
0
0
CIRCLE
8
JA
 10
2098.04
 20
1.27
 30
0
 40
0.915
 39
  0
0
CIRCLE
8
JA
 10
2100.58
 20
1.27
 30
0
 40
0.585
 39
  0
0
LINE
8
JA
 10
2103.1199
 20
0
 30
0
 11
2103.1199
 21
2.54
 31
0
0
LINE
8
JA
 10
2113.2798
 20
0
 30
0
 11
2113.2798
 21
2.54
 31
0
0
LINE
8
JA
 10
2103.1199
 20
2.54
 30
6
 11
2113.2798
 21
2.54
 31
0
0
LINE
8
JA
 10
2113.2798
 20
0
 30
0
 11
2103.1199
 21
0
 31
0
0
CIRCLE
8
JA
 10
2108.2
 20
1.27
 30
0
 40
0.915
 39
  0
0
CIRCLE
8
JA
 10
2110.74
 20
1.27
 30
0
 40
0.585
 39
  0
0
LINE
8
JA
 10
2113.28
 20
0
 30
0
 11
2113.28
 21
2.54
 31
0
0
LINE
8
JA
 10
2123.44
 20
0
 30
0
 11
2123.44
 21
2.54
 31
0
0
LINE
8
JA
 10
2113.28
 20
2.54
 30
6
 11
2123.44
 21
2.54
 31
0
0
LINE
8
JA
 10
2123.44
 20
0
 30
0
 11
2113.28
 21
0
 31
0
0
CIRCLE
8
JA
 10
2115.82
 20
1.27
 30
0
 40
0.915
 39
  0
0
CIRCLE
8
JA
 10
2118.36
 20
1.27
 30
0
 40
0.915
 39
  0
0
CIRCLE
8
JA
 10
2120.9001
 20
1.27
 30
0
 40
0.585
 39
  0
0
LINE
8
JA
 10
2123.44
 20
0
 30
0
 11
2123.44
 21
2.54
 31
0
0
LINE
8
JA
 10
2133.5999
 20
0
 30
0
 11
2133.5999
 21
2.54
 31
0
0
LINE
8
JA
 10
2123.44
 20
2.54
 30
6
 11
2133.5999
 21
2.54
 31
0
0
LINE
8
JA
 10
2133.5999
 20
0
 30
0
 11
2123.44
 21
0
 31
0
0
CIRCLE
8
JA
 10
2125.98
 20
1.27
 30
0
 40
0.915
 39
  0
0
CIRCLE
8
JA
 10
2131.06
 20
1.27
 30
0
 40
0.585
 39
  0
0
LINE
8
JA
 10
2133.5999
 20
0
 30
0
 11
2133.5999
 21
2.54
 31
0
0
LINE
8
JA
 10
2143.7598
 20
0
 30
0
 11
2143.7598
 21
2.54
 31
0
0
LINE
8
JA
 10
2133.5999
 20
2.54
 30
6
 11
2143.7598
 21
2.54
 31
0
0
LINE
8
JA
 10
2143.7598
 20
0
 30
0
 11
2133.5999
 21
0
 31
0
0
CIRCLE
8
JA
 10
2136.14
 20
1.27
 30
0
 40
0.915
 39
  0
0
CIRCLE
8
JA
 10
2138.68
 20
1.27
 30
0
 40
0.915
 39
  0
0
CIRCLE
8
JA
 10
2141.22
 20
1.27
 30
0
 40
0.585
 39
  0
0
LINE
8
JA
 10
2143.76
 20
0
 30
0
 11
2143.76
 21
2.54
 31
0
0
LINE
8
JA
 10
2153.92
 20
0
 30
0
 11
2153.92
 21
2.54
 31
0
0
LINE
8
JA
 10
2143.76
 20
2.54
 30
6
 11
2153.92
 21
2.54
 31
0
0
LINE
8
JA
 10
2153.92
 20
0
 30
0
 11
2143.76
 21
0
 31
0
0
CIRCLE
8
JA
 10
2148.84
 20
1.27
 30
0
 40
0.915
 39
  0
0
CIRCLE
8
JA
 10
2151.3801
 20
1.27
 30
0
 40
0.585
 39
  0
0
LINE
8
JA
 10
2153.92
 20
0
 30
0
 11
2153.92
 21
2.54
 31
0
0
LINE
8
JA
 10
2164.0798
 20
0
 30
0
 11
2164.0798
 21
2.54
 31
0
0
LINE
8
JA
 10
2153.92
 20
2.54
 30
6
 11
2164.0798
 21
2.54
 31
0
0
LINE
8
JA
 10
2164.0798
 20
0
 30
0
 11
2153.92
 21
0
 31
0
0
CIRCLE
8
JA
 10
2159
 20
1.27
 30
0
 40
0.915
 39
  0
0
CIRCLE
8
JA
 10
2161.54
 20
1.27
 30
0
 40
0.585
 39
  0
0
LINE
8
JA
 10
2164.08
 20
0
 30
0
 11
2164.08
 21
2.54
 31
0
0
LINE
8
JA
 10
2174.24
 20
0
 30
0
 11
2174.24
 21
2.54
 31
0
0
LINE
8
JA
 10
2164.08
 20
2.54
 30
6
 11
2174.24
 21
2.54
 31
0
0
LINE
8
JA
 10
2174.24
 20
0
 30
0
 11
2164.08
 21
0
 31
0
0
CIRCLE
8
JA
 10
2166.62
 20
1.27
 30
0
 40
0.915
 39
  0
0
CIRCLE
8
JA
 10
2171.7002
 20
1.27
 30
0
 40
0.585
 39
  0
0
LINE
8
JA
 10
2174.24
 20
0
 30
0
 11
2174.24
 21
2.54
 31
0
0
LINE
8
JA
 10
2184.4
 20
0
 30
0
 11
2184.4
 21
2.54
 31
0
0
LINE
8
JA
 10
2174.24
 20
2.54
 30
6
 11
2184.4
 21
2.54
 31
0
0
LINE
8
JA
 10
2184.4
 20
0
 30
0
 11
2174.24
 21
0
 31
0
0
CIRCLE
8
JA
 10
2176.78
 20
1.27
 30
0
 40
0.915
 39
  0
0
CIRCLE
8
JA
 10
2179.32
 20
1.27
 30
0
 40
0.915
 39
  0
0
CIRCLE
8
JA
 10
2181.86
 20
1.27
 30
0
 40
0.585
 39
  0
0
LINE
8
JA
 10
2184.4
 20
0
 30
0
 11
2184.4
 21
2.54
 31
0
0
LINE
8
JA
 10
2194.5598
 20
0
 30
0
 11
2194.5598
 21
2.54
 31
0
0
LINE
8
JA
 10
2184.4
 20
2.54
 30
6
 11
2194.5598
 21
2.54
 31
0
0
LINE
8
JA
 10
2194.5598
 20
0
 30
0
 11
2184.4
 21
0
 31
0
0
CIRCLE
8
JA
 10
2189.48
 20
1.27
 30
0
 40
0.915
 39
  0
0
CIRCLE
8
JA
 10
2192.02
 20
1.27
 30
0
 40
0.585
 39
  0
0
LINE
8
JA
 10
2194.56
 20
0
 30
0
 11
2194.56
 21
2.54
 31
0
0
LINE
8
JA
 10
2204.72
 20
0
 30
0
 11
2204.72
 21
2.54
 31
0
0
LINE
8
JA
 10
2194.56
 20
2.54
 30
6
 11
2204.72
 21
2.54
 31
0
0
LINE
8
JA
 10
2204.72
 20
0
 30
0
 11
2194.56
 21
0
 31
0
0
CIRCLE
8
JA
 10
2199.6401
 20
1.27
 30
0
 40
0.915
 39
  0
0
CIRCLE
8
JA
 10
2202.1802
 20
1.27
 30
0
 40
0.585
 39
  0
0
LINE
8
JA
 10
2204.72
 20
0
 30
0
 11
2204.72
 21
2.54
 31
0
0
LINE
8
JA
 10
2214.88
 20
0
 30
0
 11
2214.88
 21
2.54
 31
0
0
LINE
8
JA
 10
2204.72
 20
2.54
 30
6
 11
2214.88
 21
2.54
 31
0
0
LINE
8
JA
 10
2214.88
 20
0
 30
0
 11
2204.72
 21
0
 31
0
0
CIRCLE
8
JA
 10
2209.8
 20
1.27
 30
0
 40
0.915
 39
  0
0
CIRCLE
8
JA
 10
2212.34
 20
1.27
 30
0
 40
0.585
 39
  0
0
LINE
8
JA
 10
2214.88
 20
0
 30
0
 11
2214.88
 21
2.54
 31
0
0
LINE
8
JA
 10
2225.0398
 20
0
 30
0
 11
2225.0398
 21
2.54
 31
0
0
LINE
8
JA
 10
2214.88
 20
2.54
 30
6
 11
2225.0398
 21
2.54
 31
0
0
LINE
8
JA
 10
2225.0398
 20
0
 30
0
 11
2214.88
 21
0
 31
0
0
CIRCLE
8
JA
 10
2217.42
 20
1.27
 30
0
 40
0.915
 39
  0
0
CIRCLE
8
JA
 10
2222.5
 20
1.27
 30
0
 40
0.585
 39
  0
0
LINE
8
JA
 10
2225.04
 20
0
 30
0
 11
2225.04
 21
2.54
 31
0
0
LINE
8
JA
 10
2235.2
 20
0
 30
0
 11
2235.2
 21
2.54
 31
0
0
LINE
8
JA
 10
2225.04
 20
2.54
 30
6
 11
2235.2
 21
2.54
 31
0
0
LINE
8
JA
 10
2235.2
 20
0
 30
0
 11
2225.04
 21
0
 31
0
0
CIRCLE
8
JA
 10
2227.58
 20
1.27
 30
0
 40
0.915
 39
  0
0
CIRCLE
8
JA
 10
2230.12
 20
1.27
 30
0
 40
0.915
 39
  0
0
CIRCLE
8
JA
 10
2232.6602
 20
1.27
 30
0
 40
0.585
 39
  0
0
LINE
8
JA
 10
2235.2
 20
0
 30
0
 11
2235.2
 21
2.54
 31
0
0
LINE
8
JA
 10
2245.3599
 20
0
 30
0
 11
2245.3599
 21
2.54
 31
0
0
LINE
8
JA
 10
2235.2
 20
2.54
 30
6
 11
2245.3599
 21
2.54
 31
0
0
LINE
8
JA
 10
2245.3599
 20
0
 30
0
 11
2235.2
 21
0
 31
0
0
CIRCLE
8
JA
 10
2240.28
 20
1.27
 30
0
 40
0.915
 39
  0
0
CIRCLE
8
JA
 10
2242.82
 20
1.27
 30
0
 40
0.585
 39
  0
0
LINE
8
JA
 10
2245.3599
 20
0
 30
0
 11
2245.3599
 21
2.54
 31
0
0
LINE
8
JA
 10
2255.5198
 20
0
 30
0
 11
2255.5198
 21
2.54
 31
0
0
LINE
8
JA
 10
2245.3599
 20
2.54
 30
6
 11
2255.5198
 21
2.54
 31
0
0
LINE
8
JA
 10
2255.5198
 20
0
 30
0
 11
2245.3599
 21
0
 31
0
0
CIRCLE
8
JA
 10
2247.9
 20
1.27
 30
0
 40
0.915
 39
  0
0
CIRCLE
8
JA
 10
2252.98
 20
1.27
 30
0
 40
0.585
 39
  0
0
LINE
8
JA
 10
2255.52
 20
0
 30
0
 11
2255.52
 21
2.54
 31
0
0
LINE
8
JA
 10
2265.68
 20
0
 30
0
 11
2265.68
 21
2.54
 31
0
0
LINE
8
JA
 10
2255.52
 20
2.54
 30
6
 11
2265.68
 21
2.54
 31
0
0
LINE
8
JA
 10
2265.68
 20
0
 30
0
 11
2255.52
 21
0
 31
0
0
CIRCLE
8
JA
 10
2258.06
 20
1.27
 30
0
 40
0.915
 39
  0
0
CIRCLE
8
JA
 10
2263.1401
 20
1.27
 30
0
 40
0.585
 39
  0
0
LINE
8
JA
 10
2265.68
 20
0
 30
0
 11
2265.68
 21
2.54
 31
0
0
LINE
8
JA
 10
2275.8398
 20
0
 30
0
 11
2275.8398
 21
2.54
 31
0
0
LINE
8
JA
 10
2265.68
 20
2.54
 30
6
 11
2275.8398
 21
2.54
 31
0
0
LINE
8
JA
 10
2275.8398
 20
0
 30
0
 11
2265.68
 21
0
 31
0
0
CIRCLE
8
JA
 10
2268.22
 20
1.27
 30
0
 40
0.915
 39
  0
0
CIRCLE
8
JA
 10
2270.76
 20
1.27
 30
0
 40
0.915
 39
  0
0
CIRCLE
8
JA
 10
2273.3
 20
1.27
 30
0
 40
0.585
 39
  0
0
LINE
8
JA
 10
2275.8398
 20
0
 30
0
 11
2275.8398
 21
2.54
 31
0
0
LINE
8
JA
 10
2285.9998
 20
0
 30
0
 11
2285.9998
 21
2.54
 31
0
0
LINE
8
JA
 10
2275.8398
 20
2.54
 30
6
 11
2285.9998
 21
2.54
 31
0
0
LINE
8
JA
 10
2285.9998
 20
0
 30
0
 11
2275.8398
 21
0
 31
0
0
CIRCLE
8
JA
 10
2278.38
 20
1.27
 30
0
 40
0.915
 39
  0
0
CIRCLE
8
JA
 10
2283.46
 20
1.27
 30
0
 40
0.585
 39
  0
0
LINE
8
JA
 10
2286
 20
0
 30
0
 11
2286
 21
2.54
 31
0
0
LINE
8
JA
 10
2296.16
 20
0
 30
0
 11
2296.16
 21
2.54
 31
0
0
LINE
8
JA
 10
2286
 20
2.54
 30
6
 11
2296.16
 21
2.54
 31
0
0
LINE
8
JA
 10
2296.16
 20
0
 30
0
 11
2286
 21
0
 31
0
0
CIRCLE
8
JA
 10
2291.08
 20
1.27
 30
0
 40
0.915
 39
  0
0
CIRCLE
8
JA
 10
2293.62
 20
1.27
 30
0
 40
0.585
 39
  0
0
LINE
8
JA
 10
2296.16
 20
0
 30
0
 11
2296.16
 21
2.54
 31
0
0
LINE
8
JA
 10
2306.3198
 20
0
 30
0
 11
2306.3198
 21
2.54
 31
0
0
LINE
8
JA
 10
2296.16
 20
2.54
 30
6
 11
2306.3198
 21
2.54
 31
0
0
LINE
8
JA
 10
2306.3198
 20
0
 30
0
 11
2296.16
 21
0
 31
0
0
CIRCLE
8
JA
 10
2301.24
 20
1.27
 30
0
 40
0.915
 39
  0
0
CIRCLE
8
JA
 10
2303.78
 20
1.27
 30
0
 40
0.585
 39
  0
0
LINE
8
JA
 10
2306.32
 20
0
 30
0
 11
2306.32
 21
2.54
 31
0
0
LINE
8
JA
 10
2316.48
 20
0
 30
0
 11
2316.48
 21
2.54
 31
0
0
LINE
8
JA
 10
2306.32
 20
2.54
 30
6
 11
2316.48
 21
2.54
 31
0
0
LINE
8
JA
 10
2316.48
 20
0
 30
0
 11
2306.32
 21
0
 31
0
0
CIRCLE
8
JA
 10
2308.86
 20
1.27
 30
0
 40
0.915
 39
  0
0
CIRCLE
8
JA
 10
2313.9402
 20
1.27
 30
0
 40
0.585
 39
  0
0
LINE
8
JA
 10
2316.48
 20
0
 30
0
 11
2316.48
 21
2.54
 31
0
0
LINE
8
JA
 10
2326.64
 20
0
 30
0
 11
2326.64
 21
2.54
 31
0
0
LINE
8
JA
 10
2316.48
 20
2.54
 30
6
 11
2326.64
 21
2.54
 31
0
0
LINE
8
JA
 10
2326.64
 20
0
 30
0
 11
2316.48
 21
0
 31
0
0
CIRCLE
8
JA
 10
2319.02
 20
1.27
 30
0
 40
0.915
 39
  0
0
CIRCLE
8
JA
 10
2321.56
 20
1.27
 30
0
 40
0.915
 39
  0
0
CIRCLE
8
JA
 10
2324.1
 20
1.27
 30
0
 40
0.585
 39
  0
0
LINE
8
JA
 10
2326.64
 20
0
 30
0
 11
2326.64
 21
2.54
 31
0
0
LINE
8
JA
 10
2336.7998
 20
0
 30
0
 11
2336.7998
 21
2.54
 31
0
0
LINE
8
JA
 10
2326.64
 20
2.54
 30
6
 11
2336.7998
 21
2.54
 31
0
0
LINE
8
JA
 10
2336.7998
 20
0
 30
0
 11
2326.64
 21
0
 31
0
0
CIRCLE
8
JA
 10
2329.18
 20
1.27
 30
0
 40
0.915
 39
  0
0
CIRCLE
8
JA
 10
2334.26
 20
1.27
 30
0
 40
0.585
 39
  0
0
LINE
8
JA
 10
2336.8
 20
0
 30
0
 11
2336.8
 21
2.54
 31
0
0
LINE
8
JA
 10
2346.96
 20
0
 30
0
 11
2346.96
 21
2.54
 31
0
0
LINE
8
JA
 10
2336.8
 20
2.54
 30
6
 11
2346.96
 21
2.54
 31
0
0
LINE
8
JA
 10
2346.96
 20
0
 30
0
 11
2336.8
 21
0
 31
0
0
CIRCLE
8
JA
 10
2341.8801
 20
1.27
 30
0
 40
0.915
 39
  0
0
CIRCLE
8
JA
 10
2344.4202
 20
1.27
 30
0
 40
0.585
 39
  0
0
LINE
8
JA
 10
2346.96
 20
0
 30
0
 11
2346.96
 21
2.54
 31
0
0
LINE
8
JA
 10
2357.1199
 20
0
 30
0
 11
2357.1199
 21
2.54
 31
0
0
LINE
8
JA
 10
2346.96
 20
2.54
 30
6
 11
2357.1199
 21
2.54
 31
0
0
LINE
8
JA
 10
2357.1199
 20
0
 30
0
 11
2346.96
 21
0
 31
0
0
CIRCLE
8
JA
 10
2349.5
 20
1.27
 30
0
 40
0.915
 39
  0
0
CIRCLE
8
JA
 10
2354.58
 20
1.27
 30
0
 40
0.585
 39
  0
0
LINE
8
JA
 10
2357.1199
 20
0
 30
0
 11
2357.1199
 21
2.54
 31
0
0
LINE
8
JA
 10
2367.2798
 20
0
 30
0
 11
2367.2798
 21
2.54
 31
0
0
LINE
8
JA
 10
2357.1199
 20
2.54
 30
6
 11
2367.2798
 21
2.54
 31
0
0
LINE
8
JA
 10
2367.2798
 20
0
 30
0
 11
2357.1199
 21
0
 31
0
0
CIRCLE
8
JA
 10
2359.66
 20
1.27
 30
0
 40
0.915
 39
  0
0
CIRCLE
8
JA
 10
2364.74
 20
1.27
 30
0
 40
0.585
 39
  0
0
LINE
8
JA
 10
2367.28
 20
0
 30
0
 11
2367.28
 21
2.54
 31
0
0
LINE
8
JA
 10
2377.44
 20
0
 30
0
 11
2377.44
 21
2.54
 31
0
0
LINE
8
JA
 10
2367.28
 20
2.54
 30
6
 11
2377.44
 21
2.54
 31
0
0
LINE
8
JA
 10
2377.44
 20
0
 30
0
 11
2367.28
 21
0
 31
0
0
CIRCLE
8
JA
 10
2369.82
 20
1.27
 30
0
 40
0.915
 39
  0
0
CIRCLE
8
JA
 10
2372.36
 20
1.27
 30
0
 40
0.915
 39
  0
0
CIRCLE
8
JA
 10
2374.9001
 20
1.27
 30
0
 40
0.585
 39
  0
0
LINE
8
JA
 10
2377.44
 20
0
 30
0
 11
2377.44
 21
2.54
 31
0
0
LINE
8
JA
 10
2387.5999
 20
0
 30
0
 11
2387.5999
 21
2.54
 31
0
0
LINE
8
JA
 10
2377.44
 20
2.54
 30
6
 11
2387.5999
 21
2.54
 31
0
0
LINE
8
JA
 10
2387.5999
 20
0
 30
0
 11
2377.44
 21
0
 31
0
0
CIRCLE
8
JA
 10
2379.98
 20
1.27
 30
0
 40
0.915
 39
  0
0
CIRCLE
8
JA
 10
2385.06
 20
1.27
 30
0
 40
0.585
 39
  0
0
LINE
8
JA
 10
2387.5999
 20
0
 30
0
 11
2387.5999
 21
2.54
 31
0
0
LINE
8
JA
 10
2397.7598
 20
0
 30
0
 11
2397.7598
 21
2.54
 31
0
0
LINE
8
JA
 10
2387.5999
 20
2.54
 30
6
 11
2397.7598
 21
2.54
 31
0
0
LINE
8
JA
 10
2397.7598
 20
0
 30
0
 11
2387.5999
 21
0
 31
0
0
CIRCLE
8
JA
 10
2390.14
 20
1.27
 30
0
 40
0.915
 39
  0
0
CIRCLE
8
JA
 10
2395.22
 20
1.27
 30
0
 40
0.585
 39
  0
0
LINE
8
JA
 10
2397.76
 20
0
 30
0
 11
2397.76
 21
2.54
 31
0
0
LINE
8
JA
 10
2407.92
 20
0
 30
0
 11
2407.92
 21
2.54
 31
0
0
LINE
8
JA
 10
2397.76
 20
2.54
 30
6
 11
2407.92
 21
2.54
 31
0
0
LINE
8
JA
 10
2407.92
 20
0
 30
0
 11
2397.76
 21
0
 31
0
0
CIRCLE
8
JA
 10
2402.84
 20
1.27
 30
0
 40
0.915
 39
  0
0
CIRCLE
8
JA
 10
2405.3801
 20
1.27
 30
0
 40
0.585
 39
  0
0
LINE
8
JA
 10
2407.92
 20
0
 30
0
 11
2407.92
 21
2.54
 31
0
0
LINE
8
JA
 10
2418.0798
 20
0
 30
0
 11
2418.0798
 21
2.54
 31
0
0
LINE
8
JA
 10
2407.92
 20
2.54
 30
6
 11
2418.0798
 21
2.54
 31
0
0
LINE
8
JA
 10
2418.0798
 20
0
 30
0
 11
2407.92
 21
0
 31
0
0
CIRCLE
8
JA
 10
2413
 20
1.27
 30
0
 40
0.915
 39
  0
0
CIRCLE
8
JA
 10
2415.54
 20
1.27
 30
0
 40
0.585
 39
  0
0
LINE
8
JA
 10
2418.08
 20
0
 30
0
 11
2418.08
 21
2.54
 31
0
0
LINE
8
JA
 10
2428.24
 20
0
 30
0
 11
2428.24
 21
2.54
 31
0
0
LINE
8
JA
 10
2418.08
 20
2.54
 30
6
 11
2428.24
 21
2.54
 31
0
0
LINE
8
JA
 10
2428.24
 20
0
 30
0
 11
2418.08
 21
0
 31
0
0
CIRCLE
8
JA
 10
2420.62
 20
1.27
 30
0
 40
0.915
 39
  0
0
CIRCLE
8
JA
 10
2423.1602
 20
1.27
 30
0
 40
0.915
 39
  0
0
CIRCLE
8
JA
 10
2425.7002
 20
1.27
 30
0
 40
0.585
 39
  0
0
LINE
8
JA
 10
2428.24
 20
0
 30
0
 11
2428.24
 21
2.54
 31
0
0
LINE
8
JA
 10
2438.4
 20
0
 30
0
 11
2438.4
 21
2.54
 31
0
0
LINE
8
JA
 10
2428.24
 20
2.54
 30
6
 11
2438.4
 21
2.54
 31
0
0
LINE
8
JA
 10
2438.4
 20
0
 30
0
 11
2428.24
 21
0
 31
0
0
CIRCLE
8
JA
 10
2433.32
 20
1.27
 30
0
 40
0.915
 39
  0
0
CIRCLE
8
JA
 10
2435.86
 20
1.27
 30
0
 40
0.585
 39
  0
0
LINE
8
JA
 10
2438.4
 20
0
 30
0
 11
2438.4
 21
2.54
 31
0
0
LINE
8
JA
 10
2448.5598
 20
0
 30
0
 11
2448.5598
 21
2.54
 31
0
0
LINE
8
JA
 10
2438.4
 20
2.54
 30
6
 11
2448.5598
 21
2.54
 31
0
0
LINE
8
JA
 10
2448.5598
 20
0
 30
0
 11
2438.4
 21
0
 31
0
0
CIRCLE
8
JA
 10
2443.48
 20
1.27
 30
0
 40
0.915
 39
  0
0
CIRCLE
8
JA
 10
2446.02
 20
1.27
 30
0
 40
0.585
 39
  0
0
LINE
8
JA
 10
2448.56
 20
0
 30
0
 11
2448.56
 21
2.54
 31
0
0
LINE
8
JA
 10
2458.72
 20
0
 30
0
 11
2458.72
 21
2.54
 31
0
0
LINE
8
JA
 10
2448.56
 20
2.54
 30
6
 11
2458.72
 21
2.54
 31
0
0
LINE
8
JA
 10
2458.72
 20
0
 30
0
 11
2448.56
 21
0
 31
0
0
CIRCLE
8
JA
 10
2451.1
 20
1.27
 30
0
 40
0.915
 39
  0
0
CIRCLE
8
JA
 10
2456.1802
 20
1.27
 30
0
 40
0.585
 39
  0
0
LINE
8
JA
 10
2458.72
 20
0
 30
0
 11
2458.72
 21
2.54
 31
0
0
LINE
8
JA
 10
2468.88
 20
0
 30
0
 11
2468.88
 21
2.54
 31
0
0
LINE
8
JA
 10
2458.72
 20
2.54
 30
6
 11
2468.88
 21
2.54
 31
0
0
LINE
8
JA
 10
2468.88
 20
0
 30
0
 11
2458.72
 21
0
 31
0
0
CIRCLE
8
JA
 10
2461.26
 20
1.27
 30
0
 40
0.915
 39
  0
0
CIRCLE
8
JA
 10
2466.34
 20
1.27
 30
0
 40
0.585
 39
  0
0
LINE
8
JA
 10
2468.88
 20
0
 30
0
 11
2468.88
 21
2.54
 31
0
0
LINE
8
JA
 10
2479.0398
 20
0
 30
0
 11
2479.0398
 21
2.54
 31
0
0
LINE
8
JA
 10
2468.88
 20
2.54
 30
6
 11
2479.0398
 21
2.54
 31
0
0
LINE
8
JA
 10
2479.0398
 20
0
 30
0
 11
2468.88
 21
0
 31
0
0
CIRCLE
8
JA
 10
2473.96
 20
1.27
 30
0
 40
0.915
 39
  0
0
CIRCLE
8
JA
 10
2476.5
 20
1.27
 30
0
 40
0.585
 39
  0
0
LINE
8
JA
 10
2479.04
 20
0
 30
0
 11
2479.04
 21
2.54
 31
0
0
LINE
8
JA
 10
2489.2
 20
0
 30
0
 11
2489.2
 21
2.54
 31
0
0
LINE
8
JA
 10
2479.04
 20
2.54
 30
6
 11
2489.2
 21
2.54
 31
0
0
LINE
8
JA
 10
2489.2
 20
0
 30
0
 11
2479.04
 21
0
 31
0
0
CIRCLE
8
JA
 10
2481.58
 20
1.27
 30
0
 40
0.915
 39
  0
0
CIRCLE
8
JA
 10
2486.6602
 20
1.27
 30
0
 40
0.585
 39
  0
0
LINE
8
JA
 10
2489.2
 20
0
 30
0
 11
2489.2
 21
2.54
 31
0
0
LINE
8
JA
 10
2499.3599
 20
0
 30
0
 11
2499.3599
 21
2.54
 31
0
0
LINE
8
JA
 10
2489.2
 20
2.54
 30
6
 11
2499.3599
 21
2.54
 31
0
0
LINE
8
JA
 10
2499.3599
 20
0
 30
0
 11
2489.2
 21
0
 31
0
0
CIRCLE
8
JA
 10
2491.74
 20
1.27
 30
0
 40
0.915
 39
  0
0
CIRCLE
8
JA
 10
2494.28
 20
1.27
 30
0
 40
0.915
 39
  0
0
CIRCLE
8
JA
 10
2496.82
 20
1.27
 30
0
 40
0.585
 39
  0
0
LINE
8
JA
 10
2499.3599
 20
0
 30
0
 11
2499.3599
 21
0
 31
0
0
LINE
8
JA
 10
2509.5198
 20
0
 30
0
 11
2509.5198
 21
0
 31
0
0
LINE
8
JA
 10
2499.3599
 20
0
 30
0
 11
2509.5198
 21
0
 31
0
0
LINE
8
JA
 10
2499.3599
 20
0
 30
7
 11
2509.5198
 21
0
 31
0
0
ENDSEC
  0
EOF
