  0
SECTION
  2
HEADER
  9
$ACADVER
  1
AC1009
  9
$INSBASE
 10
0.0
 20
0.0
 30
0.0
  9
$EXTMIN
 10
  0
 20
  0
 30
  0
  9
$EXTMAX
 10
368
 20
326
 30
0.0
  9
$LIMMIN
 10
0.0
 20
0.0
  9
$LIMMAX
 10
100.0
 20
100.0
  9
$ORTHOMODE
 70
     1
  9
$DIMSCALE
 40
1
  9
$DIMSTYLE
  2
STANDARD
  9
$FILLETRAD
 40
0.0
  9
$PSLTSCALE
 70
     1
  0
ENDSEC
  0
SECTION
  2
TABLES
  0
TABLE
  2
VPORT
 70
     2
  0
VPORT
  2
*ACTIVE
 70
     0
 10
0.0
 20
0.0
 11
1.0
 21
1.0
 12
50.0
 22
50.0
 13
0.0
 23
0.0
 14
1.0
 24
1.0
 15
0.0
 25
0.0
 16
0.0
 26
0.0
 36
1.0
 17
0.0
 27
0.0
 37
0.0
 40
100.0
 41
1.55
 42
50.0
 43
0.0
 44
0.0
 50
0.0
 51
0.0
 71
     0
 72
   100
 73
     1
 74
     1
 75
     0
 76
     0
 77
     0
 78
     0
  0
ENDTAB
  0
TABLE
  2
LTYPE
 70
     1
  0
LTYPE
  2
CONTINUOUS
  70
     0
  3
Solid Line
 72
    65
 73
     0
 40
0.0
  0
ENDTAB
  0
TABLE
  2
LAYER
 70
     3
  0
LAYER
  2
0
 70
     0
 62
     7
  6
CONTINUOUS
  0
LAYER
  2
JA
 70
     0
 62
     7
  6
CONTINUOUS
  0
LAYER
  2
DEFPOINTS
 70
     0
 62
     7
 6
CONTINUOUS
  0
ENDTAB
  0
TABLE
  2
VIEW
 70
     0
  0
ENDTAB
  0
TABLE
  2
DIMSTYLE
 70
     1
  0
DIMSTYLE
  2
STANDARD
 70
     0
  3

  4

  5

  6

  7

 40
1.0
 41
0.125
 42
0.04
 43
0.25
 44
0.125
 45
0.0
 46
0.0
 47
0.0
 48
0.0
140
0.125
141
0.06
142
0.0
143
25.4
144
1.0
145
0.0
146
1.0
147
0.09
 71
     0
 72
     0
 73
     1
 74
     1
 75
     0
 76
     0
 77
     0
 78
     0
170
     0
171
     2
172
     0
173
     0
174
     0
175
     0
176
     0
177
     0
178
     0
  0
ENDTAB
  0
ENDSEC
  0
SECTION
  2
BLOCKS
  0
ENDSEC
  0
SECTION
  2
ENTITIES
  0
LINE
8
JA
 10
0
 20
0
 30
0
 11
0
 21
15.24
 31
0
0
LINE
8
JA
 10
25.4
 20
0
 30
0
 11
25.4
 21
15.24
 31
0
0
LINE
8
JA
 10
0
 20
15.24
 30
0
 11
25.4
 21
15.24
 31
0
0
LINE
8
JA
 10
0
 20
0
 30
0
 11
25.4
 21
0
 31
0
0
LINE
8
JA
 10
0
 20
15.24
 30
7
 11
25.4
 21
15.24
 31
0
0
ARC
8
JA
 10
2.54
 20
13.969999
 30
0
 40
0.915
 50
130
 51
50
0
ARC
8
JA
 10
5.08
 20
13.969999
 30
0
 40
0.915
 50
130
 51
50
0
ARC
8
JA
 10
7.62
 20
13.969999
 30
0
 40
0.915
 50
130
 51
50
0
ARC
8
JA
 10
10.16
 20
13.969999
 30
0
 40
0.915
 50
130
 51
50
0
ARC
8
JA
 10
12.7
 20
13.969999
 30
0
 40
0.915
 50
130
 51
50
0
ARC
8
JA
 10
15.24
 20
13.969999
 30
0
 40
0.585
 50
130
 51
50
0
ARC
8
JA
 10
17.779999
 20
13.969999
 30
0
 40
0.915
 50
130
 51
50
0
ARC
8
JA
 10
20.32
 20
13.969999
 30
0
 40
0.915
 50
130
 51
50
0
ARC
8
JA
 10
22.86
 20
13.969999
 30
0
 40
0.915
 50
130
 51
50
0
ARC
8
JA
 10
2.54
 20
11.429999
 30
0
 40
0.915
 50
130
 51
50
0
ARC
8
JA
 10
10.16
 20
11.429999
 30
0
 40
0.915
 50
130
 51
50
0
ARC
8
JA
 10
12.7
 20
11.429999
 30
0
 40
0.915
 50
130
 51
50
0
ARC
8
JA
 10
15.24
 20
11.429999
 30
0
 40
0.585
 50
130
 51
50
0
ARC
8
JA
 10
17.779999
 20
11.429999
 30
0
 40
0.915
 50
130
 51
50
0
ARC
8
JA
 10
2.54
 20
8.889999
 30
0
 40
0.915
 50
130
 51
50
0
ARC
8
JA
 10
5.08
 20
8.889999
 30
0
 40
0.915
 50
130
 51
50
0
ARC
8
JA
 10
7.62
 20
8.889999
 30
0
 40
0.915
 50
130
 51
50
0
ARC
8
JA
 10
12.7
 20
8.889999
 30
0
 40
0.915
 50
130
 51
50
0
ARC
8
JA
 10
15.24
 20
8.889999
 30
0
 40
0.585
 50
130
 51
50
0
ARC
8
JA
 10
20.32
 20
8.889999
 30
0
 40
0.915
 50
130
 51
50
0
ARC
8
JA
 10
22.86
 20
8.889999
 30
0
 40
0.915
 50
130
 51
50
0
ARC
8
JA
 10
2.54
 20
6.3499994
 30
0
 40
0.915
 50
130
 51
50
0
ARC
8
JA
 10
5.08
 20
6.3499994
 30
0
 40
0.915
 50
130
 51
50
0
ARC
8
JA
 10
7.62
 20
6.3499994
 30
0
 40
0.915
 50
130
 51
50
0
ARC
8
JA
 10
10.16
 20
6.3499994
 30
0
 40
0.915
 50
130
 51
50
0
ARC
8
JA
 10
15.24
 20
6.3499994
 30
0
 40
0.585
 50
130
 51
50
0
ARC
8
JA
 10
17.779999
 20
6.3499994
 30
0
 40
0.915
 50
130
 51
50
0
ARC
8
JA
 10
20.32
 20
6.3499994
 30
0
 40
0.915
 50
130
 51
50
0
ARC
8
JA
 10
22.86
 20
6.3499994
 30
0
 40
0.915
 50
130
 51
50
0
ARC
8
JA
 10
2.54
 20
3.8099995
 30
0
 40
0.915
 50
130
 51
50
0
ARC
8
JA
 10
5.08
 20
3.8099995
 30
0
 40
0.915
 50
130
 51
50
0
ARC
8
JA
 10
7.62
 20
3.8099995
 30
0
 40
0.915
 50
130
 51
50
0
ARC
8
JA
 10
12.7
 20
3.8099995
 30
0
 40
0.915
 50
130
 51
50
0
ARC
8
JA
 10
15.24
 20
3.8099995
 30
0
 40
0.585
 50
130
 51
50
0
ARC
8
JA
 10
20.32
 20
3.8099995
 30
0
 40
0.915
 50
130
 51
50
0
ARC
8
JA
 10
22.86
 20
3.8099995
 30
0
 40
0.915
 50
130
 51
50
0
ARC
8
JA
 10
2.54
 20
1.2699995
 30
0
 40
0.915
 50
130
 51
50
0
ARC
8
JA
 10
10.16
 20
1.2699995
 30
0
 40
0.915
 50
130
 51
50
0
ARC
8
JA
 10
12.7
 20
1.2699995
 30
0
 40
0.915
 50
130
 51
50
0
ARC
8
JA
 10
15.24
 20
1.2699995
 30
0
 40
0.585
 50
130
 51
50
0
ARC
8
JA
 10
17.779999
 20
1.2699995
 30
0
 40
0.915
 50
130
 51
50
0
ENDSEC
  0
EOF
