  0
SECTION
  2
HEADER
  9
$ACADVER
  1
AC1009
  9
$INSBASE
 10
0.0
 20
0.0
 30
0.0
  9
$EXTMIN
 10
  0
 20
  0
 30
  0
  9
$EXTMAX
 10
368
 20
326
 30
0.0
  9
$LIMMIN
 10
0.0
 20
0.0
  9
$LIMMAX
 10
100.0
 20
100.0
  9
$ORTHOMODE
 70
     1
  9
$DIMSCALE
 40
1
  9
$DIMSTYLE
  2
STANDARD
  9
$FILLETRAD
 40
0.0
  9
$PSLTSCALE
 70
     1
  0
ENDSEC
  0
SECTION
  2
TABLES
  0
TABLE
  2
VPORT
 70
     2
  0
VPORT
  2
*ACTIVE
 70
     0
 10
0.0
 20
0.0
 11
1.0
 21
1.0
 12
50.0
 22
50.0
 13
0.0
 23
0.0
 14
1.0
 24
1.0
 15
0.0
 25
0.0
 16
0.0
 26
0.0
 36
1.0
 17
0.0
 27
0.0
 37
0.0
 40
100.0
 41
1.55
 42
50.0
 43
0.0
 44
0.0
 50
0.0
 51
0.0
 71
     0
 72
   100
 73
     1
 74
     1
 75
     0
 76
     0
 77
     0
 78
     0
  0
ENDTAB
  0
TABLE
  2
LTYPE
 70
     1
  0
LTYPE
  2
CONTINUOUS
  70
     0
  3
Solid Line
 72
    65
 73
     0
 40
0.0
  0
ENDTAB
  0
TABLE
  2
LAYER
 70
     3
  0
LAYER
  2
0
 70
     0
 62
     7
  6
CONTINUOUS
  0
LAYER
  2
JA
 70
     0
 62
     7
  6
CONTINUOUS
  0
LAYER
  2
DEFPOINTS
 70
     0
 62
     7
 6
CONTINUOUS
  0
ENDTAB
  0
TABLE
  2
VIEW
 70
     0
  0
ENDTAB
  0
TABLE
  2
DIMSTYLE
 70
     1
  0
DIMSTYLE
  2
STANDARD
 70
     0
  3

  4

  5

  6

  7

 40
1.0
 41
0.125
 42
0.04
 43
0.25
 44
0.125
 45
0.0
 46
0.0
 47
0.0
 48
0.0
140
0.125
141
0.06
142
0.0
143
25.4
144
1.0
145
0.0
146
1.0
147
0.09
 71
     0
 72
     0
 73
     1
 74
     1
 75
     0
 76
     0
 77
     0
 78
     0
170
     0
171
     2
172
     0
173
     0
174
     0
175
     0
176
     0
177
     0
178
     0
  0
ENDTAB
  0
ENDSEC
  0
SECTION
  2
BLOCKS
  0
ENDSEC
  0
SECTION
  2
ENTITIES
  0
LINE
8
JA
 10
0
 20
0
 30
0
 11
0
 21
624.83997
 31
0
0
LINE
8
JA
 10
10.16
 20
0
 30
0
 11
10.16
 21
624.83997
 31
0
0
LINE
8
JA
 10
0
 20
624.83997
 30
0
 11
10.16
 21
624.83997
 31
0
0
LINE
8
JA
 10
0
 20
0
 30
0
 11
10.16
 21
0
 31
0
0
LINE
8
JA
 10
0
 20
624.83997
 30
7
 11
10.16
 21
624.83997
 31
0
0
CIRCLE
8
JA
 10
5.08
 20
623.56995
 30
0
 40
0.585
 39
  0
0
CIRCLE
8
JA
 10
5.08
 20
621.02997
 30
0
 40
0.585
 39
  0
0
CIRCLE
8
JA
 10
2.54
 20
618.49
 30
0
 40
0.915
 39
  0
0
CIRCLE
8
JA
 10
5.08
 20
618.49
 30
0
 40
0.585
 39
  0
0
CIRCLE
8
JA
 10
5.08
 20
615.95
 30
0
 40
0.585
 39
  0
0
CIRCLE
8
JA
 10
7.62
 20
615.95
 30
0
 40
0.915
 39
  0
0
CIRCLE
8
JA
 10
2.54
 20
613.41003
 30
0
 40
0.915
 39
  0
0
CIRCLE
8
JA
 10
5.08
 20
613.41003
 30
0
 40
0.585
 39
  0
0
CIRCLE
8
JA
 10
5.08
 20
610.87006
 30
0
 40
0.585
 39
  0
0
CIRCLE
8
JA
 10
7.62
 20
610.87006
 30
0
 40
0.915
 39
  0
0
CIRCLE
8
JA
 10
2.54
 20
608.3301
 30
0
 40
0.915
 39
  0
0
CIRCLE
8
JA
 10
5.08
 20
608.3301
 30
0
 40
0.585
 39
  0
0
CIRCLE
8
JA
 10
2.54
 20
605.7901
 30
0
 40
0.915
 39
  0
0
CIRCLE
8
JA
 10
5.08
 20
605.7901
 30
0
 40
0.585
 39
  0
0
CIRCLE
8
JA
 10
5.08
 20
603.2501
 30
0
 40
0.585
 39
  0
0
CIRCLE
8
JA
 10
5.08
 20
600.71014
 30
0
 40
0.585
 39
  0
0
CIRCLE
8
JA
 10
7.62
 20
600.71014
 30
0
 40
0.915
 39
  0
0
CIRCLE
8
JA
 10
2.54
 20
598.17017
 30
0
 40
0.915
 39
  0
0
CIRCLE
8
JA
 10
5.08
 20
598.17017
 30
0
 40
0.585
 39
  0
0
CIRCLE
8
JA
 10
5.08
 20
595.6302
 30
0
 40
0.585
 39
  0
0
CIRCLE
8
JA
 10
7.62
 20
595.6302
 30
0
 40
0.915
 39
  0
0
CIRCLE
8
JA
 10
5.08
 20
593.0902
 30
0
 40
0.585
 39
  0
0
CIRCLE
8
JA
 10
7.62
 20
593.0902
 30
0
 40
0.915
 39
  0
0
CIRCLE
8
JA
 10
2.54
 20
590.55023
 30
0
 40
0.915
 39
  0
0
CIRCLE
8
JA
 10
5.08
 20
590.55023
 30
0
 40
0.585
 39
  0
0
CIRCLE
8
JA
 10
5.08
 20
588.01025
 30
0
 40
0.585
 39
  0
0
CIRCLE
8
JA
 10
7.62
 20
588.01025
 30
0
 40
0.915
 39
  0
0
CIRCLE
8
JA
 10
5.08
 20
585.4703
 30
0
 40
0.585
 39
  0
0
CIRCLE
8
JA
 10
5.08
 20
582.9303
 30
0
 40
0.585
 39
  0
0
CIRCLE
8
JA
 10
7.62
 20
582.9303
 30
0
 40
0.915
 39
  0
0
CIRCLE
8
JA
 10
2.54
 20
580.3903
 30
0
 40
0.915
 39
  0
0
CIRCLE
8
JA
 10
5.08
 20
580.3903
 30
0
 40
0.585
 39
  0
0
CIRCLE
8
JA
 10
2.54
 20
577.85034
 30
0
 40
0.915
 39
  0
0
CIRCLE
8
JA
 10
5.08
 20
577.85034
 30
0
 40
0.585
 39
  0
0
CIRCLE
8
JA
 10
2.54
 20
575.31036
 30
0
 40
0.915
 39
  0
0
CIRCLE
8
JA
 10
5.08
 20
575.31036
 30
0
 40
0.585
 39
  0
0
CIRCLE
8
JA
 10
2.54
 20
572.7704
 30
0
 40
0.915
 39
  0
0
CIRCLE
8
JA
 10
5.08
 20
572.7704
 30
0
 40
0.585
 39
  0
0
CIRCLE
8
JA
 10
5.08
 20
570.2304
 30
0
 40
0.585
 39
  0
0
CIRCLE
8
JA
 10
7.62
 20
570.2304
 30
0
 40
0.915
 39
  0
0
CIRCLE
8
JA
 10
5.08
 20
567.6904
 30
0
 40
0.585
 39
  0
0
CIRCLE
8
JA
 10
2.54
 20
565.15045
 30
0
 40
0.915
 39
  0
0
CIRCLE
8
JA
 10
5.08
 20
565.15045
 30
0
 40
0.585
 39
  0
0
CIRCLE
8
JA
 10
2.54
 20
562.6105
 30
0
 40
0.915
 39
  0
0
CIRCLE
8
JA
 10
5.08
 20
562.6105
 30
0
 40
0.585
 39
  0
0
CIRCLE
8
JA
 10
5.08
 20
560.0705
 30
0
 40
0.585
 39
  0
0
CIRCLE
8
JA
 10
7.62
 20
560.0705
 30
0
 40
0.915
 39
  0
0
CIRCLE
8
JA
 10
5.08
 20
557.5305
 30
0
 40
0.585
 39
  0
0
CIRCLE
8
JA
 10
7.62
 20
557.5305
 30
0
 40
0.915
 39
  0
0
CIRCLE
8
JA
 10
2.54
 20
554.99054
 30
0
 40
0.915
 39
  0
0
CIRCLE
8
JA
 10
5.08
 20
554.99054
 30
0
 40
0.585
 39
  0
0
CIRCLE
8
JA
 10
2.54
 20
552.45056
 30
0
 40
0.915
 39
  0
0
CIRCLE
8
JA
 10
5.08
 20
552.45056
 30
0
 40
0.585
 39
  0
0
CIRCLE
8
JA
 10
5.08
 20
549.9106
 30
0
 40
0.585
 39
  0
0
CIRCLE
8
JA
 10
2.54
 20
547.3706
 30
0
 40
0.915
 39
  0
0
CIRCLE
8
JA
 10
5.08
 20
547.3706
 30
0
 40
0.585
 39
  0
0
CIRCLE
8
JA
 10
5.08
 20
544.8306
 30
0
 40
0.585
 39
  0
0
CIRCLE
8
JA
 10
7.62
 20
544.8306
 30
0
 40
0.915
 39
  0
0
CIRCLE
8
JA
 10
5.08
 20
542.29065
 30
0
 40
0.585
 39
  0
0
CIRCLE
8
JA
 10
7.62
 20
542.29065
 30
0
 40
0.915
 39
  0
0
CIRCLE
8
JA
 10
5.08
 20
539.7507
 30
0
 40
0.585
 39
  0
0
CIRCLE
8
JA
 10
7.62
 20
539.7507
 30
0
 40
0.915
 39
  0
0
CIRCLE
8
JA
 10
5.08
 20
537.2107
 30
0
 40
0.585
 39
  0
0
CIRCLE
8
JA
 10
7.62
 20
537.2107
 30
0
 40
0.915
 39
  0
0
CIRCLE
8
JA
 10
2.54
 20
534.6707
 30
0
 40
0.915
 39
  0
0
CIRCLE
8
JA
 10
5.08
 20
534.6707
 30
0
 40
0.585
 39
  0
0
CIRCLE
8
JA
 10
5.08
 20
532.13074
 30
0
 40
0.585
 39
  0
0
CIRCLE
8
JA
 10
5.08
 20
529.59076
 30
0
 40
0.585
 39
  0
0
CIRCLE
8
JA
 10
7.62
 20
529.59076
 30
0
 40
0.915
 39
  0
0
CIRCLE
8
JA
 10
2.54
 20
527.0508
 30
0
 40
0.915
 39
  0
0
CIRCLE
8
JA
 10
5.08
 20
527.0508
 30
0
 40
0.585
 39
  0
0
CIRCLE
8
JA
 10
5.08
 20
524.5108
 30
0
 40
0.585
 39
  0
0
CIRCLE
8
JA
 10
7.62
 20
524.5108
 30
0
 40
0.915
 39
  0
0
CIRCLE
8
JA
 10
2.54
 20
521.9708
 30
0
 40
0.915
 39
  0
0
CIRCLE
8
JA
 10
5.08
 20
521.9708
 30
0
 40
0.585
 39
  0
0
CIRCLE
8
JA
 10
5.08
 20
519.43085
 30
0
 40
0.585
 39
  0
0
CIRCLE
8
JA
 10
7.62
 20
519.43085
 30
0
 40
0.915
 39
  0
0
CIRCLE
8
JA
 10
2.54
 20
516.89087
 30
0
 40
0.915
 39
  0
0
CIRCLE
8
JA
 10
5.08
 20
516.89087
 30
0
 40
0.585
 39
  0
0
CIRCLE
8
JA
 10
5.08
 20
514.3509
 30
0
 40
0.585
 39
  0
0
CIRCLE
8
JA
 10
2.54
 20
511.81088
 30
0
 40
0.915
 39
  0
0
CIRCLE
8
JA
 10
5.08
 20
511.81088
 30
0
 40
0.585
 39
  0
0
CIRCLE
8
JA
 10
2.54
 20
509.27087
 30
0
 40
0.915
 39
  0
0
CIRCLE
8
JA
 10
5.08
 20
509.27087
 30
0
 40
0.585
 39
  0
0
CIRCLE
8
JA
 10
2.54
 20
506.73087
 30
0
 40
0.915
 39
  0
0
CIRCLE
8
JA
 10
5.08
 20
506.73087
 30
0
 40
0.585
 39
  0
0
CIRCLE
8
JA
 10
2.54
 20
504.19086
 30
0
 40
0.915
 39
  0
0
CIRCLE
8
JA
 10
5.08
 20
504.19086
 30
0
 40
0.585
 39
  0
0
CIRCLE
8
JA
 10
2.54
 20
501.65085
 30
0
 40
0.915
 39
  0
0
CIRCLE
8
JA
 10
5.08
 20
501.65085
 30
0
 40
0.585
 39
  0
0
CIRCLE
8
JA
 10
5.08
 20
499.11084
 30
0
 40
0.585
 39
  0
0
CIRCLE
8
JA
 10
5.08
 20
496.57083
 30
0
 40
0.585
 39
  0
0
CIRCLE
8
JA
 10
7.62
 20
496.57083
 30
0
 40
0.915
 39
  0
0
CIRCLE
8
JA
 10
2.54
 20
494.03082
 30
0
 40
0.915
 39
  0
0
CIRCLE
8
JA
 10
5.08
 20
494.03082
 30
0
 40
0.585
 39
  0
0
CIRCLE
8
JA
 10
2.54
 20
491.4908
 30
0
 40
0.915
 39
  0
0
CIRCLE
8
JA
 10
5.08
 20
491.4908
 30
0
 40
0.585
 39
  0
0
CIRCLE
8
JA
 10
2.54
 20
488.9508
 30
0
 40
0.915
 39
  0
0
CIRCLE
8
JA
 10
5.08
 20
488.9508
 30
0
 40
0.585
 39
  0
0
CIRCLE
8
JA
 10
2.54
 20
486.4108
 30
0
 40
0.915
 39
  0
0
CIRCLE
8
JA
 10
5.08
 20
486.4108
 30
0
 40
0.585
 39
  0
0
CIRCLE
8
JA
 10
5.08
 20
483.8708
 30
0
 40
0.585
 39
  0
0
CIRCLE
8
JA
 10
5.08
 20
481.33078
 30
0
 40
0.585
 39
  0
0
CIRCLE
8
JA
 10
7.62
 20
481.33078
 30
0
 40
0.915
 39
  0
0
CIRCLE
8
JA
 10
5.08
 20
478.79077
 30
0
 40
0.585
 39
  0
0
CIRCLE
8
JA
 10
7.62
 20
478.79077
 30
0
 40
0.915
 39
  0
0
CIRCLE
8
JA
 10
2.54
 20
476.25076
 30
0
 40
0.915
 39
  0
0
CIRCLE
8
JA
 10
5.08
 20
476.25076
 30
0
 40
0.585
 39
  0
0
CIRCLE
8
JA
 10
2.54
 20
473.71075
 30
0
 40
0.915
 39
  0
0
CIRCLE
8
JA
 10
5.08
 20
473.71075
 30
0
 40
0.585
 39
  0
0
CIRCLE
8
JA
 10
2.54
 20
471.17075
 30
0
 40
0.915
 39
  0
0
CIRCLE
8
JA
 10
5.08
 20
471.17075
 30
0
 40
0.585
 39
  0
0
CIRCLE
8
JA
 10
5.08
 20
468.63074
 30
0
 40
0.585
 39
  0
0
CIRCLE
8
JA
 10
5.08
 20
466.09073
 30
0
 40
0.585
 39
  0
0
CIRCLE
8
JA
 10
7.62
 20
466.09073
 30
0
 40
0.915
 39
  0
0
CIRCLE
8
JA
 10
5.08
 20
463.55072
 30
0
 40
0.585
 39
  0
0
CIRCLE
8
JA
 10
7.62
 20
463.55072
 30
0
 40
0.915
 39
  0
0
CIRCLE
8
JA
 10
5.08
 20
461.0107
 30
0
 40
0.585
 39
  0
0
CIRCLE
8
JA
 10
7.62
 20
461.0107
 30
0
 40
0.915
 39
  0
0
CIRCLE
8
JA
 10
2.54
 20
458.4707
 30
0
 40
0.915
 39
  0
0
CIRCLE
8
JA
 10
5.08
 20
458.4707
 30
0
 40
0.585
 39
  0
0
CIRCLE
8
JA
 10
2.54
 20
455.9307
 30
0
 40
0.915
 39
  0
0
CIRCLE
8
JA
 10
5.08
 20
455.9307
 30
0
 40
0.585
 39
  0
0
CIRCLE
8
JA
 10
5.08
 20
453.3907
 30
0
 40
0.585
 39
  0
0
CIRCLE
8
JA
 10
5.08
 20
450.85068
 30
0
 40
0.585
 39
  0
0
CIRCLE
8
JA
 10
7.62
 20
450.85068
 30
0
 40
0.915
 39
  0
0
CIRCLE
8
JA
 10
5.08
 20
448.31067
 30
0
 40
0.585
 39
  0
0
CIRCLE
8
JA
 10
7.62
 20
448.31067
 30
0
 40
0.915
 39
  0
0
CIRCLE
8
JA
 10
5.08
 20
445.77066
 30
0
 40
0.585
 39
  0
0
CIRCLE
8
JA
 10
7.62
 20
445.77066
 30
0
 40
0.915
 39
  0
0
CIRCLE
8
JA
 10
2.54
 20
443.23065
 30
0
 40
0.915
 39
  0
0
CIRCLE
8
JA
 10
5.08
 20
443.23065
 30
0
 40
0.585
 39
  0
0
CIRCLE
8
JA
 10
5.08
 20
440.69064
 30
0
 40
0.585
 39
  0
0
CIRCLE
8
JA
 10
5.08
 20
438.15063
 30
0
 40
0.585
 39
  0
0
CIRCLE
8
JA
 10
7.62
 20
438.15063
 30
0
 40
0.915
 39
  0
0
CIRCLE
8
JA
 10
5.08
 20
435.61063
 30
0
 40
0.585
 39
  0
0
CIRCLE
8
JA
 10
7.62
 20
435.61063
 30
0
 40
0.915
 39
  0
0
CIRCLE
8
JA
 10
5.08
 20
433.07062
 30
0
 40
0.585
 39
  0
0
CIRCLE
8
JA
 10
7.62
 20
433.07062
 30
0
 40
0.915
 39
  0
0
CIRCLE
8
JA
 10
5.08
 20
430.5306
 30
0
 40
0.585
 39
  0
0
CIRCLE
8
JA
 10
7.62
 20
430.5306
 30
0
 40
0.915
 39
  0
0
CIRCLE
8
JA
 10
5.08
 20
427.9906
 30
0
 40
0.585
 39
  0
0
CIRCLE
8
JA
 10
7.62
 20
427.9906
 30
0
 40
0.915
 39
  0
0
CIRCLE
8
JA
 10
5.08
 20
425.4506
 30
0
 40
0.585
 39
  0
0
CIRCLE
8
JA
 10
2.54
 20
422.91058
 30
0
 40
0.915
 39
  0
0
CIRCLE
8
JA
 10
5.08
 20
422.91058
 30
0
 40
0.585
 39
  0
0
CIRCLE
8
JA
 10
5.08
 20
420.37057
 30
0
 40
0.585
 39
  0
0
CIRCLE
8
JA
 10
7.62
 20
420.37057
 30
0
 40
0.915
 39
  0
0
CIRCLE
8
JA
 10
5.08
 20
417.83057
 30
0
 40
0.585
 39
  0
0
CIRCLE
8
JA
 10
7.62
 20
417.83057
 30
0
 40
0.915
 39
  0
0
CIRCLE
8
JA
 10
5.08
 20
415.29056
 30
0
 40
0.585
 39
  0
0
CIRCLE
8
JA
 10
7.62
 20
415.29056
 30
0
 40
0.915
 39
  0
0
CIRCLE
8
JA
 10
5.08
 20
412.75055
 30
0
 40
0.585
 39
  0
0
CIRCLE
8
JA
 10
7.62
 20
412.75055
 30
0
 40
0.915
 39
  0
0
CIRCLE
8
JA
 10
5.08
 20
410.21054
 30
0
 40
0.585
 39
  0
0
CIRCLE
8
JA
 10
2.54
 20
407.67053
 30
0
 40
0.915
 39
  0
0
CIRCLE
8
JA
 10
5.08
 20
407.67053
 30
0
 40
0.585
 39
  0
0
CIRCLE
8
JA
 10
2.54
 20
405.13052
 30
0
 40
0.915
 39
  0
0
CIRCLE
8
JA
 10
5.08
 20
405.13052
 30
0
 40
0.585
 39
  0
0
CIRCLE
8
JA
 10
5.08
 20
402.5905
 30
0
 40
0.585
 39
  0
0
CIRCLE
8
JA
 10
7.62
 20
402.5905
 30
0
 40
0.915
 39
  0
0
CIRCLE
8
JA
 10
5.08
 20
400.0505
 30
0
 40
0.585
 39
  0
0
CIRCLE
8
JA
 10
7.62
 20
400.0505
 30
0
 40
0.915
 39
  0
0
CIRCLE
8
JA
 10
5.08
 20
397.5105
 30
0
 40
0.585
 39
  0
0
CIRCLE
8
JA
 10
7.62
 20
397.5105
 30
0
 40
0.915
 39
  0
0
CIRCLE
8
JA
 10
5.08
 20
394.9705
 30
0
 40
0.585
 39
  0
0
CIRCLE
8
JA
 10
2.54
 20
392.43048
 30
0
 40
0.915
 39
  0
0
CIRCLE
8
JA
 10
5.08
 20
392.43048
 30
0
 40
0.585
 39
  0
0
CIRCLE
8
JA
 10
2.54
 20
389.89047
 30
0
 40
0.915
 39
  0
0
CIRCLE
8
JA
 10
5.08
 20
389.89047
 30
0
 40
0.585
 39
  0
0
CIRCLE
8
JA
 10
2.54
 20
387.35046
 30
0
 40
0.915
 39
  0
0
CIRCLE
8
JA
 10
5.08
 20
387.35046
 30
0
 40
0.585
 39
  0
0
CIRCLE
8
JA
 10
5.08
 20
384.81046
 30
0
 40
0.585
 39
  0
0
CIRCLE
8
JA
 10
7.62
 20
384.81046
 30
0
 40
0.915
 39
  0
0
CIRCLE
8
JA
 10
5.08
 20
382.27045
 30
0
 40
0.585
 39
  0
0
CIRCLE
8
JA
 10
7.62
 20
382.27045
 30
0
 40
0.915
 39
  0
0
CIRCLE
8
JA
 10
5.08
 20
379.73044
 30
0
 40
0.585
 39
  0
0
CIRCLE
8
JA
 10
2.54
 20
377.19043
 30
0
 40
0.915
 39
  0
0
CIRCLE
8
JA
 10
5.08
 20
377.19043
 30
0
 40
0.585
 39
  0
0
CIRCLE
8
JA
 10
2.54
 20
374.65042
 30
0
 40
0.915
 39
  0
0
CIRCLE
8
JA
 10
5.08
 20
374.65042
 30
0
 40
0.585
 39
  0
0
CIRCLE
8
JA
 10
2.54
 20
372.1104
 30
0
 40
0.915
 39
  0
0
CIRCLE
8
JA
 10
5.08
 20
372.1104
 30
0
 40
0.585
 39
  0
0
CIRCLE
8
JA
 10
2.54
 20
369.5704
 30
0
 40
0.915
 39
  0
0
CIRCLE
8
JA
 10
5.08
 20
369.5704
 30
0
 40
0.585
 39
  0
0
CIRCLE
8
JA
 10
5.08
 20
367.0304
 30
0
 40
0.585
 39
  0
0
CIRCLE
8
JA
 10
7.62
 20
367.0304
 30
0
 40
0.915
 39
  0
0
CIRCLE
8
JA
 10
5.08
 20
364.4904
 30
0
 40
0.585
 39
  0
0
CIRCLE
8
JA
 10
2.54
 20
361.95038
 30
0
 40
0.915
 39
  0
0
CIRCLE
8
JA
 10
5.08
 20
361.95038
 30
0
 40
0.585
 39
  0
0
CIRCLE
8
JA
 10
2.54
 20
359.41037
 30
0
 40
0.915
 39
  0
0
CIRCLE
8
JA
 10
5.08
 20
359.41037
 30
0
 40
0.585
 39
  0
0
CIRCLE
8
JA
 10
2.54
 20
356.87036
 30
0
 40
0.915
 39
  0
0
CIRCLE
8
JA
 10
5.08
 20
356.87036
 30
0
 40
0.585
 39
  0
0
CIRCLE
8
JA
 10
5.08
 20
354.33035
 30
0
 40
0.585
 39
  0
0
CIRCLE
8
JA
 10
7.62
 20
354.33035
 30
0
 40
0.915
 39
  0
0
CIRCLE
8
JA
 10
5.08
 20
351.79034
 30
0
 40
0.585
 39
  0
0
CIRCLE
8
JA
 10
7.62
 20
351.79034
 30
0
 40
0.915
 39
  0
0
CIRCLE
8
JA
 10
5.08
 20
349.25034
 30
0
 40
0.585
 39
  0
0
CIRCLE
8
JA
 10
7.62
 20
349.25034
 30
0
 40
0.915
 39
  0
0
CIRCLE
8
JA
 10
5.08
 20
346.71033
 30
0
 40
0.585
 39
  0
0
CIRCLE
8
JA
 10
2.54
 20
344.17032
 30
0
 40
0.915
 39
  0
0
CIRCLE
8
JA
 10
5.08
 20
344.17032
 30
0
 40
0.585
 39
  0
0
CIRCLE
8
JA
 10
5.08
 20
341.6303
 30
0
 40
0.585
 39
  0
0
CIRCLE
8
JA
 10
7.62
 20
341.6303
 30
0
 40
0.915
 39
  0
0
CIRCLE
8
JA
 10
2.54
 20
339.0903
 30
0
 40
0.915
 39
  0
0
CIRCLE
8
JA
 10
5.08
 20
339.0903
 30
0
 40
0.585
 39
  0
0
CIRCLE
8
JA
 10
5.08
 20
336.5503
 30
0
 40
0.585
 39
  0
0
CIRCLE
8
JA
 10
7.62
 20
336.5503
 30
0
 40
0.915
 39
  0
0
CIRCLE
8
JA
 10
2.54
 20
334.01028
 30
0
 40
0.915
 39
  0
0
CIRCLE
8
JA
 10
5.08
 20
334.01028
 30
0
 40
0.585
 39
  0
0
CIRCLE
8
JA
 10
5.08
 20
331.47028
 30
0
 40
0.585
 39
  0
0
CIRCLE
8
JA
 10
7.62
 20
331.47028
 30
0
 40
0.915
 39
  0
0
CIRCLE
8
JA
 10
5.08
 20
328.93027
 30
0
 40
0.585
 39
  0
0
CIRCLE
8
JA
 10
5.08
 20
326.39026
 30
0
 40
0.585
 39
  0
0
CIRCLE
8
JA
 10
7.62
 20
326.39026
 30
0
 40
0.915
 39
  0
0
CIRCLE
8
JA
 10
5.08
 20
323.85025
 30
0
 40
0.585
 39
  0
0
CIRCLE
8
JA
 10
7.62
 20
323.85025
 30
0
 40
0.915
 39
  0
0
CIRCLE
8
JA
 10
2.54
 20
321.31024
 30
0
 40
0.915
 39
  0
0
CIRCLE
8
JA
 10
5.08
 20
321.31024
 30
0
 40
0.585
 39
  0
0
CIRCLE
8
JA
 10
2.54
 20
318.77023
 30
0
 40
0.915
 39
  0
0
CIRCLE
8
JA
 10
5.08
 20
318.77023
 30
0
 40
0.585
 39
  0
0
CIRCLE
8
JA
 10
5.08
 20
316.23022
 30
0
 40
0.585
 39
  0
0
CIRCLE
8
JA
 10
7.62
 20
316.23022
 30
0
 40
0.915
 39
  0
0
CIRCLE
8
JA
 10
5.08
 20
313.69022
 30
0
 40
0.585
 39
  0
0
CIRCLE
8
JA
 10
7.62
 20
313.69022
 30
0
 40
0.915
 39
  0
0
CIRCLE
8
JA
 10
5.08
 20
311.1502
 30
0
 40
0.585
 39
  0
0
CIRCLE
8
JA
 10
5.08
 20
308.6102
 30
0
 40
0.585
 39
  0
0
CIRCLE
8
JA
 10
7.62
 20
308.6102
 30
0
 40
0.915
 39
  0
0
CIRCLE
8
JA
 10
2.54
 20
306.0702
 30
0
 40
0.915
 39
  0
0
CIRCLE
8
JA
 10
5.08
 20
306.0702
 30
0
 40
0.585
 39
  0
0
CIRCLE
8
JA
 10
2.54
 20
303.53018
 30
0
 40
0.915
 39
  0
0
CIRCLE
8
JA
 10
5.08
 20
303.53018
 30
0
 40
0.585
 39
  0
0
CIRCLE
8
JA
 10
5.08
 20
300.99017
 30
0
 40
0.585
 39
  0
0
CIRCLE
8
JA
 10
7.62
 20
300.99017
 30
0
 40
0.915
 39
  0
0
CIRCLE
8
JA
 10
2.54
 20
298.45016
 30
0
 40
0.915
 39
  0
0
CIRCLE
8
JA
 10
5.08
 20
298.45016
 30
0
 40
0.585
 39
  0
0
CIRCLE
8
JA
 10
5.08
 20
295.91016
 30
0
 40
0.585
 39
  0
0
CIRCLE
8
JA
 10
7.62
 20
295.91016
 30
0
 40
0.915
 39
  0
0
CIRCLE
8
JA
 10
5.08
 20
293.37015
 30
0
 40
0.585
 39
  0
0
CIRCLE
8
JA
 10
5.08
 20
290.83014
 30
0
 40
0.585
 39
  0
0
CIRCLE
8
JA
 10
7.62
 20
290.83014
 30
0
 40
0.915
 39
  0
0
CIRCLE
8
JA
 10
2.54
 20
288.29013
 30
0
 40
0.915
 39
  0
0
CIRCLE
8
JA
 10
5.08
 20
288.29013
 30
0
 40
0.585
 39
  0
0
CIRCLE
8
JA
 10
5.08
 20
285.75012
 30
0
 40
0.585
 39
  0
0
CIRCLE
8
JA
 10
2.54
 20
283.2101
 30
0
 40
0.915
 39
  0
0
CIRCLE
8
JA
 10
5.08
 20
283.2101
 30
0
 40
0.585
 39
  0
0
CIRCLE
8
JA
 10
5.08
 20
280.6701
 30
0
 40
0.585
 39
  0
0
CIRCLE
8
JA
 10
7.62
 20
280.6701
 30
0
 40
0.915
 39
  0
0
CIRCLE
8
JA
 10
5.08
 20
278.1301
 30
0
 40
0.585
 39
  0
0
CIRCLE
8
JA
 10
7.62
 20
278.1301
 30
0
 40
0.915
 39
  0
0
CIRCLE
8
JA
 10
5.08
 20
275.5901
 30
0
 40
0.585
 39
  0
0
CIRCLE
8
JA
 10
7.62
 20
275.5901
 30
0
 40
0.915
 39
  0
0
CIRCLE
8
JA
 10
5.08
 20
273.05008
 30
0
 40
0.585
 39
  0
0
CIRCLE
8
JA
 10
2.54
 20
270.51007
 30
0
 40
0.915
 39
  0
0
CIRCLE
8
JA
 10
5.08
 20
270.51007
 30
0
 40
0.585
 39
  0
0
CIRCLE
8
JA
 10
5.08
 20
267.97006
 30
0
 40
0.585
 39
  0
0
CIRCLE
8
JA
 10
7.62
 20
267.97006
 30
0
 40
0.915
 39
  0
0
CIRCLE
8
JA
 10
2.54
 20
265.43005
 30
0
 40
0.915
 39
  0
0
CIRCLE
8
JA
 10
5.08
 20
265.43005
 30
0
 40
0.585
 39
  0
0
CIRCLE
8
JA
 10
5.08
 20
262.89005
 30
0
 40
0.585
 39
  0
0
CIRCLE
8
JA
 10
7.62
 20
262.89005
 30
0
 40
0.915
 39
  0
0
CIRCLE
8
JA
 10
5.08
 20
260.35004
 30
0
 40
0.585
 39
  0
0
CIRCLE
8
JA
 10
2.54
 20
257.81003
 30
0
 40
0.915
 39
  0
0
CIRCLE
8
JA
 10
5.08
 20
257.81003
 30
0
 40
0.585
 39
  0
0
CIRCLE
8
JA
 10
5.08
 20
255.27003
 30
0
 40
0.585
 39
  0
0
CIRCLE
8
JA
 10
7.62
 20
255.27003
 30
0
 40
0.915
 39
  0
0
CIRCLE
8
JA
 10
5.08
 20
252.73004
 30
0
 40
0.585
 39
  0
0
CIRCLE
8
JA
 10
7.62
 20
252.73004
 30
0
 40
0.915
 39
  0
0
CIRCLE
8
JA
 10
5.08
 20
250.19005
 30
0
 40
0.585
 39
  0
0
CIRCLE
8
JA
 10
5.08
 20
247.65005
 30
0
 40
0.585
 39
  0
0
CIRCLE
8
JA
 10
7.62
 20
247.65005
 30
0
 40
0.915
 39
  0
0
CIRCLE
8
JA
 10
5.08
 20
245.11006
 30
0
 40
0.585
 39
  0
0
CIRCLE
8
JA
 10
5.08
 20
242.57007
 30
0
 40
0.585
 39
  0
0
CIRCLE
8
JA
 10
7.62
 20
242.57007
 30
0
 40
0.915
 39
  0
0
CIRCLE
8
JA
 10
5.08
 20
240.03008
 30
0
 40
0.585
 39
  0
0
CIRCLE
8
JA
 10
7.62
 20
240.03008
 30
0
 40
0.915
 39
  0
0
CIRCLE
8
JA
 10
2.54
 20
237.49008
 30
0
 40
0.915
 39
  0
0
CIRCLE
8
JA
 10
5.08
 20
237.49008
 30
0
 40
0.585
 39
  0
0
CIRCLE
8
JA
 10
5.08
 20
234.95009
 30
0
 40
0.585
 39
  0
0
CIRCLE
8
JA
 10
7.62
 20
234.95009
 30
0
 40
0.915
 39
  0
0
CIRCLE
8
JA
 10
5.08
 20
232.4101
 30
0
 40
0.585
 39
  0
0
CIRCLE
8
JA
 10
2.54
 20
229.8701
 30
0
 40
0.915
 39
  0
0
CIRCLE
8
JA
 10
5.08
 20
229.8701
 30
0
 40
0.585
 39
  0
0
CIRCLE
8
JA
 10
2.54
 20
227.33011
 30
0
 40
0.915
 39
  0
0
CIRCLE
8
JA
 10
5.08
 20
227.33011
 30
0
 40
0.585
 39
  0
0
CIRCLE
8
JA
 10
5.08
 20
224.79012
 30
0
 40
0.585
 39
  0
0
CIRCLE
8
JA
 10
7.62
 20
224.79012
 30
0
 40
0.915
 39
  0
0
CIRCLE
8
JA
 10
5.08
 20
222.25012
 30
0
 40
0.585
 39
  0
0
CIRCLE
8
JA
 10
5.08
 20
219.71013
 30
0
 40
0.585
 39
  0
0
CIRCLE
8
JA
 10
7.62
 20
219.71013
 30
0
 40
0.915
 39
  0
0
CIRCLE
8
JA
 10
5.08
 20
217.17014
 30
0
 40
0.585
 39
  0
0
CIRCLE
8
JA
 10
7.62
 20
217.17014
 30
0
 40
0.915
 39
  0
0
CIRCLE
8
JA
 10
5.08
 20
214.63014
 30
0
 40
0.585
 39
  0
0
CIRCLE
8
JA
 10
7.62
 20
214.63014
 30
0
 40
0.915
 39
  0
0
CIRCLE
8
JA
 10
5.08
 20
212.09015
 30
0
 40
0.585
 39
  0
0
CIRCLE
8
JA
 10
7.62
 20
212.09015
 30
0
 40
0.915
 39
  0
0
CIRCLE
8
JA
 10
5.08
 20
209.55016
 30
0
 40
0.585
 39
  0
0
CIRCLE
8
JA
 10
5.08
 20
207.01016
 30
0
 40
0.585
 39
  0
0
CIRCLE
8
JA
 10
7.62
 20
207.01016
 30
0
 40
0.915
 39
  0
0
CIRCLE
8
JA
 10
5.08
 20
204.47017
 30
0
 40
0.585
 39
  0
0
CIRCLE
8
JA
 10
7.62
 20
204.47017
 30
0
 40
0.915
 39
  0
0
CIRCLE
8
JA
 10
5.08
 20
201.93018
 30
0
 40
0.585
 39
  0
0
CIRCLE
8
JA
 10
5.08
 20
199.39018
 30
0
 40
0.585
 39
  0
0
CIRCLE
8
JA
 10
7.62
 20
199.39018
 30
0
 40
0.915
 39
  0
0
CIRCLE
8
JA
 10
2.54
 20
196.85019
 30
0
 40
0.915
 39
  0
0
CIRCLE
8
JA
 10
5.08
 20
196.85019
 30
0
 40
0.585
 39
  0
0
CIRCLE
8
JA
 10
2.54
 20
194.3102
 30
0
 40
0.915
 39
  0
0
CIRCLE
8
JA
 10
5.08
 20
194.3102
 30
0
 40
0.585
 39
  0
0
CIRCLE
8
JA
 10
2.54
 20
191.7702
 30
0
 40
0.915
 39
  0
0
CIRCLE
8
JA
 10
5.08
 20
191.7702
 30
0
 40
0.585
 39
  0
0
CIRCLE
8
JA
 10
5.08
 20
189.23021
 30
0
 40
0.585
 39
  0
0
CIRCLE
8
JA
 10
2.54
 20
186.69022
 30
0
 40
0.915
 39
  0
0
CIRCLE
8
JA
 10
5.08
 20
186.69022
 30
0
 40
0.585
 39
  0
0
CIRCLE
8
JA
 10
5.08
 20
184.15022
 30
0
 40
0.585
 39
  0
0
CIRCLE
8
JA
 10
7.62
 20
184.15022
 30
0
 40
0.915
 39
  0
0
CIRCLE
8
JA
 10
2.54
 20
181.61023
 30
0
 40
0.915
 39
  0
0
CIRCLE
8
JA
 10
5.08
 20
181.61023
 30
0
 40
0.585
 39
  0
0
CIRCLE
8
JA
 10
5.08
 20
179.07024
 30
0
 40
0.585
 39
  0
0
CIRCLE
8
JA
 10
5.08
 20
176.53024
 30
0
 40
0.585
 39
  0
0
CIRCLE
8
JA
 10
7.62
 20
176.53024
 30
0
 40
0.915
 39
  0
0
CIRCLE
8
JA
 10
2.54
 20
173.99025
 30
0
 40
0.915
 39
  0
0
CIRCLE
8
JA
 10
5.08
 20
173.99025
 30
0
 40
0.585
 39
  0
0
CIRCLE
8
JA
 10
5.08
 20
171.45026
 30
0
 40
0.585
 39
  0
0
CIRCLE
8
JA
 10
7.62
 20
171.45026
 30
0
 40
0.915
 39
  0
0
CIRCLE
8
JA
 10
5.08
 20
168.91026
 30
0
 40
0.585
 39
  0
0
CIRCLE
8
JA
 10
7.62
 20
168.91026
 30
0
 40
0.915
 39
  0
0
CIRCLE
8
JA
 10
5.08
 20
166.37027
 30
0
 40
0.585
 39
  0
0
CIRCLE
8
JA
 10
2.54
 20
163.83028
 30
0
 40
0.915
 39
  0
0
CIRCLE
8
JA
 10
5.08
 20
163.83028
 30
0
 40
0.585
 39
  0
0
CIRCLE
8
JA
 10
2.54
 20
161.29028
 30
0
 40
0.915
 39
  0
0
CIRCLE
8
JA
 10
5.08
 20
161.29028
 30
0
 40
0.585
 39
  0
0
CIRCLE
8
JA
 10
5.08
 20
158.75029
 30
0
 40
0.585
 39
  0
0
CIRCLE
8
JA
 10
2.54
 20
156.2103
 30
0
 40
0.915
 39
  0
0
CIRCLE
8
JA
 10
5.08
 20
156.2103
 30
0
 40
0.585
 39
  0
0
CIRCLE
8
JA
 10
5.08
 20
153.6703
 30
0
 40
0.585
 39
  0
0
CIRCLE
8
JA
 10
7.62
 20
153.6703
 30
0
 40
0.915
 39
  0
0
CIRCLE
8
JA
 10
5.08
 20
151.13031
 30
0
 40
0.585
 39
  0
0
CIRCLE
8
JA
 10
2.54
 20
148.59032
 30
0
 40
0.915
 39
  0
0
CIRCLE
8
JA
 10
5.08
 20
148.59032
 30
0
 40
0.585
 39
  0
0
CIRCLE
8
JA
 10
2.54
 20
146.05032
 30
0
 40
0.915
 39
  0
0
CIRCLE
8
JA
 10
5.08
 20
146.05032
 30
0
 40
0.585
 39
  0
0
CIRCLE
8
JA
 10
2.54
 20
143.51033
 30
0
 40
0.915
 39
  0
0
CIRCLE
8
JA
 10
5.08
 20
143.51033
 30
0
 40
0.585
 39
  0
0
CIRCLE
8
JA
 10
5.08
 20
140.97034
 30
0
 40
0.585
 39
  0
0
CIRCLE
8
JA
 10
5.08
 20
138.43034
 30
0
 40
0.585
 39
  0
0
CIRCLE
8
JA
 10
7.62
 20
138.43034
 30
0
 40
0.915
 39
  0
0
CIRCLE
8
JA
 10
2.54
 20
135.89035
 30
0
 40
0.915
 39
  0
0
CIRCLE
8
JA
 10
5.08
 20
135.89035
 30
0
 40
0.585
 39
  0
0
CIRCLE
8
JA
 10
2.54
 20
133.35036
 30
0
 40
0.915
 39
  0
0
CIRCLE
8
JA
 10
5.08
 20
133.35036
 30
0
 40
0.585
 39
  0
0
CIRCLE
8
JA
 10
5.08
 20
130.81036
 30
0
 40
0.585
 39
  0
0
CIRCLE
8
JA
 10
7.62
 20
130.81036
 30
0
 40
0.915
 39
  0
0
CIRCLE
8
JA
 10
5.08
 20
128.27037
 30
0
 40
0.585
 39
  0
0
CIRCLE
8
JA
 10
2.54
 20
125.73037
 30
0
 40
0.915
 39
  0
0
CIRCLE
8
JA
 10
5.08
 20
125.73037
 30
0
 40
0.585
 39
  0
0
CIRCLE
8
JA
 10
2.54
 20
123.19037
 30
0
 40
0.915
 39
  0
0
CIRCLE
8
JA
 10
5.08
 20
123.19037
 30
0
 40
0.585
 39
  0
0
CIRCLE
8
JA
 10
5.08
 20
120.65037
 30
0
 40
0.585
 39
  0
0
CIRCLE
8
JA
 10
7.62
 20
120.65037
 30
0
 40
0.915
 39
  0
0
CIRCLE
8
JA
 10
2.54
 20
118.11037
 30
0
 40
0.915
 39
  0
0
CIRCLE
8
JA
 10
5.08
 20
118.11037
 30
0
 40
0.585
 39
  0
0
CIRCLE
8
JA
 10
5.08
 20
115.570366
 30
0
 40
0.585
 39
  0
0
CIRCLE
8
JA
 10
5.08
 20
113.030365
 30
0
 40
0.585
 39
  0
0
CIRCLE
8
JA
 10
7.62
 20
113.030365
 30
0
 40
0.915
 39
  0
0
CIRCLE
8
JA
 10
2.54
 20
110.490364
 30
0
 40
0.915
 39
  0
0
CIRCLE
8
JA
 10
5.08
 20
110.490364
 30
0
 40
0.585
 39
  0
0
CIRCLE
8
JA
 10
5.08
 20
107.95036
 30
0
 40
0.585
 39
  0
0
CIRCLE
8
JA
 10
7.62
 20
107.95036
 30
0
 40
0.915
 39
  0
0
CIRCLE
8
JA
 10
5.08
 20
105.41036
 30
0
 40
0.585
 39
  0
0
CIRCLE
8
JA
 10
5.08
 20
102.87036
 30
0
 40
0.585
 39
  0
0
CIRCLE
8
JA
 10
7.62
 20
102.87036
 30
0
 40
0.915
 39
  0
0
CIRCLE
8
JA
 10
5.08
 20
100.33036
 30
0
 40
0.585
 39
  0
0
CIRCLE
8
JA
 10
7.62
 20
100.33036
 30
0
 40
0.915
 39
  0
0
CIRCLE
8
JA
 10
5.08
 20
97.79036
 30
0
 40
0.585
 39
  0
0
CIRCLE
8
JA
 10
7.62
 20
97.79036
 30
0
 40
0.915
 39
  0
0
CIRCLE
8
JA
 10
5.08
 20
95.25036
 30
0
 40
0.585
 39
  0
0
CIRCLE
8
JA
 10
2.54
 20
92.71036
 30
0
 40
0.915
 39
  0
0
CIRCLE
8
JA
 10
5.08
 20
92.71036
 30
0
 40
0.585
 39
  0
0
CIRCLE
8
JA
 10
5.08
 20
90.17036
 30
0
 40
0.585
 39
  0
0
CIRCLE
8
JA
 10
5.08
 20
87.630356
 30
0
 40
0.585
 39
  0
0
CIRCLE
8
JA
 10
7.62
 20
87.630356
 30
0
 40
0.915
 39
  0
0
CIRCLE
8
JA
 10
5.08
 20
85.090355
 30
0
 40
0.585
 39
  0
0
CIRCLE
8
JA
 10
7.62
 20
85.090355
 30
0
 40
0.915
 39
  0
0
CIRCLE
8
JA
 10
2.54
 20
82.550354
 30
0
 40
0.915
 39
  0
0
CIRCLE
8
JA
 10
5.08
 20
82.550354
 30
0
 40
0.585
 39
  0
0
CIRCLE
8
JA
 10
5.08
 20
80.01035
 30
0
 40
0.585
 39
  0
0
CIRCLE
8
JA
 10
5.08
 20
77.47035
 30
0
 40
0.585
 39
  0
0
CIRCLE
8
JA
 10
7.62
 20
77.47035
 30
0
 40
0.915
 39
  0
0
CIRCLE
8
JA
 10
5.08
 20
74.93035
 30
0
 40
0.585
 39
  0
0
CIRCLE
8
JA
 10
7.62
 20
74.93035
 30
0
 40
0.915
 39
  0
0
CIRCLE
8
JA
 10
5.08
 20
72.39035
 30
0
 40
0.585
 39
  0
0
CIRCLE
8
JA
 10
7.62
 20
72.39035
 30
0
 40
0.915
 39
  0
0
CIRCLE
8
JA
 10
2.54
 20
69.85035
 30
0
 40
0.915
 39
  0
0
CIRCLE
8
JA
 10
5.08
 20
69.85035
 30
0
 40
0.585
 39
  0
0
CIRCLE
8
JA
 10
5.08
 20
67.31035
 30
0
 40
0.585
 39
  0
0
CIRCLE
8
JA
 10
5.08
 20
64.77035
 30
0
 40
0.585
 39
  0
0
CIRCLE
8
JA
 10
7.62
 20
64.77035
 30
0
 40
0.915
 39
  0
0
CIRCLE
8
JA
 10
2.54
 20
62.230347
 30
0
 40
0.915
 39
  0
0
CIRCLE
8
JA
 10
5.08
 20
62.230347
 30
0
 40
0.585
 39
  0
0
CIRCLE
8
JA
 10
2.54
 20
59.690346
 30
0
 40
0.915
 39
  0
0
CIRCLE
8
JA
 10
5.08
 20
59.690346
 30
0
 40
0.585
 39
  0
0
CIRCLE
8
JA
 10
5.08
 20
57.150345
 30
0
 40
0.585
 39
  0
0
CIRCLE
8
JA
 10
2.54
 20
54.610344
 30
0
 40
0.915
 39
  0
0
CIRCLE
8
JA
 10
5.08
 20
54.610344
 30
0
 40
0.585
 39
  0
0
CIRCLE
8
JA
 10
5.08
 20
52.070343
 30
0
 40
0.585
 39
  0
0
CIRCLE
8
JA
 10
7.62
 20
52.070343
 30
0
 40
0.915
 39
  0
0
CIRCLE
8
JA
 10
5.08
 20
49.530342
 30
0
 40
0.585
 39
  0
0
CIRCLE
8
JA
 10
7.62
 20
49.530342
 30
0
 40
0.915
 39
  0
0
CIRCLE
8
JA
 10
2.54
 20
46.99034
 30
0
 40
0.915
 39
  0
0
CIRCLE
8
JA
 10
5.08
 20
46.99034
 30
0
 40
0.585
 39
  0
0
CIRCLE
8
JA
 10
5.08
 20
44.45034
 30
0
 40
0.585
 39
  0
0
CIRCLE
8
JA
 10
2.54
 20
41.91034
 30
0
 40
0.915
 39
  0
0
CIRCLE
8
JA
 10
5.08
 20
41.91034
 30
0
 40
0.585
 39
  0
0
CIRCLE
8
JA
 10
5.08
 20
39.37034
 30
0
 40
0.585
 39
  0
0
CIRCLE
8
JA
 10
7.62
 20
39.37034
 30
0
 40
0.915
 39
  0
0
CIRCLE
8
JA
 10
2.54
 20
36.830338
 30
0
 40
0.915
 39
  0
0
CIRCLE
8
JA
 10
5.08
 20
36.830338
 30
0
 40
0.585
 39
  0
0
CIRCLE
8
JA
 10
2.54
 20
34.290337
 30
0
 40
0.915
 39
  0
0
CIRCLE
8
JA
 10
5.08
 20
34.290337
 30
0
 40
0.585
 39
  0
0
CIRCLE
8
JA
 10
5.08
 20
31.750336
 30
0
 40
0.585
 39
  0
0
CIRCLE
8
JA
 10
2.54
 20
29.210335
 30
0
 40
0.915
 39
  0
0
CIRCLE
8
JA
 10
5.08
 20
29.210335
 30
0
 40
0.585
 39
  0
0
CIRCLE
8
JA
 10
2.54
 20
26.670334
 30
0
 40
0.915
 39
  0
0
CIRCLE
8
JA
 10
5.08
 20
26.670334
 30
0
 40
0.585
 39
  0
0
CIRCLE
8
JA
 10
5.08
 20
24.130333
 30
0
 40
0.585
 39
  0
0
CIRCLE
8
JA
 10
7.62
 20
24.130333
 30
0
 40
0.915
 39
  0
0
CIRCLE
8
JA
 10
5.08
 20
21.590332
 30
0
 40
0.585
 39
  0
0
CIRCLE
8
JA
 10
7.62
 20
21.590332
 30
0
 40
0.915
 39
  0
0
CIRCLE
8
JA
 10
5.08
 20
19.050331
 30
0
 40
0.585
 39
  0
0
CIRCLE
8
JA
 10
5.08
 20
16.51033
 30
0
 40
0.585
 39
  0
0
CIRCLE
8
JA
 10
7.62
 20
16.51033
 30
0
 40
0.915
 39
  0
0
CIRCLE
8
JA
 10
5.08
 20
13.97033
 30
0
 40
0.585
 39
  0
0
CIRCLE
8
JA
 10
7.62
 20
13.97033
 30
0
 40
0.915
 39
  0
0
CIRCLE
8
JA
 10
2.54
 20
11.43033
 30
0
 40
0.915
 39
  0
0
CIRCLE
8
JA
 10
5.08
 20
11.43033
 30
0
 40
0.585
 39
  0
0
CIRCLE
8
JA
 10
2.54
 20
8.89033
 30
0
 40
0.915
 39
  0
0
CIRCLE
8
JA
 10
5.08
 20
8.89033
 30
0
 40
0.585
 39
  0
0
CIRCLE
8
JA
 10
5.08
 20
6.3503304
 30
0
 40
0.585
 39
  0
0
CIRCLE
8
JA
 10
7.62
 20
6.3503304
 30
0
 40
0.915
 39
  0
0
CIRCLE
8
JA
 10
2.54
 20
3.8103304
 30
0
 40
0.915
 39
  0
0
CIRCLE
8
JA
 10
5.08
 20
3.8103304
 30
0
 40
0.585
 39
  0
0
CIRCLE
8
JA
 10
5.08
 20
1.2703304
 30
0
 40
0.585
 39
  0
0
ENDSEC
  0
EOF
