  0
SECTION
  2
HEADER
  9
$ACADVER
  1
AC1009
  9
$INSBASE
 10
0.0
 20
0.0
 30
0.0
  9
$EXTMIN
 10
  0
 20
  0
 30
  0
  9
$EXTMAX
 10
368
 20
326
 30
0.0
  9
$LIMMIN
 10
0.0
 20
0.0
  9
$LIMMAX
 10
100.0
 20
100.0
  9
$ORTHOMODE
 70
     1
  9
$DIMSCALE
 40
1
  9
$DIMSTYLE
  2
STANDARD
  9
$FILLETRAD
 40
0.0
  9
$PSLTSCALE
 70
     1
  0
ENDSEC
  0
SECTION
  2
TABLES
  0
TABLE
  2
VPORT
 70
     2
  0
VPORT
  2
*ACTIVE
 70
     0
 10
0.0
 20
0.0
 11
1.0
 21
1.0
 12
50.0
 22
50.0
 13
0.0
 23
0.0
 14
1.0
 24
1.0
 15
0.0
 25
0.0
 16
0.0
 26
0.0
 36
1.0
 17
0.0
 27
0.0
 37
0.0
 40
100.0
 41
1.55
 42
50.0
 43
0.0
 44
0.0
 50
0.0
 51
0.0
 71
     0
 72
   100
 73
     1
 74
     1
 75
     0
 76
     0
 77
     0
 78
     0
  0
ENDTAB
  0
TABLE
  2
LTYPE
 70
     1
  0
LTYPE
  2
CONTINUOUS
  70
     0
  3
Solid Line
 72
    65
 73
     0
 40
0.0
  0
ENDTAB
  0
TABLE
  2
LAYER
 70
     3
  0
LAYER
  2
0
 70
     0
 62
     7
  6
CONTINUOUS
  0
LAYER
  2
JA
 70
     0
 62
     7
  6
CONTINUOUS
  0
LAYER
  2
DEFPOINTS
 70
     0
 62
     7
 6
CONTINUOUS
  0
ENDTAB
  0
TABLE
  2
VIEW
 70
     0
  0
ENDTAB
  0
TABLE
  2
DIMSTYLE
 70
     1
  0
DIMSTYLE
  2
STANDARD
 70
     0
  3

  4

  5

  6

  7

 40
1.0
 41
0.125
 42
0.04
 43
0.25
 44
0.125
 45
0.0
 46
0.0
 47
0.0
 48
0.0
140
0.125
141
0.06
142
0.0
143
25.4
144
1.0
145
0.0
146
1.0
147
0.09
 71
     0
 72
     0
 73
     1
 74
     1
 75
     0
 76
     0
 77
     0
 78
     0
170
     0
171
     2
172
     0
173
     0
174
     0
175
     0
176
     0
177
     0
178
     0
  0
ENDTAB
  0
ENDSEC
  0
SECTION
  2
BLOCKS
  0
ENDSEC
  0
SECTION
  2
ENTITIES
  0
LINE
8
JA
 10
0
 20
0
 30
0
 11
0
 21
205.73999
 31
0
0
LINE
8
JA
 10
10.16
 20
0
 30
0
 11
10.16
 21
205.73999
 31
0
0
LINE
8
JA
 10
0
 20
205.73999
 30
0
 11
10.16
 21
205.73999
 31
0
0
LINE
8
JA
 10
0
 20
0
 30
0
 11
10.16
 21
0
 31
0
0
LINE
8
JA
 10
0
 20
205.73999
 30
7
 11
10.16
 21
205.73999
 31
0
0
CIRCLE
8
JA
 10
5.08
 20
204.46999
 30
0
 40
0.585
 39
  0
0
CIRCLE
8
JA
 10
7.62
 20
204.46999
 30
0
 40
0.915
 39
  0
0
CIRCLE
8
JA
 10
2.54
 20
201.93
 30
0
 40
0.915
 39
  0
0
CIRCLE
8
JA
 10
5.08
 20
201.93
 30
0
 40
0.585
 39
  0
0
CIRCLE
8
JA
 10
2.54
 20
199.39
 30
0
 40
0.915
 39
  0
0
CIRCLE
8
JA
 10
5.08
 20
199.39
 30
0
 40
0.585
 39
  0
0
CIRCLE
8
JA
 10
7.62
 20
199.39
 30
0
 40
0.915
 39
  0
0
CIRCLE
8
JA
 10
5.08
 20
196.85
 30
0
 40
0.585
 39
  0
0
CIRCLE
8
JA
 10
7.62
 20
196.85
 30
0
 40
0.915
 39
  0
0
CIRCLE
8
JA
 10
2.54
 20
194.31001
 30
0
 40
0.915
 39
  0
0
CIRCLE
8
JA
 10
5.08
 20
194.31001
 30
0
 40
0.585
 39
  0
0
CIRCLE
8
JA
 10
2.54
 20
191.77002
 30
0
 40
0.915
 39
  0
0
CIRCLE
8
JA
 10
5.08
 20
191.77002
 30
0
 40
0.585
 39
  0
0
CIRCLE
8
JA
 10
7.62
 20
191.77002
 30
0
 40
0.915
 39
  0
0
CIRCLE
8
JA
 10
5.08
 20
189.23003
 30
0
 40
0.585
 39
  0
0
CIRCLE
8
JA
 10
5.08
 20
186.69003
 30
0
 40
0.585
 39
  0
0
CIRCLE
8
JA
 10
7.62
 20
186.69003
 30
0
 40
0.915
 39
  0
0
CIRCLE
8
JA
 10
2.54
 20
184.15004
 30
0
 40
0.915
 39
  0
0
CIRCLE
8
JA
 10
5.08
 20
184.15004
 30
0
 40
0.585
 39
  0
0
CIRCLE
8
JA
 10
5.08
 20
181.61005
 30
0
 40
0.585
 39
  0
0
CIRCLE
8
JA
 10
7.62
 20
181.61005
 30
0
 40
0.915
 39
  0
0
CIRCLE
8
JA
 10
2.54
 20
179.07005
 30
0
 40
0.915
 39
  0
0
CIRCLE
8
JA
 10
5.08
 20
179.07005
 30
0
 40
0.585
 39
  0
0
CIRCLE
8
JA
 10
2.54
 20
176.53006
 30
0
 40
0.915
 39
  0
0
CIRCLE
8
JA
 10
5.08
 20
176.53006
 30
0
 40
0.585
 39
  0
0
CIRCLE
8
JA
 10
7.62
 20
176.53006
 30
0
 40
0.915
 39
  0
0
CIRCLE
8
JA
 10
5.08
 20
173.99007
 30
0
 40
0.585
 39
  0
0
CIRCLE
8
JA
 10
7.62
 20
173.99007
 30
0
 40
0.915
 39
  0
0
CIRCLE
8
JA
 10
2.54
 20
171.45007
 30
0
 40
0.915
 39
  0
0
CIRCLE
8
JA
 10
5.08
 20
171.45007
 30
0
 40
0.585
 39
  0
0
CIRCLE
8
JA
 10
5.08
 20
168.91008
 30
0
 40
0.585
 39
  0
0
CIRCLE
8
JA
 10
5.08
 20
166.37009
 30
0
 40
0.585
 39
  0
0
CIRCLE
8
JA
 10
7.62
 20
166.37009
 30
0
 40
0.915
 39
  0
0
CIRCLE
8
JA
 10
2.54
 20
163.8301
 30
0
 40
0.915
 39
  0
0
CIRCLE
8
JA
 10
5.08
 20
163.8301
 30
0
 40
0.585
 39
  0
0
CIRCLE
8
JA
 10
2.54
 20
161.2901
 30
0
 40
0.915
 39
  0
0
CIRCLE
8
JA
 10
5.08
 20
161.2901
 30
0
 40
0.585
 39
  0
0
CIRCLE
8
JA
 10
7.62
 20
161.2901
 30
0
 40
0.915
 39
  0
0
CIRCLE
8
JA
 10
2.54
 20
158.7501
 30
0
 40
0.915
 39
  0
0
CIRCLE
8
JA
 10
5.08
 20
158.7501
 30
0
 40
0.585
 39
  0
0
CIRCLE
8
JA
 10
7.62
 20
158.7501
 30
0
 40
0.915
 39
  0
0
CIRCLE
8
JA
 10
5.08
 20
156.21011
 30
0
 40
0.585
 39
  0
0
CIRCLE
8
JA
 10
5.08
 20
153.67012
 30
0
 40
0.585
 39
  0
0
CIRCLE
8
JA
 10
5.08
 20
151.13013
 30
0
 40
0.585
 39
  0
0
CIRCLE
8
JA
 10
5.08
 20
148.59013
 30
0
 40
0.585
 39
  0
0
CIRCLE
8
JA
 10
7.62
 20
148.59013
 30
0
 40
0.915
 39
  0
0
CIRCLE
8
JA
 10
2.54
 20
146.05014
 30
0
 40
0.915
 39
  0
0
CIRCLE
8
JA
 10
5.08
 20
146.05014
 30
0
 40
0.585
 39
  0
0
CIRCLE
8
JA
 10
5.08
 20
143.51015
 30
0
 40
0.585
 39
  0
0
CIRCLE
8
JA
 10
2.54
 20
140.97015
 30
0
 40
0.915
 39
  0
0
CIRCLE
8
JA
 10
5.08
 20
140.97015
 30
0
 40
0.585
 39
  0
0
CIRCLE
8
JA
 10
7.62
 20
140.97015
 30
0
 40
0.915
 39
  0
0
CIRCLE
8
JA
 10
2.54
 20
138.43016
 30
0
 40
0.915
 39
  0
0
CIRCLE
8
JA
 10
5.08
 20
138.43016
 30
0
 40
0.585
 39
  0
0
CIRCLE
8
JA
 10
7.62
 20
138.43016
 30
0
 40
0.915
 39
  0
0
CIRCLE
8
JA
 10
5.08
 20
135.89017
 30
0
 40
0.585
 39
  0
0
CIRCLE
8
JA
 10
5.08
 20
133.35017
 30
0
 40
0.585
 39
  0
0
CIRCLE
8
JA
 10
7.62
 20
133.35017
 30
0
 40
0.915
 39
  0
0
CIRCLE
8
JA
 10
2.54
 20
130.81018
 30
0
 40
0.915
 39
  0
0
CIRCLE
8
JA
 10
5.08
 20
130.81018
 30
0
 40
0.585
 39
  0
0
CIRCLE
8
JA
 10
5.08
 20
128.27019
 30
0
 40
0.585
 39
  0
0
CIRCLE
8
JA
 10
2.54
 20
125.73019
 30
0
 40
0.915
 39
  0
0
CIRCLE
8
JA
 10
5.08
 20
125.73019
 30
0
 40
0.585
 39
  0
0
CIRCLE
8
JA
 10
7.62
 20
125.73019
 30
0
 40
0.915
 39
  0
0
CIRCLE
8
JA
 10
5.08
 20
123.190186
 30
0
 40
0.585
 39
  0
0
CIRCLE
8
JA
 10
7.62
 20
123.190186
 30
0
 40
0.915
 39
  0
0
CIRCLE
8
JA
 10
2.54
 20
120.650185
 30
0
 40
0.915
 39
  0
0
CIRCLE
8
JA
 10
5.08
 20
120.650185
 30
0
 40
0.585
 39
  0
0
CIRCLE
8
JA
 10
5.08
 20
118.11018
 30
0
 40
0.585
 39
  0
0
CIRCLE
8
JA
 10
5.08
 20
115.57018
 30
0
 40
0.585
 39
  0
0
CIRCLE
8
JA
 10
7.62
 20
115.57018
 30
0
 40
0.915
 39
  0
0
CIRCLE
8
JA
 10
2.54
 20
113.03018
 30
0
 40
0.915
 39
  0
0
CIRCLE
8
JA
 10
5.08
 20
113.03018
 30
0
 40
0.585
 39
  0
0
CIRCLE
8
JA
 10
2.54
 20
110.49018
 30
0
 40
0.915
 39
  0
0
CIRCLE
8
JA
 10
5.08
 20
110.49018
 30
0
 40
0.585
 39
  0
0
CIRCLE
8
JA
 10
7.62
 20
110.49018
 30
0
 40
0.915
 39
  0
0
CIRCLE
8
JA
 10
5.08
 20
107.95018
 30
0
 40
0.585
 39
  0
0
CIRCLE
8
JA
 10
2.54
 20
105.41018
 30
0
 40
0.915
 39
  0
0
CIRCLE
8
JA
 10
5.08
 20
105.41018
 30
0
 40
0.585
 39
  0
0
CIRCLE
8
JA
 10
7.62
 20
105.41018
 30
0
 40
0.915
 39
  0
0
CIRCLE
8
JA
 10
2.54
 20
102.87018
 30
0
 40
0.915
 39
  0
0
CIRCLE
8
JA
 10
5.08
 20
102.87018
 30
0
 40
0.585
 39
  0
0
CIRCLE
8
JA
 10
7.62
 20
102.87018
 30
0
 40
0.915
 39
  0
0
CIRCLE
8
JA
 10
5.08
 20
100.33018
 30
0
 40
0.585
 39
  0
0
CIRCLE
8
JA
 10
5.08
 20
97.79018
 30
0
 40
0.585
 39
  0
0
CIRCLE
8
JA
 10
7.62
 20
97.79018
 30
0
 40
0.915
 39
  0
0
CIRCLE
8
JA
 10
2.54
 20
95.250175
 30
0
 40
0.915
 39
  0
0
CIRCLE
8
JA
 10
5.08
 20
95.250175
 30
0
 40
0.585
 39
  0
0
CIRCLE
8
JA
 10
2.54
 20
92.710175
 30
0
 40
0.915
 39
  0
0
CIRCLE
8
JA
 10
5.08
 20
92.710175
 30
0
 40
0.585
 39
  0
0
CIRCLE
8
JA
 10
7.62
 20
92.710175
 30
0
 40
0.915
 39
  0
0
CIRCLE
8
JA
 10
5.08
 20
90.17017
 30
0
 40
0.585
 39
  0
0
CIRCLE
8
JA
 10
7.62
 20
90.17017
 30
0
 40
0.915
 39
  0
0
CIRCLE
8
JA
 10
2.54
 20
87.63017
 30
0
 40
0.915
 39
  0
0
CIRCLE
8
JA
 10
5.08
 20
87.63017
 30
0
 40
0.585
 39
  0
0
CIRCLE
8
JA
 10
2.54
 20
85.09017
 30
0
 40
0.915
 39
  0
0
CIRCLE
8
JA
 10
5.08
 20
85.09017
 30
0
 40
0.585
 39
  0
0
CIRCLE
8
JA
 10
7.62
 20
85.09017
 30
0
 40
0.915
 39
  0
0
CIRCLE
8
JA
 10
5.08
 20
82.55017
 30
0
 40
0.585
 39
  0
0
CIRCLE
8
JA
 10
5.08
 20
80.01017
 30
0
 40
0.585
 39
  0
0
CIRCLE
8
JA
 10
5.08
 20
77.47017
 30
0
 40
0.585
 39
  0
0
CIRCLE
8
JA
 10
2.54
 20
74.93017
 30
0
 40
0.915
 39
  0
0
CIRCLE
8
JA
 10
5.08
 20
74.93017
 30
0
 40
0.585
 39
  0
0
CIRCLE
8
JA
 10
7.62
 20
74.93017
 30
0
 40
0.915
 39
  0
0
CIRCLE
8
JA
 10
2.54
 20
72.39017
 30
0
 40
0.915
 39
  0
0
CIRCLE
8
JA
 10
5.08
 20
72.39017
 30
0
 40
0.585
 39
  0
0
CIRCLE
8
JA
 10
7.62
 20
72.39017
 30
0
 40
0.915
 39
  0
0
CIRCLE
8
JA
 10
2.54
 20
69.85017
 30
0
 40
0.915
 39
  0
0
CIRCLE
8
JA
 10
5.08
 20
69.85017
 30
0
 40
0.585
 39
  0
0
CIRCLE
8
JA
 10
7.62
 20
69.85017
 30
0
 40
0.915
 39
  0
0
CIRCLE
8
JA
 10
5.08
 20
67.310165
 30
0
 40
0.585
 39
  0
0
CIRCLE
8
JA
 10
2.54
 20
64.770164
 30
0
 40
0.915
 39
  0
0
CIRCLE
8
JA
 10
5.08
 20
64.770164
 30
0
 40
0.585
 39
  0
0
CIRCLE
8
JA
 10
7.62
 20
64.770164
 30
0
 40
0.915
 39
  0
0
CIRCLE
8
JA
 10
2.54
 20
62.230164
 30
0
 40
0.915
 39
  0
0
CIRCLE
8
JA
 10
5.08
 20
62.230164
 30
0
 40
0.585
 39
  0
0
CIRCLE
8
JA
 10
7.62
 20
62.230164
 30
0
 40
0.915
 39
  0
0
CIRCLE
8
JA
 10
5.08
 20
59.690163
 30
0
 40
0.585
 39
  0
0
CIRCLE
8
JA
 10
5.08
 20
57.15016
 30
0
 40
0.585
 39
  0
0
CIRCLE
8
JA
 10
7.62
 20
57.15016
 30
0
 40
0.915
 39
  0
0
CIRCLE
8
JA
 10
2.54
 20
54.61016
 30
0
 40
0.915
 39
  0
0
CIRCLE
8
JA
 10
5.08
 20
54.61016
 30
0
 40
0.585
 39
  0
0
CIRCLE
8
JA
 10
2.54
 20
52.07016
 30
0
 40
0.915
 39
  0
0
CIRCLE
8
JA
 10
5.08
 20
52.07016
 30
0
 40
0.585
 39
  0
0
CIRCLE
8
JA
 10
7.62
 20
52.07016
 30
0
 40
0.915
 39
  0
0
CIRCLE
8
JA
 10
5.08
 20
49.53016
 30
0
 40
0.585
 39
  0
0
CIRCLE
8
JA
 10
5.08
 20
46.990158
 30
0
 40
0.585
 39
  0
0
CIRCLE
8
JA
 10
7.62
 20
46.990158
 30
0
 40
0.915
 39
  0
0
CIRCLE
8
JA
 10
2.54
 20
44.450157
 30
0
 40
0.915
 39
  0
0
CIRCLE
8
JA
 10
5.08
 20
44.450157
 30
0
 40
0.585
 39
  0
0
CIRCLE
8
JA
 10
2.54
 20
41.910156
 30
0
 40
0.915
 39
  0
0
CIRCLE
8
JA
 10
5.08
 20
41.910156
 30
0
 40
0.585
 39
  0
0
CIRCLE
8
JA
 10
7.62
 20
41.910156
 30
0
 40
0.915
 39
  0
0
CIRCLE
8
JA
 10
5.08
 20
39.370155
 30
0
 40
0.585
 39
  0
0
CIRCLE
8
JA
 10
7.62
 20
39.370155
 30
0
 40
0.915
 39
  0
0
CIRCLE
8
JA
 10
2.54
 20
36.830154
 30
0
 40
0.915
 39
  0
0
CIRCLE
8
JA
 10
5.08
 20
36.830154
 30
0
 40
0.585
 39
  0
0
CIRCLE
8
JA
 10
5.08
 20
34.290154
 30
0
 40
0.585
 39
  0
0
CIRCLE
8
JA
 10
2.54
 20
31.750153
 30
0
 40
0.915
 39
  0
0
CIRCLE
8
JA
 10
5.08
 20
31.750153
 30
0
 40
0.585
 39
  0
0
CIRCLE
8
JA
 10
7.62
 20
31.750153
 30
0
 40
0.915
 39
  0
0
CIRCLE
8
JA
 10
2.54
 20
29.210152
 30
0
 40
0.915
 39
  0
0
CIRCLE
8
JA
 10
5.08
 20
29.210152
 30
0
 40
0.585
 39
  0
0
CIRCLE
8
JA
 10
7.62
 20
29.210152
 30
0
 40
0.915
 39
  0
0
CIRCLE
8
JA
 10
5.08
 20
26.67015
 30
0
 40
0.585
 39
  0
0
CIRCLE
8
JA
 10
5.08
 20
24.13015
 30
0
 40
0.585
 39
  0
0
CIRCLE
8
JA
 10
7.62
 20
24.13015
 30
0
 40
0.915
 39
  0
0
CIRCLE
8
JA
 10
2.54
 20
21.590149
 30
0
 40
0.915
 39
  0
0
CIRCLE
8
JA
 10
5.08
 20
21.590149
 30
0
 40
0.585
 39
  0
0
CIRCLE
8
JA
 10
2.54
 20
19.050148
 30
0
 40
0.915
 39
  0
0
CIRCLE
8
JA
 10
5.08
 20
19.050148
 30
0
 40
0.585
 39
  0
0
CIRCLE
8
JA
 10
7.62
 20
19.050148
 30
0
 40
0.915
 39
  0
0
CIRCLE
8
JA
 10
5.08
 20
16.510147
 30
0
 40
0.585
 39
  0
0
CIRCLE
8
JA
 10
5.08
 20
13.970147
 30
0
 40
0.585
 39
  0
0
CIRCLE
8
JA
 10
7.62
 20
13.970147
 30
0
 40
0.915
 39
  0
0
CIRCLE
8
JA
 10
2.54
 20
11.430147
 30
0
 40
0.915
 39
  0
0
CIRCLE
8
JA
 10
5.08
 20
11.430147
 30
0
 40
0.585
 39
  0
0
CIRCLE
8
JA
 10
5.08
 20
8.890147
 30
0
 40
0.585
 39
  0
0
CIRCLE
8
JA
 10
7.62
 20
8.890147
 30
0
 40
0.915
 39
  0
0
CIRCLE
8
JA
 10
2.54
 20
6.3501472
 30
0
 40
0.915
 39
  0
0
CIRCLE
8
JA
 10
5.08
 20
6.3501472
 30
0
 40
0.585
 39
  0
0
CIRCLE
8
JA
 10
2.54
 20
3.8101473
 30
0
 40
0.915
 39
  0
0
CIRCLE
8
JA
 10
5.08
 20
3.8101473
 30
0
 40
0.585
 39
  0
0
CIRCLE
8
JA
 10
7.62
 20
3.8101473
 30
0
 40
0.915
 39
  0
0
CIRCLE
8
JA
 10
5.08
 20
1.2701473
 30
0
 40
0.585
 39
  0
0
ENDSEC
  0
EOF
