  0
SECTION
  2
HEADER
  9
$ACADVER
  1
AC1009
  9
$INSBASE
 10
0.0
 20
0.0
 30
0.0
  9
$EXTMIN
 10
  0
 20
  0
 30
  0
  9
$EXTMAX
 10
368
 20
326
 30
0.0
  9
$LIMMIN
 10
0.0
 20
0.0
  9
$LIMMAX
 10
100.0
 20
100.0
  9
$ORTHOMODE
 70
     1
  9
$DIMSCALE
 40
1
  9
$DIMSTYLE
  2
STANDARD
  9
$FILLETRAD
 40
0.0
  9
$PSLTSCALE
 70
     1
  0
ENDSEC
  0
SECTION
  2
TABLES
  0
TABLE
  2
VPORT
 70
     2
  0
VPORT
  2
*ACTIVE
 70
     0
 10
0.0
 20
0.0
 11
1.0
 21
1.0
 12
50.0
 22
50.0
 13
0.0
 23
0.0
 14
1.0
 24
1.0
 15
0.0
 25
0.0
 16
0.0
 26
0.0
 36
1.0
 17
0.0
 27
0.0
 37
0.0
 40
100.0
 41
1.55
 42
50.0
 43
0.0
 44
0.0
 50
0.0
 51
0.0
 71
     0
 72
   100
 73
     1
 74
     1
 75
     0
 76
     0
 77
     0
 78
     0
  0
ENDTAB
  0
TABLE
  2
LTYPE
 70
     1
  0
LTYPE
  2
CONTINUOUS
  70
     0
  3
Solid Line
 72
    65
 73
     0
 40
0.0
  0
ENDTAB
  0
TABLE
  2
LAYER
 70
     3
  0
LAYER
  2
0
 70
     0
 62
     7
  6
CONTINUOUS
  0
LAYER
  2
JA
 70
     0
 62
     7
  6
CONTINUOUS
  0
LAYER
  2
DEFPOINTS
 70
     0
 62
     7
 6
CONTINUOUS
  0
ENDTAB
  0
TABLE
  2
VIEW
 70
     0
  0
ENDTAB
  0
TABLE
  2
DIMSTYLE
 70
     1
  0
DIMSTYLE
  2
STANDARD
 70
     0
  3

  4

  5

  6

  7

 40
1.0
 41
0.125
 42
0.04
 43
0.25
 44
0.125
 45
0.0
 46
0.0
 47
0.0
 48
0.0
140
0.125
141
0.06
142
0.0
143
25.4
144
1.0
145
0.0
146
1.0
147
0.09
 71
     0
 72
     0
 73
     1
 74
     1
 75
     0
 76
     0
 77
     0
 78
     0
170
     0
171
     2
172
     0
173
     0
174
     0
175
     0
176
     0
177
     0
178
     0
  0
ENDTAB
  0
ENDSEC
  0
SECTION
  2
BLOCKS
  0
ENDSEC
  0
SECTION
  2
ENTITIES
  0
LINE
8
JA
 10
0
 20
0
 30
0
 11
0
 21
642.62
 31
0
0
LINE
8
JA
 10
22.225
 20
0
 30
0
 11
22.225
 21
642.62
 31
0
0
LINE
8
JA
 10
0
 20
642.62
 30
0
 11
22.225
 21
642.62
 31
0
0
LINE
8
JA
 10
0
 20
0
 30
0
 11
22.225
 21
0
 31
0
0
LINE
8
JA
 10
0
 20
642.62
 30
7
 11
22.225
 21
642.62
 31
0
0
CIRCLE
8
JA
 10
5.08
 20
641.35
 30
0
 40
0.915
 39
  0
0
CIRCLE
8
JA
 10
7.62
 20
641.35
 30
0
 40
0.915
 39
  0
0
CIRCLE
8
JA
 10
10.16
 20
641.35
 30
0
 40
0.915
 39
  0
0
CIRCLE
8
JA
 10
12.7
 20
641.35
 30
0
 40
0.585
 39
  0
0
CIRCLE
8
JA
 10
15.24
 20
641.35
 30
0
 40
0.915
 39
  0
0
CIRCLE
8
JA
 10
5.08
 20
638.81
 30
0
 40
0.915
 39
  0
0
CIRCLE
8
JA
 10
12.7
 20
638.81
 30
0
 40
0.585
 39
  0
0
CIRCLE
8
JA
 10
17.779999
 20
638.81
 30
0
 40
0.915
 39
  0
0
CIRCLE
8
JA
 10
5.08
 20
636.27
 30
0
 40
0.915
 39
  0
0
CIRCLE
8
JA
 10
12.7
 20
636.27
 30
0
 40
0.585
 39
  0
0
CIRCLE
8
JA
 10
17.779999
 20
636.27
 30
0
 40
0.915
 39
  0
0
CIRCLE
8
JA
 10
5.08
 20
633.73004
 30
0
 40
0.915
 39
  0
0
CIRCLE
8
JA
 10
7.62
 20
633.73004
 30
0
 40
0.915
 39
  0
0
CIRCLE
8
JA
 10
10.16
 20
633.73004
 30
0
 40
0.915
 39
  0
0
CIRCLE
8
JA
 10
12.7
 20
633.73004
 30
0
 40
0.585
 39
  0
0
CIRCLE
8
JA
 10
15.24
 20
633.73004
 30
0
 40
0.915
 39
  0
0
CIRCLE
8
JA
 10
5.08
 20
631.19006
 30
0
 40
0.915
 39
  0
0
CIRCLE
8
JA
 10
10.16
 20
631.19006
 30
0
 40
0.915
 39
  0
0
CIRCLE
8
JA
 10
12.7
 20
631.19006
 30
0
 40
0.585
 39
  0
0
CIRCLE
8
JA
 10
5.08
 20
628.6501
 30
0
 40
0.915
 39
  0
0
CIRCLE
8
JA
 10
12.7
 20
628.6501
 30
0
 40
0.585
 39
  0
0
CIRCLE
8
JA
 10
15.24
 20
628.6501
 30
0
 40
0.915
 39
  0
0
CIRCLE
8
JA
 10
5.08
 20
626.1101
 30
0
 40
0.915
 39
  0
0
CIRCLE
8
JA
 10
12.7
 20
626.1101
 30
0
 40
0.585
 39
  0
0
CIRCLE
8
JA
 10
17.779999
 20
626.1101
 30
0
 40
0.915
 39
  0
0
CIRCLE
8
JA
 10
12.7
 20
623.5701
 30
0
 40
0.585
 39
  0
0
CIRCLE
8
JA
 10
12.7
 20
621.03015
 30
0
 40
0.585
 39
  0
0
CIRCLE
8
JA
 10
12.7
 20
618.4902
 30
0
 40
0.585
 39
  0
0
CIRCLE
8
JA
 10
12.7
 20
615.9502
 30
0
 40
0.585
 39
  0
0
CIRCLE
8
JA
 10
5.08
 20
613.4102
 30
0
 40
0.915
 39
  0
0
CIRCLE
8
JA
 10
7.62
 20
613.4102
 30
0
 40
0.915
 39
  0
0
CIRCLE
8
JA
 10
10.16
 20
613.4102
 30
0
 40
0.915
 39
  0
0
CIRCLE
8
JA
 10
12.7
 20
613.4102
 30
0
 40
0.585
 39
  0
0
CIRCLE
8
JA
 10
15.24
 20
613.4102
 30
0
 40
0.915
 39
  0
0
CIRCLE
8
JA
 10
17.779999
 20
613.4102
 30
0
 40
0.915
 39
  0
0
CIRCLE
8
JA
 10
12.7
 20
610.87024
 30
0
 40
0.585
 39
  0
0
CIRCLE
8
JA
 10
12.7
 20
608.33026
 30
0
 40
0.585
 39
  0
0
CIRCLE
8
JA
 10
12.7
 20
605.7903
 30
0
 40
0.585
 39
  0
0
CIRCLE
8
JA
 10
12.7
 20
603.2503
 30
0
 40
0.585
 39
  0
0
CIRCLE
8
JA
 10
10.16
 20
600.7103
 30
0
 40
0.915
 39
  0
0
CIRCLE
8
JA
 10
12.7
 20
600.7103
 30
0
 40
0.585
 39
  0
0
CIRCLE
8
JA
 10
7.62
 20
598.17035
 30
0
 40
0.915
 39
  0
0
CIRCLE
8
JA
 10
10.16
 20
598.17035
 30
0
 40
0.915
 39
  0
0
CIRCLE
8
JA
 10
12.7
 20
598.17035
 30
0
 40
0.585
 39
  0
0
CIRCLE
8
JA
 10
10.16
 20
595.6304
 30
0
 40
0.915
 39
  0
0
CIRCLE
8
JA
 10
12.7
 20
595.6304
 30
0
 40
0.585
 39
  0
0
CIRCLE
8
JA
 10
10.16
 20
593.0904
 30
0
 40
0.915
 39
  0
0
CIRCLE
8
JA
 10
12.7
 20
593.0904
 30
0
 40
0.585
 39
  0
0
CIRCLE
8
JA
 10
10.16
 20
590.5504
 30
0
 40
0.915
 39
  0
0
CIRCLE
8
JA
 10
12.7
 20
590.5504
 30
0
 40
0.585
 39
  0
0
CIRCLE
8
JA
 10
10.16
 20
588.01044
 30
0
 40
0.915
 39
  0
0
CIRCLE
8
JA
 10
12.7
 20
588.01044
 30
0
 40
0.585
 39
  0
0
CIRCLE
8
JA
 10
7.62
 20
585.47046
 30
0
 40
0.915
 39
  0
0
CIRCLE
8
JA
 10
10.16
 20
585.47046
 30
0
 40
0.915
 39
  0
0
CIRCLE
8
JA
 10
12.7
 20
585.47046
 30
0
 40
0.585
 39
  0
0
CIRCLE
8
JA
 10
15.24
 20
585.47046
 30
0
 40
0.915
 39
  0
0
CIRCLE
8
JA
 10
12.7
 20
582.9305
 30
0
 40
0.585
 39
  0
0
CIRCLE
8
JA
 10
7.62
 20
580.3905
 30
0
 40
0.915
 39
  0
0
CIRCLE
8
JA
 10
10.16
 20
580.3905
 30
0
 40
0.915
 39
  0
0
CIRCLE
8
JA
 10
12.7
 20
580.3905
 30
0
 40
0.585
 39
  0
0
CIRCLE
8
JA
 10
15.24
 20
580.3905
 30
0
 40
0.915
 39
  0
0
CIRCLE
8
JA
 10
5.08
 20
577.8505
 30
0
 40
0.915
 39
  0
0
CIRCLE
8
JA
 10
12.7
 20
577.8505
 30
0
 40
0.585
 39
  0
0
CIRCLE
8
JA
 10
17.779999
 20
577.8505
 30
0
 40
0.915
 39
  0
0
CIRCLE
8
JA
 10
5.08
 20
575.31055
 30
0
 40
0.915
 39
  0
0
CIRCLE
8
JA
 10
12.7
 20
575.31055
 30
0
 40
0.585
 39
  0
0
CIRCLE
8
JA
 10
17.779999
 20
575.31055
 30
0
 40
0.915
 39
  0
0
CIRCLE
8
JA
 10
7.62
 20
572.77057
 30
0
 40
0.915
 39
  0
0
CIRCLE
8
JA
 10
10.16
 20
572.77057
 30
0
 40
0.915
 39
  0
0
CIRCLE
8
JA
 10
12.7
 20
572.77057
 30
0
 40
0.585
 39
  0
0
CIRCLE
8
JA
 10
15.24
 20
572.77057
 30
0
 40
0.915
 39
  0
0
CIRCLE
8
JA
 10
17.779999
 20
572.77057
 30
0
 40
0.915
 39
  0
0
CIRCLE
8
JA
 10
12.7
 20
570.2306
 30
0
 40
0.585
 39
  0
0
CIRCLE
8
JA
 10
17.779999
 20
570.2306
 30
0
 40
0.915
 39
  0
0
CIRCLE
8
JA
 10
12.7
 20
567.6906
 30
0
 40
0.585
 39
  0
0
CIRCLE
8
JA
 10
15.24
 20
567.6906
 30
0
 40
0.915
 39
  0
0
CIRCLE
8
JA
 10
7.62
 20
565.15063
 30
0
 40
0.915
 39
  0
0
CIRCLE
8
JA
 10
10.16
 20
565.15063
 30
0
 40
0.915
 39
  0
0
CIRCLE
8
JA
 10
12.7
 20
565.15063
 30
0
 40
0.585
 39
  0
0
CIRCLE
8
JA
 10
12.7
 20
562.61066
 30
0
 40
0.585
 39
  0
0
CIRCLE
8
JA
 10
10.16
 20
560.0707
 30
0
 40
0.915
 39
  0
0
CIRCLE
8
JA
 10
12.7
 20
560.0707
 30
0
 40
0.585
 39
  0
0
CIRCLE
8
JA
 10
15.24
 20
560.0707
 30
0
 40
0.915
 39
  0
0
CIRCLE
8
JA
 10
7.62
 20
557.5307
 30
0
 40
0.915
 39
  0
0
CIRCLE
8
JA
 10
12.7
 20
557.5307
 30
0
 40
0.585
 39
  0
0
CIRCLE
8
JA
 10
5.08
 20
554.9907
 30
0
 40
0.915
 39
  0
0
CIRCLE
8
JA
 10
12.7
 20
554.9907
 30
0
 40
0.585
 39
  0
0
CIRCLE
8
JA
 10
5.08
 20
552.45074
 30
0
 40
0.915
 39
  0
0
CIRCLE
8
JA
 10
7.62
 20
552.45074
 30
0
 40
0.915
 39
  0
0
CIRCLE
8
JA
 10
10.16
 20
552.45074
 30
0
 40
0.915
 39
  0
0
CIRCLE
8
JA
 10
12.7
 20
552.45074
 30
0
 40
0.585
 39
  0
0
CIRCLE
8
JA
 10
15.24
 20
552.45074
 30
0
 40
0.915
 39
  0
0
CIRCLE
8
JA
 10
5.08
 20
549.91077
 30
0
 40
0.915
 39
  0
0
CIRCLE
8
JA
 10
12.7
 20
549.91077
 30
0
 40
0.585
 39
  0
0
CIRCLE
8
JA
 10
17.779999
 20
549.91077
 30
0
 40
0.915
 39
  0
0
CIRCLE
8
JA
 10
5.08
 20
547.3708
 30
0
 40
0.915
 39
  0
0
CIRCLE
8
JA
 10
12.7
 20
547.3708
 30
0
 40
0.585
 39
  0
0
CIRCLE
8
JA
 10
17.779999
 20
547.3708
 30
0
 40
0.915
 39
  0
0
CIRCLE
8
JA
 10
7.62
 20
544.8308
 30
0
 40
0.915
 39
  0
0
CIRCLE
8
JA
 10
10.16
 20
544.8308
 30
0
 40
0.915
 39
  0
0
CIRCLE
8
JA
 10
12.7
 20
544.8308
 30
0
 40
0.585
 39
  0
0
CIRCLE
8
JA
 10
15.24
 20
544.8308
 30
0
 40
0.915
 39
  0
0
CIRCLE
8
JA
 10
12.7
 20
542.29083
 30
0
 40
0.585
 39
  0
0
CIRCLE
8
JA
 10
5.08
 20
539.75085
 30
0
 40
0.915
 39
  0
0
CIRCLE
8
JA
 10
7.62
 20
539.75085
 30
0
 40
0.915
 39
  0
0
CIRCLE
8
JA
 10
10.16
 20
539.75085
 30
0
 40
0.915
 39
  0
0
CIRCLE
8
JA
 10
12.7
 20
539.75085
 30
0
 40
0.585
 39
  0
0
CIRCLE
8
JA
 10
15.24
 20
539.75085
 30
0
 40
0.915
 39
  0
0
CIRCLE
8
JA
 10
5.08
 20
537.2109
 30
0
 40
0.915
 39
  0
0
CIRCLE
8
JA
 10
12.7
 20
537.2109
 30
0
 40
0.585
 39
  0
0
CIRCLE
8
JA
 10
17.779999
 20
537.2109
 30
0
 40
0.915
 39
  0
0
CIRCLE
8
JA
 10
5.08
 20
534.6709
 30
0
 40
0.915
 39
  0
0
CIRCLE
8
JA
 10
12.7
 20
534.6709
 30
0
 40
0.585
 39
  0
0
CIRCLE
8
JA
 10
17.779999
 20
534.6709
 30
0
 40
0.915
 39
  0
0
CIRCLE
8
JA
 10
5.08
 20
532.1309
 30
0
 40
0.915
 39
  0
0
CIRCLE
8
JA
 10
7.62
 20
532.1309
 30
0
 40
0.915
 39
  0
0
CIRCLE
8
JA
 10
10.16
 20
532.1309
 30
0
 40
0.915
 39
  0
0
CIRCLE
8
JA
 10
12.7
 20
532.1309
 30
0
 40
0.585
 39
  0
0
CIRCLE
8
JA
 10
15.24
 20
532.1309
 30
0
 40
0.915
 39
  0
0
CIRCLE
8
JA
 10
5.08
 20
529.59094
 30
0
 40
0.915
 39
  0
0
CIRCLE
8
JA
 10
12.7
 20
529.59094
 30
0
 40
0.585
 39
  0
0
CIRCLE
8
JA
 10
17.779999
 20
529.59094
 30
0
 40
0.915
 39
  0
0
CIRCLE
8
JA
 10
5.08
 20
527.05096
 30
0
 40
0.915
 39
  0
0
CIRCLE
8
JA
 10
12.7
 20
527.05096
 30
0
 40
0.585
 39
  0
0
CIRCLE
8
JA
 10
17.779999
 20
527.05096
 30
0
 40
0.915
 39
  0
0
CIRCLE
8
JA
 10
5.08
 20
524.511
 30
0
 40
0.915
 39
  0
0
CIRCLE
8
JA
 10
7.62
 20
524.511
 30
0
 40
0.915
 39
  0
0
CIRCLE
8
JA
 10
10.16
 20
524.511
 30
0
 40
0.915
 39
  0
0
CIRCLE
8
JA
 10
12.7
 20
524.511
 30
0
 40
0.585
 39
  0
0
CIRCLE
8
JA
 10
15.24
 20
524.511
 30
0
 40
0.915
 39
  0
0
CIRCLE
8
JA
 10
12.7
 20
521.971
 30
0
 40
0.585
 39
  0
0
CIRCLE
8
JA
 10
12.7
 20
519.431
 30
0
 40
0.585
 39
  0
0
CIRCLE
8
JA
 10
12.7
 20
516.89105
 30
0
 40
0.585
 39
  0
0
CIRCLE
8
JA
 10
12.7
 20
514.3511
 30
0
 40
0.585
 39
  0
0
CIRCLE
8
JA
 10
12.7
 20
511.81107
 30
0
 40
0.585
 39
  0
0
CIRCLE
8
JA
 10
2.54
 20
509.27106
 30
0
 40
0.915
 39
  0
0
CIRCLE
8
JA
 10
5.08
 20
509.27106
 30
0
 40
0.915
 39
  0
0
CIRCLE
8
JA
 10
7.62
 20
509.27106
 30
0
 40
0.915
 39
  0
0
CIRCLE
8
JA
 10
10.16
 20
509.27106
 30
0
 40
0.915
 39
  0
0
CIRCLE
8
JA
 10
12.7
 20
509.27106
 30
0
 40
0.585
 39
  0
0
CIRCLE
8
JA
 10
15.24
 20
509.27106
 30
0
 40
0.915
 39
  0
0
CIRCLE
8
JA
 10
20.32
 20
509.27106
 30
0
 40
0.915
 39
  0
0
CIRCLE
8
JA
 10
2.54
 20
506.73105
 30
0
 40
0.915
 39
  0
0
CIRCLE
8
JA
 10
5.08
 20
506.73105
 30
0
 40
0.915
 39
  0
0
CIRCLE
8
JA
 10
7.62
 20
506.73105
 30
0
 40
0.915
 39
  0
0
CIRCLE
8
JA
 10
10.16
 20
506.73105
 30
0
 40
0.915
 39
  0
0
CIRCLE
8
JA
 10
12.7
 20
506.73105
 30
0
 40
0.585
 39
  0
0
CIRCLE
8
JA
 10
15.24
 20
506.73105
 30
0
 40
0.915
 39
  0
0
CIRCLE
8
JA
 10
20.32
 20
506.73105
 30
0
 40
0.915
 39
  0
0
CIRCLE
8
JA
 10
5.08
 20
504.19104
 30
0
 40
0.915
 39
  0
0
CIRCLE
8
JA
 10
7.62
 20
504.19104
 30
0
 40
0.915
 39
  0
0
CIRCLE
8
JA
 10
12.7
 20
504.19104
 30
0
 40
0.585
 39
  0
0
CIRCLE
8
JA
 10
15.24
 20
504.19104
 30
0
 40
0.915
 39
  0
0
CIRCLE
8
JA
 10
17.779999
 20
504.19104
 30
0
 40
0.915
 39
  0
0
CIRCLE
8
JA
 10
20.32
 20
504.19104
 30
0
 40
0.915
 39
  0
0
CIRCLE
8
JA
 10
5.08
 20
501.65103
 30
0
 40
0.915
 39
  0
0
CIRCLE
8
JA
 10
12.7
 20
501.65103
 30
0
 40
0.585
 39
  0
0
CIRCLE
8
JA
 10
20.32
 20
501.65103
 30
0
 40
0.915
 39
  0
0
CIRCLE
8
JA
 10
12.7
 20
499.11102
 30
0
 40
0.585
 39
  0
0
CIRCLE
8
JA
 10
20.32
 20
499.11102
 30
0
 40
0.915
 39
  0
0
CIRCLE
8
JA
 10
12.7
 20
496.571
 30
0
 40
0.585
 39
  0
0
CIRCLE
8
JA
 10
20.32
 20
496.571
 30
0
 40
0.915
 39
  0
0
CIRCLE
8
JA
 10
12.7
 20
494.031
 30
0
 40
0.585
 39
  0
0
CIRCLE
8
JA
 10
20.32
 20
494.031
 30
0
 40
0.915
 39
  0
0
CIRCLE
8
JA
 10
12.7
 20
491.491
 30
0
 40
0.585
 39
  0
0
CIRCLE
8
JA
 10
20.32
 20
491.491
 30
0
 40
0.915
 39
  0
0
CIRCLE
8
JA
 10
12.7
 20
488.951
 30
0
 40
0.585
 39
  0
0
CIRCLE
8
JA
 10
20.32
 20
488.951
 30
0
 40
0.915
 39
  0
0
CIRCLE
8
JA
 10
2.54
 20
486.41098
 30
0
 40
0.915
 39
  0
0
CIRCLE
8
JA
 10
12.7
 20
486.41098
 30
0
 40
0.585
 39
  0
0
CIRCLE
8
JA
 10
20.32
 20
486.41098
 30
0
 40
0.915
 39
  0
0
CIRCLE
8
JA
 10
10.16
 20
483.87097
 30
0
 40
0.915
 39
  0
0
CIRCLE
8
JA
 10
12.7
 20
483.87097
 30
0
 40
0.585
 39
  0
0
CIRCLE
8
JA
 10
20.32
 20
483.87097
 30
0
 40
0.915
 39
  0
0
CIRCLE
8
JA
 10
10.16
 20
481.33096
 30
0
 40
0.915
 39
  0
0
CIRCLE
8
JA
 10
12.7
 20
481.33096
 30
0
 40
0.585
 39
  0
0
CIRCLE
8
JA
 10
15.24
 20
481.33096
 30
0
 40
0.915
 39
  0
0
CIRCLE
8
JA
 10
17.779999
 20
481.33096
 30
0
 40
0.915
 39
  0
0
CIRCLE
8
JA
 10
20.32
 20
481.33096
 30
0
 40
0.915
 39
  0
0
CIRCLE
8
JA
 10
5.08
 20
478.79095
 30
0
 40
0.915
 39
  0
0
CIRCLE
8
JA
 10
12.7
 20
478.79095
 30
0
 40
0.585
 39
  0
0
CIRCLE
8
JA
 10
20.32
 20
478.79095
 30
0
 40
0.915
 39
  0
0
CIRCLE
8
JA
 10
10.16
 20
476.25095
 30
0
 40
0.915
 39
  0
0
CIRCLE
8
JA
 10
12.7
 20
476.25095
 30
0
 40
0.585
 39
  0
0
CIRCLE
8
JA
 10
20.32
 20
476.25095
 30
0
 40
0.915
 39
  0
0
CIRCLE
8
JA
 10
12.7
 20
473.71094
 30
0
 40
0.585
 39
  0
0
CIRCLE
8
JA
 10
17.779999
 20
473.71094
 30
0
 40
0.915
 39
  0
0
CIRCLE
8
JA
 10
20.32
 20
473.71094
 30
0
 40
0.915
 39
  0
0
CIRCLE
8
JA
 10
2.54
 20
471.17093
 30
0
 40
0.915
 39
  0
0
CIRCLE
8
JA
 10
12.7
 20
471.17093
 30
0
 40
0.585
 39
  0
0
CIRCLE
8
JA
 10
20.32
 20
471.17093
 30
0
 40
0.915
 39
  0
0
CIRCLE
8
JA
 10
10.16
 20
468.63092
 30
0
 40
0.915
 39
  0
0
CIRCLE
8
JA
 10
12.7
 20
468.63092
 30
0
 40
0.585
 39
  0
0
CIRCLE
8
JA
 10
20.32
 20
468.63092
 30
0
 40
0.915
 39
  0
0
CIRCLE
8
JA
 10
7.62
 20
466.0909
 30
0
 40
0.915
 39
  0
0
CIRCLE
8
JA
 10
12.7
 20
466.0909
 30
0
 40
0.585
 39
  0
0
CIRCLE
8
JA
 10
20.32
 20
466.0909
 30
0
 40
0.915
 39
  0
0
CIRCLE
8
JA
 10
5.08
 20
463.5509
 30
0
 40
0.915
 39
  0
0
CIRCLE
8
JA
 10
12.7
 20
463.5509
 30
0
 40
0.585
 39
  0
0
CIRCLE
8
JA
 10
20.32
 20
463.5509
 30
0
 40
0.915
 39
  0
0
CIRCLE
8
JA
 10
10.16
 20
461.0109
 30
0
 40
0.915
 39
  0
0
CIRCLE
8
JA
 10
12.7
 20
461.0109
 30
0
 40
0.585
 39
  0
0
CIRCLE
8
JA
 10
20.32
 20
461.0109
 30
0
 40
0.915
 39
  0
0
CIRCLE
8
JA
 10
12.7
 20
458.4709
 30
0
 40
0.585
 39
  0
0
CIRCLE
8
JA
 10
15.24
 20
458.4709
 30
0
 40
0.915
 39
  0
0
CIRCLE
8
JA
 10
20.32
 20
458.4709
 30
0
 40
0.915
 39
  0
0
CIRCLE
8
JA
 10
2.54
 20
455.93088
 30
0
 40
0.915
 39
  0
0
CIRCLE
8
JA
 10
12.7
 20
455.93088
 30
0
 40
0.585
 39
  0
0
CIRCLE
8
JA
 10
20.32
 20
455.93088
 30
0
 40
0.915
 39
  0
0
CIRCLE
8
JA
 10
10.16
 20
453.39087
 30
0
 40
0.915
 39
  0
0
CIRCLE
8
JA
 10
12.7
 20
453.39087
 30
0
 40
0.585
 39
  0
0
CIRCLE
8
JA
 10
20.32
 20
453.39087
 30
0
 40
0.915
 39
  0
0
CIRCLE
8
JA
 10
7.62
 20
450.85086
 30
0
 40
0.915
 39
  0
0
CIRCLE
8
JA
 10
12.7
 20
450.85086
 30
0
 40
0.585
 39
  0
0
CIRCLE
8
JA
 10
17.779999
 20
450.85086
 30
0
 40
0.915
 39
  0
0
CIRCLE
8
JA
 10
20.32
 20
450.85086
 30
0
 40
0.915
 39
  0
0
CIRCLE
8
JA
 10
5.08
 20
448.31085
 30
0
 40
0.915
 39
  0
0
CIRCLE
8
JA
 10
12.7
 20
448.31085
 30
0
 40
0.585
 39
  0
0
CIRCLE
8
JA
 10
20.32
 20
448.31085
 30
0
 40
0.915
 39
  0
0
CIRCLE
8
JA
 10
10.16
 20
445.77084
 30
0
 40
0.915
 39
  0
0
CIRCLE
8
JA
 10
12.7
 20
445.77084
 30
0
 40
0.585
 39
  0
0
CIRCLE
8
JA
 10
20.32
 20
445.77084
 30
0
 40
0.915
 39
  0
0
CIRCLE
8
JA
 10
12.7
 20
443.23083
 30
0
 40
0.585
 39
  0
0
CIRCLE
8
JA
 10
15.24
 20
443.23083
 30
0
 40
0.915
 39
  0
0
CIRCLE
8
JA
 10
17.779999
 20
443.23083
 30
0
 40
0.915
 39
  0
0
CIRCLE
8
JA
 10
20.32
 20
443.23083
 30
0
 40
0.915
 39
  0
0
CIRCLE
8
JA
 10
2.54
 20
440.69083
 30
0
 40
0.915
 39
  0
0
CIRCLE
8
JA
 10
12.7
 20
440.69083
 30
0
 40
0.585
 39
  0
0
CIRCLE
8
JA
 10
20.32
 20
440.69083
 30
0
 40
0.915
 39
  0
0
CIRCLE
8
JA
 10
10.16
 20
438.15082
 30
0
 40
0.915
 39
  0
0
CIRCLE
8
JA
 10
12.7
 20
438.15082
 30
0
 40
0.585
 39
  0
0
CIRCLE
8
JA
 10
20.32
 20
438.15082
 30
0
 40
0.915
 39
  0
0
CIRCLE
8
JA
 10
12.7
 20
435.6108
 30
0
 40
0.585
 39
  0
0
CIRCLE
8
JA
 10
17.779999
 20
435.6108
 30
0
 40
0.915
 39
  0
0
CIRCLE
8
JA
 10
20.32
 20
435.6108
 30
0
 40
0.915
 39
  0
0
CIRCLE
8
JA
 10
2.54
 20
433.0708
 30
0
 40
0.915
 39
  0
0
CIRCLE
8
JA
 10
10.16
 20
433.0708
 30
0
 40
0.915
 39
  0
0
CIRCLE
8
JA
 10
12.7
 20
433.0708
 30
0
 40
0.585
 39
  0
0
CIRCLE
8
JA
 10
20.32
 20
433.0708
 30
0
 40
0.915
 39
  0
0
CIRCLE
8
JA
 10
10.16
 20
430.5308
 30
0
 40
0.915
 39
  0
0
CIRCLE
8
JA
 10
12.7
 20
430.5308
 30
0
 40
0.585
 39
  0
0
CIRCLE
8
JA
 10
20.32
 20
430.5308
 30
0
 40
0.915
 39
  0
0
CIRCLE
8
JA
 10
7.62
 20
427.99078
 30
0
 40
0.915
 39
  0
0
CIRCLE
8
JA
 10
12.7
 20
427.99078
 30
0
 40
0.585
 39
  0
0
CIRCLE
8
JA
 10
15.24
 20
427.99078
 30
0
 40
0.915
 39
  0
0
CIRCLE
8
JA
 10
20.32
 20
427.99078
 30
0
 40
0.915
 39
  0
0
CIRCLE
8
JA
 10
5.08
 20
425.45078
 30
0
 40
0.915
 39
  0
0
CIRCLE
8
JA
 10
12.7
 20
425.45078
 30
0
 40
0.585
 39
  0
0
CIRCLE
8
JA
 10
20.32
 20
425.45078
 30
0
 40
0.915
 39
  0
0
CIRCLE
8
JA
 10
10.16
 20
422.91077
 30
0
 40
0.915
 39
  0
0
CIRCLE
8
JA
 10
12.7
 20
422.91077
 30
0
 40
0.585
 39
  0
0
CIRCLE
8
JA
 10
20.32
 20
422.91077
 30
0
 40
0.915
 39
  0
0
CIRCLE
8
JA
 10
12.7
 20
420.37076
 30
0
 40
0.585
 39
  0
0
CIRCLE
8
JA
 10
17.779999
 20
420.37076
 30
0
 40
0.915
 39
  0
0
CIRCLE
8
JA
 10
20.32
 20
420.37076
 30
0
 40
0.915
 39
  0
0
CIRCLE
8
JA
 10
2.54
 20
417.83075
 30
0
 40
0.915
 39
  0
0
CIRCLE
8
JA
 10
12.7
 20
417.83075
 30
0
 40
0.585
 39
  0
0
CIRCLE
8
JA
 10
20.32
 20
417.83075
 30
0
 40
0.915
 39
  0
0
CIRCLE
8
JA
 10
10.16
 20
415.29074
 30
0
 40
0.915
 39
  0
0
CIRCLE
8
JA
 10
12.7
 20
415.29074
 30
0
 40
0.585
 39
  0
0
CIRCLE
8
JA
 10
20.32
 20
415.29074
 30
0
 40
0.915
 39
  0
0
CIRCLE
8
JA
 10
7.62
 20
412.75073
 30
0
 40
0.915
 39
  0
0
CIRCLE
8
JA
 10
10.16
 20
412.75073
 30
0
 40
0.915
 39
  0
0
CIRCLE
8
JA
 10
12.7
 20
412.75073
 30
0
 40
0.585
 39
  0
0
CIRCLE
8
JA
 10
20.32
 20
412.75073
 30
0
 40
0.915
 39
  0
0
CIRCLE
8
JA
 10
12.7
 20
410.21072
 30
0
 40
0.585
 39
  0
0
CIRCLE
8
JA
 10
20.32
 20
410.21072
 30
0
 40
0.915
 39
  0
0
CIRCLE
8
JA
 10
7.62
 20
407.67072
 30
0
 40
0.915
 39
  0
0
CIRCLE
8
JA
 10
10.16
 20
407.67072
 30
0
 40
0.915
 39
  0
0
CIRCLE
8
JA
 10
12.7
 20
407.67072
 30
0
 40
0.585
 39
  0
0
CIRCLE
8
JA
 10
20.32
 20
407.67072
 30
0
 40
0.915
 39
  0
0
CIRCLE
8
JA
 10
12.7
 20
405.1307
 30
0
 40
0.585
 39
  0
0
CIRCLE
8
JA
 10
20.32
 20
405.1307
 30
0
 40
0.915
 39
  0
0
CIRCLE
8
JA
 10
2.54
 20
402.5907
 30
0
 40
0.915
 39
  0
0
CIRCLE
8
JA
 10
12.7
 20
402.5907
 30
0
 40
0.585
 39
  0
0
CIRCLE
8
JA
 10
20.32
 20
402.5907
 30
0
 40
0.915
 39
  0
0
CIRCLE
8
JA
 10
10.16
 20
400.0507
 30
0
 40
0.915
 39
  0
0
CIRCLE
8
JA
 10
12.7
 20
400.0507
 30
0
 40
0.585
 39
  0
0
CIRCLE
8
JA
 10
20.32
 20
400.0507
 30
0
 40
0.915
 39
  0
0
CIRCLE
8
JA
 10
12.7
 20
397.51068
 30
0
 40
0.585
 39
  0
0
CIRCLE
8
JA
 10
17.779999
 20
397.51068
 30
0
 40
0.915
 39
  0
0
CIRCLE
8
JA
 10
20.32
 20
397.51068
 30
0
 40
0.915
 39
  0
0
CIRCLE
8
JA
 10
7.62
 20
394.97067
 30
0
 40
0.915
 39
  0
0
CIRCLE
8
JA
 10
12.7
 20
394.97067
 30
0
 40
0.585
 39
  0
0
CIRCLE
8
JA
 10
15.24
 20
394.97067
 30
0
 40
0.915
 39
  0
0
CIRCLE
8
JA
 10
20.32
 20
394.97067
 30
0
 40
0.915
 39
  0
0
CIRCLE
8
JA
 10
12.7
 20
392.43066
 30
0
 40
0.585
 39
  0
0
CIRCLE
8
JA
 10
20.32
 20
392.43066
 30
0
 40
0.915
 39
  0
0
CIRCLE
8
JA
 10
12.7
 20
389.89066
 30
0
 40
0.585
 39
  0
0
CIRCLE
8
JA
 10
20.32
 20
389.89066
 30
0
 40
0.915
 39
  0
0
CIRCLE
8
JA
 10
2.54
 20
387.35065
 30
0
 40
0.915
 39
  0
0
CIRCLE
8
JA
 10
12.7
 20
387.35065
 30
0
 40
0.585
 39
  0
0
CIRCLE
8
JA
 10
15.24
 20
387.35065
 30
0
 40
0.915
 39
  0
0
CIRCLE
8
JA
 10
20.32
 20
387.35065
 30
0
 40
0.915
 39
  0
0
CIRCLE
8
JA
 10
10.16
 20
384.81064
 30
0
 40
0.915
 39
  0
0
CIRCLE
8
JA
 10
12.7
 20
384.81064
 30
0
 40
0.585
 39
  0
0
CIRCLE
8
JA
 10
20.32
 20
384.81064
 30
0
 40
0.915
 39
  0
0
CIRCLE
8
JA
 10
12.7
 20
382.27063
 30
0
 40
0.585
 39
  0
0
CIRCLE
8
JA
 10
15.24
 20
382.27063
 30
0
 40
0.915
 39
  0
0
CIRCLE
8
JA
 10
20.32
 20
382.27063
 30
0
 40
0.915
 39
  0
0
CIRCLE
8
JA
 10
5.08
 20
379.73062
 30
0
 40
0.915
 39
  0
0
CIRCLE
8
JA
 10
7.62
 20
379.73062
 30
0
 40
0.915
 39
  0
0
CIRCLE
8
JA
 10
10.16
 20
379.73062
 30
0
 40
0.915
 39
  0
0
CIRCLE
8
JA
 10
12.7
 20
379.73062
 30
0
 40
0.585
 39
  0
0
CIRCLE
8
JA
 10
20.32
 20
379.73062
 30
0
 40
0.915
 39
  0
0
CIRCLE
8
JA
 10
12.7
 20
377.1906
 30
0
 40
0.585
 39
  0
0
CIRCLE
8
JA
 10
20.32
 20
377.1906
 30
0
 40
0.915
 39
  0
0
CIRCLE
8
JA
 10
5.08
 20
374.6506
 30
0
 40
0.915
 39
  0
0
CIRCLE
8
JA
 10
7.62
 20
374.6506
 30
0
 40
0.915
 39
  0
0
CIRCLE
8
JA
 10
12.7
 20
374.6506
 30
0
 40
0.585
 39
  0
0
CIRCLE
8
JA
 10
20.32
 20
374.6506
 30
0
 40
0.915
 39
  0
0
CIRCLE
8
JA
 10
2.54
 20
372.1106
 30
0
 40
0.915
 39
  0
0
CIRCLE
8
JA
 10
12.7
 20
372.1106
 30
0
 40
0.585
 39
  0
0
CIRCLE
8
JA
 10
15.24
 20
372.1106
 30
0
 40
0.915
 39
  0
0
CIRCLE
8
JA
 10
20.32
 20
372.1106
 30
0
 40
0.915
 39
  0
0
CIRCLE
8
JA
 10
10.16
 20
369.5706
 30
0
 40
0.915
 39
  0
0
CIRCLE
8
JA
 10
12.7
 20
369.5706
 30
0
 40
0.585
 39
  0
0
CIRCLE
8
JA
 10
20.32
 20
369.5706
 30
0
 40
0.915
 39
  0
0
CIRCLE
8
JA
 10
12.7
 20
367.03058
 30
0
 40
0.585
 39
  0
0
CIRCLE
8
JA
 10
15.24
 20
367.03058
 30
0
 40
0.915
 39
  0
0
CIRCLE
8
JA
 10
17.779999
 20
367.03058
 30
0
 40
0.915
 39
  0
0
CIRCLE
8
JA
 10
20.32
 20
367.03058
 30
0
 40
0.915
 39
  0
0
CIRCLE
8
JA
 10
5.08
 20
364.49057
 30
0
 40
0.915
 39
  0
0
CIRCLE
8
JA
 10
7.62
 20
364.49057
 30
0
 40
0.915
 39
  0
0
CIRCLE
8
JA
 10
10.16
 20
364.49057
 30
0
 40
0.915
 39
  0
0
CIRCLE
8
JA
 10
12.7
 20
364.49057
 30
0
 40
0.585
 39
  0
0
CIRCLE
8
JA
 10
20.32
 20
364.49057
 30
0
 40
0.915
 39
  0
0
CIRCLE
8
JA
 10
12.7
 20
361.95056
 30
0
 40
0.585
 39
  0
0
CIRCLE
8
JA
 10
20.32
 20
361.95056
 30
0
 40
0.915
 39
  0
0
CIRCLE
8
JA
 10
5.08
 20
359.41055
 30
0
 40
0.915
 39
  0
0
CIRCLE
8
JA
 10
7.62
 20
359.41055
 30
0
 40
0.915
 39
  0
0
CIRCLE
8
JA
 10
12.7
 20
359.41055
 30
0
 40
0.585
 39
  0
0
CIRCLE
8
JA
 10
20.32
 20
359.41055
 30
0
 40
0.915
 39
  0
0
CIRCLE
8
JA
 10
2.54
 20
356.87054
 30
0
 40
0.915
 39
  0
0
CIRCLE
8
JA
 10
12.7
 20
356.87054
 30
0
 40
0.585
 39
  0
0
CIRCLE
8
JA
 10
20.32
 20
356.87054
 30
0
 40
0.915
 39
  0
0
CIRCLE
8
JA
 10
10.16
 20
354.33054
 30
0
 40
0.915
 39
  0
0
CIRCLE
8
JA
 10
12.7
 20
354.33054
 30
0
 40
0.585
 39
  0
0
CIRCLE
8
JA
 10
20.32
 20
354.33054
 30
0
 40
0.915
 39
  0
0
CIRCLE
8
JA
 10
12.7
 20
351.79053
 30
0
 40
0.585
 39
  0
0
CIRCLE
8
JA
 10
15.24
 20
351.79053
 30
0
 40
0.915
 39
  0
0
CIRCLE
8
JA
 10
17.779999
 20
351.79053
 30
0
 40
0.915
 39
  0
0
CIRCLE
8
JA
 10
20.32
 20
351.79053
 30
0
 40
0.915
 39
  0
0
CIRCLE
8
JA
 10
2.54
 20
349.25052
 30
0
 40
0.915
 39
  0
0
CIRCLE
8
JA
 10
5.08
 20
349.25052
 30
0
 40
0.915
 39
  0
0
CIRCLE
8
JA
 10
12.7
 20
349.25052
 30
0
 40
0.585
 39
  0
0
CIRCLE
8
JA
 10
20.32
 20
349.25052
 30
0
 40
0.915
 39
  0
0
CIRCLE
8
JA
 10
10.16
 20
346.7105
 30
0
 40
0.915
 39
  0
0
CIRCLE
8
JA
 10
12.7
 20
346.7105
 30
0
 40
0.585
 39
  0
0
CIRCLE
8
JA
 10
20.32
 20
346.7105
 30
0
 40
0.915
 39
  0
0
CIRCLE
8
JA
 10
10.16
 20
344.1705
 30
0
 40
0.915
 39
  0
0
CIRCLE
8
JA
 10
12.7
 20
344.1705
 30
0
 40
0.585
 39
  0
0
CIRCLE
8
JA
 10
20.32
 20
344.1705
 30
0
 40
0.915
 39
  0
0
CIRCLE
8
JA
 10
5.08
 20
341.6305
 30
0
 40
0.915
 39
  0
0
CIRCLE
8
JA
 10
12.7
 20
341.6305
 30
0
 40
0.585
 39
  0
0
CIRCLE
8
JA
 10
20.32
 20
341.6305
 30
0
 40
0.915
 39
  0
0
CIRCLE
8
JA
 10
10.16
 20
339.09048
 30
0
 40
0.915
 39
  0
0
CIRCLE
8
JA
 10
12.7
 20
339.09048
 30
0
 40
0.585
 39
  0
0
CIRCLE
8
JA
 10
20.32
 20
339.09048
 30
0
 40
0.915
 39
  0
0
CIRCLE
8
JA
 10
12.7
 20
336.55048
 30
0
 40
0.585
 39
  0
0
CIRCLE
8
JA
 10
15.24
 20
336.55048
 30
0
 40
0.915
 39
  0
0
CIRCLE
8
JA
 10
17.779999
 20
336.55048
 30
0
 40
0.915
 39
  0
0
CIRCLE
8
JA
 10
20.32
 20
336.55048
 30
0
 40
0.915
 39
  0
0
CIRCLE
8
JA
 10
2.54
 20
334.01047
 30
0
 40
0.915
 39
  0
0
CIRCLE
8
JA
 10
12.7
 20
334.01047
 30
0
 40
0.585
 39
  0
0
CIRCLE
8
JA
 10
20.32
 20
334.01047
 30
0
 40
0.915
 39
  0
0
CIRCLE
8
JA
 10
10.16
 20
331.47046
 30
0
 40
0.915
 39
  0
0
CIRCLE
8
JA
 10
12.7
 20
331.47046
 30
0
 40
0.585
 39
  0
0
CIRCLE
8
JA
 10
20.32
 20
331.47046
 30
0
 40
0.915
 39
  0
0
CIRCLE
8
JA
 10
7.62
 20
328.93045
 30
0
 40
0.915
 39
  0
0
CIRCLE
8
JA
 10
10.16
 20
328.93045
 30
0
 40
0.915
 39
  0
0
CIRCLE
8
JA
 10
12.7
 20
328.93045
 30
0
 40
0.585
 39
  0
0
CIRCLE
8
JA
 10
20.32
 20
328.93045
 30
0
 40
0.915
 39
  0
0
CIRCLE
8
JA
 10
5.08
 20
326.39044
 30
0
 40
0.915
 39
  0
0
CIRCLE
8
JA
 10
12.7
 20
326.39044
 30
0
 40
0.585
 39
  0
0
CIRCLE
8
JA
 10
20.32
 20
326.39044
 30
0
 40
0.915
 39
  0
0
CIRCLE
8
JA
 10
10.16
 20
323.85043
 30
0
 40
0.915
 39
  0
0
CIRCLE
8
JA
 10
12.7
 20
323.85043
 30
0
 40
0.585
 39
  0
0
CIRCLE
8
JA
 10
20.32
 20
323.85043
 30
0
 40
0.915
 39
  0
0
CIRCLE
8
JA
 10
12.7
 20
321.31042
 30
0
 40
0.585
 39
  0
0
CIRCLE
8
JA
 10
15.24
 20
321.31042
 30
0
 40
0.915
 39
  0
0
CIRCLE
8
JA
 10
20.32
 20
321.31042
 30
0
 40
0.915
 39
  0
0
CIRCLE
8
JA
 10
5.08
 20
318.77042
 30
0
 40
0.915
 39
  0
0
CIRCLE
8
JA
 10
7.62
 20
318.77042
 30
0
 40
0.915
 39
  0
0
CIRCLE
8
JA
 10
10.16
 20
318.77042
 30
0
 40
0.915
 39
  0
0
CIRCLE
8
JA
 10
12.7
 20
318.77042
 30
0
 40
0.585
 39
  0
0
CIRCLE
8
JA
 10
15.24
 20
318.77042
 30
0
 40
0.915
 39
  0
0
CIRCLE
8
JA
 10
20.32
 20
318.77042
 30
0
 40
0.915
 39
  0
0
CIRCLE
8
JA
 10
12.7
 20
316.2304
 30
0
 40
0.585
 39
  0
0
CIRCLE
8
JA
 10
20.32
 20
316.2304
 30
0
 40
0.915
 39
  0
0
CIRCLE
8
JA
 10
5.08
 20
313.6904
 30
0
 40
0.915
 39
  0
0
CIRCLE
8
JA
 10
7.62
 20
313.6904
 30
0
 40
0.915
 39
  0
0
CIRCLE
8
JA
 10
12.7
 20
313.6904
 30
0
 40
0.585
 39
  0
0
CIRCLE
8
JA
 10
15.24
 20
313.6904
 30
0
 40
0.915
 39
  0
0
CIRCLE
8
JA
 10
17.779999
 20
313.6904
 30
0
 40
0.915
 39
  0
0
CIRCLE
8
JA
 10
20.32
 20
313.6904
 30
0
 40
0.915
 39
  0
0
CIRCLE
8
JA
 10
2.54
 20
311.1504
 30
0
 40
0.915
 39
  0
0
CIRCLE
8
JA
 10
12.7
 20
311.1504
 30
0
 40
0.585
 39
  0
0
CIRCLE
8
JA
 10
20.32
 20
311.1504
 30
0
 40
0.915
 39
  0
0
CIRCLE
8
JA
 10
10.16
 20
308.61038
 30
0
 40
0.915
 39
  0
0
CIRCLE
8
JA
 10
12.7
 20
308.61038
 30
0
 40
0.585
 39
  0
0
CIRCLE
8
JA
 10
20.32
 20
308.61038
 30
0
 40
0.915
 39
  0
0
CIRCLE
8
JA
 10
12.7
 20
306.07037
 30
0
 40
0.585
 39
  0
0
CIRCLE
8
JA
 10
15.24
 20
306.07037
 30
0
 40
0.915
 39
  0
0
CIRCLE
8
JA
 10
17.779999
 20
306.07037
 30
0
 40
0.915
 39
  0
0
CIRCLE
8
JA
 10
20.32
 20
306.07037
 30
0
 40
0.915
 39
  0
0
CIRCLE
8
JA
 10
2.54
 20
303.53036
 30
0
 40
0.915
 39
  0
0
CIRCLE
8
JA
 10
10.16
 20
303.53036
 30
0
 40
0.915
 39
  0
0
CIRCLE
8
JA
 10
12.7
 20
303.53036
 30
0
 40
0.585
 39
  0
0
CIRCLE
8
JA
 10
15.24
 20
303.53036
 30
0
 40
0.915
 39
  0
0
CIRCLE
8
JA
 10
20.32
 20
303.53036
 30
0
 40
0.915
 39
  0
0
CIRCLE
8
JA
 10
10.16
 20
300.99036
 30
0
 40
0.915
 39
  0
0
CIRCLE
8
JA
 10
12.7
 20
300.99036
 30
0
 40
0.585
 39
  0
0
CIRCLE
8
JA
 10
20.32
 20
300.99036
 30
0
 40
0.915
 39
  0
0
CIRCLE
8
JA
 10
10.16
 20
298.45035
 30
0
 40
0.915
 39
  0
0
CIRCLE
8
JA
 10
12.7
 20
298.45035
 30
0
 40
0.585
 39
  0
0
CIRCLE
8
JA
 10
17.779999
 20
298.45035
 30
0
 40
0.915
 39
  0
0
CIRCLE
8
JA
 10
20.32
 20
298.45035
 30
0
 40
0.915
 39
  0
0
CIRCLE
8
JA
 10
5.08
 20
295.91034
 30
0
 40
0.915
 39
  0
0
CIRCLE
8
JA
 10
12.7
 20
295.91034
 30
0
 40
0.585
 39
  0
0
CIRCLE
8
JA
 10
20.32
 20
295.91034
 30
0
 40
0.915
 39
  0
0
CIRCLE
8
JA
 10
10.16
 20
293.37033
 30
0
 40
0.915
 39
  0
0
CIRCLE
8
JA
 10
12.7
 20
293.37033
 30
0
 40
0.585
 39
  0
0
CIRCLE
8
JA
 10
20.32
 20
293.37033
 30
0
 40
0.915
 39
  0
0
CIRCLE
8
JA
 10
12.7
 20
290.83032
 30
0
 40
0.585
 39
  0
0
CIRCLE
8
JA
 10
15.24
 20
290.83032
 30
0
 40
0.915
 39
  0
0
CIRCLE
8
JA
 10
17.779999
 20
290.83032
 30
0
 40
0.915
 39
  0
0
CIRCLE
8
JA
 10
20.32
 20
290.83032
 30
0
 40
0.915
 39
  0
0
CIRCLE
8
JA
 10
2.54
 20
288.2903
 30
0
 40
0.915
 39
  0
0
CIRCLE
8
JA
 10
5.08
 20
288.2903
 30
0
 40
0.915
 39
  0
0
CIRCLE
8
JA
 10
12.7
 20
288.2903
 30
0
 40
0.585
 39
  0
0
CIRCLE
8
JA
 10
20.32
 20
288.2903
 30
0
 40
0.915
 39
  0
0
CIRCLE
8
JA
 10
10.16
 20
285.7503
 30
0
 40
0.915
 39
  0
0
CIRCLE
8
JA
 10
12.7
 20
285.7503
 30
0
 40
0.585
 39
  0
0
CIRCLE
8
JA
 10
20.32
 20
285.7503
 30
0
 40
0.915
 39
  0
0
CIRCLE
8
JA
 10
10.16
 20
283.2103
 30
0
 40
0.915
 39
  0
0
CIRCLE
8
JA
 10
12.7
 20
283.2103
 30
0
 40
0.585
 39
  0
0
CIRCLE
8
JA
 10
15.24
 20
283.2103
 30
0
 40
0.915
 39
  0
0
CIRCLE
8
JA
 10
20.32
 20
283.2103
 30
0
 40
0.915
 39
  0
0
CIRCLE
8
JA
 10
2.54
 20
280.6703
 30
0
 40
0.915
 39
  0
0
CIRCLE
8
JA
 10
10.16
 20
280.6703
 30
0
 40
0.915
 39
  0
0
CIRCLE
8
JA
 10
12.7
 20
280.6703
 30
0
 40
0.585
 39
  0
0
CIRCLE
8
JA
 10
20.32
 20
280.6703
 30
0
 40
0.915
 39
  0
0
CIRCLE
8
JA
 10
10.16
 20
278.13028
 30
0
 40
0.915
 39
  0
0
CIRCLE
8
JA
 10
12.7
 20
278.13028
 30
0
 40
0.585
 39
  0
0
CIRCLE
8
JA
 10
20.32
 20
278.13028
 30
0
 40
0.915
 39
  0
0
CIRCLE
8
JA
 10
12.7
 20
275.59027
 30
0
 40
0.585
 39
  0
0
CIRCLE
8
JA
 10
15.24
 20
275.59027
 30
0
 40
0.915
 39
  0
0
CIRCLE
8
JA
 10
20.32
 20
275.59027
 30
0
 40
0.915
 39
  0
0
CIRCLE
8
JA
 10
5.08
 20
273.05026
 30
0
 40
0.915
 39
  0
0
CIRCLE
8
JA
 10
12.7
 20
273.05026
 30
0
 40
0.585
 39
  0
0
CIRCLE
8
JA
 10
20.32
 20
273.05026
 30
0
 40
0.915
 39
  0
0
CIRCLE
8
JA
 10
10.16
 20
270.51025
 30
0
 40
0.915
 39
  0
0
CIRCLE
8
JA
 10
12.7
 20
270.51025
 30
0
 40
0.585
 39
  0
0
CIRCLE
8
JA
 10
20.32
 20
270.51025
 30
0
 40
0.915
 39
  0
0
CIRCLE
8
JA
 10
12.7
 20
267.97025
 30
0
 40
0.585
 39
  0
0
CIRCLE
8
JA
 10
15.24
 20
267.97025
 30
0
 40
0.915
 39
  0
0
CIRCLE
8
JA
 10
20.32
 20
267.97025
 30
0
 40
0.915
 39
  0
0
CIRCLE
8
JA
 10
12.7
 20
265.43024
 30
0
 40
0.585
 39
  0
0
CIRCLE
8
JA
 10
20.32
 20
265.43024
 30
0
 40
0.915
 39
  0
0
CIRCLE
8
JA
 10
7.62
 20
262.89023
 30
0
 40
0.915
 39
  0
0
CIRCLE
8
JA
 10
10.16
 20
262.89023
 30
0
 40
0.915
 39
  0
0
CIRCLE
8
JA
 10
12.7
 20
262.89023
 30
0
 40
0.585
 39
  0
0
CIRCLE
8
JA
 10
20.32
 20
262.89023
 30
0
 40
0.915
 39
  0
0
CIRCLE
8
JA
 10
12.7
 20
260.35022
 30
0
 40
0.585
 39
  0
0
CIRCLE
8
JA
 10
20.32
 20
260.35022
 30
0
 40
0.915
 39
  0
0
CIRCLE
8
JA
 10
2.54
 20
257.8102
 30
0
 40
0.915
 39
  0
0
CIRCLE
8
JA
 10
12.7
 20
257.8102
 30
0
 40
0.585
 39
  0
0
CIRCLE
8
JA
 10
20.32
 20
257.8102
 30
0
 40
0.915
 39
  0
0
CIRCLE
8
JA
 10
10.16
 20
255.27022
 30
0
 40
0.915
 39
  0
0
CIRCLE
8
JA
 10
12.7
 20
255.27022
 30
0
 40
0.585
 39
  0
0
CIRCLE
8
JA
 10
20.32
 20
255.27022
 30
0
 40
0.915
 39
  0
0
CIRCLE
8
JA
 10
12.7
 20
252.73022
 30
0
 40
0.585
 39
  0
0
CIRCLE
8
JA
 10
17.779999
 20
252.73022
 30
0
 40
0.915
 39
  0
0
CIRCLE
8
JA
 10
20.32
 20
252.73022
 30
0
 40
0.915
 39
  0
0
CIRCLE
8
JA
 10
7.62
 20
250.19023
 30
0
 40
0.915
 39
  0
0
CIRCLE
8
JA
 10
12.7
 20
250.19023
 30
0
 40
0.585
 39
  0
0
CIRCLE
8
JA
 10
15.24
 20
250.19023
 30
0
 40
0.915
 39
  0
0
CIRCLE
8
JA
 10
20.32
 20
250.19023
 30
0
 40
0.915
 39
  0
0
CIRCLE
8
JA
 10
12.7
 20
247.65024
 30
0
 40
0.585
 39
  0
0
CIRCLE
8
JA
 10
20.32
 20
247.65024
 30
0
 40
0.915
 39
  0
0
CIRCLE
8
JA
 10
12.7
 20
245.11024
 30
0
 40
0.585
 39
  0
0
CIRCLE
8
JA
 10
20.32
 20
245.11024
 30
0
 40
0.915
 39
  0
0
CIRCLE
8
JA
 10
2.54
 20
242.57025
 30
0
 40
0.915
 39
  0
0
CIRCLE
8
JA
 10
7.62
 20
242.57025
 30
0
 40
0.915
 39
  0
0
CIRCLE
8
JA
 10
12.7
 20
242.57025
 30
0
 40
0.585
 39
  0
0
CIRCLE
8
JA
 10
20.32
 20
242.57025
 30
0
 40
0.915
 39
  0
0
CIRCLE
8
JA
 10
10.16
 20
240.03026
 30
0
 40
0.915
 39
  0
0
CIRCLE
8
JA
 10
12.7
 20
240.03026
 30
0
 40
0.585
 39
  0
0
CIRCLE
8
JA
 10
20.32
 20
240.03026
 30
0
 40
0.915
 39
  0
0
CIRCLE
8
JA
 10
12.7
 20
237.49026
 30
0
 40
0.585
 39
  0
0
CIRCLE
8
JA
 10
17.779999
 20
237.49026
 30
0
 40
0.915
 39
  0
0
CIRCLE
8
JA
 10
20.32
 20
237.49026
 30
0
 40
0.915
 39
  0
0
CIRCLE
8
JA
 10
2.54
 20
234.95027
 30
0
 40
0.915
 39
  0
0
CIRCLE
8
JA
 10
10.16
 20
234.95027
 30
0
 40
0.915
 39
  0
0
CIRCLE
8
JA
 10
12.7
 20
234.95027
 30
0
 40
0.585
 39
  0
0
CIRCLE
8
JA
 10
15.24
 20
234.95027
 30
0
 40
0.915
 39
  0
0
CIRCLE
8
JA
 10
20.32
 20
234.95027
 30
0
 40
0.915
 39
  0
0
CIRCLE
8
JA
 10
10.16
 20
232.41028
 30
0
 40
0.915
 39
  0
0
CIRCLE
8
JA
 10
12.7
 20
232.41028
 30
0
 40
0.585
 39
  0
0
CIRCLE
8
JA
 10
20.32
 20
232.41028
 30
0
 40
0.915
 39
  0
0
CIRCLE
8
JA
 10
7.62
 20
229.87029
 30
0
 40
0.915
 39
  0
0
CIRCLE
8
JA
 10
12.7
 20
229.87029
 30
0
 40
0.585
 39
  0
0
CIRCLE
8
JA
 10
15.24
 20
229.87029
 30
0
 40
0.915
 39
  0
0
CIRCLE
8
JA
 10
17.779999
 20
229.87029
 30
0
 40
0.915
 39
  0
0
CIRCLE
8
JA
 10
20.32
 20
229.87029
 30
0
 40
0.915
 39
  0
0
CIRCLE
8
JA
 10
5.08
 20
227.33029
 30
0
 40
0.915
 39
  0
0
CIRCLE
8
JA
 10
7.62
 20
227.33029
 30
0
 40
0.915
 39
  0
0
CIRCLE
8
JA
 10
10.16
 20
227.33029
 30
0
 40
0.915
 39
  0
0
CIRCLE
8
JA
 10
12.7
 20
227.33029
 30
0
 40
0.585
 39
  0
0
CIRCLE
8
JA
 10
20.32
 20
227.33029
 30
0
 40
0.915
 39
  0
0
CIRCLE
8
JA
 10
12.7
 20
224.7903
 30
0
 40
0.585
 39
  0
0
CIRCLE
8
JA
 10
20.32
 20
224.7903
 30
0
 40
0.915
 39
  0
0
CIRCLE
8
JA
 10
10.16
 20
222.2503
 30
0
 40
0.915
 39
  0
0
CIRCLE
8
JA
 10
12.7
 20
222.2503
 30
0
 40
0.585
 39
  0
0
CIRCLE
8
JA
 10
15.24
 20
222.2503
 30
0
 40
0.915
 39
  0
0
CIRCLE
8
JA
 10
17.779999
 20
222.2503
 30
0
 40
0.915
 39
  0
0
CIRCLE
8
JA
 10
20.32
 20
222.2503
 30
0
 40
0.915
 39
  0
0
CIRCLE
8
JA
 10
5.08
 20
219.71031
 30
0
 40
0.915
 39
  0
0
CIRCLE
8
JA
 10
7.62
 20
219.71031
 30
0
 40
0.915
 39
  0
0
CIRCLE
8
JA
 10
10.16
 20
219.71031
 30
0
 40
0.915
 39
  0
0
CIRCLE
8
JA
 10
12.7
 20
219.71031
 30
0
 40
0.585
 39
  0
0
CIRCLE
8
JA
 10
15.24
 20
219.71031
 30
0
 40
0.915
 39
  0
0
CIRCLE
8
JA
 10
20.32
 20
219.71031
 30
0
 40
0.915
 39
  0
0
CIRCLE
8
JA
 10
12.7
 20
217.17032
 30
0
 40
0.585
 39
  0
0
CIRCLE
8
JA
 10
20.32
 20
217.17032
 30
0
 40
0.915
 39
  0
0
CIRCLE
8
JA
 10
12.7
 20
214.63033
 30
0
 40
0.585
 39
  0
0
CIRCLE
8
JA
 10
17.779999
 20
214.63033
 30
0
 40
0.915
 39
  0
0
CIRCLE
8
JA
 10
20.32
 20
214.63033
 30
0
 40
0.915
 39
  0
0
CIRCLE
8
JA
 10
12.7
 20
212.09033
 30
0
 40
0.585
 39
  0
0
CIRCLE
8
JA
 10
12.7
 20
209.55034
 30
0
 40
0.585
 39
  0
0
CIRCLE
8
JA
 10
12.7
 20
207.01035
 30
0
 40
0.585
 39
  0
0
CIRCLE
8
JA
 10
12.7
 20
204.47035
 30
0
 40
0.585
 39
  0
0
CIRCLE
8
JA
 10
5.08
 20
201.93036
 30
0
 40
0.915
 39
  0
0
CIRCLE
8
JA
 10
10.16
 20
201.93036
 30
0
 40
0.915
 39
  0
0
CIRCLE
8
JA
 10
12.7
 20
201.93036
 30
0
 40
0.585
 39
  0
0
CIRCLE
8
JA
 10
15.24
 20
201.93036
 30
0
 40
0.915
 39
  0
0
CIRCLE
8
JA
 10
20.32
 20
201.93036
 30
0
 40
0.915
 39
  0
0
CIRCLE
8
JA
 10
12.7
 20
199.39037
 30
0
 40
0.585
 39
  0
0
CIRCLE
8
JA
 10
20.32
 20
199.39037
 30
0
 40
0.915
 39
  0
0
CIRCLE
8
JA
 10
10.16
 20
196.85037
 30
0
 40
0.915
 39
  0
0
CIRCLE
8
JA
 10
12.7
 20
196.85037
 30
0
 40
0.585
 39
  0
0
CIRCLE
8
JA
 10
17.779999
 20
196.85037
 30
0
 40
0.915
 39
  0
0
CIRCLE
8
JA
 10
20.32
 20
196.85037
 30
0
 40
0.915
 39
  0
0
CIRCLE
8
JA
 10
5.08
 20
194.31038
 30
0
 40
0.915
 39
  0
0
CIRCLE
8
JA
 10
7.62
 20
194.31038
 30
0
 40
0.915
 39
  0
0
CIRCLE
8
JA
 10
12.7
 20
194.31038
 30
0
 40
0.585
 39
  0
0
CIRCLE
8
JA
 10
20.32
 20
194.31038
 30
0
 40
0.915
 39
  0
0
CIRCLE
8
JA
 10
7.62
 20
191.77039
 30
0
 40
0.915
 39
  0
0
CIRCLE
8
JA
 10
12.7
 20
191.77039
 30
0
 40
0.585
 39
  0
0
CIRCLE
8
JA
 10
15.24
 20
191.77039
 30
0
 40
0.915
 39
  0
0
CIRCLE
8
JA
 10
20.32
 20
191.77039
 30
0
 40
0.915
 39
  0
0
CIRCLE
8
JA
 10
5.08
 20
189.2304
 30
0
 40
0.915
 39
  0
0
CIRCLE
8
JA
 10
7.62
 20
189.2304
 30
0
 40
0.915
 39
  0
0
CIRCLE
8
JA
 10
10.16
 20
189.2304
 30
0
 40
0.915
 39
  0
0
CIRCLE
8
JA
 10
12.7
 20
189.2304
 30
0
 40
0.585
 39
  0
0
CIRCLE
8
JA
 10
20.32
 20
189.2304
 30
0
 40
0.915
 39
  0
0
CIRCLE
8
JA
 10
12.7
 20
186.6904
 30
0
 40
0.585
 39
  0
0
CIRCLE
8
JA
 10
12.7
 20
184.1504
 30
0
 40
0.585
 39
  0
0
CIRCLE
8
JA
 10
12.7
 20
181.61041
 30
0
 40
0.585
 39
  0
0
CIRCLE
8
JA
 10
12.7
 20
179.07042
 30
0
 40
0.585
 39
  0
0
CIRCLE
8
JA
 10
12.7
 20
176.53043
 30
0
 40
0.585
 39
  0
0
CIRCLE
8
JA
 10
12.7
 20
173.99043
 30
0
 40
0.585
 39
  0
0
CIRCLE
8
JA
 10
12.7
 20
171.45044
 30
0
 40
0.585
 39
  0
0
CIRCLE
8
JA
 10
12.7
 20
168.91045
 30
0
 40
0.585
 39
  0
0
CIRCLE
8
JA
 10
2.54
 20
166.37045
 30
0
 40
0.915
 39
  0
0
CIRCLE
8
JA
 10
5.08
 20
166.37045
 30
0
 40
0.915
 39
  0
0
CIRCLE
8
JA
 10
7.62
 20
166.37045
 30
0
 40
0.915
 39
  0
0
CIRCLE
8
JA
 10
10.16
 20
166.37045
 30
0
 40
0.915
 39
  0
0
CIRCLE
8
JA
 10
12.7
 20
166.37045
 30
0
 40
0.585
 39
  0
0
CIRCLE
8
JA
 10
15.24
 20
166.37045
 30
0
 40
0.915
 39
  0
0
CIRCLE
8
JA
 10
20.32
 20
166.37045
 30
0
 40
0.915
 39
  0
0
CIRCLE
8
JA
 10
2.54
 20
163.83046
 30
0
 40
0.915
 39
  0
0
CIRCLE
8
JA
 10
5.08
 20
163.83046
 30
0
 40
0.915
 39
  0
0
CIRCLE
8
JA
 10
7.62
 20
163.83046
 30
0
 40
0.915
 39
  0
0
CIRCLE
8
JA
 10
10.16
 20
163.83046
 30
0
 40
0.915
 39
  0
0
CIRCLE
8
JA
 10
12.7
 20
163.83046
 30
0
 40
0.585
 39
  0
0
CIRCLE
8
JA
 10
15.24
 20
163.83046
 30
0
 40
0.915
 39
  0
0
CIRCLE
8
JA
 10
20.32
 20
163.83046
 30
0
 40
0.915
 39
  0
0
CIRCLE
8
JA
 10
2.54
 20
161.29047
 30
0
 40
0.915
 39
  0
0
CIRCLE
8
JA
 10
5.08
 20
161.29047
 30
0
 40
0.915
 39
  0
0
CIRCLE
8
JA
 10
10.16
 20
161.29047
 30
0
 40
0.915
 39
  0
0
CIRCLE
8
JA
 10
12.7
 20
161.29047
 30
0
 40
0.585
 39
  0
0
CIRCLE
8
JA
 10
20.32
 20
161.29047
 30
0
 40
0.915
 39
  0
0
CIRCLE
8
JA
 10
5.08
 20
158.75047
 30
0
 40
0.915
 39
  0
0
CIRCLE
8
JA
 10
12.7
 20
158.75047
 30
0
 40
0.585
 39
  0
0
CIRCLE
8
JA
 10
20.32
 20
158.75047
 30
0
 40
0.915
 39
  0
0
CIRCLE
8
JA
 10
10.16
 20
156.21048
 30
0
 40
0.915
 39
  0
0
CIRCLE
8
JA
 10
12.7
 20
156.21048
 30
0
 40
0.585
 39
  0
0
CIRCLE
8
JA
 10
20.32
 20
156.21048
 30
0
 40
0.915
 39
  0
0
CIRCLE
8
JA
 10
12.7
 20
153.67049
 30
0
 40
0.585
 39
  0
0
CIRCLE
8
JA
 10
17.779999
 20
153.67049
 30
0
 40
0.915
 39
  0
0
CIRCLE
8
JA
 10
20.32
 20
153.67049
 30
0
 40
0.915
 39
  0
0
CIRCLE
8
JA
 10
12.7
 20
151.1305
 30
0
 40
0.585
 39
  0
0
CIRCLE
8
JA
 10
20.32
 20
151.1305
 30
0
 40
0.915
 39
  0
0
CIRCLE
8
JA
 10
12.7
 20
148.5905
 30
0
 40
0.585
 39
  0
0
CIRCLE
8
JA
 10
20.32
 20
148.5905
 30
0
 40
0.915
 39
  0
0
CIRCLE
8
JA
 10
12.7
 20
146.0505
 30
0
 40
0.585
 39
  0
0
CIRCLE
8
JA
 10
20.32
 20
146.0505
 30
0
 40
0.915
 39
  0
0
CIRCLE
8
JA
 10
12.7
 20
143.51051
 30
0
 40
0.585
 39
  0
0
CIRCLE
8
JA
 10
20.32
 20
143.51051
 30
0
 40
0.915
 39
  0
0
CIRCLE
8
JA
 10
12.7
 20
140.97052
 30
0
 40
0.585
 39
  0
0
CIRCLE
8
JA
 10
20.32
 20
140.97052
 30
0
 40
0.915
 39
  0
0
CIRCLE
8
JA
 10
12.7
 20
138.43053
 30
0
 40
0.585
 39
  0
0
CIRCLE
8
JA
 10
20.32
 20
138.43053
 30
0
 40
0.915
 39
  0
0
CIRCLE
8
JA
 10
12.7
 20
135.89053
 30
0
 40
0.585
 39
  0
0
CIRCLE
8
JA
 10
20.32
 20
135.89053
 30
0
 40
0.915
 39
  0
0
CIRCLE
8
JA
 10
12.7
 20
133.35054
 30
0
 40
0.585
 39
  0
0
CIRCLE
8
JA
 10
20.32
 20
133.35054
 30
0
 40
0.915
 39
  0
0
CIRCLE
8
JA
 10
12.7
 20
130.81055
 30
0
 40
0.585
 39
  0
0
CIRCLE
8
JA
 10
20.32
 20
130.81055
 30
0
 40
0.915
 39
  0
0
CIRCLE
8
JA
 10
2.54
 20
128.27055
 30
0
 40
0.915
 39
  0
0
CIRCLE
8
JA
 10
10.16
 20
128.27055
 30
0
 40
0.915
 39
  0
0
CIRCLE
8
JA
 10
12.7
 20
128.27055
 30
0
 40
0.585
 39
  0
0
CIRCLE
8
JA
 10
15.24
 20
128.27055
 30
0
 40
0.915
 39
  0
0
CIRCLE
8
JA
 10
20.32
 20
128.27055
 30
0
 40
0.915
 39
  0
0
CIRCLE
8
JA
 10
2.54
 20
125.73055
 30
0
 40
0.915
 39
  0
0
CIRCLE
8
JA
 10
5.08
 20
125.73055
 30
0
 40
0.915
 39
  0
0
CIRCLE
8
JA
 10
7.62
 20
125.73055
 30
0
 40
0.915
 39
  0
0
CIRCLE
8
JA
 10
10.16
 20
125.73055
 30
0
 40
0.915
 39
  0
0
CIRCLE
8
JA
 10
12.7
 20
125.73055
 30
0
 40
0.585
 39
  0
0
CIRCLE
8
JA
 10
15.24
 20
125.73055
 30
0
 40
0.915
 39
  0
0
CIRCLE
8
JA
 10
20.32
 20
125.73055
 30
0
 40
0.915
 39
  0
0
CIRCLE
8
JA
 10
2.54
 20
123.19055
 30
0
 40
0.915
 39
  0
0
CIRCLE
8
JA
 10
5.08
 20
123.19055
 30
0
 40
0.915
 39
  0
0
CIRCLE
8
JA
 10
7.62
 20
123.19055
 30
0
 40
0.915
 39
  0
0
CIRCLE
8
JA
 10
10.16
 20
123.19055
 30
0
 40
0.915
 39
  0
0
CIRCLE
8
JA
 10
12.7
 20
123.19055
 30
0
 40
0.585
 39
  0
0
CIRCLE
8
JA
 10
15.24
 20
123.19055
 30
0
 40
0.915
 39
  0
0
CIRCLE
8
JA
 10
17.779999
 20
123.19055
 30
0
 40
0.915
 39
  0
0
CIRCLE
8
JA
 10
20.32
 20
123.19055
 30
0
 40
0.915
 39
  0
0
CIRCLE
8
JA
 10
12.7
 20
120.65055
 30
0
 40
0.585
 39
  0
0
CIRCLE
8
JA
 10
20.32
 20
120.65055
 30
0
 40
0.915
 39
  0
0
CIRCLE
8
JA
 10
5.08
 20
118.11055
 30
0
 40
0.915
 39
  0
0
CIRCLE
8
JA
 10
12.7
 20
118.11055
 30
0
 40
0.585
 39
  0
0
CIRCLE
8
JA
 10
20.32
 20
118.11055
 30
0
 40
0.915
 39
  0
0
CIRCLE
8
JA
 10
12.7
 20
115.57055
 30
0
 40
0.585
 39
  0
0
CIRCLE
8
JA
 10
20.32
 20
115.57055
 30
0
 40
0.915
 39
  0
0
CIRCLE
8
JA
 10
5.08
 20
113.03055
 30
0
 40
0.915
 39
  0
0
CIRCLE
8
JA
 10
12.7
 20
113.03055
 30
0
 40
0.585
 39
  0
0
CIRCLE
8
JA
 10
20.32
 20
113.03055
 30
0
 40
0.915
 39
  0
0
CIRCLE
8
JA
 10
12.7
 20
110.49055
 30
0
 40
0.585
 39
  0
0
CIRCLE
8
JA
 10
20.32
 20
110.49055
 30
0
 40
0.915
 39
  0
0
CIRCLE
8
JA
 10
12.7
 20
107.95055
 30
0
 40
0.585
 39
  0
0
CIRCLE
8
JA
 10
20.32
 20
107.95055
 30
0
 40
0.915
 39
  0
0
CIRCLE
8
JA
 10
2.54
 20
105.410545
 30
0
 40
0.915
 39
  0
0
CIRCLE
8
JA
 10
10.16
 20
105.410545
 30
0
 40
0.915
 39
  0
0
CIRCLE
8
JA
 10
12.7
 20
105.410545
 30
0
 40
0.585
 39
  0
0
CIRCLE
8
JA
 10
15.24
 20
105.410545
 30
0
 40
0.915
 39
  0
0
CIRCLE
8
JA
 10
20.32
 20
105.410545
 30
0
 40
0.915
 39
  0
0
CIRCLE
8
JA
 10
2.54
 20
102.870544
 30
0
 40
0.915
 39
  0
0
CIRCLE
8
JA
 10
5.08
 20
102.870544
 30
0
 40
0.915
 39
  0
0
CIRCLE
8
JA
 10
7.62
 20
102.870544
 30
0
 40
0.915
 39
  0
0
CIRCLE
8
JA
 10
10.16
 20
102.870544
 30
0
 40
0.915
 39
  0
0
CIRCLE
8
JA
 10
12.7
 20
102.870544
 30
0
 40
0.585
 39
  0
0
CIRCLE
8
JA
 10
15.24
 20
102.870544
 30
0
 40
0.915
 39
  0
0
CIRCLE
8
JA
 10
20.32
 20
102.870544
 30
0
 40
0.915
 39
  0
0
CIRCLE
8
JA
 10
2.54
 20
100.33054
 30
0
 40
0.915
 39
  0
0
CIRCLE
8
JA
 10
5.08
 20
100.33054
 30
0
 40
0.915
 39
  0
0
CIRCLE
8
JA
 10
7.62
 20
100.33054
 30
0
 40
0.915
 39
  0
0
CIRCLE
8
JA
 10
10.16
 20
100.33054
 30
0
 40
0.915
 39
  0
0
CIRCLE
8
JA
 10
12.7
 20
100.33054
 30
0
 40
0.585
 39
  0
0
CIRCLE
8
JA
 10
15.24
 20
100.33054
 30
0
 40
0.915
 39
  0
0
CIRCLE
8
JA
 10
17.779999
 20
100.33054
 30
0
 40
0.915
 39
  0
0
CIRCLE
8
JA
 10
20.32
 20
100.33054
 30
0
 40
0.915
 39
  0
0
CIRCLE
8
JA
 10
5.08
 20
97.79054
 30
0
 40
0.915
 39
  0
0
CIRCLE
8
JA
 10
7.62
 20
97.79054
 30
0
 40
0.915
 39
  0
0
CIRCLE
8
JA
 10
12.7
 20
97.79054
 30
0
 40
0.585
 39
  0
0
CIRCLE
8
JA
 10
20.32
 20
97.79054
 30
0
 40
0.915
 39
  0
0
CIRCLE
8
JA
 10
12.7
 20
95.25054
 30
0
 40
0.585
 39
  0
0
CIRCLE
8
JA
 10
20.32
 20
95.25054
 30
0
 40
0.915
 39
  0
0
CIRCLE
8
JA
 10
12.7
 20
92.71054
 30
0
 40
0.585
 39
  0
0
CIRCLE
8
JA
 10
20.32
 20
92.71054
 30
0
 40
0.915
 39
  0
0
CIRCLE
8
JA
 10
12.7
 20
90.17054
 30
0
 40
0.585
 39
  0
0
CIRCLE
8
JA
 10
20.32
 20
90.17054
 30
0
 40
0.915
 39
  0
0
CIRCLE
8
JA
 10
12.7
 20
87.63054
 30
0
 40
0.585
 39
  0
0
CIRCLE
8
JA
 10
20.32
 20
87.63054
 30
0
 40
0.915
 39
  0
0
CIRCLE
8
JA
 10
12.7
 20
85.09054
 30
0
 40
0.585
 39
  0
0
CIRCLE
8
JA
 10
20.32
 20
85.09054
 30
0
 40
0.915
 39
  0
0
CIRCLE
8
JA
 10
12.7
 20
82.55054
 30
0
 40
0.585
 39
  0
0
CIRCLE
8
JA
 10
20.32
 20
82.55054
 30
0
 40
0.915
 39
  0
0
CIRCLE
8
JA
 10
7.62
 20
80.01054
 30
0
 40
0.915
 39
  0
0
CIRCLE
8
JA
 10
10.16
 20
80.01054
 30
0
 40
0.915
 39
  0
0
CIRCLE
8
JA
 10
12.7
 20
80.01054
 30
0
 40
0.585
 39
  0
0
CIRCLE
8
JA
 10
20.32
 20
80.01054
 30
0
 40
0.915
 39
  0
0
CIRCLE
8
JA
 10
12.7
 20
77.470535
 30
0
 40
0.585
 39
  0
0
CIRCLE
8
JA
 10
20.32
 20
77.470535
 30
0
 40
0.915
 39
  0
0
CIRCLE
8
JA
 10
5.08
 20
74.930534
 30
0
 40
0.915
 39
  0
0
CIRCLE
8
JA
 10
7.62
 20
74.930534
 30
0
 40
0.915
 39
  0
0
CIRCLE
8
JA
 10
12.7
 20
74.930534
 30
0
 40
0.585
 39
  0
0
CIRCLE
8
JA
 10
20.32
 20
74.930534
 30
0
 40
0.915
 39
  0
0
CIRCLE
8
JA
 10
12.7
 20
72.39053
 30
0
 40
0.585
 39
  0
0
CIRCLE
8
JA
 10
20.32
 20
72.39053
 30
0
 40
0.915
 39
  0
0
CIRCLE
8
JA
 10
12.7
 20
69.85053
 30
0
 40
0.585
 39
  0
0
CIRCLE
8
JA
 10
20.32
 20
69.85053
 30
0
 40
0.915
 39
  0
0
CIRCLE
8
JA
 10
12.7
 20
67.31053
 30
0
 40
0.585
 39
  0
0
CIRCLE
8
JA
 10
20.32
 20
67.31053
 30
0
 40
0.915
 39
  0
0
CIRCLE
8
JA
 10
12.7
 20
64.77053
 30
0
 40
0.585
 39
  0
0
CIRCLE
8
JA
 10
20.32
 20
64.77053
 30
0
 40
0.915
 39
  0
0
CIRCLE
8
JA
 10
12.7
 20
62.23053
 30
0
 40
0.585
 39
  0
0
CIRCLE
8
JA
 10
20.32
 20
62.23053
 30
0
 40
0.915
 39
  0
0
CIRCLE
8
JA
 10
12.7
 20
59.69053
 30
0
 40
0.585
 39
  0
0
CIRCLE
8
JA
 10
12.7
 20
57.150528
 30
0
 40
0.585
 39
  0
0
CIRCLE
8
JA
 10
12.7
 20
54.610527
 30
0
 40
0.585
 39
  0
0
CIRCLE
8
JA
 10
12.7
 20
52.070526
 30
0
 40
0.585
 39
  0
0
CIRCLE
8
JA
 10
5.08
 20
49.530525
 30
0
 40
0.915
 39
  0
0
CIRCLE
8
JA
 10
10.16
 20
49.530525
 30
0
 40
0.915
 39
  0
0
CIRCLE
8
JA
 10
12.7
 20
49.530525
 30
0
 40
0.585
 39
  0
0
CIRCLE
8
JA
 10
15.24
 20
49.530525
 30
0
 40
0.915
 39
  0
0
CIRCLE
8
JA
 10
20.32
 20
49.530525
 30
0
 40
0.915
 39
  0
0
CIRCLE
8
JA
 10
12.7
 20
46.990524
 30
0
 40
0.585
 39
  0
0
CIRCLE
8
JA
 10
20.32
 20
46.990524
 30
0
 40
0.915
 39
  0
0
CIRCLE
8
JA
 10
10.16
 20
44.450523
 30
0
 40
0.915
 39
  0
0
CIRCLE
8
JA
 10
12.7
 20
44.450523
 30
0
 40
0.585
 39
  0
0
CIRCLE
8
JA
 10
17.779999
 20
44.450523
 30
0
 40
0.915
 39
  0
0
CIRCLE
8
JA
 10
20.32
 20
44.450523
 30
0
 40
0.915
 39
  0
0
CIRCLE
8
JA
 10
12.7
 20
41.910522
 30
0
 40
0.585
 39
  0
0
CIRCLE
8
JA
 10
20.32
 20
41.910522
 30
0
 40
0.915
 39
  0
0
CIRCLE
8
JA
 10
2.54
 20
39.37052
 30
0
 40
0.915
 39
  0
0
CIRCLE
8
JA
 10
12.7
 20
39.37052
 30
0
 40
0.585
 39
  0
0
CIRCLE
8
JA
 10
20.32
 20
39.37052
 30
0
 40
0.915
 39
  0
0
CIRCLE
8
JA
 10
12.7
 20
36.83052
 30
0
 40
0.585
 39
  0
0
CIRCLE
8
JA
 10
17.779999
 20
36.83052
 30
0
 40
0.915
 39
  0
0
CIRCLE
8
JA
 10
20.32
 20
36.83052
 30
0
 40
0.915
 39
  0
0
CIRCLE
8
JA
 10
12.7
 20
34.29052
 30
0
 40
0.585
 39
  0
0
CIRCLE
8
JA
 10
12.7
 20
31.750519
 30
0
 40
0.585
 39
  0
0
CIRCLE
8
JA
 10
12.7
 20
29.210518
 30
0
 40
0.585
 39
  0
0
CIRCLE
8
JA
 10
12.7
 20
26.670517
 30
0
 40
0.585
 39
  0
0
CIRCLE
8
JA
 10
5.08
 20
24.130516
 30
0
 40
0.915
 39
  0
0
CIRCLE
8
JA
 10
7.62
 20
24.130516
 30
0
 40
0.915
 39
  0
0
CIRCLE
8
JA
 10
10.16
 20
24.130516
 30
0
 40
0.915
 39
  0
0
CIRCLE
8
JA
 10
12.7
 20
24.130516
 30
0
 40
0.585
 39
  0
0
CIRCLE
8
JA
 10
15.24
 20
24.130516
 30
0
 40
0.915
 39
  0
0
CIRCLE
8
JA
 10
20.32
 20
24.130516
 30
0
 40
0.915
 39
  0
0
CIRCLE
8
JA
 10
12.7
 20
21.590515
 30
0
 40
0.585
 39
  0
0
CIRCLE
8
JA
 10
20.32
 20
21.590515
 30
0
 40
0.915
 39
  0
0
CIRCLE
8
JA
 10
12.7
 20
19.050514
 30
0
 40
0.585
 39
  0
0
CIRCLE
8
JA
 10
17.779999
 20
19.050514
 30
0
 40
0.915
 39
  0
0
CIRCLE
8
JA
 10
20.32
 20
19.050514
 30
0
 40
0.915
 39
  0
0
CIRCLE
8
JA
 10
5.08
 20
16.510513
 30
0
 40
0.915
 39
  0
0
CIRCLE
8
JA
 10
7.62
 20
16.510513
 30
0
 40
0.915
 39
  0
0
CIRCLE
8
JA
 10
10.16
 20
16.510513
 30
0
 40
0.915
 39
  0
0
CIRCLE
8
JA
 10
12.7
 20
16.510513
 30
0
 40
0.585
 39
  0
0
CIRCLE
8
JA
 10
15.24
 20
16.510513
 30
0
 40
0.915
 39
  0
0
CIRCLE
8
JA
 10
20.32
 20
16.510513
 30
0
 40
0.915
 39
  0
0
CIRCLE
8
JA
 10
12.7
 20
13.970513
 30
0
 40
0.585
 39
  0
0
CIRCLE
8
JA
 10
20.32
 20
13.970513
 30
0
 40
0.915
 39
  0
0
CIRCLE
8
JA
 10
12.7
 20
11.430513
 30
0
 40
0.585
 39
  0
0
CIRCLE
8
JA
 10
17.779999
 20
11.430513
 30
0
 40
0.915
 39
  0
0
CIRCLE
8
JA
 10
20.32
 20
11.430513
 30
0
 40
0.915
 39
  0
0
CIRCLE
8
JA
 10
12.7
 20
8.890513
 30
0
 40
0.585
 39
  0
0
CIRCLE
8
JA
 10
12.7
 20
6.3505135
 30
0
 40
0.585
 39
  0
0
CIRCLE
8
JA
 10
12.7
 20
3.8105135
 30
0
 40
0.585
 39
  0
0
CIRCLE
8
JA
 10
12.7
 20
1.2705135
 30
0
 40
0.585
 39
  0
0
ENDSEC
  0
EOF
