  0
SECTION
  2
HEADER
  9
$ACADVER
  1
AC1009
  9
$INSBASE
 10
0.0
 20
0.0
 30
0.0
  9
$EXTMIN
 10
  0
 20
  0
 30
  0
  9
$EXTMAX
 10
368
 20
326
 30
0.0
  9
$LIMMIN
 10
0.0
 20
0.0
  9
$LIMMAX
 10
100.0
 20
100.0
  9
$ORTHOMODE
 70
     1
  9
$DIMSCALE
 40
1
  9
$DIMSTYLE
  2
STANDARD
  9
$FILLETRAD
 40
0.0
  9
$PSLTSCALE
 70
     1
  0
ENDSEC
  0
SECTION
  2
TABLES
  0
TABLE
  2
VPORT
 70
     2
  0
VPORT
  2
*ACTIVE
 70
     0
 10
0.0
 20
0.0
 11
1.0
 21
1.0
 12
50.0
 22
50.0
 13
0.0
 23
0.0
 14
1.0
 24
1.0
 15
0.0
 25
0.0
 16
0.0
 26
0.0
 36
1.0
 17
0.0
 27
0.0
 37
0.0
 40
100.0
 41
1.55
 42
50.0
 43
0.0
 44
0.0
 50
0.0
 51
0.0
 71
     0
 72
   100
 73
     1
 74
     1
 75
     0
 76
     0
 77
     0
 78
     0
  0
ENDTAB
  0
TABLE
  2
LTYPE
 70
     1
  0
LTYPE
  2
CONTINUOUS
  70
     0
  3
Solid Line
 72
    65
 73
     0
 40
0.0
  0
ENDTAB
  0
TABLE
  2
LAYER
 70
     3
  0
LAYER
  2
0
 70
     0
 62
     7
  6
CONTINUOUS
  0
LAYER
  2
JA
 70
     0
 62
     7
  6
CONTINUOUS
  0
LAYER
  2
DEFPOINTS
 70
     0
 62
     7
 6
CONTINUOUS
  0
ENDTAB
  0
TABLE
  2
VIEW
 70
     0
  0
ENDTAB
  0
TABLE
  2
DIMSTYLE
 70
     1
  0
DIMSTYLE
  2
STANDARD
 70
     0
  3

  4

  5

  6

  7

 40
1.0
 41
0.125
 42
0.04
 43
0.25
 44
0.125
 45
0.0
 46
0.0
 47
0.0
 48
0.0
140
0.125
141
0.06
142
0.0
143
25.4
144
1.0
145
0.0
146
1.0
147
0.09
 71
     0
 72
     0
 73
     1
 74
     1
 75
     0
 76
     0
 77
     0
 78
     0
170
     0
171
     2
172
     0
173
     0
174
     0
175
     0
176
     0
177
     0
178
     0
  0
ENDTAB
  0
ENDSEC
  0
SECTION
  2
BLOCKS
  0
ENDSEC
  0
SECTION
  2
ENTITIES
  0
LINE
8
JA
 10
0
 20
0
 30
0
 11
0
 21
314.96
 31
0
0
LINE
8
JA
 10
22.225
 20
0
 30
0
 11
22.225
 21
314.96
 31
0
0
LINE
8
JA
 10
0
 20
314.96
 30
0
 11
22.225
 21
314.96
 31
0
0
LINE
8
JA
 10
0
 20
0
 30
0
 11
22.225
 21
0
 31
0
0
LINE
8
JA
 10
0
 20
314.96
 30
7
 11
22.225
 21
314.96
 31
0
0
CIRCLE
8
JA
 10
5.08
 20
313.69
 30
0
 40
0.915
 39
  0
0
CIRCLE
8
JA
 10
7.62
 20
313.69
 30
0
 40
0.915
 39
  0
0
CIRCLE
8
JA
 10
10.16
 20
313.69
 30
0
 40
0.915
 39
  0
0
CIRCLE
8
JA
 10
12.7
 20
313.69
 30
0
 40
0.585
 39
  0
0
CIRCLE
8
JA
 10
15.24
 20
313.69
 30
0
 40
0.915
 39
  0
0
CIRCLE
8
JA
 10
17.779999
 20
313.69
 30
0
 40
0.915
 39
  0
0
CIRCLE
8
JA
 10
10.16
 20
311.15
 30
0
 40
0.915
 39
  0
0
CIRCLE
8
JA
 10
12.7
 20
311.15
 30
0
 40
0.585
 39
  0
0
CIRCLE
8
JA
 10
10.16
 20
308.61
 30
0
 40
0.915
 39
  0
0
CIRCLE
8
JA
 10
12.7
 20
308.61
 30
0
 40
0.585
 39
  0
0
CIRCLE
8
JA
 10
10.16
 20
306.06998
 30
0
 40
0.915
 39
  0
0
CIRCLE
8
JA
 10
12.7
 20
306.06998
 30
0
 40
0.585
 39
  0
0
CIRCLE
8
JA
 10
10.16
 20
303.52997
 30
0
 40
0.915
 39
  0
0
CIRCLE
8
JA
 10
12.7
 20
303.52997
 30
0
 40
0.585
 39
  0
0
CIRCLE
8
JA
 10
10.16
 20
300.98996
 30
0
 40
0.915
 39
  0
0
CIRCLE
8
JA
 10
12.7
 20
300.98996
 30
0
 40
0.585
 39
  0
0
CIRCLE
8
JA
 10
10.16
 20
298.44995
 30
0
 40
0.915
 39
  0
0
CIRCLE
8
JA
 10
12.7
 20
298.44995
 30
0
 40
0.585
 39
  0
0
CIRCLE
8
JA
 10
12.7
 20
295.90994
 30
0
 40
0.585
 39
  0
0
CIRCLE
8
JA
 10
5.08
 20
293.36993
 30
0
 40
0.915
 39
  0
0
CIRCLE
8
JA
 10
12.7
 20
293.36993
 30
0
 40
0.585
 39
  0
0
CIRCLE
8
JA
 10
17.779999
 20
293.36993
 30
0
 40
0.915
 39
  0
0
CIRCLE
8
JA
 10
5.08
 20
290.82993
 30
0
 40
0.915
 39
  0
0
CIRCLE
8
JA
 10
12.7
 20
290.82993
 30
0
 40
0.585
 39
  0
0
CIRCLE
8
JA
 10
17.779999
 20
290.82993
 30
0
 40
0.915
 39
  0
0
CIRCLE
8
JA
 10
5.08
 20
288.28992
 30
0
 40
0.915
 39
  0
0
CIRCLE
8
JA
 10
12.7
 20
288.28992
 30
0
 40
0.585
 39
  0
0
CIRCLE
8
JA
 10
17.779999
 20
288.28992
 30
0
 40
0.915
 39
  0
0
CIRCLE
8
JA
 10
5.08
 20
285.7499
 30
0
 40
0.915
 39
  0
0
CIRCLE
8
JA
 10
7.62
 20
285.7499
 30
0
 40
0.915
 39
  0
0
CIRCLE
8
JA
 10
10.16
 20
285.7499
 30
0
 40
0.915
 39
  0
0
CIRCLE
8
JA
 10
12.7
 20
285.7499
 30
0
 40
0.585
 39
  0
0
CIRCLE
8
JA
 10
15.24
 20
285.7499
 30
0
 40
0.915
 39
  0
0
CIRCLE
8
JA
 10
17.779999
 20
285.7499
 30
0
 40
0.915
 39
  0
0
CIRCLE
8
JA
 10
5.08
 20
283.2099
 30
0
 40
0.915
 39
  0
0
CIRCLE
8
JA
 10
12.7
 20
283.2099
 30
0
 40
0.585
 39
  0
0
CIRCLE
8
JA
 10
17.779999
 20
283.2099
 30
0
 40
0.915
 39
  0
0
CIRCLE
8
JA
 10
5.08
 20
280.6699
 30
0
 40
0.915
 39
  0
0
CIRCLE
8
JA
 10
12.7
 20
280.6699
 30
0
 40
0.585
 39
  0
0
CIRCLE
8
JA
 10
17.779999
 20
280.6699
 30
0
 40
0.915
 39
  0
0
CIRCLE
8
JA
 10
5.08
 20
278.12988
 30
0
 40
0.915
 39
  0
0
CIRCLE
8
JA
 10
12.7
 20
278.12988
 30
0
 40
0.585
 39
  0
0
CIRCLE
8
JA
 10
17.779999
 20
278.12988
 30
0
 40
0.915
 39
  0
0
CIRCLE
8
JA
 10
12.7
 20
275.58987
 30
0
 40
0.585
 39
  0
0
CIRCLE
8
JA
 10
10.16
 20
273.04987
 30
0
 40
0.915
 39
  0
0
CIRCLE
8
JA
 10
12.7
 20
273.04987
 30
0
 40
0.585
 39
  0
0
CIRCLE
8
JA
 10
7.62
 20
270.50986
 30
0
 40
0.915
 39
  0
0
CIRCLE
8
JA
 10
12.7
 20
270.50986
 30
0
 40
0.585
 39
  0
0
CIRCLE
8
JA
 10
15.24
 20
270.50986
 30
0
 40
0.915
 39
  0
0
CIRCLE
8
JA
 10
5.08
 20
267.96985
 30
0
 40
0.915
 39
  0
0
CIRCLE
8
JA
 10
12.7
 20
267.96985
 30
0
 40
0.585
 39
  0
0
CIRCLE
8
JA
 10
17.779999
 20
267.96985
 30
0
 40
0.915
 39
  0
0
CIRCLE
8
JA
 10
5.08
 20
265.42984
 30
0
 40
0.915
 39
  0
0
CIRCLE
8
JA
 10
12.7
 20
265.42984
 30
0
 40
0.585
 39
  0
0
CIRCLE
8
JA
 10
17.779999
 20
265.42984
 30
0
 40
0.915
 39
  0
0
CIRCLE
8
JA
 10
5.08
 20
262.88983
 30
0
 40
0.915
 39
  0
0
CIRCLE
8
JA
 10
7.62
 20
262.88983
 30
0
 40
0.915
 39
  0
0
CIRCLE
8
JA
 10
10.16
 20
262.88983
 30
0
 40
0.915
 39
  0
0
CIRCLE
8
JA
 10
12.7
 20
262.88983
 30
0
 40
0.585
 39
  0
0
CIRCLE
8
JA
 10
15.24
 20
262.88983
 30
0
 40
0.915
 39
  0
0
CIRCLE
8
JA
 10
17.779999
 20
262.88983
 30
0
 40
0.915
 39
  0
0
CIRCLE
8
JA
 10
5.08
 20
260.34982
 30
0
 40
0.915
 39
  0
0
CIRCLE
8
JA
 10
12.7
 20
260.34982
 30
0
 40
0.585
 39
  0
0
CIRCLE
8
JA
 10
17.779999
 20
260.34982
 30
0
 40
0.915
 39
  0
0
CIRCLE
8
JA
 10
5.08
 20
257.8098
 30
0
 40
0.915
 39
  0
0
CIRCLE
8
JA
 10
12.7
 20
257.8098
 30
0
 40
0.585
 39
  0
0
CIRCLE
8
JA
 10
17.779999
 20
257.8098
 30
0
 40
0.915
 39
  0
0
CIRCLE
8
JA
 10
12.7
 20
255.26982
 30
0
 40
0.585
 39
  0
0
CIRCLE
8
JA
 10
5.08
 20
252.72983
 30
0
 40
0.915
 39
  0
0
CIRCLE
8
JA
 10
12.7
 20
252.72983
 30
0
 40
0.585
 39
  0
0
CIRCLE
8
JA
 10
17.779999
 20
252.72983
 30
0
 40
0.915
 39
  0
0
CIRCLE
8
JA
 10
5.08
 20
250.18983
 30
0
 40
0.915
 39
  0
0
CIRCLE
8
JA
 10
12.7
 20
250.18983
 30
0
 40
0.585
 39
  0
0
CIRCLE
8
JA
 10
17.779999
 20
250.18983
 30
0
 40
0.915
 39
  0
0
CIRCLE
8
JA
 10
5.08
 20
247.64984
 30
0
 40
0.915
 39
  0
0
CIRCLE
8
JA
 10
7.62
 20
247.64984
 30
0
 40
0.915
 39
  0
0
CIRCLE
8
JA
 10
12.7
 20
247.64984
 30
0
 40
0.585
 39
  0
0
CIRCLE
8
JA
 10
17.779999
 20
247.64984
 30
0
 40
0.915
 39
  0
0
CIRCLE
8
JA
 10
5.08
 20
245.10985
 30
0
 40
0.915
 39
  0
0
CIRCLE
8
JA
 10
10.16
 20
245.10985
 30
0
 40
0.915
 39
  0
0
CIRCLE
8
JA
 10
12.7
 20
245.10985
 30
0
 40
0.585
 39
  0
0
CIRCLE
8
JA
 10
17.779999
 20
245.10985
 30
0
 40
0.915
 39
  0
0
CIRCLE
8
JA
 10
5.08
 20
242.56985
 30
0
 40
0.915
 39
  0
0
CIRCLE
8
JA
 10
12.7
 20
242.56985
 30
0
 40
0.585
 39
  0
0
CIRCLE
8
JA
 10
15.24
 20
242.56985
 30
0
 40
0.915
 39
  0
0
CIRCLE
8
JA
 10
17.779999
 20
242.56985
 30
0
 40
0.915
 39
  0
0
CIRCLE
8
JA
 10
5.08
 20
240.02986
 30
0
 40
0.915
 39
  0
0
CIRCLE
8
JA
 10
12.7
 20
240.02986
 30
0
 40
0.585
 39
  0
0
CIRCLE
8
JA
 10
17.779999
 20
240.02986
 30
0
 40
0.915
 39
  0
0
CIRCLE
8
JA
 10
5.08
 20
237.48987
 30
0
 40
0.915
 39
  0
0
CIRCLE
8
JA
 10
12.7
 20
237.48987
 30
0
 40
0.585
 39
  0
0
CIRCLE
8
JA
 10
17.779999
 20
237.48987
 30
0
 40
0.915
 39
  0
0
CIRCLE
8
JA
 10
12.7
 20
234.94987
 30
0
 40
0.585
 39
  0
0
CIRCLE
8
JA
 10
5.08
 20
232.40988
 30
0
 40
0.915
 39
  0
0
CIRCLE
8
JA
 10
12.7
 20
232.40988
 30
0
 40
0.585
 39
  0
0
CIRCLE
8
JA
 10
17.779999
 20
232.40988
 30
0
 40
0.915
 39
  0
0
CIRCLE
8
JA
 10
5.08
 20
229.86989
 30
0
 40
0.915
 39
  0
0
CIRCLE
8
JA
 10
12.7
 20
229.86989
 30
0
 40
0.585
 39
  0
0
CIRCLE
8
JA
 10
15.24
 20
229.86989
 30
0
 40
0.915
 39
  0
0
CIRCLE
8
JA
 10
5.08
 20
227.3299
 30
0
 40
0.915
 39
  0
0
CIRCLE
8
JA
 10
10.16
 20
227.3299
 30
0
 40
0.915
 39
  0
0
CIRCLE
8
JA
 10
12.7
 20
227.3299
 30
0
 40
0.585
 39
  0
0
CIRCLE
8
JA
 10
5.08
 20
224.7899
 30
0
 40
0.915
 39
  0
0
CIRCLE
8
JA
 10
7.62
 20
224.7899
 30
0
 40
0.915
 39
  0
0
CIRCLE
8
JA
 10
12.7
 20
224.7899
 30
0
 40
0.585
 39
  0
0
CIRCLE
8
JA
 10
5.08
 20
222.24991
 30
0
 40
0.915
 39
  0
0
CIRCLE
8
JA
 10
10.16
 20
222.24991
 30
0
 40
0.915
 39
  0
0
CIRCLE
8
JA
 10
12.7
 20
222.24991
 30
0
 40
0.585
 39
  0
0
CIRCLE
8
JA
 10
5.08
 20
219.70992
 30
0
 40
0.915
 39
  0
0
CIRCLE
8
JA
 10
12.7
 20
219.70992
 30
0
 40
0.585
 39
  0
0
CIRCLE
8
JA
 10
15.24
 20
219.70992
 30
0
 40
0.915
 39
  0
0
CIRCLE
8
JA
 10
5.08
 20
217.16992
 30
0
 40
0.915
 39
  0
0
CIRCLE
8
JA
 10
12.7
 20
217.16992
 30
0
 40
0.585
 39
  0
0
CIRCLE
8
JA
 10
17.779999
 20
217.16992
 30
0
 40
0.915
 39
  0
0
CIRCLE
8
JA
 10
12.7
 20
214.62993
 30
0
 40
0.585
 39
  0
0
CIRCLE
8
JA
 10
7.62
 20
212.08994
 30
0
 40
0.915
 39
  0
0
CIRCLE
8
JA
 10
10.16
 20
212.08994
 30
0
 40
0.915
 39
  0
0
CIRCLE
8
JA
 10
12.7
 20
212.08994
 30
0
 40
0.585
 39
  0
0
CIRCLE
8
JA
 10
15.24
 20
212.08994
 30
0
 40
0.915
 39
  0
0
CIRCLE
8
JA
 10
5.08
 20
209.54994
 30
0
 40
0.915
 39
  0
0
CIRCLE
8
JA
 10
12.7
 20
209.54994
 30
0
 40
0.585
 39
  0
0
CIRCLE
8
JA
 10
17.779999
 20
209.54994
 30
0
 40
0.915
 39
  0
0
CIRCLE
8
JA
 10
5.08
 20
207.00995
 30
0
 40
0.915
 39
  0
0
CIRCLE
8
JA
 10
12.7
 20
207.00995
 30
0
 40
0.585
 39
  0
0
CIRCLE
8
JA
 10
7.62
 20
204.46996
 30
0
 40
0.915
 39
  0
0
CIRCLE
8
JA
 10
10.16
 20
204.46996
 30
0
 40
0.915
 39
  0
0
CIRCLE
8
JA
 10
12.7
 20
204.46996
 30
0
 40
0.585
 39
  0
0
CIRCLE
8
JA
 10
15.24
 20
204.46996
 30
0
 40
0.915
 39
  0
0
CIRCLE
8
JA
 10
12.7
 20
201.92996
 30
0
 40
0.585
 39
  0
0
CIRCLE
8
JA
 10
17.779999
 20
201.92996
 30
0
 40
0.915
 39
  0
0
CIRCLE
8
JA
 10
5.08
 20
199.38997
 30
0
 40
0.915
 39
  0
0
CIRCLE
8
JA
 10
12.7
 20
199.38997
 30
0
 40
0.585
 39
  0
0
CIRCLE
8
JA
 10
17.779999
 20
199.38997
 30
0
 40
0.915
 39
  0
0
CIRCLE
8
JA
 10
7.62
 20
196.84998
 30
0
 40
0.915
 39
  0
0
CIRCLE
8
JA
 10
10.16
 20
196.84998
 30
0
 40
0.915
 39
  0
0
CIRCLE
8
JA
 10
12.7
 20
196.84998
 30
0
 40
0.585
 39
  0
0
CIRCLE
8
JA
 10
15.24
 20
196.84998
 30
0
 40
0.915
 39
  0
0
CIRCLE
8
JA
 10
12.7
 20
194.30998
 30
0
 40
0.585
 39
  0
0
CIRCLE
8
JA
 10
10.16
 20
191.76999
 30
0
 40
0.915
 39
  0
0
CIRCLE
8
JA
 10
12.7
 20
191.76999
 30
0
 40
0.585
 39
  0
0
CIRCLE
8
JA
 10
10.16
 20
189.23
 30
0
 40
0.915
 39
  0
0
CIRCLE
8
JA
 10
12.7
 20
189.23
 30
0
 40
0.585
 39
  0
0
CIRCLE
8
JA
 10
10.16
 20
186.69
 30
0
 40
0.915
 39
  0
0
CIRCLE
8
JA
 10
12.7
 20
186.69
 30
0
 40
0.585
 39
  0
0
CIRCLE
8
JA
 10
10.16
 20
184.15001
 30
0
 40
0.915
 39
  0
0
CIRCLE
8
JA
 10
12.7
 20
184.15001
 30
0
 40
0.585
 39
  0
0
CIRCLE
8
JA
 10
10.16
 20
181.61002
 30
0
 40
0.915
 39
  0
0
CIRCLE
8
JA
 10
12.7
 20
181.61002
 30
0
 40
0.585
 39
  0
0
CIRCLE
8
JA
 10
12.7
 20
179.07002
 30
0
 40
0.585
 39
  0
0
CIRCLE
8
JA
 10
10.16
 20
176.53003
 30
0
 40
0.915
 39
  0
0
CIRCLE
8
JA
 10
12.7
 20
176.53003
 30
0
 40
0.585
 39
  0
0
CIRCLE
8
JA
 10
12.7
 20
173.99004
 30
0
 40
0.585
 39
  0
0
CIRCLE
8
JA
 10
12.7
 20
171.45004
 30
0
 40
0.585
 39
  0
0
CIRCLE
8
JA
 10
12.7
 20
168.91005
 30
0
 40
0.585
 39
  0
0
CIRCLE
8
JA
 10
12.7
 20
166.37006
 30
0
 40
0.585
 39
  0
0
CIRCLE
8
JA
 10
12.7
 20
163.83006
 30
0
 40
0.585
 39
  0
0
CIRCLE
8
JA
 10
12.7
 20
161.29007
 30
0
 40
0.585
 39
  0
0
CIRCLE
8
JA
 10
12.7
 20
158.75008
 30
0
 40
0.585
 39
  0
0
CIRCLE
8
JA
 10
12.7
 20
156.21008
 30
0
 40
0.585
 39
  0
0
CIRCLE
8
JA
 10
12.7
 20
153.67009
 30
0
 40
0.585
 39
  0
0
CIRCLE
8
JA
 10
12.7
 20
151.1301
 30
0
 40
0.585
 39
  0
0
CIRCLE
8
JA
 10
12.7
 20
148.5901
 30
0
 40
0.585
 39
  0
0
CIRCLE
8
JA
 10
2.54
 20
146.05011
 30
0
 40
0.915
 39
  0
0
CIRCLE
8
JA
 10
5.08
 20
146.05011
 30
0
 40
0.915
 39
  0
0
CIRCLE
8
JA
 10
7.62
 20
146.05011
 30
0
 40
0.915
 39
  0
0
CIRCLE
8
JA
 10
12.7
 20
146.05011
 30
0
 40
0.585
 39
  0
0
CIRCLE
8
JA
 10
17.779999
 20
146.05011
 30
0
 40
0.915
 39
  0
0
CIRCLE
8
JA
 10
20.32
 20
146.05011
 30
0
 40
0.915
 39
  0
0
CIRCLE
8
JA
 10
2.54
 20
143.51012
 30
0
 40
0.915
 39
  0
0
CIRCLE
8
JA
 10
12.7
 20
143.51012
 30
0
 40
0.585
 39
  0
0
CIRCLE
8
JA
 10
20.32
 20
143.51012
 30
0
 40
0.915
 39
  0
0
CIRCLE
8
JA
 10
2.54
 20
140.97012
 30
0
 40
0.915
 39
  0
0
CIRCLE
8
JA
 10
5.08
 20
140.97012
 30
0
 40
0.915
 39
  0
0
CIRCLE
8
JA
 10
7.62
 20
140.97012
 30
0
 40
0.915
 39
  0
0
CIRCLE
8
JA
 10
10.16
 20
140.97012
 30
0
 40
0.915
 39
  0
0
CIRCLE
8
JA
 10
12.7
 20
140.97012
 30
0
 40
0.585
 39
  0
0
CIRCLE
8
JA
 10
17.779999
 20
140.97012
 30
0
 40
0.915
 39
  0
0
CIRCLE
8
JA
 10
20.32
 20
140.97012
 30
0
 40
0.915
 39
  0
0
CIRCLE
8
JA
 10
2.54
 20
138.43013
 30
0
 40
0.915
 39
  0
0
CIRCLE
8
JA
 10
7.62
 20
138.43013
 30
0
 40
0.915
 39
  0
0
CIRCLE
8
JA
 10
12.7
 20
138.43013
 30
0
 40
0.585
 39
  0
0
CIRCLE
8
JA
 10
20.32
 20
138.43013
 30
0
 40
0.915
 39
  0
0
CIRCLE
8
JA
 10
10.16
 20
135.89014
 30
0
 40
0.915
 39
  0
0
CIRCLE
8
JA
 10
12.7
 20
135.89014
 30
0
 40
0.585
 39
  0
0
CIRCLE
8
JA
 10
15.24
 20
135.89014
 30
0
 40
0.915
 39
  0
0
CIRCLE
8
JA
 10
20.32
 20
135.89014
 30
0
 40
0.915
 39
  0
0
CIRCLE
8
JA
 10
5.08
 20
133.35014
 30
0
 40
0.915
 39
  0
0
CIRCLE
8
JA
 10
7.62
 20
133.35014
 30
0
 40
0.915
 39
  0
0
CIRCLE
8
JA
 10
12.7
 20
133.35014
 30
0
 40
0.585
 39
  0
0
CIRCLE
8
JA
 10
20.32
 20
133.35014
 30
0
 40
0.915
 39
  0
0
CIRCLE
8
JA
 10
5.08
 20
130.81015
 30
0
 40
0.915
 39
  0
0
CIRCLE
8
JA
 10
7.62
 20
130.81015
 30
0
 40
0.915
 39
  0
0
CIRCLE
8
JA
 10
10.16
 20
130.81015
 30
0
 40
0.915
 39
  0
0
CIRCLE
8
JA
 10
12.7
 20
130.81015
 30
0
 40
0.585
 39
  0
0
CIRCLE
8
JA
 10
15.24
 20
130.81015
 30
0
 40
0.915
 39
  0
0
CIRCLE
8
JA
 10
20.32
 20
130.81015
 30
0
 40
0.915
 39
  0
0
CIRCLE
8
JA
 10
7.62
 20
128.27016
 30
0
 40
0.915
 39
  0
0
CIRCLE
8
JA
 10
12.7
 20
128.27016
 30
0
 40
0.585
 39
  0
0
CIRCLE
8
JA
 10
20.32
 20
128.27016
 30
0
 40
0.915
 39
  0
0
CIRCLE
8
JA
 10
2.54
 20
125.730156
 30
0
 40
0.915
 39
  0
0
CIRCLE
8
JA
 10
7.62
 20
125.730156
 30
0
 40
0.915
 39
  0
0
CIRCLE
8
JA
 10
12.7
 20
125.730156
 30
0
 40
0.585
 39
  0
0
CIRCLE
8
JA
 10
15.24
 20
125.730156
 30
0
 40
0.915
 39
  0
0
CIRCLE
8
JA
 10
20.32
 20
125.730156
 30
0
 40
0.915
 39
  0
0
CIRCLE
8
JA
 10
2.54
 20
123.190155
 30
0
 40
0.915
 39
  0
0
CIRCLE
8
JA
 10
5.08
 20
123.190155
 30
0
 40
0.915
 39
  0
0
CIRCLE
8
JA
 10
12.7
 20
123.190155
 30
0
 40
0.585
 39
  0
0
CIRCLE
8
JA
 10
20.32
 20
123.190155
 30
0
 40
0.915
 39
  0
0
CIRCLE
8
JA
 10
7.62
 20
120.650154
 30
0
 40
0.915
 39
  0
0
CIRCLE
8
JA
 10
10.16
 20
120.650154
 30
0
 40
0.915
 39
  0
0
CIRCLE
8
JA
 10
12.7
 20
120.650154
 30
0
 40
0.585
 39
  0
0
CIRCLE
8
JA
 10
15.24
 20
120.650154
 30
0
 40
0.915
 39
  0
0
CIRCLE
8
JA
 10
20.32
 20
120.650154
 30
0
 40
0.915
 39
  0
0
CIRCLE
8
JA
 10
7.62
 20
118.11015
 30
0
 40
0.915
 39
  0
0
CIRCLE
8
JA
 10
12.7
 20
118.11015
 30
0
 40
0.585
 39
  0
0
CIRCLE
8
JA
 10
20.32
 20
118.11015
 30
0
 40
0.915
 39
  0
0
CIRCLE
8
JA
 10
5.08
 20
115.57015
 30
0
 40
0.915
 39
  0
0
CIRCLE
8
JA
 10
7.62
 20
115.57015
 30
0
 40
0.915
 39
  0
0
CIRCLE
8
JA
 10
12.7
 20
115.57015
 30
0
 40
0.585
 39
  0
0
CIRCLE
8
JA
 10
15.24
 20
115.57015
 30
0
 40
0.915
 39
  0
0
CIRCLE
8
JA
 10
20.32
 20
115.57015
 30
0
 40
0.915
 39
  0
0
CIRCLE
8
JA
 10
2.54
 20
113.03015
 30
0
 40
0.915
 39
  0
0
CIRCLE
8
JA
 10
5.08
 20
113.03015
 30
0
 40
0.915
 39
  0
0
CIRCLE
8
JA
 10
12.7
 20
113.03015
 30
0
 40
0.585
 39
  0
0
CIRCLE
8
JA
 10
20.32
 20
113.03015
 30
0
 40
0.915
 39
  0
0
CIRCLE
8
JA
 10
5.08
 20
110.49015
 30
0
 40
0.915
 39
  0
0
CIRCLE
8
JA
 10
10.16
 20
110.49015
 30
0
 40
0.915
 39
  0
0
CIRCLE
8
JA
 10
12.7
 20
110.49015
 30
0
 40
0.585
 39
  0
0
CIRCLE
8
JA
 10
20.32
 20
110.49015
 30
0
 40
0.915
 39
  0
0
CIRCLE
8
JA
 10
7.62
 20
107.95015
 30
0
 40
0.915
 39
  0
0
CIRCLE
8
JA
 10
12.7
 20
107.95015
 30
0
 40
0.585
 39
  0
0
CIRCLE
8
JA
 10
20.32
 20
107.95015
 30
0
 40
0.915
 39
  0
0
CIRCLE
8
JA
 10
2.54
 20
105.41015
 30
0
 40
0.915
 39
  0
0
CIRCLE
8
JA
 10
7.62
 20
105.41015
 30
0
 40
0.915
 39
  0
0
CIRCLE
8
JA
 10
12.7
 20
105.41015
 30
0
 40
0.585
 39
  0
0
CIRCLE
8
JA
 10
15.24
 20
105.41015
 30
0
 40
0.915
 39
  0
0
CIRCLE
8
JA
 10
20.32
 20
105.41015
 30
0
 40
0.915
 39
  0
0
CIRCLE
8
JA
 10
2.54
 20
102.87015
 30
0
 40
0.915
 39
  0
0
CIRCLE
8
JA
 10
5.08
 20
102.87015
 30
0
 40
0.915
 39
  0
0
CIRCLE
8
JA
 10
12.7
 20
102.87015
 30
0
 40
0.585
 39
  0
0
CIRCLE
8
JA
 10
20.32
 20
102.87015
 30
0
 40
0.915
 39
  0
0
CIRCLE
8
JA
 10
7.62
 20
100.33015
 30
0
 40
0.915
 39
  0
0
CIRCLE
8
JA
 10
10.16
 20
100.33015
 30
0
 40
0.915
 39
  0
0
CIRCLE
8
JA
 10
12.7
 20
100.33015
 30
0
 40
0.585
 39
  0
0
CIRCLE
8
JA
 10
15.24
 20
100.33015
 30
0
 40
0.915
 39
  0
0
CIRCLE
8
JA
 10
20.32
 20
100.33015
 30
0
 40
0.915
 39
  0
0
CIRCLE
8
JA
 10
5.08
 20
97.790146
 30
0
 40
0.915
 39
  0
0
CIRCLE
8
JA
 10
10.16
 20
97.790146
 30
0
 40
0.915
 39
  0
0
CIRCLE
8
JA
 10
12.7
 20
97.790146
 30
0
 40
0.585
 39
  0
0
CIRCLE
8
JA
 10
20.32
 20
97.790146
 30
0
 40
0.915
 39
  0
0
CIRCLE
8
JA
 10
7.62
 20
95.250145
 30
0
 40
0.915
 39
  0
0
CIRCLE
8
JA
 10
12.7
 20
95.250145
 30
0
 40
0.585
 39
  0
0
CIRCLE
8
JA
 10
20.32
 20
95.250145
 30
0
 40
0.915
 39
  0
0
CIRCLE
8
JA
 10
7.62
 20
92.710144
 30
0
 40
0.915
 39
  0
0
CIRCLE
8
JA
 10
12.7
 20
92.710144
 30
0
 40
0.585
 39
  0
0
CIRCLE
8
JA
 10
15.24
 20
92.710144
 30
0
 40
0.915
 39
  0
0
CIRCLE
8
JA
 10
20.32
 20
92.710144
 30
0
 40
0.915
 39
  0
0
CIRCLE
8
JA
 10
7.62
 20
90.17014
 30
0
 40
0.915
 39
  0
0
CIRCLE
8
JA
 10
10.16
 20
90.17014
 30
0
 40
0.915
 39
  0
0
CIRCLE
8
JA
 10
12.7
 20
90.17014
 30
0
 40
0.585
 39
  0
0
CIRCLE
8
JA
 10
15.24
 20
90.17014
 30
0
 40
0.915
 39
  0
0
CIRCLE
8
JA
 10
20.32
 20
90.17014
 30
0
 40
0.915
 39
  0
0
CIRCLE
8
JA
 10
2.54
 20
87.63014
 30
0
 40
0.915
 39
  0
0
CIRCLE
8
JA
 10
7.62
 20
87.63014
 30
0
 40
0.915
 39
  0
0
CIRCLE
8
JA
 10
10.16
 20
87.63014
 30
0
 40
0.915
 39
  0
0
CIRCLE
8
JA
 10
12.7
 20
87.63014
 30
0
 40
0.585
 39
  0
0
CIRCLE
8
JA
 10
20.32
 20
87.63014
 30
0
 40
0.915
 39
  0
0
CIRCLE
8
JA
 10
2.54
 20
85.09014
 30
0
 40
0.915
 39
  0
0
CIRCLE
8
JA
 10
7.62
 20
85.09014
 30
0
 40
0.915
 39
  0
0
CIRCLE
8
JA
 10
10.16
 20
85.09014
 30
0
 40
0.915
 39
  0
0
CIRCLE
8
JA
 10
12.7
 20
85.09014
 30
0
 40
0.585
 39
  0
0
CIRCLE
8
JA
 10
20.32
 20
85.09014
 30
0
 40
0.915
 39
  0
0
CIRCLE
8
JA
 10
2.54
 20
82.55014
 30
0
 40
0.915
 39
  0
0
CIRCLE
8
JA
 10
5.08
 20
82.55014
 30
0
 40
0.915
 39
  0
0
CIRCLE
8
JA
 10
12.7
 20
82.55014
 30
0
 40
0.585
 39
  0
0
CIRCLE
8
JA
 10
20.32
 20
82.55014
 30
0
 40
0.915
 39
  0
0
CIRCLE
8
JA
 10
5.08
 20
80.01014
 30
0
 40
0.915
 39
  0
0
CIRCLE
8
JA
 10
10.16
 20
80.01014
 30
0
 40
0.915
 39
  0
0
CIRCLE
8
JA
 10
12.7
 20
80.01014
 30
0
 40
0.585
 39
  0
0
CIRCLE
8
JA
 10
20.32
 20
80.01014
 30
0
 40
0.915
 39
  0
0
CIRCLE
8
JA
 10
2.54
 20
77.47014
 30
0
 40
0.915
 39
  0
0
CIRCLE
8
JA
 10
12.7
 20
77.47014
 30
0
 40
0.585
 39
  0
0
CIRCLE
8
JA
 10
20.32
 20
77.47014
 30
0
 40
0.915
 39
  0
0
CIRCLE
8
JA
 10
7.62
 20
74.93014
 30
0
 40
0.915
 39
  0
0
CIRCLE
8
JA
 10
12.7
 20
74.93014
 30
0
 40
0.585
 39
  0
0
CIRCLE
8
JA
 10
20.32
 20
74.93014
 30
0
 40
0.915
 39
  0
0
CIRCLE
8
JA
 10
2.54
 20
72.39014
 30
0
 40
0.915
 39
  0
0
CIRCLE
8
JA
 10
5.08
 20
72.39014
 30
0
 40
0.915
 39
  0
0
CIRCLE
8
JA
 10
12.7
 20
72.39014
 30
0
 40
0.585
 39
  0
0
CIRCLE
8
JA
 10
20.32
 20
72.39014
 30
0
 40
0.915
 39
  0
0
CIRCLE
8
JA
 10
5.08
 20
69.850136
 30
0
 40
0.915
 39
  0
0
CIRCLE
8
JA
 10
7.62
 20
69.850136
 30
0
 40
0.915
 39
  0
0
CIRCLE
8
JA
 10
12.7
 20
69.850136
 30
0
 40
0.585
 39
  0
0
CIRCLE
8
JA
 10
15.24
 20
69.850136
 30
0
 40
0.915
 39
  0
0
CIRCLE
8
JA
 10
20.32
 20
69.850136
 30
0
 40
0.915
 39
  0
0
CIRCLE
8
JA
 10
7.62
 20
67.310135
 30
0
 40
0.915
 39
  0
0
CIRCLE
8
JA
 10
12.7
 20
67.310135
 30
0
 40
0.585
 39
  0
0
CIRCLE
8
JA
 10
20.32
 20
67.310135
 30
0
 40
0.915
 39
  0
0
CIRCLE
8
JA
 10
2.54
 20
64.770134
 30
0
 40
0.915
 39
  0
0
CIRCLE
8
JA
 10
12.7
 20
64.770134
 30
0
 40
0.585
 39
  0
0
CIRCLE
8
JA
 10
20.32
 20
64.770134
 30
0
 40
0.915
 39
  0
0
CIRCLE
8
JA
 10
2.54
 20
62.230133
 30
0
 40
0.915
 39
  0
0
CIRCLE
8
JA
 10
7.62
 20
62.230133
 30
0
 40
0.915
 39
  0
0
CIRCLE
8
JA
 10
12.7
 20
62.230133
 30
0
 40
0.585
 39
  0
0
CIRCLE
8
JA
 10
20.32
 20
62.230133
 30
0
 40
0.915
 39
  0
0
CIRCLE
8
JA
 10
12.7
 20
59.690132
 30
0
 40
0.585
 39
  0
0
CIRCLE
8
JA
 10
15.24
 20
59.690132
 30
0
 40
0.915
 39
  0
0
CIRCLE
8
JA
 10
20.32
 20
59.690132
 30
0
 40
0.915
 39
  0
0
CIRCLE
8
JA
 10
7.62
 20
57.15013
 30
0
 40
0.915
 39
  0
0
CIRCLE
8
JA
 10
12.7
 20
57.15013
 30
0
 40
0.585
 39
  0
0
CIRCLE
8
JA
 10
20.32
 20
57.15013
 30
0
 40
0.915
 39
  0
0
CIRCLE
8
JA
 10
2.54
 20
54.61013
 30
0
 40
0.915
 39
  0
0
CIRCLE
8
JA
 10
5.08
 20
54.61013
 30
0
 40
0.915
 39
  0
0
CIRCLE
8
JA
 10
7.62
 20
54.61013
 30
0
 40
0.915
 39
  0
0
CIRCLE
8
JA
 10
12.7
 20
54.61013
 30
0
 40
0.585
 39
  0
0
CIRCLE
8
JA
 10
17.779999
 20
54.61013
 30
0
 40
0.915
 39
  0
0
CIRCLE
8
JA
 10
20.32
 20
54.61013
 30
0
 40
0.915
 39
  0
0
CIRCLE
8
JA
 10
2.54
 20
52.07013
 30
0
 40
0.915
 39
  0
0
CIRCLE
8
JA
 10
5.08
 20
52.07013
 30
0
 40
0.915
 39
  0
0
CIRCLE
8
JA
 10
7.62
 20
52.07013
 30
0
 40
0.915
 39
  0
0
CIRCLE
8
JA
 10
12.7
 20
52.07013
 30
0
 40
0.585
 39
  0
0
CIRCLE
8
JA
 10
20.32
 20
52.07013
 30
0
 40
0.915
 39
  0
0
CIRCLE
8
JA
 10
7.62
 20
49.53013
 30
0
 40
0.915
 39
  0
0
CIRCLE
8
JA
 10
10.16
 20
49.53013
 30
0
 40
0.915
 39
  0
0
CIRCLE
8
JA
 10
12.7
 20
49.53013
 30
0
 40
0.585
 39
  0
0
CIRCLE
8
JA
 10
20.32
 20
49.53013
 30
0
 40
0.915
 39
  0
0
CIRCLE
8
JA
 10
2.54
 20
46.990128
 30
0
 40
0.915
 39
  0
0
CIRCLE
8
JA
 10
12.7
 20
46.990128
 30
0
 40
0.585
 39
  0
0
CIRCLE
8
JA
 10
20.32
 20
46.990128
 30
0
 40
0.915
 39
  0
0
CIRCLE
8
JA
 10
7.62
 20
44.450127
 30
0
 40
0.915
 39
  0
0
CIRCLE
8
JA
 10
12.7
 20
44.450127
 30
0
 40
0.585
 39
  0
0
CIRCLE
8
JA
 10
20.32
 20
44.450127
 30
0
 40
0.915
 39
  0
0
CIRCLE
8
JA
 10
2.54
 20
41.910126
 30
0
 40
0.915
 39
  0
0
CIRCLE
8
JA
 10
5.08
 20
41.910126
 30
0
 40
0.915
 39
  0
0
CIRCLE
8
JA
 10
7.62
 20
41.910126
 30
0
 40
0.915
 39
  0
0
CIRCLE
8
JA
 10
12.7
 20
41.910126
 30
0
 40
0.585
 39
  0
0
CIRCLE
8
JA
 10
20.32
 20
41.910126
 30
0
 40
0.915
 39
  0
0
CIRCLE
8
JA
 10
2.54
 20
39.370125
 30
0
 40
0.915
 39
  0
0
CIRCLE
8
JA
 10
5.08
 20
39.370125
 30
0
 40
0.915
 39
  0
0
CIRCLE
8
JA
 10
7.62
 20
39.370125
 30
0
 40
0.915
 39
  0
0
CIRCLE
8
JA
 10
10.16
 20
39.370125
 30
0
 40
0.915
 39
  0
0
CIRCLE
8
JA
 10
12.7
 20
39.370125
 30
0
 40
0.585
 39
  0
0
CIRCLE
8
JA
 10
17.779999
 20
39.370125
 30
0
 40
0.915
 39
  0
0
CIRCLE
8
JA
 10
20.32
 20
39.370125
 30
0
 40
0.915
 39
  0
0
CIRCLE
8
JA
 10
7.62
 20
36.830124
 30
0
 40
0.915
 39
  0
0
CIRCLE
8
JA
 10
10.16
 20
36.830124
 30
0
 40
0.915
 39
  0
0
CIRCLE
8
JA
 10
12.7
 20
36.830124
 30
0
 40
0.585
 39
  0
0
CIRCLE
8
JA
 10
15.24
 20
36.830124
 30
0
 40
0.915
 39
  0
0
CIRCLE
8
JA
 10
20.32
 20
36.830124
 30
0
 40
0.915
 39
  0
0
CIRCLE
8
JA
 10
7.62
 20
34.290123
 30
0
 40
0.915
 39
  0
0
CIRCLE
8
JA
 10
12.7
 20
34.290123
 30
0
 40
0.585
 39
  0
0
CIRCLE
8
JA
 10
15.24
 20
34.290123
 30
0
 40
0.915
 39
  0
0
CIRCLE
8
JA
 10
20.32
 20
34.290123
 30
0
 40
0.915
 39
  0
0
CIRCLE
8
JA
 10
12.7
 20
31.750122
 30
0
 40
0.585
 39
  0
0
CIRCLE
8
JA
 10
15.24
 20
31.750122
 30
0
 40
0.915
 39
  0
0
CIRCLE
8
JA
 10
20.32
 20
31.750122
 30
0
 40
0.915
 39
  0
0
CIRCLE
8
JA
 10
7.62
 20
29.210121
 30
0
 40
0.915
 39
  0
0
CIRCLE
8
JA
 10
10.16
 20
29.210121
 30
0
 40
0.915
 39
  0
0
CIRCLE
8
JA
 10
12.7
 20
29.210121
 30
0
 40
0.585
 39
  0
0
CIRCLE
8
JA
 10
15.24
 20
29.210121
 30
0
 40
0.915
 39
  0
0
CIRCLE
8
JA
 10
20.32
 20
29.210121
 30
0
 40
0.915
 39
  0
0
CIRCLE
8
JA
 10
2.54
 20
26.67012
 30
0
 40
0.915
 39
  0
0
CIRCLE
8
JA
 10
5.08
 20
26.67012
 30
0
 40
0.915
 39
  0
0
CIRCLE
8
JA
 10
7.62
 20
26.67012
 30
0
 40
0.915
 39
  0
0
CIRCLE
8
JA
 10
12.7
 20
26.67012
 30
0
 40
0.585
 39
  0
0
CIRCLE
8
JA
 10
20.32
 20
26.67012
 30
0
 40
0.915
 39
  0
0
CIRCLE
8
JA
 10
12.7
 20
24.13012
 30
0
 40
0.585
 39
  0
0
CIRCLE
8
JA
 10
12.7
 20
21.590118
 30
0
 40
0.585
 39
  0
0
CIRCLE
8
JA
 10
12.7
 20
19.050117
 30
0
 40
0.585
 39
  0
0
CIRCLE
8
JA
 10
12.7
 20
16.510117
 30
0
 40
0.585
 39
  0
0
CIRCLE
8
JA
 10
12.7
 20
13.970117
 30
0
 40
0.585
 39
  0
0
CIRCLE
8
JA
 10
12.7
 20
11.430117
 30
0
 40
0.585
 39
  0
0
CIRCLE
8
JA
 10
12.7
 20
8.890117
 30
0
 40
0.585
 39
  0
0
CIRCLE
8
JA
 10
12.7
 20
6.3501167
 30
0
 40
0.585
 39
  0
0
CIRCLE
8
JA
 10
12.7
 20
3.8101168
 30
0
 40
0.585
 39
  0
0
CIRCLE
8
JA
 10
12.7
 20
1.2701168
 30
0
 40
0.585
 39
  0
0
ENDSEC
  0
EOF
