  0
SECTION
  2
HEADER
  9
$ACADVER
  1
AC1009
  9
$INSBASE
 10
0.0
 20
0.0
 30
0.0
  9
$EXTMIN
 10
  0
 20
  0
 30
  0
  9
$EXTMAX
 10
368
 20
326
 30
0.0
  9
$LIMMIN
 10
0.0
 20
0.0
  9
$LIMMAX
 10
100.0
 20
100.0
  9
$ORTHOMODE
 70
     1
  9
$DIMSCALE
 40
1
  9
$DIMSTYLE
  2
STANDARD
  9
$FILLETRAD
 40
0.0
  9
$PSLTSCALE
 70
     1
  0
ENDSEC
  0
SECTION
  2
TABLES
  0
TABLE
  2
VPORT
 70
     2
  0
VPORT
  2
*ACTIVE
 70
     0
 10
0.0
 20
0.0
 11
1.0
 21
1.0
 12
50.0
 22
50.0
 13
0.0
 23
0.0
 14
1.0
 24
1.0
 15
0.0
 25
0.0
 16
0.0
 26
0.0
 36
1.0
 17
0.0
 27
0.0
 37
0.0
 40
100.0
 41
1.55
 42
50.0
 43
0.0
 44
0.0
 50
0.0
 51
0.0
 71
     0
 72
   100
 73
     1
 74
     1
 75
     0
 76
     0
 77
     0
 78
     0
  0
ENDTAB
  0
TABLE
  2
LTYPE
 70
     1
  0
LTYPE
  2
CONTINUOUS
  70
     0
  3
Solid Line
 72
    65
 73
     0
 40
0.0
  0
ENDTAB
  0
TABLE
  2
LAYER
 70
     3
  0
LAYER
  2
0
 70
     0
 62
     7
  6
CONTINUOUS
  0
LAYER
  2
JA
 70
     0
 62
     7
  6
CONTINUOUS
  0
LAYER
  2
DEFPOINTS
 70
     0
 62
     7
 6
CONTINUOUS
  0
ENDTAB
  0
TABLE
  2
VIEW
 70
     0
  0
ENDTAB
  0
TABLE
  2
DIMSTYLE
 70
     1
  0
DIMSTYLE
  2
STANDARD
 70
     0
  3

  4

  5

  6

  7

 40
1.0
 41
0.125
 42
0.04
 43
0.25
 44
0.125
 45
0.0
 46
0.0
 47
0.0
 48
0.0
140
0.125
141
0.06
142
0.0
143
25.4
144
1.0
145
0.0
146
1.0
147
0.09
 71
     0
 72
     0
 73
     1
 74
     1
 75
     0
 76
     0
 77
     0
 78
     0
170
     0
171
     2
172
     0
173
     0
174
     0
175
     0
176
     0
177
     0
178
     0
  0
ENDTAB
  0
ENDSEC
  0
SECTION
  2
BLOCKS
  0
ENDSEC
  0
SECTION
  2
ENTITIES
  0
LINE
8
JA
 10
0
 20
0
 30
0
 11
0
 21
248.92
 31
0
0
LINE
8
JA
 10
22.225
 20
0
 30
0
 11
22.225
 21
248.92
 31
0
0
LINE
8
JA
 10
0
 20
248.92
 30
0
 11
22.225
 21
248.92
 31
0
0
LINE
8
JA
 10
0
 20
0
 30
0
 11
22.225
 21
0
 31
0
0
LINE
8
JA
 10
0
 20
248.92
 30
7
 11
22.225
 21
248.92
 31
0
0
CIRCLE
8
JA
 10
5.08
 20
247.65
 30
0
 40
0.915
 39
  0
0
CIRCLE
8
JA
 10
7.62
 20
247.65
 30
0
 40
0.915
 39
  0
0
CIRCLE
8
JA
 10
10.16
 20
247.65
 30
0
 40
0.915
 39
  0
0
CIRCLE
8
JA
 10
12.7
 20
247.65
 30
0
 40
0.585
 39
  0
0
CIRCLE
8
JA
 10
15.24
 20
247.65
 30
0
 40
0.915
 39
  0
0
CIRCLE
8
JA
 10
17.779999
 20
247.65
 30
0
 40
0.915
 39
  0
0
CIRCLE
8
JA
 10
5.08
 20
245.11
 30
0
 40
0.915
 39
  0
0
CIRCLE
8
JA
 10
12.7
 20
245.11
 30
0
 40
0.585
 39
  0
0
CIRCLE
8
JA
 10
5.08
 20
242.57
 30
0
 40
0.915
 39
  0
0
CIRCLE
8
JA
 10
12.7
 20
242.57
 30
0
 40
0.585
 39
  0
0
CIRCLE
8
JA
 10
5.08
 20
240.03001
 30
0
 40
0.915
 39
  0
0
CIRCLE
8
JA
 10
7.62
 20
240.03001
 30
0
 40
0.915
 39
  0
0
CIRCLE
8
JA
 10
10.16
 20
240.03001
 30
0
 40
0.915
 39
  0
0
CIRCLE
8
JA
 10
12.7
 20
240.03001
 30
0
 40
0.585
 39
  0
0
CIRCLE
8
JA
 10
15.24
 20
240.03001
 30
0
 40
0.915
 39
  0
0
CIRCLE
8
JA
 10
17.779999
 20
240.03001
 30
0
 40
0.915
 39
  0
0
CIRCLE
8
JA
 10
5.08
 20
237.49002
 30
0
 40
0.915
 39
  0
0
CIRCLE
8
JA
 10
12.7
 20
237.49002
 30
0
 40
0.585
 39
  0
0
CIRCLE
8
JA
 10
5.08
 20
234.95003
 30
0
 40
0.915
 39
  0
0
CIRCLE
8
JA
 10
12.7
 20
234.95003
 30
0
 40
0.585
 39
  0
0
CIRCLE
8
JA
 10
5.08
 20
232.41003
 30
0
 40
0.915
 39
  0
0
CIRCLE
8
JA
 10
12.7
 20
232.41003
 30
0
 40
0.585
 39
  0
0
CIRCLE
8
JA
 10
12.7
 20
229.87004
 30
0
 40
0.585
 39
  0
0
CIRCLE
8
JA
 10
7.62
 20
227.33005
 30
0
 40
0.915
 39
  0
0
CIRCLE
8
JA
 10
10.16
 20
227.33005
 30
0
 40
0.915
 39
  0
0
CIRCLE
8
JA
 10
12.7
 20
227.33005
 30
0
 40
0.585
 39
  0
0
CIRCLE
8
JA
 10
15.24
 20
227.33005
 30
0
 40
0.915
 39
  0
0
CIRCLE
8
JA
 10
5.08
 20
224.79005
 30
0
 40
0.915
 39
  0
0
CIRCLE
8
JA
 10
12.7
 20
224.79005
 30
0
 40
0.585
 39
  0
0
CIRCLE
8
JA
 10
17.779999
 20
224.79005
 30
0
 40
0.915
 39
  0
0
CIRCLE
8
JA
 10
5.08
 20
222.25006
 30
0
 40
0.915
 39
  0
0
CIRCLE
8
JA
 10
12.7
 20
222.25006
 30
0
 40
0.585
 39
  0
0
CIRCLE
8
JA
 10
5.08
 20
219.71007
 30
0
 40
0.915
 39
  0
0
CIRCLE
8
JA
 10
12.7
 20
219.71007
 30
0
 40
0.585
 39
  0
0
CIRCLE
8
JA
 10
5.08
 20
217.17007
 30
0
 40
0.915
 39
  0
0
CIRCLE
8
JA
 10
12.7
 20
217.17007
 30
0
 40
0.585
 39
  0
0
CIRCLE
8
JA
 10
5.08
 20
214.63008
 30
0
 40
0.915
 39
  0
0
CIRCLE
8
JA
 10
12.7
 20
214.63008
 30
0
 40
0.585
 39
  0
0
CIRCLE
8
JA
 10
17.779999
 20
214.63008
 30
0
 40
0.915
 39
  0
0
CIRCLE
8
JA
 10
7.62
 20
212.09009
 30
0
 40
0.915
 39
  0
0
CIRCLE
8
JA
 10
10.16
 20
212.09009
 30
0
 40
0.915
 39
  0
0
CIRCLE
8
JA
 10
12.7
 20
212.09009
 30
0
 40
0.585
 39
  0
0
CIRCLE
8
JA
 10
15.24
 20
212.09009
 30
0
 40
0.915
 39
  0
0
CIRCLE
8
JA
 10
12.7
 20
209.5501
 30
0
 40
0.585
 39
  0
0
CIRCLE
8
JA
 10
12.7
 20
207.0101
 30
0
 40
0.585
 39
  0
0
CIRCLE
8
JA
 10
15.24
 20
207.0101
 30
0
 40
0.915
 39
  0
0
CIRCLE
8
JA
 10
10.16
 20
204.47011
 30
0
 40
0.915
 39
  0
0
CIRCLE
8
JA
 10
12.7
 20
204.47011
 30
0
 40
0.585
 39
  0
0
CIRCLE
8
JA
 10
7.62
 20
201.93011
 30
0
 40
0.915
 39
  0
0
CIRCLE
8
JA
 10
12.7
 20
201.93011
 30
0
 40
0.585
 39
  0
0
CIRCLE
8
JA
 10
7.62
 20
199.39012
 30
0
 40
0.915
 39
  0
0
CIRCLE
8
JA
 10
12.7
 20
199.39012
 30
0
 40
0.585
 39
  0
0
CIRCLE
8
JA
 10
7.62
 20
196.85013
 30
0
 40
0.915
 39
  0
0
CIRCLE
8
JA
 10
12.7
 20
196.85013
 30
0
 40
0.585
 39
  0
0
CIRCLE
8
JA
 10
10.16
 20
194.31013
 30
0
 40
0.915
 39
  0
0
CIRCLE
8
JA
 10
12.7
 20
194.31013
 30
0
 40
0.585
 39
  0
0
CIRCLE
8
JA
 10
12.7
 20
191.77014
 30
0
 40
0.585
 39
  0
0
CIRCLE
8
JA
 10
15.24
 20
191.77014
 30
0
 40
0.915
 39
  0
0
CIRCLE
8
JA
 10
12.7
 20
189.23015
 30
0
 40
0.585
 39
  0
0
CIRCLE
8
JA
 10
12.7
 20
186.69016
 30
0
 40
0.585
 39
  0
0
CIRCLE
8
JA
 10
12.7
 20
184.15016
 30
0
 40
0.585
 39
  0
0
CIRCLE
8
JA
 10
12.7
 20
181.61017
 30
0
 40
0.585
 39
  0
0
CIRCLE
8
JA
 10
12.7
 20
179.07018
 30
0
 40
0.585
 39
  0
0
CIRCLE
8
JA
 10
12.7
 20
176.53018
 30
0
 40
0.585
 39
  0
0
CIRCLE
8
JA
 10
12.7
 20
173.99019
 30
0
 40
0.585
 39
  0
0
CIRCLE
8
JA
 10
12.7
 20
171.4502
 30
0
 40
0.585
 39
  0
0
CIRCLE
8
JA
 10
12.7
 20
168.9102
 30
0
 40
0.585
 39
  0
0
CIRCLE
8
JA
 10
12.7
 20
166.37021
 30
0
 40
0.585
 39
  0
0
CIRCLE
8
JA
 10
12.7
 20
163.83022
 30
0
 40
0.585
 39
  0
0
CIRCLE
8
JA
 10
2.54
 20
161.29022
 30
0
 40
0.915
 39
  0
0
CIRCLE
8
JA
 10
5.08
 20
161.29022
 30
0
 40
0.915
 39
  0
0
CIRCLE
8
JA
 10
7.62
 20
161.29022
 30
0
 40
0.915
 39
  0
0
CIRCLE
8
JA
 10
12.7
 20
161.29022
 30
0
 40
0.585
 39
  0
0
CIRCLE
8
JA
 10
17.779999
 20
161.29022
 30
0
 40
0.915
 39
  0
0
CIRCLE
8
JA
 10
20.32
 20
161.29022
 30
0
 40
0.915
 39
  0
0
CIRCLE
8
JA
 10
10.16
 20
158.75023
 30
0
 40
0.915
 39
  0
0
CIRCLE
8
JA
 10
12.7
 20
158.75023
 30
0
 40
0.585
 39
  0
0
CIRCLE
8
JA
 10
15.24
 20
158.75023
 30
0
 40
0.915
 39
  0
0
CIRCLE
8
JA
 10
20.32
 20
158.75023
 30
0
 40
0.915
 39
  0
0
CIRCLE
8
JA
 10
7.62
 20
156.21024
 30
0
 40
0.915
 39
  0
0
CIRCLE
8
JA
 10
12.7
 20
156.21024
 30
0
 40
0.585
 39
  0
0
CIRCLE
8
JA
 10
20.32
 20
156.21024
 30
0
 40
0.915
 39
  0
0
CIRCLE
8
JA
 10
7.62
 20
153.67024
 30
0
 40
0.915
 39
  0
0
CIRCLE
8
JA
 10
12.7
 20
153.67024
 30
0
 40
0.585
 39
  0
0
CIRCLE
8
JA
 10
15.24
 20
153.67024
 30
0
 40
0.915
 39
  0
0
CIRCLE
8
JA
 10
20.32
 20
153.67024
 30
0
 40
0.915
 39
  0
0
CIRCLE
8
JA
 10
2.54
 20
151.13025
 30
0
 40
0.915
 39
  0
0
CIRCLE
8
JA
 10
5.08
 20
151.13025
 30
0
 40
0.915
 39
  0
0
CIRCLE
8
JA
 10
7.62
 20
151.13025
 30
0
 40
0.915
 39
  0
0
CIRCLE
8
JA
 10
10.16
 20
151.13025
 30
0
 40
0.915
 39
  0
0
CIRCLE
8
JA
 10
12.7
 20
151.13025
 30
0
 40
0.585
 39
  0
0
CIRCLE
8
JA
 10
17.779999
 20
151.13025
 30
0
 40
0.915
 39
  0
0
CIRCLE
8
JA
 10
20.32
 20
151.13025
 30
0
 40
0.915
 39
  0
0
CIRCLE
8
JA
 10
12.7
 20
148.59026
 30
0
 40
0.585
 39
  0
0
CIRCLE
8
JA
 10
15.24
 20
148.59026
 30
0
 40
0.915
 39
  0
0
CIRCLE
8
JA
 10
20.32
 20
148.59026
 30
0
 40
0.915
 39
  0
0
CIRCLE
8
JA
 10
2.54
 20
146.05026
 30
0
 40
0.915
 39
  0
0
CIRCLE
8
JA
 10
7.62
 20
146.05026
 30
0
 40
0.915
 39
  0
0
CIRCLE
8
JA
 10
10.16
 20
146.05026
 30
0
 40
0.915
 39
  0
0
CIRCLE
8
JA
 10
12.7
 20
146.05026
 30
0
 40
0.585
 39
  0
0
CIRCLE
8
JA
 10
15.24
 20
146.05026
 30
0
 40
0.915
 39
  0
0
CIRCLE
8
JA
 10
20.32
 20
146.05026
 30
0
 40
0.915
 39
  0
0
CIRCLE
8
JA
 10
7.62
 20
143.51027
 30
0
 40
0.915
 39
  0
0
CIRCLE
8
JA
 10
10.16
 20
143.51027
 30
0
 40
0.915
 39
  0
0
CIRCLE
8
JA
 10
12.7
 20
143.51027
 30
0
 40
0.585
 39
  0
0
CIRCLE
8
JA
 10
15.24
 20
143.51027
 30
0
 40
0.915
 39
  0
0
CIRCLE
8
JA
 10
20.32
 20
143.51027
 30
0
 40
0.915
 39
  0
0
CIRCLE
8
JA
 10
12.7
 20
140.97028
 30
0
 40
0.585
 39
  0
0
CIRCLE
8
JA
 10
15.24
 20
140.97028
 30
0
 40
0.915
 39
  0
0
CIRCLE
8
JA
 10
20.32
 20
140.97028
 30
0
 40
0.915
 39
  0
0
CIRCLE
8
JA
 10
5.08
 20
138.43028
 30
0
 40
0.915
 39
  0
0
CIRCLE
8
JA
 10
7.62
 20
138.43028
 30
0
 40
0.915
 39
  0
0
CIRCLE
8
JA
 10
12.7
 20
138.43028
 30
0
 40
0.585
 39
  0
0
CIRCLE
8
JA
 10
20.32
 20
138.43028
 30
0
 40
0.915
 39
  0
0
CIRCLE
8
JA
 10
5.08
 20
135.89029
 30
0
 40
0.915
 39
  0
0
CIRCLE
8
JA
 10
7.62
 20
135.89029
 30
0
 40
0.915
 39
  0
0
CIRCLE
8
JA
 10
10.16
 20
135.89029
 30
0
 40
0.915
 39
  0
0
CIRCLE
8
JA
 10
12.7
 20
135.89029
 30
0
 40
0.585
 39
  0
0
CIRCLE
8
JA
 10
20.32
 20
135.89029
 30
0
 40
0.915
 39
  0
0
CIRCLE
8
JA
 10
12.7
 20
133.3503
 30
0
 40
0.585
 39
  0
0
CIRCLE
8
JA
 10
15.24
 20
133.3503
 30
0
 40
0.915
 39
  0
0
CIRCLE
8
JA
 10
20.32
 20
133.3503
 30
0
 40
0.915
 39
  0
0
CIRCLE
8
JA
 10
7.62
 20
130.8103
 30
0
 40
0.915
 39
  0
0
CIRCLE
8
JA
 10
12.7
 20
130.8103
 30
0
 40
0.585
 39
  0
0
CIRCLE
8
JA
 10
20.32
 20
130.8103
 30
0
 40
0.915
 39
  0
0
CIRCLE
8
JA
 10
2.54
 20
128.27031
 30
0
 40
0.915
 39
  0
0
CIRCLE
8
JA
 10
5.08
 20
128.27031
 30
0
 40
0.915
 39
  0
0
CIRCLE
8
JA
 10
12.7
 20
128.27031
 30
0
 40
0.585
 39
  0
0
CIRCLE
8
JA
 10
20.32
 20
128.27031
 30
0
 40
0.915
 39
  0
0
CIRCLE
8
JA
 10
5.08
 20
125.73031
 30
0
 40
0.915
 39
  0
0
CIRCLE
8
JA
 10
7.62
 20
125.73031
 30
0
 40
0.915
 39
  0
0
CIRCLE
8
JA
 10
12.7
 20
125.73031
 30
0
 40
0.585
 39
  0
0
CIRCLE
8
JA
 10
15.24
 20
125.73031
 30
0
 40
0.915
 39
  0
0
CIRCLE
8
JA
 10
20.32
 20
125.73031
 30
0
 40
0.915
 39
  0
0
CIRCLE
8
JA
 10
7.62
 20
123.19031
 30
0
 40
0.915
 39
  0
0
CIRCLE
8
JA
 10
12.7
 20
123.19031
 30
0
 40
0.585
 39
  0
0
CIRCLE
8
JA
 10
20.32
 20
123.19031
 30
0
 40
0.915
 39
  0
0
CIRCLE
8
JA
 10
2.54
 20
120.65031
 30
0
 40
0.915
 39
  0
0
CIRCLE
8
JA
 10
5.08
 20
120.65031
 30
0
 40
0.915
 39
  0
0
CIRCLE
8
JA
 10
7.62
 20
120.65031
 30
0
 40
0.915
 39
  0
0
CIRCLE
8
JA
 10
12.7
 20
120.65031
 30
0
 40
0.585
 39
  0
0
CIRCLE
8
JA
 10
17.779999
 20
120.65031
 30
0
 40
0.915
 39
  0
0
CIRCLE
8
JA
 10
20.32
 20
120.65031
 30
0
 40
0.915
 39
  0
0
CIRCLE
8
JA
 10
10.16
 20
118.110306
 30
0
 40
0.915
 39
  0
0
CIRCLE
8
JA
 10
12.7
 20
118.110306
 30
0
 40
0.585
 39
  0
0
CIRCLE
8
JA
 10
15.24
 20
118.110306
 30
0
 40
0.915
 39
  0
0
CIRCLE
8
JA
 10
20.32
 20
118.110306
 30
0
 40
0.915
 39
  0
0
CIRCLE
8
JA
 10
2.54
 20
115.570305
 30
0
 40
0.915
 39
  0
0
CIRCLE
8
JA
 10
5.08
 20
115.570305
 30
0
 40
0.915
 39
  0
0
CIRCLE
8
JA
 10
7.62
 20
115.570305
 30
0
 40
0.915
 39
  0
0
CIRCLE
8
JA
 10
10.16
 20
115.570305
 30
0
 40
0.915
 39
  0
0
CIRCLE
8
JA
 10
12.7
 20
115.570305
 30
0
 40
0.585
 39
  0
0
CIRCLE
8
JA
 10
17.779999
 20
115.570305
 30
0
 40
0.915
 39
  0
0
CIRCLE
8
JA
 10
20.32
 20
115.570305
 30
0
 40
0.915
 39
  0
0
CIRCLE
8
JA
 10
5.08
 20
113.030304
 30
0
 40
0.915
 39
  0
0
CIRCLE
8
JA
 10
7.62
 20
113.030304
 30
0
 40
0.915
 39
  0
0
CIRCLE
8
JA
 10
10.16
 20
113.030304
 30
0
 40
0.915
 39
  0
0
CIRCLE
8
JA
 10
12.7
 20
113.030304
 30
0
 40
0.585
 39
  0
0
CIRCLE
8
JA
 10
20.32
 20
113.030304
 30
0
 40
0.915
 39
  0
0
CIRCLE
8
JA
 10
2.54
 20
110.4903
 30
0
 40
0.915
 39
  0
0
CIRCLE
8
JA
 10
12.7
 20
110.4903
 30
0
 40
0.585
 39
  0
0
CIRCLE
8
JA
 10
20.32
 20
110.4903
 30
0
 40
0.915
 39
  0
0
CIRCLE
8
JA
 10
7.62
 20
107.9503
 30
0
 40
0.915
 39
  0
0
CIRCLE
8
JA
 10
10.16
 20
107.9503
 30
0
 40
0.915
 39
  0
0
CIRCLE
8
JA
 10
12.7
 20
107.9503
 30
0
 40
0.585
 39
  0
0
CIRCLE
8
JA
 10
20.32
 20
107.9503
 30
0
 40
0.915
 39
  0
0
CIRCLE
8
JA
 10
2.54
 20
105.4103
 30
0
 40
0.915
 39
  0
0
CIRCLE
8
JA
 10
5.08
 20
105.4103
 30
0
 40
0.915
 39
  0
0
CIRCLE
8
JA
 10
12.7
 20
105.4103
 30
0
 40
0.585
 39
  0
0
CIRCLE
8
JA
 10
20.32
 20
105.4103
 30
0
 40
0.915
 39
  0
0
CIRCLE
8
JA
 10
5.08
 20
102.8703
 30
0
 40
0.915
 39
  0
0
CIRCLE
8
JA
 10
7.62
 20
102.8703
 30
0
 40
0.915
 39
  0
0
CIRCLE
8
JA
 10
12.7
 20
102.8703
 30
0
 40
0.585
 39
  0
0
CIRCLE
8
JA
 10
20.32
 20
102.8703
 30
0
 40
0.915
 39
  0
0
CIRCLE
8
JA
 10
7.62
 20
100.3303
 30
0
 40
0.915
 39
  0
0
CIRCLE
8
JA
 10
12.7
 20
100.3303
 30
0
 40
0.585
 39
  0
0
CIRCLE
8
JA
 10
15.24
 20
100.3303
 30
0
 40
0.915
 39
  0
0
CIRCLE
8
JA
 10
20.32
 20
100.3303
 30
0
 40
0.915
 39
  0
0
CIRCLE
8
JA
 10
2.54
 20
97.7903
 30
0
 40
0.915
 39
  0
0
CIRCLE
8
JA
 10
5.08
 20
97.7903
 30
0
 40
0.915
 39
  0
0
CIRCLE
8
JA
 10
7.62
 20
97.7903
 30
0
 40
0.915
 39
  0
0
CIRCLE
8
JA
 10
12.7
 20
97.7903
 30
0
 40
0.585
 39
  0
0
CIRCLE
8
JA
 10
17.779999
 20
97.7903
 30
0
 40
0.915
 39
  0
0
CIRCLE
8
JA
 10
20.32
 20
97.7903
 30
0
 40
0.915
 39
  0
0
CIRCLE
8
JA
 10
7.62
 20
95.2503
 30
0
 40
0.915
 39
  0
0
CIRCLE
8
JA
 10
12.7
 20
95.2503
 30
0
 40
0.585
 39
  0
0
CIRCLE
8
JA
 10
17.779999
 20
95.2503
 30
0
 40
0.915
 39
  0
0
CIRCLE
8
JA
 10
20.32
 20
95.2503
 30
0
 40
0.915
 39
  0
0
CIRCLE
8
JA
 10
7.62
 20
92.7103
 30
0
 40
0.915
 39
  0
0
CIRCLE
8
JA
 10
12.7
 20
92.7103
 30
0
 40
0.585
 39
  0
0
CIRCLE
8
JA
 10
20.32
 20
92.7103
 30
0
 40
0.915
 39
  0
0
CIRCLE
8
JA
 10
2.54
 20
90.170296
 30
0
 40
0.915
 39
  0
0
CIRCLE
8
JA
 10
10.16
 20
90.170296
 30
0
 40
0.915
 39
  0
0
CIRCLE
8
JA
 10
12.7
 20
90.170296
 30
0
 40
0.585
 39
  0
0
CIRCLE
8
JA
 10
15.24
 20
90.170296
 30
0
 40
0.915
 39
  0
0
CIRCLE
8
JA
 10
20.32
 20
90.170296
 30
0
 40
0.915
 39
  0
0
CIRCLE
8
JA
 10
2.54
 20
87.630295
 30
0
 40
0.915
 39
  0
0
CIRCLE
8
JA
 10
5.08
 20
87.630295
 30
0
 40
0.915
 39
  0
0
CIRCLE
8
JA
 10
7.62
 20
87.630295
 30
0
 40
0.915
 39
  0
0
CIRCLE
8
JA
 10
10.16
 20
87.630295
 30
0
 40
0.915
 39
  0
0
CIRCLE
8
JA
 10
12.7
 20
87.630295
 30
0
 40
0.585
 39
  0
0
CIRCLE
8
JA
 10
17.779999
 20
87.630295
 30
0
 40
0.915
 39
  0
0
CIRCLE
8
JA
 10
20.32
 20
87.630295
 30
0
 40
0.915
 39
  0
0
CIRCLE
8
JA
 10
2.54
 20
85.090294
 30
0
 40
0.915
 39
  0
0
CIRCLE
8
JA
 10
7.62
 20
85.090294
 30
0
 40
0.915
 39
  0
0
CIRCLE
8
JA
 10
12.7
 20
85.090294
 30
0
 40
0.585
 39
  0
0
CIRCLE
8
JA
 10
20.32
 20
85.090294
 30
0
 40
0.915
 39
  0
0
CIRCLE
8
JA
 10
7.62
 20
82.55029
 30
0
 40
0.915
 39
  0
0
CIRCLE
8
JA
 10
10.16
 20
82.55029
 30
0
 40
0.915
 39
  0
0
CIRCLE
8
JA
 10
12.7
 20
82.55029
 30
0
 40
0.585
 39
  0
0
CIRCLE
8
JA
 10
20.32
 20
82.55029
 30
0
 40
0.915
 39
  0
0
CIRCLE
8
JA
 10
5.08
 20
80.01029
 30
0
 40
0.915
 39
  0
0
CIRCLE
8
JA
 10
10.16
 20
80.01029
 30
0
 40
0.915
 39
  0
0
CIRCLE
8
JA
 10
12.7
 20
80.01029
 30
0
 40
0.585
 39
  0
0
CIRCLE
8
JA
 10
20.32
 20
80.01029
 30
0
 40
0.915
 39
  0
0
CIRCLE
8
JA
 10
2.54
 20
77.47029
 30
0
 40
0.915
 39
  0
0
CIRCLE
8
JA
 10
10.16
 20
77.47029
 30
0
 40
0.915
 39
  0
0
CIRCLE
8
JA
 10
12.7
 20
77.47029
 30
0
 40
0.585
 39
  0
0
CIRCLE
8
JA
 10
20.32
 20
77.47029
 30
0
 40
0.915
 39
  0
0
CIRCLE
8
JA
 10
2.54
 20
74.93029
 30
0
 40
0.915
 39
  0
0
CIRCLE
8
JA
 10
10.16
 20
74.93029
 30
0
 40
0.915
 39
  0
0
CIRCLE
8
JA
 10
12.7
 20
74.93029
 30
0
 40
0.585
 39
  0
0
CIRCLE
8
JA
 10
15.24
 20
74.93029
 30
0
 40
0.915
 39
  0
0
CIRCLE
8
JA
 10
20.32
 20
74.93029
 30
0
 40
0.915
 39
  0
0
CIRCLE
8
JA
 10
7.62
 20
72.39029
 30
0
 40
0.915
 39
  0
0
CIRCLE
8
JA
 10
10.16
 20
72.39029
 30
0
 40
0.915
 39
  0
0
CIRCLE
8
JA
 10
12.7
 20
72.39029
 30
0
 40
0.585
 39
  0
0
CIRCLE
8
JA
 10
20.32
 20
72.39029
 30
0
 40
0.915
 39
  0
0
CIRCLE
8
JA
 10
5.08
 20
69.85029
 30
0
 40
0.915
 39
  0
0
CIRCLE
8
JA
 10
7.62
 20
69.85029
 30
0
 40
0.915
 39
  0
0
CIRCLE
8
JA
 10
12.7
 20
69.85029
 30
0
 40
0.585
 39
  0
0
CIRCLE
8
JA
 10
20.32
 20
69.85029
 30
0
 40
0.915
 39
  0
0
CIRCLE
8
JA
 10
5.08
 20
67.31029
 30
0
 40
0.915
 39
  0
0
CIRCLE
8
JA
 10
12.7
 20
67.31029
 30
0
 40
0.585
 39
  0
0
CIRCLE
8
JA
 10
15.24
 20
67.31029
 30
0
 40
0.915
 39
  0
0
CIRCLE
8
JA
 10
20.32
 20
67.31029
 30
0
 40
0.915
 39
  0
0
CIRCLE
8
JA
 10
7.62
 20
64.77029
 30
0
 40
0.915
 39
  0
0
CIRCLE
8
JA
 10
12.7
 20
64.77029
 30
0
 40
0.585
 39
  0
0
CIRCLE
8
JA
 10
20.32
 20
64.77029
 30
0
 40
0.915
 39
  0
0
CIRCLE
8
JA
 10
10.16
 20
62.230286
 30
0
 40
0.915
 39
  0
0
CIRCLE
8
JA
 10
12.7
 20
62.230286
 30
0
 40
0.585
 39
  0
0
CIRCLE
8
JA
 10
15.24
 20
62.230286
 30
0
 40
0.915
 39
  0
0
CIRCLE
8
JA
 10
20.32
 20
62.230286
 30
0
 40
0.915
 39
  0
0
CIRCLE
8
JA
 10
2.54
 20
59.690285
 30
0
 40
0.915
 39
  0
0
CIRCLE
8
JA
 10
12.7
 20
59.690285
 30
0
 40
0.585
 39
  0
0
CIRCLE
8
JA
 10
20.32
 20
59.690285
 30
0
 40
0.915
 39
  0
0
CIRCLE
8
JA
 10
7.62
 20
57.150284
 30
0
 40
0.915
 39
  0
0
CIRCLE
8
JA
 10
12.7
 20
57.150284
 30
0
 40
0.585
 39
  0
0
CIRCLE
8
JA
 10
20.32
 20
57.150284
 30
0
 40
0.915
 39
  0
0
CIRCLE
8
JA
 10
2.54
 20
54.610283
 30
0
 40
0.915
 39
  0
0
CIRCLE
8
JA
 10
5.08
 20
54.610283
 30
0
 40
0.915
 39
  0
0
CIRCLE
8
JA
 10
7.62
 20
54.610283
 30
0
 40
0.915
 39
  0
0
CIRCLE
8
JA
 10
12.7
 20
54.610283
 30
0
 40
0.585
 39
  0
0
CIRCLE
8
JA
 10
17.779999
 20
54.610283
 30
0
 40
0.915
 39
  0
0
CIRCLE
8
JA
 10
20.32
 20
54.610283
 30
0
 40
0.915
 39
  0
0
CIRCLE
8
JA
 10
2.54
 20
52.070282
 30
0
 40
0.915
 39
  0
0
CIRCLE
8
JA
 10
5.08
 20
52.070282
 30
0
 40
0.915
 39
  0
0
CIRCLE
8
JA
 10
7.62
 20
52.070282
 30
0
 40
0.915
 39
  0
0
CIRCLE
8
JA
 10
12.7
 20
52.070282
 30
0
 40
0.585
 39
  0
0
CIRCLE
8
JA
 10
20.32
 20
52.070282
 30
0
 40
0.915
 39
  0
0
CIRCLE
8
JA
 10
7.62
 20
49.53028
 30
0
 40
0.915
 39
  0
0
CIRCLE
8
JA
 10
10.16
 20
49.53028
 30
0
 40
0.915
 39
  0
0
CIRCLE
8
JA
 10
12.7
 20
49.53028
 30
0
 40
0.585
 39
  0
0
CIRCLE
8
JA
 10
20.32
 20
49.53028
 30
0
 40
0.915
 39
  0
0
CIRCLE
8
JA
 10
2.54
 20
46.99028
 30
0
 40
0.915
 39
  0
0
CIRCLE
8
JA
 10
12.7
 20
46.99028
 30
0
 40
0.585
 39
  0
0
CIRCLE
8
JA
 10
20.32
 20
46.99028
 30
0
 40
0.915
 39
  0
0
CIRCLE
8
JA
 10
7.62
 20
44.45028
 30
0
 40
0.915
 39
  0
0
CIRCLE
8
JA
 10
12.7
 20
44.45028
 30
0
 40
0.585
 39
  0
0
CIRCLE
8
JA
 10
20.32
 20
44.45028
 30
0
 40
0.915
 39
  0
0
CIRCLE
8
JA
 10
5.08
 20
41.91028
 30
0
 40
0.915
 39
  0
0
CIRCLE
8
JA
 10
7.62
 20
41.91028
 30
0
 40
0.915
 39
  0
0
CIRCLE
8
JA
 10
12.7
 20
41.91028
 30
0
 40
0.585
 39
  0
0
CIRCLE
8
JA
 10
17.779999
 20
41.91028
 30
0
 40
0.915
 39
  0
0
CIRCLE
8
JA
 10
20.32
 20
41.91028
 30
0
 40
0.915
 39
  0
0
CIRCLE
8
JA
 10
7.62
 20
39.370277
 30
0
 40
0.915
 39
  0
0
CIRCLE
8
JA
 10
10.16
 20
39.370277
 30
0
 40
0.915
 39
  0
0
CIRCLE
8
JA
 10
12.7
 20
39.370277
 30
0
 40
0.585
 39
  0
0
CIRCLE
8
JA
 10
20.32
 20
39.370277
 30
0
 40
0.915
 39
  0
0
CIRCLE
8
JA
 10
2.54
 20
36.830276
 30
0
 40
0.915
 39
  0
0
CIRCLE
8
JA
 10
7.62
 20
36.830276
 30
0
 40
0.915
 39
  0
0
CIRCLE
8
JA
 10
12.7
 20
36.830276
 30
0
 40
0.585
 39
  0
0
CIRCLE
8
JA
 10
20.32
 20
36.830276
 30
0
 40
0.915
 39
  0
0
CIRCLE
8
JA
 10
2.54
 20
34.290276
 30
0
 40
0.915
 39
  0
0
CIRCLE
8
JA
 10
12.7
 20
34.290276
 30
0
 40
0.585
 39
  0
0
CIRCLE
8
JA
 10
20.32
 20
34.290276
 30
0
 40
0.915
 39
  0
0
CIRCLE
8
JA
 10
5.08
 20
31.750275
 30
0
 40
0.915
 39
  0
0
CIRCLE
8
JA
 10
7.62
 20
31.750275
 30
0
 40
0.915
 39
  0
0
CIRCLE
8
JA
 10
12.7
 20
31.750275
 30
0
 40
0.585
 39
  0
0
CIRCLE
8
JA
 10
15.24
 20
31.750275
 30
0
 40
0.915
 39
  0
0
CIRCLE
8
JA
 10
20.32
 20
31.750275
 30
0
 40
0.915
 39
  0
0
CIRCLE
8
JA
 10
2.54
 20
29.210274
 30
0
 40
0.915
 39
  0
0
CIRCLE
8
JA
 10
7.62
 20
29.210274
 30
0
 40
0.915
 39
  0
0
CIRCLE
8
JA
 10
10.16
 20
29.210274
 30
0
 40
0.915
 39
  0
0
CIRCLE
8
JA
 10
12.7
 20
29.210274
 30
0
 40
0.585
 39
  0
0
CIRCLE
8
JA
 10
20.32
 20
29.210274
 30
0
 40
0.915
 39
  0
0
CIRCLE
8
JA
 10
5.08
 20
26.670273
 30
0
 40
0.915
 39
  0
0
CIRCLE
8
JA
 10
12.7
 20
26.670273
 30
0
 40
0.585
 39
  0
0
CIRCLE
8
JA
 10
17.779999
 20
26.670273
 30
0
 40
0.915
 39
  0
0
CIRCLE
8
JA
 10
20.32
 20
26.670273
 30
0
 40
0.915
 39
  0
0
CIRCLE
8
JA
 10
12.7
 20
24.130272
 30
0
 40
0.585
 39
  0
0
CIRCLE
8
JA
 10
12.7
 20
21.590271
 30
0
 40
0.585
 39
  0
0
CIRCLE
8
JA
 10
12.7
 20
19.05027
 30
0
 40
0.585
 39
  0
0
CIRCLE
8
JA
 10
12.7
 20
16.51027
 30
0
 40
0.585
 39
  0
0
CIRCLE
8
JA
 10
12.7
 20
13.970269
 30
0
 40
0.585
 39
  0
0
CIRCLE
8
JA
 10
12.7
 20
11.430269
 30
0
 40
0.585
 39
  0
0
CIRCLE
8
JA
 10
12.7
 20
8.890269
 30
0
 40
0.585
 39
  0
0
CIRCLE
8
JA
 10
12.7
 20
6.3502693
 30
0
 40
0.585
 39
  0
0
CIRCLE
8
JA
 10
12.7
 20
3.8102694
 30
0
 40
0.585
 39
  0
0
CIRCLE
8
JA
 10
12.7
 20
1.2702694
 30
0
 40
0.585
 39
  0
0
ENDSEC
  0
EOF

22.86
 20
6.3502693
 30
0
 40
0.585
 39
  0
0
CIRCLE
8
JA
 10
22.86
 20
3.8102694
 30
0
 40
0.585
 39
  0
0
CIRCLE
8
JA
 10
22.86
 20
1.2702694
 30
0
 40
0.585
 39
  0
0
ENDSEC
  0
EOF
  0
EOF
RCLE
8
JA
 10
17.779999
 20
3.8102694
 30
0
 40
0.585
 39
  0
0
CIRCLE
8
JA
 10
17.779999
 20
1.2702694
 30
0
 40
0.585
 39
  0
0
ENDSEC
  0
EOF
