  0
SECTION
  2
HEADER
  9
$ACADVER
  1
AC1009
  9
$INSBASE
 10
0.0
 20
0.0
 30
0.0
  9
$EXTMIN
 10
  0
 20
  0
 30
  0
  9
$EXTMAX
 10
368
 20
326
 30
0.0
  9
$LIMMIN
 10
0.0
 20
0.0
  9
$LIMMAX
 10
100.0
 20
100.0
  9
$ORTHOMODE
 70
     1
  9
$DIMSCALE
 40
1
  9
$DIMSTYLE
  2
STANDARD
  9
$FILLETRAD
 40
0.0
  9
$PSLTSCALE
 70
     1
  0
ENDSEC
  0
SECTION
  2
TABLES
  0
TABLE
  2
VPORT
 70
     2
  0
VPORT
  2
*ACTIVE
 70
     0
 10
0.0
 20
0.0
 11
1.0
 21
1.0
 12
50.0
 22
50.0
 13
0.0
 23
0.0
 14
1.0
 24
1.0
 15
0.0
 25
0.0
 16
0.0
 26
0.0
 36
1.0
 17
0.0
 27
0.0
 37
0.0
 40
100.0
 41
1.55
 42
50.0
 43
0.0
 44
0.0
 50
0.0
 51
0.0
 71
     0
 72
   100
 73
     1
 74
     1
 75
     0
 76
     0
 77
     0
 78
     0
  0
ENDTAB
  0
TABLE
  2
LTYPE
 70
     1
  0
LTYPE
  2
CONTINUOUS
  70
     0
  3
Solid Line
 72
    65
 73
     0
 40
0.0
  0
ENDTAB
  0
TABLE
  2
LAYER
 70
     3
  0
LAYER
  2
0
 70
     0
 62
     7
  6
CONTINUOUS
  0
LAYER
  2
JA
 70
     0
 62
     7
  6
CONTINUOUS
  0
LAYER
  2
DEFPOINTS
 70
     0
 62
     7
 6
CONTINUOUS
  0
ENDTAB
  0
TABLE
  2
VIEW
 70
     0
  0
ENDTAB
  0
TABLE
  2
DIMSTYLE
 70
     1
  0
DIMSTYLE
  2
STANDARD
 70
     0
  3

  4

  5

  6

  7

 40
1.0
 41
0.125
 42
0.04
 43
0.25
 44
0.125
 45
0.0
 46
0.0
 47
0.0
 48
0.0
140
0.125
141
0.06
142
0.0
143
25.4
144
1.0
145
0.0
146
1.0
147
0.09
 71
     0
 72
     0
 73
     1
 74
     1
 75
     0
 76
     0
 77
     0
 78
     0
170
     0
171
     2
172
     0
173
     0
174
     0
175
     0
176
     0
177
     0
178
     0
  0
ENDTAB
  0
ENDSEC
  0
SECTION
  2
BLOCKS
  0
ENDSEC
  0
SECTION
  2
ENTITIES
  0
LINE
8
JA
 10
0
 20
0
 30
0
 11
0
 21
868.68
 31
0
0
LINE
8
JA
 10
10.16
 20
0
 30
0
 11
10.16
 21
868.68
 31
0
0
LINE
8
JA
 10
0
 20
868.68
 30
0
 11
10.16
 21
868.68
 31
0
0
LINE
8
JA
 10
0
 20
0
 30
0
 11
10.16
 21
0
 31
0
0
LINE
8
JA
 10
0
 20
868.68
 30
7
 11
10.16
 21
868.68
 31
0
0
CIRCLE
8
JA
 10
5.08
 20
867.41
 30
0
 40
0.585
 39
  0
0
CIRCLE
8
JA
 10
5.08
 20
864.87
 30
0
 40
0.585
 39
  0
0
CIRCLE
8
JA
 10
5.08
 20
862.33
 30
0
 40
0.585
 39
  0
0
CIRCLE
8
JA
 10
7.62
 20
862.33
 30
0
 40
0.915
 39
  0
0
CIRCLE
8
JA
 10
2.54
 20
859.79004
 30
0
 40
0.915
 39
  0
0
CIRCLE
8
JA
 10
5.08
 20
859.79004
 30
0
 40
0.585
 39
  0
0
CIRCLE
8
JA
 10
2.54
 20
857.25006
 30
0
 40
0.915
 39
  0
0
CIRCLE
8
JA
 10
5.08
 20
857.25006
 30
0
 40
0.585
 39
  0
0
CIRCLE
8
JA
 10
7.62
 20
857.25006
 30
0
 40
0.915
 39
  0
0
CIRCLE
8
JA
 10
5.08
 20
854.7101
 30
0
 40
0.585
 39
  0
0
CIRCLE
8
JA
 10
7.62
 20
854.7101
 30
0
 40
0.915
 39
  0
0
CIRCLE
8
JA
 10
2.54
 20
852.1701
 30
0
 40
0.915
 39
  0
0
CIRCLE
8
JA
 10
5.08
 20
852.1701
 30
0
 40
0.585
 39
  0
0
CIRCLE
8
JA
 10
2.54
 20
849.6301
 30
0
 40
0.915
 39
  0
0
CIRCLE
8
JA
 10
5.08
 20
849.6301
 30
0
 40
0.585
 39
  0
0
CIRCLE
8
JA
 10
7.62
 20
849.6301
 30
0
 40
0.915
 39
  0
0
CIRCLE
8
JA
 10
5.08
 20
847.09015
 30
0
 40
0.585
 39
  0
0
CIRCLE
8
JA
 10
7.62
 20
847.09015
 30
0
 40
0.915
 39
  0
0
CIRCLE
8
JA
 10
2.54
 20
844.5502
 30
0
 40
0.915
 39
  0
0
CIRCLE
8
JA
 10
5.08
 20
844.5502
 30
0
 40
0.585
 39
  0
0
CIRCLE
8
JA
 10
5.08
 20
842.0102
 30
0
 40
0.585
 39
  0
0
CIRCLE
8
JA
 10
7.62
 20
842.0102
 30
0
 40
0.915
 39
  0
0
CIRCLE
8
JA
 10
2.54
 20
839.4702
 30
0
 40
0.915
 39
  0
0
CIRCLE
8
JA
 10
5.08
 20
839.4702
 30
0
 40
0.585
 39
  0
0
CIRCLE
8
JA
 10
5.08
 20
836.93024
 30
0
 40
0.585
 39
  0
0
CIRCLE
8
JA
 10
2.54
 20
834.39026
 30
0
 40
0.915
 39
  0
0
CIRCLE
8
JA
 10
5.08
 20
834.39026
 30
0
 40
0.585
 39
  0
0
CIRCLE
8
JA
 10
7.62
 20
834.39026
 30
0
 40
0.915
 39
  0
0
CIRCLE
8
JA
 10
5.08
 20
831.8503
 30
0
 40
0.585
 39
  0
0
CIRCLE
8
JA
 10
7.62
 20
831.8503
 30
0
 40
0.915
 39
  0
0
CIRCLE
8
JA
 10
2.54
 20
829.3103
 30
0
 40
0.915
 39
  0
0
CIRCLE
8
JA
 10
5.08
 20
829.3103
 30
0
 40
0.585
 39
  0
0
CIRCLE
8
JA
 10
2.54
 20
826.7703
 30
0
 40
0.915
 39
  0
0
CIRCLE
8
JA
 10
5.08
 20
826.7703
 30
0
 40
0.585
 39
  0
0
CIRCLE
8
JA
 10
7.62
 20
826.7703
 30
0
 40
0.915
 39
  0
0
CIRCLE
8
JA
 10
2.54
 20
824.23035
 30
0
 40
0.915
 39
  0
0
CIRCLE
8
JA
 10
5.08
 20
824.23035
 30
0
 40
0.585
 39
  0
0
CIRCLE
8
JA
 10
7.62
 20
824.23035
 30
0
 40
0.915
 39
  0
0
CIRCLE
8
JA
 10
5.08
 20
821.69037
 30
0
 40
0.585
 39
  0
0
CIRCLE
8
JA
 10
7.62
 20
821.69037
 30
0
 40
0.915
 39
  0
0
CIRCLE
8
JA
 10
2.54
 20
819.1504
 30
0
 40
0.915
 39
  0
0
CIRCLE
8
JA
 10
5.08
 20
819.1504
 30
0
 40
0.585
 39
  0
0
CIRCLE
8
JA
 10
2.54
 20
816.6104
 30
0
 40
0.915
 39
  0
0
CIRCLE
8
JA
 10
5.08
 20
816.6104
 30
0
 40
0.585
 39
  0
0
CIRCLE
8
JA
 10
7.62
 20
816.6104
 30
0
 40
0.915
 39
  0
0
CIRCLE
8
JA
 10
5.08
 20
814.07043
 30
0
 40
0.585
 39
  0
0
CIRCLE
8
JA
 10
2.54
 20
811.53046
 30
0
 40
0.915
 39
  0
0
CIRCLE
8
JA
 10
5.08
 20
811.53046
 30
0
 40
0.585
 39
  0
0
CIRCLE
8
JA
 10
7.62
 20
811.53046
 30
0
 40
0.915
 39
  0
0
CIRCLE
8
JA
 10
5.08
 20
808.9905
 30
0
 40
0.585
 39
  0
0
CIRCLE
8
JA
 10
7.62
 20
808.9905
 30
0
 40
0.915
 39
  0
0
CIRCLE
8
JA
 10
2.54
 20
806.4505
 30
0
 40
0.915
 39
  0
0
CIRCLE
8
JA
 10
5.08
 20
806.4505
 30
0
 40
0.585
 39
  0
0
CIRCLE
8
JA
 10
5.08
 20
803.9105
 30
0
 40
0.585
 39
  0
0
CIRCLE
8
JA
 10
7.62
 20
803.9105
 30
0
 40
0.915
 39
  0
0
CIRCLE
8
JA
 10
2.54
 20
801.37054
 30
0
 40
0.915
 39
  0
0
CIRCLE
8
JA
 10
5.08
 20
801.37054
 30
0
 40
0.585
 39
  0
0
CIRCLE
8
JA
 10
5.08
 20
798.83057
 30
0
 40
0.585
 39
  0
0
CIRCLE
8
JA
 10
7.62
 20
798.83057
 30
0
 40
0.915
 39
  0
0
CIRCLE
8
JA
 10
2.54
 20
796.2906
 30
0
 40
0.915
 39
  0
0
CIRCLE
8
JA
 10
5.08
 20
796.2906
 30
0
 40
0.585
 39
  0
0
CIRCLE
8
JA
 10
5.08
 20
793.7506
 30
0
 40
0.585
 39
  0
0
CIRCLE
8
JA
 10
7.62
 20
793.7506
 30
0
 40
0.915
 39
  0
0
CIRCLE
8
JA
 10
2.54
 20
791.21063
 30
0
 40
0.915
 39
  0
0
CIRCLE
8
JA
 10
5.08
 20
791.21063
 30
0
 40
0.585
 39
  0
0
CIRCLE
8
JA
 10
2.54
 20
788.67065
 30
0
 40
0.915
 39
  0
0
CIRCLE
8
JA
 10
5.08
 20
788.67065
 30
0
 40
0.585
 39
  0
0
CIRCLE
8
JA
 10
7.62
 20
788.67065
 30
0
 40
0.915
 39
  0
0
CIRCLE
8
JA
 10
5.08
 20
786.1307
 30
0
 40
0.585
 39
  0
0
CIRCLE
8
JA
 10
5.08
 20
783.5907
 30
0
 40
0.585
 39
  0
0
CIRCLE
8
JA
 10
7.62
 20
783.5907
 30
0
 40
0.915
 39
  0
0
CIRCLE
8
JA
 10
2.54
 20
781.0507
 30
0
 40
0.915
 39
  0
0
CIRCLE
8
JA
 10
5.08
 20
781.0507
 30
0
 40
0.585
 39
  0
0
CIRCLE
8
JA
 10
5.08
 20
778.51074
 30
0
 40
0.585
 39
  0
0
CIRCLE
8
JA
 10
7.62
 20
778.51074
 30
0
 40
0.915
 39
  0
0
CIRCLE
8
JA
 10
2.54
 20
775.97076
 30
0
 40
0.915
 39
  0
0
CIRCLE
8
JA
 10
5.08
 20
775.97076
 30
0
 40
0.585
 39
  0
0
CIRCLE
8
JA
 10
2.54
 20
773.4308
 30
0
 40
0.915
 39
  0
0
CIRCLE
8
JA
 10
5.08
 20
773.4308
 30
0
 40
0.585
 39
  0
0
CIRCLE
8
JA
 10
7.62
 20
773.4308
 30
0
 40
0.915
 39
  0
0
CIRCLE
8
JA
 10
2.54
 20
770.8908
 30
0
 40
0.915
 39
  0
0
CIRCLE
8
JA
 10
5.08
 20
770.8908
 30
0
 40
0.585
 39
  0
0
CIRCLE
8
JA
 10
7.62
 20
770.8908
 30
0
 40
0.915
 39
  0
0
CIRCLE
8
JA
 10
5.08
 20
768.3508
 30
0
 40
0.585
 39
  0
0
CIRCLE
8
JA
 10
7.62
 20
768.3508
 30
0
 40
0.915
 39
  0
0
CIRCLE
8
JA
 10
2.54
 20
765.81085
 30
0
 40
0.915
 39
  0
0
CIRCLE
8
JA
 10
5.08
 20
765.81085
 30
0
 40
0.585
 39
  0
0
CIRCLE
8
JA
 10
5.08
 20
763.2709
 30
0
 40
0.585
 39
  0
0
CIRCLE
8
JA
 10
7.62
 20
763.2709
 30
0
 40
0.915
 39
  0
0
CIRCLE
8
JA
 10
2.54
 20
760.7309
 30
0
 40
0.915
 39
  0
0
CIRCLE
8
JA
 10
5.08
 20
760.7309
 30
0
 40
0.585
 39
  0
0
CIRCLE
8
JA
 10
5.08
 20
758.1909
 30
0
 40
0.585
 39
  0
0
CIRCLE
8
JA
 10
5.08
 20
755.65094
 30
0
 40
0.585
 39
  0
0
CIRCLE
8
JA
 10
7.62
 20
755.65094
 30
0
 40
0.915
 39
  0
0
CIRCLE
8
JA
 10
2.54
 20
753.11096
 30
0
 40
0.915
 39
  0
0
CIRCLE
8
JA
 10
5.08
 20
753.11096
 30
0
 40
0.585
 39
  0
0
CIRCLE
8
JA
 10
2.54
 20
750.571
 30
0
 40
0.915
 39
  0
0
CIRCLE
8
JA
 10
5.08
 20
750.571
 30
0
 40
0.585
 39
  0
0
CIRCLE
8
JA
 10
7.62
 20
750.571
 30
0
 40
0.915
 39
  0
0
CIRCLE
8
JA
 10
2.54
 20
748.031
 30
0
 40
0.915
 39
  0
0
CIRCLE
8
JA
 10
5.08
 20
748.031
 30
0
 40
0.585
 39
  0
0
CIRCLE
8
JA
 10
7.62
 20
748.031
 30
0
 40
0.915
 39
  0
0
CIRCLE
8
JA
 10
2.54
 20
745.491
 30
0
 40
0.915
 39
  0
0
CIRCLE
8
JA
 10
5.08
 20
745.491
 30
0
 40
0.585
 39
  0
0
CIRCLE
8
JA
 10
7.62
 20
745.491
 30
0
 40
0.915
 39
  0
0
CIRCLE
8
JA
 10
2.54
 20
742.95105
 30
0
 40
0.915
 39
  0
0
CIRCLE
8
JA
 10
5.08
 20
742.95105
 30
0
 40
0.585
 39
  0
0
CIRCLE
8
JA
 10
7.62
 20
742.95105
 30
0
 40
0.915
 39
  0
0
CIRCLE
8
JA
 10
5.08
 20
740.4111
 30
0
 40
0.585
 39
  0
0
CIRCLE
8
JA
 10
7.62
 20
740.4111
 30
0
 40
0.915
 39
  0
0
CIRCLE
8
JA
 10
2.54
 20
737.8711
 30
0
 40
0.915
 39
  0
0
CIRCLE
8
JA
 10
5.08
 20
737.8711
 30
0
 40
0.585
 39
  0
0
CIRCLE
8
JA
 10
5.08
 20
735.3311
 30
0
 40
0.585
 39
  0
0
CIRCLE
8
JA
 10
2.54
 20
732.79114
 30
0
 40
0.915
 39
  0
0
CIRCLE
8
JA
 10
5.08
 20
732.79114
 30
0
 40
0.585
 39
  0
0
CIRCLE
8
JA
 10
7.62
 20
732.79114
 30
0
 40
0.915
 39
  0
0
CIRCLE
8
JA
 10
5.08
 20
730.25116
 30
0
 40
0.585
 39
  0
0
CIRCLE
8
JA
 10
7.62
 20
730.25116
 30
0
 40
0.915
 39
  0
0
CIRCLE
8
JA
 10
2.54
 20
727.7112
 30
0
 40
0.915
 39
  0
0
CIRCLE
8
JA
 10
5.08
 20
727.7112
 30
0
 40
0.585
 39
  0
0
CIRCLE
8
JA
 10
2.54
 20
725.1712
 30
0
 40
0.915
 39
  0
0
CIRCLE
8
JA
 10
5.08
 20
725.1712
 30
0
 40
0.585
 39
  0
0
CIRCLE
8
JA
 10
7.62
 20
725.1712
 30
0
 40
0.915
 39
  0
0
CIRCLE
8
JA
 10
5.08
 20
722.6312
 30
0
 40
0.585
 39
  0
0
CIRCLE
8
JA
 10
7.62
 20
722.6312
 30
0
 40
0.915
 39
  0
0
CIRCLE
8
JA
 10
2.54
 20
720.09125
 30
0
 40
0.915
 39
  0
0
CIRCLE
8
JA
 10
5.08
 20
720.09125
 30
0
 40
0.585
 39
  0
0
CIRCLE
8
JA
 10
2.54
 20
717.5513
 30
0
 40
0.915
 39
  0
0
CIRCLE
8
JA
 10
5.08
 20
717.5513
 30
0
 40
0.585
 39
  0
0
CIRCLE
8
JA
 10
7.62
 20
717.5513
 30
0
 40
0.915
 39
  0
0
CIRCLE
8
JA
 10
5.08
 20
715.0113
 30
0
 40
0.585
 39
  0
0
CIRCLE
8
JA
 10
7.62
 20
715.0113
 30
0
 40
0.915
 39
  0
0
CIRCLE
8
JA
 10
2.54
 20
712.4713
 30
0
 40
0.915
 39
  0
0
CIRCLE
8
JA
 10
5.08
 20
712.4713
 30
0
 40
0.585
 39
  0
0
CIRCLE
8
JA
 10
5.08
 20
709.93134
 30
0
 40
0.585
 39
  0
0
CIRCLE
8
JA
 10
5.08
 20
707.39136
 30
0
 40
0.585
 39
  0
0
CIRCLE
8
JA
 10
7.62
 20
707.39136
 30
0
 40
0.915
 39
  0
0
CIRCLE
8
JA
 10
2.54
 20
704.8514
 30
0
 40
0.915
 39
  0
0
CIRCLE
8
JA
 10
5.08
 20
704.8514
 30
0
 40
0.585
 39
  0
0
CIRCLE
8
JA
 10
5.08
 20
702.3114
 30
0
 40
0.585
 39
  0
0
CIRCLE
8
JA
 10
7.62
 20
702.3114
 30
0
 40
0.915
 39
  0
0
CIRCLE
8
JA
 10
2.54
 20
699.7714
 30
0
 40
0.915
 39
  0
0
CIRCLE
8
JA
 10
5.08
 20
699.7714
 30
0
 40
0.585
 39
  0
0
CIRCLE
8
JA
 10
5.08
 20
697.23145
 30
0
 40
0.585
 39
  0
0
CIRCLE
8
JA
 10
7.62
 20
697.23145
 30
0
 40
0.915
 39
  0
0
CIRCLE
8
JA
 10
2.54
 20
694.69147
 30
0
 40
0.915
 39
  0
0
CIRCLE
8
JA
 10
5.08
 20
694.69147
 30
0
 40
0.585
 39
  0
0
CIRCLE
8
JA
 10
5.08
 20
692.1515
 30
0
 40
0.585
 39
  0
0
CIRCLE
8
JA
 10
7.62
 20
692.1515
 30
0
 40
0.915
 39
  0
0
CIRCLE
8
JA
 10
2.54
 20
689.6115
 30
0
 40
0.915
 39
  0
0
CIRCLE
8
JA
 10
5.08
 20
689.6115
 30
0
 40
0.585
 39
  0
0
CIRCLE
8
JA
 10
5.08
 20
687.07153
 30
0
 40
0.585
 39
  0
0
CIRCLE
8
JA
 10
7.62
 20
687.07153
 30
0
 40
0.915
 39
  0
0
CIRCLE
8
JA
 10
2.54
 20
684.53156
 30
0
 40
0.915
 39
  0
0
CIRCLE
8
JA
 10
5.08
 20
684.53156
 30
0
 40
0.585
 39
  0
0
CIRCLE
8
JA
 10
5.08
 20
681.9916
 30
0
 40
0.585
 39
  0
0
CIRCLE
8
JA
 10
2.54
 20
679.4516
 30
0
 40
0.915
 39
  0
0
CIRCLE
8
JA
 10
5.08
 20
679.4516
 30
0
 40
0.585
 39
  0
0
CIRCLE
8
JA
 10
7.62
 20
679.4516
 30
0
 40
0.915
 39
  0
0
CIRCLE
8
JA
 10
5.08
 20
676.9116
 30
0
 40
0.585
 39
  0
0
CIRCLE
8
JA
 10
7.62
 20
676.9116
 30
0
 40
0.915
 39
  0
0
CIRCLE
8
JA
 10
2.54
 20
674.37164
 30
0
 40
0.915
 39
  0
0
CIRCLE
8
JA
 10
5.08
 20
674.37164
 30
0
 40
0.585
 39
  0
0
CIRCLE
8
JA
 10
5.08
 20
671.83167
 30
0
 40
0.585
 39
  0
0
CIRCLE
8
JA
 10
7.62
 20
671.83167
 30
0
 40
0.915
 39
  0
0
CIRCLE
8
JA
 10
2.54
 20
669.2917
 30
0
 40
0.915
 39
  0
0
CIRCLE
8
JA
 10
5.08
 20
669.2917
 30
0
 40
0.585
 39
  0
0
CIRCLE
8
JA
 10
5.08
 20
666.7517
 30
0
 40
0.585
 39
  0
0
CIRCLE
8
JA
 10
7.62
 20
666.7517
 30
0
 40
0.915
 39
  0
0
CIRCLE
8
JA
 10
2.54
 20
664.21173
 30
0
 40
0.915
 39
  0
0
CIRCLE
8
JA
 10
5.08
 20
664.21173
 30
0
 40
0.585
 39
  0
0
CIRCLE
8
JA
 10
5.08
 20
661.67175
 30
0
 40
0.585
 39
  0
0
CIRCLE
8
JA
 10
7.62
 20
661.67175
 30
0
 40
0.915
 39
  0
0
CIRCLE
8
JA
 10
2.54
 20
659.1318
 30
0
 40
0.915
 39
  0
0
CIRCLE
8
JA
 10
5.08
 20
659.1318
 30
0
 40
0.585
 39
  0
0
CIRCLE
8
JA
 10
5.08
 20
656.5918
 30
0
 40
0.585
 39
  0
0
CIRCLE
8
JA
 10
2.54
 20
654.0518
 30
0
 40
0.915
 39
  0
0
CIRCLE
8
JA
 10
5.08
 20
654.0518
 30
0
 40
0.585
 39
  0
0
CIRCLE
8
JA
 10
7.62
 20
654.0518
 30
0
 40
0.915
 39
  0
0
CIRCLE
8
JA
 10
2.54
 20
651.51184
 30
0
 40
0.915
 39
  0
0
CIRCLE
8
JA
 10
5.08
 20
651.51184
 30
0
 40
0.585
 39
  0
0
CIRCLE
8
JA
 10
7.62
 20
651.51184
 30
0
 40
0.915
 39
  0
0
CIRCLE
8
JA
 10
5.08
 20
648.97186
 30
0
 40
0.585
 39
  0
0
CIRCLE
8
JA
 10
7.62
 20
648.97186
 30
0
 40
0.915
 39
  0
0
CIRCLE
8
JA
 10
2.54
 20
646.4319
 30
0
 40
0.915
 39
  0
0
CIRCLE
8
JA
 10
5.08
 20
646.4319
 30
0
 40
0.585
 39
  0
0
CIRCLE
8
JA
 10
5.08
 20
643.8919
 30
0
 40
0.585
 39
  0
0
CIRCLE
8
JA
 10
7.62
 20
643.8919
 30
0
 40
0.915
 39
  0
0
CIRCLE
8
JA
 10
2.54
 20
641.3519
 30
0
 40
0.915
 39
  0
0
CIRCLE
8
JA
 10
5.08
 20
641.3519
 30
0
 40
0.585
 39
  0
0
CIRCLE
8
JA
 10
5.08
 20
638.81195
 30
0
 40
0.585
 39
  0
0
CIRCLE
8
JA
 10
7.62
 20
638.81195
 30
0
 40
0.915
 39
  0
0
CIRCLE
8
JA
 10
2.54
 20
636.272
 30
0
 40
0.915
 39
  0
0
CIRCLE
8
JA
 10
5.08
 20
636.272
 30
0
 40
0.585
 39
  0
0
CIRCLE
8
JA
 10
5.08
 20
633.732
 30
0
 40
0.585
 39
  0
0
CIRCLE
8
JA
 10
2.54
 20
631.192
 30
0
 40
0.915
 39
  0
0
CIRCLE
8
JA
 10
5.08
 20
631.192
 30
0
 40
0.585
 39
  0
0
CIRCLE
8
JA
 10
7.62
 20
631.192
 30
0
 40
0.915
 39
  0
0
CIRCLE
8
JA
 10
2.54
 20
628.65204
 30
0
 40
0.915
 39
  0
0
CIRCLE
8
JA
 10
5.08
 20
628.65204
 30
0
 40
0.585
 39
  0
0
CIRCLE
8
JA
 10
7.62
 20
628.65204
 30
0
 40
0.915
 39
  0
0
CIRCLE
8
JA
 10
2.54
 20
626.11206
 30
0
 40
0.915
 39
  0
0
CIRCLE
8
JA
 10
5.08
 20
626.11206
 30
0
 40
0.585
 39
  0
0
CIRCLE
8
JA
 10
7.62
 20
626.11206
 30
0
 40
0.915
 39
  0
0
CIRCLE
8
JA
 10
5.08
 20
623.5721
 30
0
 40
0.585
 39
  0
0
CIRCLE
8
JA
 10
7.62
 20
623.5721
 30
0
 40
0.915
 39
  0
0
CIRCLE
8
JA
 10
2.54
 20
621.0321
 30
0
 40
0.915
 39
  0
0
CIRCLE
8
JA
 10
5.08
 20
621.0321
 30
0
 40
0.585
 39
  0
0
CIRCLE
8
JA
 10
5.08
 20
618.4921
 30
0
 40
0.585
 39
  0
0
CIRCLE
8
JA
 10
7.62
 20
618.4921
 30
0
 40
0.915
 39
  0
0
CIRCLE
8
JA
 10
2.54
 20
615.95215
 30
0
 40
0.915
 39
  0
0
CIRCLE
8
JA
 10
5.08
 20
615.95215
 30
0
 40
0.585
 39
  0
0
CIRCLE
8
JA
 10
5.08
 20
613.4122
 30
0
 40
0.585
 39
  0
0
CIRCLE
8
JA
 10
2.54
 20
610.8722
 30
0
 40
0.915
 39
  0
0
CIRCLE
8
JA
 10
5.08
 20
610.8722
 30
0
 40
0.585
 39
  0
0
CIRCLE
8
JA
 10
7.62
 20
610.8722
 30
0
 40
0.915
 39
  0
0
CIRCLE
8
JA
 10
2.54
 20
608.3322
 30
0
 40
0.915
 39
  0
0
CIRCLE
8
JA
 10
5.08
 20
608.3322
 30
0
 40
0.585
 39
  0
0
CIRCLE
8
JA
 10
7.62
 20
608.3322
 30
0
 40
0.915
 39
  0
0
CIRCLE
8
JA
 10
2.54
 20
605.79224
 30
0
 40
0.915
 39
  0
0
CIRCLE
8
JA
 10
5.08
 20
605.79224
 30
0
 40
0.585
 39
  0
0
CIRCLE
8
JA
 10
7.62
 20
605.79224
 30
0
 40
0.915
 39
  0
0
CIRCLE
8
JA
 10
5.08
 20
603.25226
 30
0
 40
0.585
 39
  0
0
CIRCLE
8
JA
 10
7.62
 20
603.25226
 30
0
 40
0.915
 39
  0
0
CIRCLE
8
JA
 10
2.54
 20
600.7123
 30
0
 40
0.915
 39
  0
0
CIRCLE
8
JA
 10
5.08
 20
600.7123
 30
0
 40
0.585
 39
  0
0
CIRCLE
8
JA
 10
5.08
 20
598.1723
 30
0
 40
0.585
 39
  0
0
CIRCLE
8
JA
 10
2.54
 20
595.6323
 30
0
 40
0.915
 39
  0
0
CIRCLE
8
JA
 10
5.08
 20
595.6323
 30
0
 40
0.585
 39
  0
0
CIRCLE
8
JA
 10
7.62
 20
595.6323
 30
0
 40
0.915
 39
  0
0
CIRCLE
8
JA
 10
2.54
 20
593.09235
 30
0
 40
0.915
 39
  0
0
CIRCLE
8
JA
 10
5.08
 20
593.09235
 30
0
 40
0.585
 39
  0
0
CIRCLE
8
JA
 10
7.62
 20
593.09235
 30
0
 40
0.915
 39
  0
0
CIRCLE
8
JA
 10
2.54
 20
590.55237
 30
0
 40
0.915
 39
  0
0
CIRCLE
8
JA
 10
5.08
 20
590.55237
 30
0
 40
0.585
 39
  0
0
CIRCLE
8
JA
 10
7.62
 20
590.55237
 30
0
 40
0.915
 39
  0
0
CIRCLE
8
JA
 10
2.54
 20
588.0124
 30
0
 40
0.915
 39
  0
0
CIRCLE
8
JA
 10
5.08
 20
588.0124
 30
0
 40
0.585
 39
  0
0
CIRCLE
8
JA
 10
7.62
 20
588.0124
 30
0
 40
0.915
 39
  0
0
CIRCLE
8
JA
 10
2.54
 20
585.4724
 30
0
 40
0.915
 39
  0
0
CIRCLE
8
JA
 10
5.08
 20
585.4724
 30
0
 40
0.585
 39
  0
0
CIRCLE
8
JA
 10
7.62
 20
585.4724
 30
0
 40
0.915
 39
  0
0
CIRCLE
8
JA
 10
5.08
 20
582.93243
 30
0
 40
0.585
 39
  0
0
CIRCLE
8
JA
 10
5.08
 20
580.39246
 30
0
 40
0.585
 39
  0
0
CIRCLE
8
JA
 10
7.62
 20
580.39246
 30
0
 40
0.915
 39
  0
0
CIRCLE
8
JA
 10
2.54
 20
577.8525
 30
0
 40
0.915
 39
  0
0
CIRCLE
8
JA
 10
5.08
 20
577.8525
 30
0
 40
0.585
 39
  0
0
CIRCLE
8
JA
 10
2.54
 20
575.3125
 30
0
 40
0.915
 39
  0
0
CIRCLE
8
JA
 10
5.08
 20
575.3125
 30
0
 40
0.585
 39
  0
0
CIRCLE
8
JA
 10
7.62
 20
575.3125
 30
0
 40
0.915
 39
  0
0
CIRCLE
8
JA
 10
2.54
 20
572.7725
 30
0
 40
0.915
 39
  0
0
CIRCLE
8
JA
 10
5.08
 20
572.7725
 30
0
 40
0.585
 39
  0
0
CIRCLE
8
JA
 10
7.62
 20
572.7725
 30
0
 40
0.915
 39
  0
0
CIRCLE
8
JA
 10
2.54
 20
570.23254
 30
0
 40
0.915
 39
  0
0
CIRCLE
8
JA
 10
5.08
 20
570.23254
 30
0
 40
0.585
 39
  0
0
CIRCLE
8
JA
 10
7.62
 20
570.23254
 30
0
 40
0.915
 39
  0
0
CIRCLE
8
JA
 10
2.54
 20
567.69257
 30
0
 40
0.915
 39
  0
0
CIRCLE
8
JA
 10
5.08
 20
567.69257
 30
0
 40
0.585
 39
  0
0
CIRCLE
8
JA
 10
7.62
 20
567.69257
 30
0
 40
0.915
 39
  0
0
CIRCLE
8
JA
 10
5.08
 20
565.1526
 30
0
 40
0.585
 39
  0
0
CIRCLE
8
JA
 10
5.08
 20
562.6126
 30
0
 40
0.585
 39
  0
0
CIRCLE
8
JA
 10
7.62
 20
562.6126
 30
0
 40
0.915
 39
  0
0
CIRCLE
8
JA
 10
2.54
 20
560.07263
 30
0
 40
0.915
 39
  0
0
CIRCLE
8
JA
 10
5.08
 20
560.07263
 30
0
 40
0.585
 39
  0
0
CIRCLE
8
JA
 10
5.08
 20
557.53265
 30
0
 40
0.585
 39
  0
0
CIRCLE
8
JA
 10
7.62
 20
557.53265
 30
0
 40
0.915
 39
  0
0
CIRCLE
8
JA
 10
2.54
 20
554.9927
 30
0
 40
0.915
 39
  0
0
CIRCLE
8
JA
 10
5.08
 20
554.9927
 30
0
 40
0.585
 39
  0
0
CIRCLE
8
JA
 10
2.54
 20
552.4527
 30
0
 40
0.915
 39
  0
0
CIRCLE
8
JA
 10
5.08
 20
552.4527
 30
0
 40
0.585
 39
  0
0
CIRCLE
8
JA
 10
7.62
 20
552.4527
 30
0
 40
0.915
 39
  0
0
CIRCLE
8
JA
 10
2.54
 20
549.9127
 30
0
 40
0.915
 39
  0
0
CIRCLE
8
JA
 10
5.08
 20
549.9127
 30
0
 40
0.585
 39
  0
0
CIRCLE
8
JA
 10
7.62
 20
549.9127
 30
0
 40
0.915
 39
  0
0
CIRCLE
8
JA
 10
2.54
 20
547.37274
 30
0
 40
0.915
 39
  0
0
CIRCLE
8
JA
 10
5.08
 20
547.37274
 30
0
 40
0.585
 39
  0
0
CIRCLE
8
JA
 10
7.62
 20
547.37274
 30
0
 40
0.915
 39
  0
0
CIRCLE
8
JA
 10
5.08
 20
544.83276
 30
0
 40
0.585
 39
  0
0
CIRCLE
8
JA
 10
5.08
 20
542.2928
 30
0
 40
0.585
 39
  0
0
CIRCLE
8
JA
 10
7.62
 20
542.2928
 30
0
 40
0.915
 39
  0
0
CIRCLE
8
JA
 10
2.54
 20
539.7528
 30
0
 40
0.915
 39
  0
0
CIRCLE
8
JA
 10
5.08
 20
539.7528
 30
0
 40
0.585
 39
  0
0
CIRCLE
8
JA
 10
5.08
 20
537.2128
 30
0
 40
0.585
 39
  0
0
CIRCLE
8
JA
 10
7.62
 20
537.2128
 30
0
 40
0.915
 39
  0
0
CIRCLE
8
JA
 10
2.54
 20
534.67285
 30
0
 40
0.915
 39
  0
0
CIRCLE
8
JA
 10
5.08
 20
534.67285
 30
0
 40
0.585
 39
  0
0
CIRCLE
8
JA
 10
5.08
 20
532.1329
 30
0
 40
0.585
 39
  0
0
CIRCLE
8
JA
 10
7.62
 20
532.1329
 30
0
 40
0.915
 39
  0
0
CIRCLE
8
JA
 10
2.54
 20
529.5929
 30
0
 40
0.915
 39
  0
0
CIRCLE
8
JA
 10
5.08
 20
529.5929
 30
0
 40
0.585
 39
  0
0
CIRCLE
8
JA
 10
2.54
 20
527.0529
 30
0
 40
0.915
 39
  0
0
CIRCLE
8
JA
 10
5.08
 20
527.0529
 30
0
 40
0.585
 39
  0
0
CIRCLE
8
JA
 10
7.62
 20
527.0529
 30
0
 40
0.915
 39
  0
0
CIRCLE
8
JA
 10
2.54
 20
524.51294
 30
0
 40
0.915
 39
  0
0
CIRCLE
8
JA
 10
5.08
 20
524.51294
 30
0
 40
0.585
 39
  0
0
CIRCLE
8
JA
 10
7.62
 20
524.51294
 30
0
 40
0.915
 39
  0
0
CIRCLE
8
JA
 10
5.08
 20
521.97296
 30
0
 40
0.585
 39
  0
0
CIRCLE
8
JA
 10
5.08
 20
519.433
 30
0
 40
0.585
 39
  0
0
CIRCLE
8
JA
 10
7.62
 20
519.433
 30
0
 40
0.915
 39
  0
0
CIRCLE
8
JA
 10
2.54
 20
516.893
 30
0
 40
0.915
 39
  0
0
CIRCLE
8
JA
 10
5.08
 20
516.893
 30
0
 40
0.585
 39
  0
0
CIRCLE
8
JA
 10
5.08
 20
514.353
 30
0
 40
0.585
 39
  0
0
CIRCLE
8
JA
 10
7.62
 20
514.353
 30
0
 40
0.915
 39
  0
0
CIRCLE
8
JA
 10
2.54
 20
511.81302
 30
0
 40
0.915
 39
  0
0
CIRCLE
8
JA
 10
5.08
 20
511.81302
 30
0
 40
0.585
 39
  0
0
CIRCLE
8
JA
 10
5.08
 20
509.273
 30
0
 40
0.585
 39
  0
0
CIRCLE
8
JA
 10
7.62
 20
509.273
 30
0
 40
0.915
 39
  0
0
CIRCLE
8
JA
 10
2.54
 20
506.733
 30
0
 40
0.915
 39
  0
0
CIRCLE
8
JA
 10
5.08
 20
506.733
 30
0
 40
0.585
 39
  0
0
CIRCLE
8
JA
 10
5.08
 20
504.193
 30
0
 40
0.585
 39
  0
0
CIRCLE
8
JA
 10
7.62
 20
504.193
 30
0
 40
0.915
 39
  0
0
CIRCLE
8
JA
 10
2.54
 20
501.65298
 30
0
 40
0.915
 39
  0
0
CIRCLE
8
JA
 10
5.08
 20
501.65298
 30
0
 40
0.585
 39
  0
0
CIRCLE
8
JA
 10
2.54
 20
499.11298
 30
0
 40
0.915
 39
  0
0
CIRCLE
8
JA
 10
5.08
 20
499.11298
 30
0
 40
0.585
 39
  0
0
CIRCLE
8
JA
 10
7.62
 20
499.11298
 30
0
 40
0.915
 39
  0
0
CIRCLE
8
JA
 10
5.08
 20
496.57297
 30
0
 40
0.585
 39
  0
0
CIRCLE
8
JA
 10
5.08
 20
494.03296
 30
0
 40
0.585
 39
  0
0
CIRCLE
8
JA
 10
7.62
 20
494.03296
 30
0
 40
0.915
 39
  0
0
CIRCLE
8
JA
 10
2.54
 20
491.49295
 30
0
 40
0.915
 39
  0
0
CIRCLE
8
JA
 10
5.08
 20
491.49295
 30
0
 40
0.585
 39
  0
0
CIRCLE
8
JA
 10
5.08
 20
488.95294
 30
0
 40
0.585
 39
  0
0
CIRCLE
8
JA
 10
7.62
 20
488.95294
 30
0
 40
0.915
 39
  0
0
CIRCLE
8
JA
 10
2.54
 20
486.41293
 30
0
 40
0.915
 39
  0
0
CIRCLE
8
JA
 10
5.08
 20
486.41293
 30
0
 40
0.585
 39
  0
0
CIRCLE
8
JA
 10
5.08
 20
483.87292
 30
0
 40
0.585
 39
  0
0
CIRCLE
8
JA
 10
7.62
 20
483.87292
 30
0
 40
0.915
 39
  0
0
CIRCLE
8
JA
 10
2.54
 20
481.33292
 30
0
 40
0.915
 39
  0
0
CIRCLE
8
JA
 10
5.08
 20
481.33292
 30
0
 40
0.585
 39
  0
0
CIRCLE
8
JA
 10
2.54
 20
478.7929
 30
0
 40
0.915
 39
  0
0
CIRCLE
8
JA
 10
5.08
 20
478.7929
 30
0
 40
0.585
 39
  0
0
CIRCLE
8
JA
 10
7.62
 20
478.7929
 30
0
 40
0.915
 39
  0
0
CIRCLE
8
JA
 10
2.54
 20
476.2529
 30
0
 40
0.915
 39
  0
0
CIRCLE
8
JA
 10
5.08
 20
476.2529
 30
0
 40
0.585
 39
  0
0
CIRCLE
8
JA
 10
7.62
 20
476.2529
 30
0
 40
0.915
 39
  0
0
CIRCLE
8
JA
 10
2.54
 20
473.7129
 30
0
 40
0.915
 39
  0
0
CIRCLE
8
JA
 10
5.08
 20
473.7129
 30
0
 40
0.585
 39
  0
0
CIRCLE
8
JA
 10
7.62
 20
473.7129
 30
0
 40
0.915
 39
  0
0
CIRCLE
8
JA
 10
5.08
 20
471.17288
 30
0
 40
0.585
 39
  0
0
CIRCLE
8
JA
 10
5.08
 20
468.63287
 30
0
 40
0.585
 39
  0
0
CIRCLE
8
JA
 10
7.62
 20
468.63287
 30
0
 40
0.915
 39
  0
0
CIRCLE
8
JA
 10
2.54
 20
466.09286
 30
0
 40
0.915
 39
  0
0
CIRCLE
8
JA
 10
5.08
 20
466.09286
 30
0
 40
0.585
 39
  0
0
CIRCLE
8
JA
 10
2.54
 20
463.55286
 30
0
 40
0.915
 39
  0
0
CIRCLE
8
JA
 10
5.08
 20
463.55286
 30
0
 40
0.585
 39
  0
0
CIRCLE
8
JA
 10
7.62
 20
463.55286
 30
0
 40
0.915
 39
  0
0
CIRCLE
8
JA
 10
5.08
 20
461.01285
 30
0
 40
0.585
 39
  0
0
CIRCLE
8
JA
 10
7.62
 20
461.01285
 30
0
 40
0.915
 39
  0
0
CIRCLE
8
JA
 10
2.54
 20
458.47284
 30
0
 40
0.915
 39
  0
0
CIRCLE
8
JA
 10
5.08
 20
458.47284
 30
0
 40
0.585
 39
  0
0
CIRCLE
8
JA
 10
2.54
 20
455.93283
 30
0
 40
0.915
 39
  0
0
CIRCLE
8
JA
 10
5.08
 20
455.93283
 30
0
 40
0.585
 39
  0
0
CIRCLE
8
JA
 10
7.62
 20
455.93283
 30
0
 40
0.915
 39
  0
0
CIRCLE
8
JA
 10
5.08
 20
453.39282
 30
0
 40
0.585
 39
  0
0
CIRCLE
8
JA
 10
7.62
 20
453.39282
 30
0
 40
0.915
 39
  0
0
CIRCLE
8
JA
 10
2.54
 20
450.8528
 30
0
 40
0.915
 39
  0
0
CIRCLE
8
JA
 10
5.08
 20
450.8528
 30
0
 40
0.585
 39
  0
0
CIRCLE
8
JA
 10
2.54
 20
448.3128
 30
0
 40
0.915
 39
  0
0
CIRCLE
8
JA
 10
5.08
 20
448.3128
 30
0
 40
0.585
 39
  0
0
CIRCLE
8
JA
 10
7.62
 20
448.3128
 30
0
 40
0.915
 39
  0
0
CIRCLE
8
JA
 10
5.08
 20
445.7728
 30
0
 40
0.585
 39
  0
0
CIRCLE
8
JA
 10
2.54
 20
443.2328
 30
0
 40
0.915
 39
  0
0
CIRCLE
8
JA
 10
5.08
 20
443.2328
 30
0
 40
0.585
 39
  0
0
CIRCLE
8
JA
 10
7.62
 20
443.2328
 30
0
 40
0.915
 39
  0
0
CIRCLE
8
JA
 10
2.54
 20
440.69278
 30
0
 40
0.915
 39
  0
0
CIRCLE
8
JA
 10
5.08
 20
440.69278
 30
0
 40
0.585
 39
  0
0
CIRCLE
8
JA
 10
7.62
 20
440.69278
 30
0
 40
0.915
 39
  0
0
CIRCLE
8
JA
 10
5.08
 20
438.15277
 30
0
 40
0.585
 39
  0
0
CIRCLE
8
JA
 10
7.62
 20
438.15277
 30
0
 40
0.915
 39
  0
0
CIRCLE
8
JA
 10
2.54
 20
435.61276
 30
0
 40
0.915
 39
  0
0
CIRCLE
8
JA
 10
5.08
 20
435.61276
 30
0
 40
0.585
 39
  0
0
CIRCLE
8
JA
 10
5.08
 20
433.07275
 30
0
 40
0.585
 39
  0
0
CIRCLE
8
JA
 10
7.62
 20
433.07275
 30
0
 40
0.915
 39
  0
0
CIRCLE
8
JA
 10
2.54
 20
430.53275
 30
0
 40
0.915
 39
  0
0
CIRCLE
8
JA
 10
5.08
 20
430.53275
 30
0
 40
0.585
 39
  0
0
CIRCLE
8
JA
 10
2.54
 20
427.99274
 30
0
 40
0.915
 39
  0
0
CIRCLE
8
JA
 10
5.08
 20
427.99274
 30
0
 40
0.585
 39
  0
0
CIRCLE
8
JA
 10
7.62
 20
427.99274
 30
0
 40
0.915
 39
  0
0
CIRCLE
8
JA
 10
2.54
 20
425.45273
 30
0
 40
0.915
 39
  0
0
CIRCLE
8
JA
 10
5.08
 20
425.45273
 30
0
 40
0.585
 39
  0
0
CIRCLE
8
JA
 10
7.62
 20
425.45273
 30
0
 40
0.915
 39
  0
0
CIRCLE
8
JA
 10
5.08
 20
422.91272
 30
0
 40
0.585
 39
  0
0
CIRCLE
8
JA
 10
2.54
 20
420.3727
 30
0
 40
0.915
 39
  0
0
CIRCLE
8
JA
 10
5.08
 20
420.3727
 30
0
 40
0.585
 39
  0
0
CIRCLE
8
JA
 10
7.62
 20
420.3727
 30
0
 40
0.915
 39
  0
0
CIRCLE
8
JA
 10
5.08
 20
417.8327
 30
0
 40
0.585
 39
  0
0
CIRCLE
8
JA
 10
7.62
 20
417.8327
 30
0
 40
0.915
 39
  0
0
CIRCLE
8
JA
 10
2.54
 20
415.2927
 30
0
 40
0.915
 39
  0
0
CIRCLE
8
JA
 10
5.08
 20
415.2927
 30
0
 40
0.585
 39
  0
0
CIRCLE
8
JA
 10
5.08
 20
412.7527
 30
0
 40
0.585
 39
  0
0
CIRCLE
8
JA
 10
7.62
 20
412.7527
 30
0
 40
0.915
 39
  0
0
CIRCLE
8
JA
 10
2.54
 20
410.21268
 30
0
 40
0.915
 39
  0
0
CIRCLE
8
JA
 10
5.08
 20
410.21268
 30
0
 40
0.585
 39
  0
0
CIRCLE
8
JA
 10
2.54
 20
407.67267
 30
0
 40
0.915
 39
  0
0
CIRCLE
8
JA
 10
5.08
 20
407.67267
 30
0
 40
0.585
 39
  0
0
CIRCLE
8
JA
 10
7.62
 20
407.67267
 30
0
 40
0.915
 39
  0
0
CIRCLE
8
JA
 10
5.08
 20
405.13266
 30
0
 40
0.585
 39
  0
0
CIRCLE
8
JA
 10
7.62
 20
405.13266
 30
0
 40
0.915
 39
  0
0
CIRCLE
8
JA
 10
2.54
 20
402.59265
 30
0
 40
0.915
 39
  0
0
CIRCLE
8
JA
 10
5.08
 20
402.59265
 30
0
 40
0.585
 39
  0
0
CIRCLE
8
JA
 10
2.54
 20
400.05264
 30
0
 40
0.915
 39
  0
0
CIRCLE
8
JA
 10
5.08
 20
400.05264
 30
0
 40
0.585
 39
  0
0
CIRCLE
8
JA
 10
7.62
 20
400.05264
 30
0
 40
0.915
 39
  0
0
CIRCLE
8
JA
 10
5.08
 20
397.51263
 30
0
 40
0.585
 39
  0
0
CIRCLE
8
JA
 10
2.54
 20
394.97263
 30
0
 40
0.915
 39
  0
0
CIRCLE
8
JA
 10
5.08
 20
394.97263
 30
0
 40
0.585
 39
  0
0
CIRCLE
8
JA
 10
7.62
 20
394.97263
 30
0
 40
0.915
 39
  0
0
CIRCLE
8
JA
 10
5.08
 20
392.43262
 30
0
 40
0.585
 39
  0
0
CIRCLE
8
JA
 10
7.62
 20
392.43262
 30
0
 40
0.915
 39
  0
0
CIRCLE
8
JA
 10
2.54
 20
389.8926
 30
0
 40
0.915
 39
  0
0
CIRCLE
8
JA
 10
5.08
 20
389.8926
 30
0
 40
0.585
 39
  0
0
CIRCLE
8
JA
 10
5.08
 20
387.3526
 30
0
 40
0.585
 39
  0
0
CIRCLE
8
JA
 10
5.08
 20
384.8126
 30
0
 40
0.585
 39
  0
0
CIRCLE
8
JA
 10
7.62
 20
384.8126
 30
0
 40
0.915
 39
  0
0
CIRCLE
8
JA
 10
2.54
 20
382.27258
 30
0
 40
0.915
 39
  0
0
CIRCLE
8
JA
 10
5.08
 20
382.27258
 30
0
 40
0.585
 39
  0
0
CIRCLE
8
JA
 10
2.54
 20
379.73257
 30
0
 40
0.915
 39
  0
0
CIRCLE
8
JA
 10
5.08
 20
379.73257
 30
0
 40
0.585
 39
  0
0
CIRCLE
8
JA
 10
7.62
 20
379.73257
 30
0
 40
0.915
 39
  0
0
CIRCLE
8
JA
 10
2.54
 20
377.19257
 30
0
 40
0.915
 39
  0
0
CIRCLE
8
JA
 10
5.08
 20
377.19257
 30
0
 40
0.585
 39
  0
0
CIRCLE
8
JA
 10
7.62
 20
377.19257
 30
0
 40
0.915
 39
  0
0
CIRCLE
8
JA
 10
2.54
 20
374.65256
 30
0
 40
0.915
 39
  0
0
CIRCLE
8
JA
 10
5.08
 20
374.65256
 30
0
 40
0.585
 39
  0
0
CIRCLE
8
JA
 10
7.62
 20
374.65256
 30
0
 40
0.915
 39
  0
0
CIRCLE
8
JA
 10
5.08
 20
372.11255
 30
0
 40
0.585
 39
  0
0
CIRCLE
8
JA
 10
5.08
 20
369.57254
 30
0
 40
0.585
 39
  0
0
CIRCLE
8
JA
 10
7.62
 20
369.57254
 30
0
 40
0.915
 39
  0
0
CIRCLE
8
JA
 10
2.54
 20
367.03253
 30
0
 40
0.915
 39
  0
0
CIRCLE
8
JA
 10
5.08
 20
367.03253
 30
0
 40
0.585
 39
  0
0
CIRCLE
8
JA
 10
2.54
 20
364.49252
 30
0
 40
0.915
 39
  0
0
CIRCLE
8
JA
 10
5.08
 20
364.49252
 30
0
 40
0.585
 39
  0
0
CIRCLE
8
JA
 10
7.62
 20
364.49252
 30
0
 40
0.915
 39
  0
0
CIRCLE
8
JA
 10
5.08
 20
361.9525
 30
0
 40
0.585
 39
  0
0
CIRCLE
8
JA
 10
7.62
 20
361.9525
 30
0
 40
0.915
 39
  0
0
CIRCLE
8
JA
 10
2.54
 20
359.4125
 30
0
 40
0.915
 39
  0
0
CIRCLE
8
JA
 10
5.08
 20
359.4125
 30
0
 40
0.585
 39
  0
0
CIRCLE
8
JA
 10
2.54
 20
356.8725
 30
0
 40
0.915
 39
  0
0
CIRCLE
8
JA
 10
5.08
 20
356.8725
 30
0
 40
0.585
 39
  0
0
CIRCLE
8
JA
 10
7.62
 20
356.8725
 30
0
 40
0.915
 39
  0
0
CIRCLE
8
JA
 10
5.08
 20
354.3325
 30
0
 40
0.585
 39
  0
0
CIRCLE
8
JA
 10
5.08
 20
351.79248
 30
0
 40
0.585
 39
  0
0
CIRCLE
8
JA
 10
7.62
 20
351.79248
 30
0
 40
0.915
 39
  0
0
CIRCLE
8
JA
 10
2.54
 20
349.25247
 30
0
 40
0.915
 39
  0
0
CIRCLE
8
JA
 10
5.08
 20
349.25247
 30
0
 40
0.585
 39
  0
0
CIRCLE
8
JA
 10
2.54
 20
346.71246
 30
0
 40
0.915
 39
  0
0
CIRCLE
8
JA
 10
5.08
 20
346.71246
 30
0
 40
0.585
 39
  0
0
CIRCLE
8
JA
 10
7.62
 20
346.71246
 30
0
 40
0.915
 39
  0
0
CIRCLE
8
JA
 10
2.54
 20
344.17245
 30
0
 40
0.915
 39
  0
0
CIRCLE
8
JA
 10
5.08
 20
344.17245
 30
0
 40
0.585
 39
  0
0
CIRCLE
8
JA
 10
7.62
 20
344.17245
 30
0
 40
0.915
 39
  0
0
CIRCLE
8
JA
 10
5.08
 20
341.63245
 30
0
 40
0.585
 39
  0
0
CIRCLE
8
JA
 10
2.54
 20
339.09244
 30
0
 40
0.915
 39
  0
0
CIRCLE
8
JA
 10
5.08
 20
339.09244
 30
0
 40
0.585
 39
  0
0
CIRCLE
8
JA
 10
7.62
 20
339.09244
 30
0
 40
0.915
 39
  0
0
CIRCLE
8
JA
 10
5.08
 20
336.55243
 30
0
 40
0.585
 39
  0
0
CIRCLE
8
JA
 10
2.54
 20
334.01242
 30
0
 40
0.915
 39
  0
0
CIRCLE
8
JA
 10
5.08
 20
334.01242
 30
0
 40
0.585
 39
  0
0
CIRCLE
8
JA
 10
7.62
 20
334.01242
 30
0
 40
0.915
 39
  0
0
CIRCLE
8
JA
 10
2.54
 20
331.4724
 30
0
 40
0.915
 39
  0
0
CIRCLE
8
JA
 10
5.08
 20
331.4724
 30
0
 40
0.585
 39
  0
0
CIRCLE
8
JA
 10
7.62
 20
331.4724
 30
0
 40
0.915
 39
  0
0
CIRCLE
8
JA
 10
5.08
 20
328.9324
 30
0
 40
0.585
 39
  0
0
CIRCLE
8
JA
 10
7.62
 20
328.9324
 30
0
 40
0.915
 39
  0
0
CIRCLE
8
JA
 10
2.54
 20
326.3924
 30
0
 40
0.915
 39
  0
0
CIRCLE
8
JA
 10
5.08
 20
326.3924
 30
0
 40
0.585
 39
  0
0
CIRCLE
8
JA
 10
2.54
 20
323.8524
 30
0
 40
0.915
 39
  0
0
CIRCLE
8
JA
 10
5.08
 20
323.8524
 30
0
 40
0.585
 39
  0
0
CIRCLE
8
JA
 10
7.62
 20
323.8524
 30
0
 40
0.915
 39
  0
0
CIRCLE
8
JA
 10
5.08
 20
321.31238
 30
0
 40
0.585
 39
  0
0
CIRCLE
8
JA
 10
5.08
 20
318.77237
 30
0
 40
0.585
 39
  0
0
CIRCLE
8
JA
 10
7.62
 20
318.77237
 30
0
 40
0.915
 39
  0
0
CIRCLE
8
JA
 10
2.54
 20
316.23236
 30
0
 40
0.915
 39
  0
0
CIRCLE
8
JA
 10
5.08
 20
316.23236
 30
0
 40
0.585
 39
  0
0
CIRCLE
8
JA
 10
5.08
 20
313.69235
 30
0
 40
0.585
 39
  0
0
CIRCLE
8
JA
 10
7.62
 20
313.69235
 30
0
 40
0.915
 39
  0
0
CIRCLE
8
JA
 10
2.54
 20
311.15234
 30
0
 40
0.915
 39
  0
0
CIRCLE
8
JA
 10
5.08
 20
311.15234
 30
0
 40
0.585
 39
  0
0
CIRCLE
8
JA
 10
2.54
 20
308.61234
 30
0
 40
0.915
 39
  0
0
CIRCLE
8
JA
 10
5.08
 20
308.61234
 30
0
 40
0.585
 39
  0
0
CIRCLE
8
JA
 10
7.62
 20
308.61234
 30
0
 40
0.915
 39
  0
0
CIRCLE
8
JA
 10
5.08
 20
306.07233
 30
0
 40
0.585
 39
  0
0
CIRCLE
8
JA
 10
2.54
 20
303.53232
 30
0
 40
0.915
 39
  0
0
CIRCLE
8
JA
 10
5.08
 20
303.53232
 30
0
 40
0.585
 39
  0
0
CIRCLE
8
JA
 10
7.62
 20
303.53232
 30
0
 40
0.915
 39
  0
0
CIRCLE
8
JA
 10
2.54
 20
300.9923
 30
0
 40
0.915
 39
  0
0
CIRCLE
8
JA
 10
5.08
 20
300.9923
 30
0
 40
0.585
 39
  0
0
CIRCLE
8
JA
 10
7.62
 20
300.9923
 30
0
 40
0.915
 39
  0
0
CIRCLE
8
JA
 10
2.54
 20
298.4523
 30
0
 40
0.915
 39
  0
0
CIRCLE
8
JA
 10
5.08
 20
298.4523
 30
0
 40
0.585
 39
  0
0
CIRCLE
8
JA
 10
7.62
 20
298.4523
 30
0
 40
0.915
 39
  0
0
CIRCLE
8
JA
 10
2.54
 20
295.9123
 30
0
 40
0.915
 39
  0
0
CIRCLE
8
JA
 10
5.08
 20
295.9123
 30
0
 40
0.585
 39
  0
0
CIRCLE
8
JA
 10
7.62
 20
295.9123
 30
0
 40
0.915
 39
  0
0
CIRCLE
8
JA
 10
5.08
 20
293.37228
 30
0
 40
0.585
 39
  0
0
CIRCLE
8
JA
 10
2.54
 20
290.83228
 30
0
 40
0.915
 39
  0
0
CIRCLE
8
JA
 10
5.08
 20
290.83228
 30
0
 40
0.585
 39
  0
0
CIRCLE
8
JA
 10
7.62
 20
290.83228
 30
0
 40
0.915
 39
  0
0
CIRCLE
8
JA
 10
2.54
 20
288.29227
 30
0
 40
0.915
 39
  0
0
CIRCLE
8
JA
 10
5.08
 20
288.29227
 30
0
 40
0.585
 39
  0
0
CIRCLE
8
JA
 10
7.62
 20
288.29227
 30
0
 40
0.915
 39
  0
0
CIRCLE
8
JA
 10
5.08
 20
285.75226
 30
0
 40
0.585
 39
  0
0
CIRCLE
8
JA
 10
2.54
 20
283.21225
 30
0
 40
0.915
 39
  0
0
CIRCLE
8
JA
 10
5.08
 20
283.21225
 30
0
 40
0.585
 39
  0
0
CIRCLE
8
JA
 10
7.62
 20
283.21225
 30
0
 40
0.915
 39
  0
0
CIRCLE
8
JA
 10
5.08
 20
280.67224
 30
0
 40
0.585
 39
  0
0
CIRCLE
8
JA
 10
7.62
 20
280.67224
 30
0
 40
0.915
 39
  0
0
CIRCLE
8
JA
 10
2.54
 20
278.13223
 30
0
 40
0.915
 39
  0
0
CIRCLE
8
JA
 10
5.08
 20
278.13223
 30
0
 40
0.585
 39
  0
0
CIRCLE
8
JA
 10
5.08
 20
275.59222
 30
0
 40
0.585
 39
  0
0
CIRCLE
8
JA
 10
7.62
 20
275.59222
 30
0
 40
0.915
 39
  0
0
CIRCLE
8
JA
 10
2.54
 20
273.05222
 30
0
 40
0.915
 39
  0
0
CIRCLE
8
JA
 10
5.08
 20
273.05222
 30
0
 40
0.585
 39
  0
0
CIRCLE
8
JA
 10
5.08
 20
270.5122
 30
0
 40
0.585
 39
  0
0
CIRCLE
8
JA
 10
7.62
 20
270.5122
 30
0
 40
0.915
 39
  0
0
CIRCLE
8
JA
 10
2.54
 20
267.9722
 30
0
 40
0.915
 39
  0
0
CIRCLE
8
JA
 10
5.08
 20
267.9722
 30
0
 40
0.585
 39
  0
0
CIRCLE
8
JA
 10
5.08
 20
265.4322
 30
0
 40
0.585
 39
  0
0
CIRCLE
8
JA
 10
5.08
 20
262.89218
 30
0
 40
0.585
 39
  0
0
CIRCLE
8
JA
 10
7.62
 20
262.89218
 30
0
 40
0.915
 39
  0
0
CIRCLE
8
JA
 10
2.54
 20
260.35217
 30
0
 40
0.915
 39
  0
0
CIRCLE
8
JA
 10
5.08
 20
260.35217
 30
0
 40
0.585
 39
  0
0
CIRCLE
8
JA
 10
2.54
 20
257.81216
 30
0
 40
0.915
 39
  0
0
CIRCLE
8
JA
 10
5.08
 20
257.81216
 30
0
 40
0.585
 39
  0
0
CIRCLE
8
JA
 10
7.62
 20
257.81216
 30
0
 40
0.915
 39
  0
0
CIRCLE
8
JA
 10
5.08
 20
255.27217
 30
0
 40
0.585
 39
  0
0
CIRCLE
8
JA
 10
7.62
 20
255.27217
 30
0
 40
0.915
 39
  0
0
CIRCLE
8
JA
 10
2.54
 20
252.73218
 30
0
 40
0.915
 39
  0
0
CIRCLE
8
JA
 10
5.08
 20
252.73218
 30
0
 40
0.585
 39
  0
0
CIRCLE
8
JA
 10
5.08
 20
250.19218
 30
0
 40
0.585
 39
  0
0
CIRCLE
8
JA
 10
2.54
 20
247.65219
 30
0
 40
0.915
 39
  0
0
CIRCLE
8
JA
 10
5.08
 20
247.65219
 30
0
 40
0.585
 39
  0
0
CIRCLE
8
JA
 10
7.62
 20
247.65219
 30
0
 40
0.915
 39
  0
0
CIRCLE
8
JA
 10
5.08
 20
245.1122
 30
0
 40
0.585
 39
  0
0
CIRCLE
8
JA
 10
7.62
 20
245.1122
 30
0
 40
0.915
 39
  0
0
CIRCLE
8
JA
 10
2.54
 20
242.5722
 30
0
 40
0.915
 39
  0
0
CIRCLE
8
JA
 10
5.08
 20
242.5722
 30
0
 40
0.585
 39
  0
0
CIRCLE
8
JA
 10
2.54
 20
240.03221
 30
0
 40
0.915
 39
  0
0
CIRCLE
8
JA
 10
5.08
 20
240.03221
 30
0
 40
0.585
 39
  0
0
CIRCLE
8
JA
 10
7.62
 20
240.03221
 30
0
 40
0.915
 39
  0
0
CIRCLE
8
JA
 10
2.54
 20
237.49222
 30
0
 40
0.915
 39
  0
0
CIRCLE
8
JA
 10
5.08
 20
237.49222
 30
0
 40
0.585
 39
  0
0
CIRCLE
8
JA
 10
7.62
 20
237.49222
 30
0
 40
0.915
 39
  0
0
CIRCLE
8
JA
 10
5.08
 20
234.95222
 30
0
 40
0.585
 39
  0
0
CIRCLE
8
JA
 10
5.08
 20
232.41223
 30
0
 40
0.585
 39
  0
0
CIRCLE
8
JA
 10
7.62
 20
232.41223
 30
0
 40
0.915
 39
  0
0
CIRCLE
8
JA
 10
2.54
 20
229.87224
 30
0
 40
0.915
 39
  0
0
CIRCLE
8
JA
 10
5.08
 20
229.87224
 30
0
 40
0.585
 39
  0
0
CIRCLE
8
JA
 10
5.08
 20
227.33224
 30
0
 40
0.585
 39
  0
0
CIRCLE
8
JA
 10
7.62
 20
227.33224
 30
0
 40
0.915
 39
  0
0
CIRCLE
8
JA
 10
2.54
 20
224.79225
 30
0
 40
0.915
 39
  0
0
CIRCLE
8
JA
 10
5.08
 20
224.79225
 30
0
 40
0.585
 39
  0
0
CIRCLE
8
JA
 10
5.08
 20
222.25226
 30
0
 40
0.585
 39
  0
0
CIRCLE
8
JA
 10
5.08
 20
219.71227
 30
0
 40
0.585
 39
  0
0
CIRCLE
8
JA
 10
7.62
 20
219.71227
 30
0
 40
0.915
 39
  0
0
CIRCLE
8
JA
 10
2.54
 20
217.17227
 30
0
 40
0.915
 39
  0
0
CIRCLE
8
JA
 10
5.08
 20
217.17227
 30
0
 40
0.585
 39
  0
0
CIRCLE
8
JA
 10
2.54
 20
214.63228
 30
0
 40
0.915
 39
  0
0
CIRCLE
8
JA
 10
5.08
 20
214.63228
 30
0
 40
0.585
 39
  0
0
CIRCLE
8
JA
 10
7.62
 20
214.63228
 30
0
 40
0.915
 39
  0
0
CIRCLE
8
JA
 10
5.08
 20
212.09229
 30
0
 40
0.585
 39
  0
0
CIRCLE
8
JA
 10
5.08
 20
209.55229
 30
0
 40
0.585
 39
  0
0
CIRCLE
8
JA
 10
7.62
 20
209.55229
 30
0
 40
0.915
 39
  0
0
CIRCLE
8
JA
 10
2.54
 20
207.0123
 30
0
 40
0.915
 39
  0
0
CIRCLE
8
JA
 10
5.08
 20
207.0123
 30
0
 40
0.585
 39
  0
0
CIRCLE
8
JA
 10
5.08
 20
204.4723
 30
0
 40
0.585
 39
  0
0
CIRCLE
8
JA
 10
7.62
 20
204.4723
 30
0
 40
0.915
 39
  0
0
CIRCLE
8
JA
 10
2.54
 20
201.93231
 30
0
 40
0.915
 39
  0
0
CIRCLE
8
JA
 10
5.08
 20
201.93231
 30
0
 40
0.585
 39
  0
0
CIRCLE
8
JA
 10
5.08
 20
199.39232
 30
0
 40
0.585
 39
  0
0
CIRCLE
8
JA
 10
7.62
 20
199.39232
 30
0
 40
0.915
 39
  0
0
CIRCLE
8
JA
 10
2.54
 20
196.85233
 30
0
 40
0.915
 39
  0
0
CIRCLE
8
JA
 10
5.08
 20
196.85233
 30
0
 40
0.585
 39
  0
0
CIRCLE
8
JA
 10
5.08
 20
194.31233
 30
0
 40
0.585
 39
  0
0
CIRCLE
8
JA
 10
2.54
 20
191.77234
 30
0
 40
0.915
 39
  0
0
CIRCLE
8
JA
 10
5.08
 20
191.77234
 30
0
 40
0.585
 39
  0
0
CIRCLE
8
JA
 10
7.62
 20
191.77234
 30
0
 40
0.915
 39
  0
0
CIRCLE
8
JA
 10
5.08
 20
189.23235
 30
0
 40
0.585
 39
  0
0
CIRCLE
8
JA
 10
7.62
 20
189.23235
 30
0
 40
0.915
 39
  0
0
CIRCLE
8
JA
 10
2.54
 20
186.69235
 30
0
 40
0.915
 39
  0
0
CIRCLE
8
JA
 10
5.08
 20
186.69235
 30
0
 40
0.585
 39
  0
0
CIRCLE
8
JA
 10
5.08
 20
184.15236
 30
0
 40
0.585
 39
  0
0
CIRCLE
8
JA
 10
7.62
 20
184.15236
 30
0
 40
0.915
 39
  0
0
CIRCLE
8
JA
 10
2.54
 20
181.61237
 30
0
 40
0.915
 39
  0
0
CIRCLE
8
JA
 10
5.08
 20
181.61237
 30
0
 40
0.585
 39
  0
0
CIRCLE
8
JA
 10
2.54
 20
179.07237
 30
0
 40
0.915
 39
  0
0
CIRCLE
8
JA
 10
5.08
 20
179.07237
 30
0
 40
0.585
 39
  0
0
CIRCLE
8
JA
 10
7.62
 20
179.07237
 30
0
 40
0.915
 39
  0
0
CIRCLE
8
JA
 10
5.08
 20
176.53238
 30
0
 40
0.585
 39
  0
0
CIRCLE
8
JA
 10
5.08
 20
173.99239
 30
0
 40
0.585
 39
  0
0
CIRCLE
8
JA
 10
7.62
 20
173.99239
 30
0
 40
0.915
 39
  0
0
CIRCLE
8
JA
 10
2.54
 20
171.4524
 30
0
 40
0.915
 39
  0
0
CIRCLE
8
JA
 10
5.08
 20
171.4524
 30
0
 40
0.585
 39
  0
0
CIRCLE
8
JA
 10
5.08
 20
168.9124
 30
0
 40
0.585
 39
  0
0
CIRCLE
8
JA
 10
7.62
 20
168.9124
 30
0
 40
0.915
 39
  0
0
CIRCLE
8
JA
 10
2.54
 20
166.3724
 30
0
 40
0.915
 39
  0
0
CIRCLE
8
JA
 10
5.08
 20
166.3724
 30
0
 40
0.585
 39
  0
0
CIRCLE
8
JA
 10
2.54
 20
163.83241
 30
0
 40
0.915
 39
  0
0
CIRCLE
8
JA
 10
5.08
 20
163.83241
 30
0
 40
0.585
 39
  0
0
CIRCLE
8
JA
 10
7.62
 20
163.83241
 30
0
 40
0.915
 39
  0
0
CIRCLE
8
JA
 10
5.08
 20
161.29242
 30
0
 40
0.585
 39
  0
0
CIRCLE
8
JA
 10
7.62
 20
161.29242
 30
0
 40
0.915
 39
  0
0
CIRCLE
8
JA
 10
2.54
 20
158.75243
 30
0
 40
0.915
 39
  0
0
CIRCLE
8
JA
 10
5.08
 20
158.75243
 30
0
 40
0.585
 39
  0
0
CIRCLE
8
JA
 10
5.08
 20
156.21243
 30
0
 40
0.585
 39
  0
0
CIRCLE
8
JA
 10
2.54
 20
153.67244
 30
0
 40
0.915
 39
  0
0
CIRCLE
8
JA
 10
5.08
 20
153.67244
 30
0
 40
0.585
 39
  0
0
CIRCLE
8
JA
 10
7.62
 20
153.67244
 30
0
 40
0.915
 39
  0
0
CIRCLE
8
JA
 10
5.08
 20
151.13245
 30
0
 40
0.585
 39
  0
0
CIRCLE
8
JA
 10
7.62
 20
151.13245
 30
0
 40
0.915
 39
  0
0
CIRCLE
8
JA
 10
2.54
 20
148.59245
 30
0
 40
0.915
 39
  0
0
CIRCLE
8
JA
 10
5.08
 20
148.59245
 30
0
 40
0.585
 39
  0
0
CIRCLE
8
JA
 10
2.54
 20
146.05246
 30
0
 40
0.915
 39
  0
0
CIRCLE
8
JA
 10
5.08
 20
146.05246
 30
0
 40
0.585
 39
  0
0
CIRCLE
8
JA
 10
7.62
 20
146.05246
 30
0
 40
0.915
 39
  0
0
CIRCLE
8
JA
 10
5.08
 20
143.51247
 30
0
 40
0.585
 39
  0
0
CIRCLE
8
JA
 10
2.54
 20
140.97247
 30
0
 40
0.915
 39
  0
0
CIRCLE
8
JA
 10
5.08
 20
140.97247
 30
0
 40
0.585
 39
  0
0
CIRCLE
8
JA
 10
7.62
 20
140.97247
 30
0
 40
0.915
 39
  0
0
CIRCLE
8
JA
 10
2.54
 20
138.43248
 30
0
 40
0.915
 39
  0
0
CIRCLE
8
JA
 10
5.08
 20
138.43248
 30
0
 40
0.585
 39
  0
0
CIRCLE
8
JA
 10
7.62
 20
138.43248
 30
0
 40
0.915
 39
  0
0
CIRCLE
8
JA
 10
2.54
 20
135.89249
 30
0
 40
0.915
 39
  0
0
CIRCLE
8
JA
 10
5.08
 20
135.89249
 30
0
 40
0.585
 39
  0
0
CIRCLE
8
JA
 10
7.62
 20
135.89249
 30
0
 40
0.915
 39
  0
0
CIRCLE
8
JA
 10
5.08
 20
133.3525
 30
0
 40
0.585
 39
  0
0
CIRCLE
8
JA
 10
5.08
 20
130.8125
 30
0
 40
0.585
 39
  0
0
CIRCLE
8
JA
 10
7.62
 20
130.8125
 30
0
 40
0.915
 39
  0
0
CIRCLE
8
JA
 10
2.54
 20
128.2725
 30
0
 40
0.915
 39
  0
0
CIRCLE
8
JA
 10
5.08
 20
128.2725
 30
0
 40
0.585
 39
  0
0
CIRCLE
8
JA
 10
5.08
 20
125.732506
 30
0
 40
0.585
 39
  0
0
CIRCLE
8
JA
 10
2.54
 20
123.192505
 30
0
 40
0.915
 39
  0
0
CIRCLE
8
JA
 10
5.08
 20
123.192505
 30
0
 40
0.585
 39
  0
0
CIRCLE
8
JA
 10
7.62
 20
123.192505
 30
0
 40
0.915
 39
  0
0
CIRCLE
8
JA
 10
2.54
 20
120.652504
 30
0
 40
0.915
 39
  0
0
CIRCLE
8
JA
 10
5.08
 20
120.652504
 30
0
 40
0.585
 39
  0
0
CIRCLE
8
JA
 10
7.62
 20
120.652504
 30
0
 40
0.915
 39
  0
0
CIRCLE
8
JA
 10
5.08
 20
118.1125
 30
0
 40
0.585
 39
  0
0
CIRCLE
8
JA
 10
7.62
 20
118.1125
 30
0
 40
0.915
 39
  0
0
CIRCLE
8
JA
 10
2.54
 20
115.5725
 30
0
 40
0.915
 39
  0
0
CIRCLE
8
JA
 10
5.08
 20
115.5725
 30
0
 40
0.585
 39
  0
0
CIRCLE
8
JA
 10
5.08
 20
113.0325
 30
0
 40
0.585
 39
  0
0
CIRCLE
8
JA
 10
2.54
 20
110.4925
 30
0
 40
0.915
 39
  0
0
CIRCLE
8
JA
 10
5.08
 20
110.4925
 30
0
 40
0.585
 39
  0
0
CIRCLE
8
JA
 10
7.62
 20
110.4925
 30
0
 40
0.915
 39
  0
0
CIRCLE
8
JA
 10
2.54
 20
107.9525
 30
0
 40
0.915
 39
  0
0
CIRCLE
8
JA
 10
5.08
 20
107.9525
 30
0
 40
0.585
 39
  0
0
CIRCLE
8
JA
 10
7.62
 20
107.9525
 30
0
 40
0.915
 39
  0
0
CIRCLE
8
JA
 10
2.54
 20
105.4125
 30
0
 40
0.915
 39
  0
0
CIRCLE
8
JA
 10
5.08
 20
105.4125
 30
0
 40
0.585
 39
  0
0
CIRCLE
8
JA
 10
7.62
 20
105.4125
 30
0
 40
0.915
 39
  0
0
CIRCLE
8
JA
 10
5.08
 20
102.8725
 30
0
 40
0.585
 39
  0
0
CIRCLE
8
JA
 10
7.62
 20
102.8725
 30
0
 40
0.915
 39
  0
0
CIRCLE
8
JA
 10
2.54
 20
100.3325
 30
0
 40
0.915
 39
  0
0
CIRCLE
8
JA
 10
5.08
 20
100.3325
 30
0
 40
0.585
 39
  0
0
CIRCLE
8
JA
 10
5.08
 20
97.792496
 30
0
 40
0.585
 39
  0
0
CIRCLE
8
JA
 10
2.54
 20
95.252495
 30
0
 40
0.915
 39
  0
0
CIRCLE
8
JA
 10
5.08
 20
95.252495
 30
0
 40
0.585
 39
  0
0
CIRCLE
8
JA
 10
7.62
 20
95.252495
 30
0
 40
0.915
 39
  0
0
CIRCLE
8
JA
 10
5.08
 20
92.712494
 30
0
 40
0.585
 39
  0
0
CIRCLE
8
JA
 10
7.62
 20
92.712494
 30
0
 40
0.915
 39
  0
0
CIRCLE
8
JA
 10
2.54
 20
90.17249
 30
0
 40
0.915
 39
  0
0
CIRCLE
8
JA
 10
5.08
 20
90.17249
 30
0
 40
0.585
 39
  0
0
CIRCLE
8
JA
 10
5.08
 20
87.63249
 30
0
 40
0.585
 39
  0
0
CIRCLE
8
JA
 10
7.62
 20
87.63249
 30
0
 40
0.915
 39
  0
0
CIRCLE
8
JA
 10
2.54
 20
85.09249
 30
0
 40
0.915
 39
  0
0
CIRCLE
8
JA
 10
5.08
 20
85.09249
 30
0
 40
0.585
 39
  0
0
CIRCLE
8
JA
 10
5.08
 20
82.55249
 30
0
 40
0.585
 39
  0
0
CIRCLE
8
JA
 10
5.08
 20
80.01249
 30
0
 40
0.585
 39
  0
0
CIRCLE
8
JA
 10
7.62
 20
80.01249
 30
0
 40
0.915
 39
  0
0
CIRCLE
8
JA
 10
2.54
 20
77.47249
 30
0
 40
0.915
 39
  0
0
CIRCLE
8
JA
 10
5.08
 20
77.47249
 30
0
 40
0.585
 39
  0
0
CIRCLE
8
JA
 10
2.54
 20
74.93249
 30
0
 40
0.915
 39
  0
0
CIRCLE
8
JA
 10
5.08
 20
74.93249
 30
0
 40
0.585
 39
  0
0
CIRCLE
8
JA
 10
7.62
 20
74.93249
 30
0
 40
0.915
 39
  0
0
CIRCLE
8
JA
 10
2.54
 20
72.39249
 30
0
 40
0.915
 39
  0
0
CIRCLE
8
JA
 10
5.08
 20
72.39249
 30
0
 40
0.585
 39
  0
0
CIRCLE
8
JA
 10
7.62
 20
72.39249
 30
0
 40
0.915
 39
  0
0
CIRCLE
8
JA
 10
5.08
 20
69.852486
 30
0
 40
0.585
 39
  0
0
CIRCLE
8
JA
 10
7.62
 20
69.852486
 30
0
 40
0.915
 39
  0
0
CIRCLE
8
JA
 10
2.54
 20
67.312485
 30
0
 40
0.915
 39
  0
0
CIRCLE
8
JA
 10
5.08
 20
67.312485
 30
0
 40
0.585
 39
  0
0
CIRCLE
8
JA
 10
5.08
 20
64.772484
 30
0
 40
0.585
 39
  0
0
CIRCLE
8
JA
 10
5.08
 20
62.232483
 30
0
 40
0.585
 39
  0
0
CIRCLE
8
JA
 10
7.62
 20
62.232483
 30
0
 40
0.915
 39
  0
0
CIRCLE
8
JA
 10
2.54
 20
59.692482
 30
0
 40
0.915
 39
  0
0
CIRCLE
8
JA
 10
5.08
 20
59.692482
 30
0
 40
0.585
 39
  0
0
CIRCLE
8
JA
 10
2.54
 20
57.15248
 30
0
 40
0.915
 39
  0
0
CIRCLE
8
JA
 10
5.08
 20
57.15248
 30
0
 40
0.585
 39
  0
0
CIRCLE
8
JA
 10
7.62
 20
57.15248
 30
0
 40
0.915
 39
  0
0
CIRCLE
8
JA
 10
5.08
 20
54.61248
 30
0
 40
0.585
 39
  0
0
CIRCLE
8
JA
 10
7.62
 20
54.61248
 30
0
 40
0.915
 39
  0
0
CIRCLE
8
JA
 10
2.54
 20
52.07248
 30
0
 40
0.915
 39
  0
0
CIRCLE
8
JA
 10
5.08
 20
52.07248
 30
0
 40
0.585
 39
  0
0
CIRCLE
8
JA
 10
5.08
 20
49.53248
 30
0
 40
0.585
 39
  0
0
CIRCLE
8
JA
 10
7.62
 20
49.53248
 30
0
 40
0.915
 39
  0
0
CIRCLE
8
JA
 10
2.54
 20
46.992477
 30
0
 40
0.915
 39
  0
0
CIRCLE
8
JA
 10
5.08
 20
46.992477
 30
0
 40
0.585
 39
  0
0
CIRCLE
8
JA
 10
5.08
 20
44.452477
 30
0
 40
0.585
 39
  0
0
CIRCLE
8
JA
 10
5.08
 20
41.912476
 30
0
 40
0.585
 39
  0
0
CIRCLE
8
JA
 10
7.62
 20
41.912476
 30
0
 40
0.915
 39
  0
0
CIRCLE
8
JA
 10
2.54
 20
39.372475
 30
0
 40
0.915
 39
  0
0
CIRCLE
8
JA
 10
5.08
 20
39.372475
 30
0
 40
0.585
 39
  0
0
CIRCLE
8
JA
 10
5.08
 20
36.832474
 30
0
 40
0.585
 39
  0
0
CIRCLE
8
JA
 10
7.62
 20
36.832474
 30
0
 40
0.915
 39
  0
0
CIRCLE
8
JA
 10
2.54
 20
34.292473
 30
0
 40
0.915
 39
  0
0
CIRCLE
8
JA
 10
5.08
 20
34.292473
 30
0
 40
0.585
 39
  0
0
CIRCLE
8
JA
 10
2.54
 20
31.752472
 30
0
 40
0.915
 39
  0
0
CIRCLE
8
JA
 10
5.08
 20
31.752472
 30
0
 40
0.585
 39
  0
0
CIRCLE
8
JA
 10
7.62
 20
31.752472
 30
0
 40
0.915
 39
  0
0
CIRCLE
8
JA
 10
2.54
 20
29.212471
 30
0
 40
0.915
 39
  0
0
CIRCLE
8
JA
 10
5.08
 20
29.212471
 30
0
 40
0.585
 39
  0
0
CIRCLE
8
JA
 10
7.62
 20
29.212471
 30
0
 40
0.915
 39
  0
0
CIRCLE
8
JA
 10
5.08
 20
26.67247
 30
0
 40
0.585
 39
  0
0
CIRCLE
8
JA
 10
2.54
 20
24.13247
 30
0
 40
0.915
 39
  0
0
CIRCLE
8
JA
 10
5.08
 20
24.13247
 30
0
 40
0.585
 39
  0
0
CIRCLE
8
JA
 10
7.62
 20
24.13247
 30
0
 40
0.915
 39
  0
0
CIRCLE
8
JA
 10
2.54
 20
21.592468
 30
0
 40
0.915
 39
  0
0
CIRCLE
8
JA
 10
5.08
 20
21.592468
 30
0
 40
0.585
 39
  0
0
CIRCLE
8
JA
 10
7.62
 20
21.592468
 30
0
 40
0.915
 39
  0
0
CIRCLE
8
JA
 10
5.08
 20
19.052467
 30
0
 40
0.585
 39
  0
0
CIRCLE
8
JA
 10
7.62
 20
19.052467
 30
0
 40
0.915
 39
  0
0
CIRCLE
8
JA
 10
2.54
 20
16.512466
 30
0
 40
0.915
 39
  0
0
CIRCLE
8
JA
 10
5.08
 20
16.512466
 30
0
 40
0.585
 39
  0
0
CIRCLE
8
JA
 10
5.08
 20
13.972466
 30
0
 40
0.585
 39
  0
0
CIRCLE
8
JA
 10
7.62
 20
13.972466
 30
0
 40
0.915
 39
  0
0
CIRCLE
8
JA
 10
2.54
 20
11.4324665
 30
0
 40
0.915
 39
  0
0
CIRCLE
8
JA
 10
5.08
 20
11.4324665
 30
0
 40
0.585
 39
  0
0
CIRCLE
8
JA
 10
2.54
 20
8.892467
 30
0
 40
0.915
 39
  0
0
CIRCLE
8
JA
 10
5.08
 20
8.892467
 30
0
 40
0.585
 39
  0
0
CIRCLE
8
JA
 10
7.62
 20
8.892467
 30
0
 40
0.915
 39
  0
0
CIRCLE
8
JA
 10
5.08
 20
6.3524666
 30
0
 40
0.585
 39
  0
0
CIRCLE
8
JA
 10
7.62
 20
6.3524666
 30
0
 40
0.915
 39
  0
0
CIRCLE
8
JA
 10
2.54
 20
3.8124666
 30
0
 40
0.915
 39
  0
0
CIRCLE
8
JA
 10
5.08
 20
3.8124666
 30
0
 40
0.585
 39
  0
0
CIRCLE
8
JA
 10
5.08
 20
1.2724667
 30
0
 40
0.585
 39
  0
0
ENDSEC
  0
EOF
