  0
SECTION
  2
HEADER
  9
$ACADVER
  1
AC1009
  9
$INSBASE
 10
0.0
 20
0.0
 30
0.0
  9
$EXTMIN
 10
  0
 20
  0
 30
  0
  9
$EXTMAX
 10
368
 20
326
 30
0.0
  9
$LIMMIN
 10
0.0
 20
0.0
  9
$LIMMAX
 10
100.0
 20
100.0
  9
$ORTHOMODE
 70
     1
  9
$DIMSCALE
 40
1
  9
$DIMSTYLE
  2
STANDARD
  9
$FILLETRAD
 40
0.0
  9
$PSLTSCALE
 70
     1
  0
ENDSEC
  0
SECTION
  2
TABLES
  0
TABLE
  2
VPORT
 70
     2
  0
VPORT
  2
*ACTIVE
 70
     0
 10
0.0
 20
0.0
 11
1.0
 21
1.0
 12
50.0
 22
50.0
 13
0.0
 23
0.0
 14
1.0
 24
1.0
 15
0.0
 25
0.0
 16
0.0
 26
0.0
 36
1.0
 17
0.0
 27
0.0
 37
0.0
 40
100.0
 41
1.55
 42
50.0
 43
0.0
 44
0.0
 50
0.0
 51
0.0
 71
     0
 72
   100
 73
     1
 74
     1
 75
     0
 76
     0
 77
     0
 78
     0
  0
ENDTAB
  0
TABLE
  2
LTYPE
 70
     1
  0
LTYPE
  2
CONTINUOUS
  70
     0
  3
Solid Line
 72
    65
 73
     0
 40
0.0
  0
ENDTAB
  0
TABLE
  2
LAYER
 70
     3
  0
LAYER
  2
0
 70
     0
 62
     7
  6
CONTINUOUS
  0
LAYER
  2
JA
 70
     0
 62
     7
  6
CONTINUOUS
  0
LAYER
  2
DEFPOINTS
 70
     0
 62
     7
 6
CONTINUOUS
  0
ENDTAB
  0
TABLE
  2
VIEW
 70
     0
  0
ENDTAB
  0
TABLE
  2
DIMSTYLE
 70
     1
  0
DIMSTYLE
  2
STANDARD
 70
     0
  3

  4

  5

  6

  7

 40
1.0
 41
0.125
 42
0.04
 43
0.25
 44
0.125
 45
0.0
 46
0.0
 47
0.0
 48
0.0
140
0.125
141
0.06
142
0.0
143
25.4
144
1.0
145
0.0
146
1.0
147
0.09
 71
     0
 72
     0
 73
     1
 74
     1
 75
     0
 76
     0
 77
     0
 78
     0
170
     0
171
     2
172
     0
173
     0
174
     0
175
     0
176
     0
177
     0
178
     0
  0
ENDTAB
  0
ENDSEC
  0
SECTION
  2
BLOCKS
  0
ENDSEC
  0
SECTION
  2
ENTITIES
  0
LINE
8
JA
 10
0
 20
0
 30
0
 11
0
 21
228.59999
 31
0
0
LINE
8
JA
 10
22.225
 20
0
 30
0
 11
22.225
 21
228.59999
 31
0
0
LINE
8
JA
 10
0
 20
228.59999
 30
0
 11
22.225
 21
228.59999
 31
0
0
LINE
8
JA
 10
0
 20
0
 30
0
 11
22.225
 21
0
 31
0
0
LINE
8
JA
 10
0
 20
228.59999
 30
7
 11
22.225
 21
228.59999
 31
0
0
CIRCLE
8
JA
 10
2.54
 20
227.32999
 30
0
 40
0.915
 39
  0
0
CIRCLE
8
JA
 10
5.08
 20
227.32999
 30
0
 40
0.915
 39
  0
0
CIRCLE
8
JA
 10
7.62
 20
227.32999
 30
0
 40
0.915
 39
  0
0
CIRCLE
8
JA
 10
10.16
 20
227.32999
 30
0
 40
0.585
 39
  0
0
CIRCLE
8
JA
 10
12.7
 20
227.32999
 30
0
 40
0.915
 39
  0
0
CIRCLE
8
JA
 10
15.24
 20
227.32999
 30
0
 40
0.915
 39
  0
0
CIRCLE
8
JA
 10
20.32
 20
227.32999
 30
0
 40
0.915
 39
  0
0
CIRCLE
8
JA
 10
2.54
 20
224.79
 30
0
 40
0.915
 39
  0
0
CIRCLE
8
JA
 10
5.08
 20
224.79
 30
0
 40
0.915
 39
  0
0
CIRCLE
8
JA
 10
7.62
 20
224.79
 30
0
 40
0.915
 39
  0
0
CIRCLE
8
JA
 10
10.16
 20
224.79
 30
0
 40
0.585
 39
  0
0
CIRCLE
8
JA
 10
12.7
 20
224.79
 30
0
 40
0.915
 39
  0
0
CIRCLE
8
JA
 10
20.32
 20
224.79
 30
0
 40
0.915
 39
  0
0
CIRCLE
8
JA
 10
2.54
 20
222.25
 30
0
 40
0.915
 39
  0
0
CIRCLE
8
JA
 10
7.62
 20
222.25
 30
0
 40
0.915
 39
  0
0
CIRCLE
8
JA
 10
10.16
 20
222.25
 30
0
 40
0.585
 39
  0
0
CIRCLE
8
JA
 10
20.32
 20
222.25
 30
0
 40
0.915
 39
  0
0
CIRCLE
8
JA
 10
5.08
 20
219.71
 30
0
 40
0.915
 39
  0
0
CIRCLE
8
JA
 10
10.16
 20
219.71
 30
0
 40
0.585
 39
  0
0
CIRCLE
8
JA
 10
20.32
 20
219.71
 30
0
 40
0.915
 39
  0
0
CIRCLE
8
JA
 10
10.16
 20
217.17001
 30
0
 40
0.585
 39
  0
0
CIRCLE
8
JA
 10
20.32
 20
217.17001
 30
0
 40
0.915
 39
  0
0
CIRCLE
8
JA
 10
2.54
 20
214.63002
 30
0
 40
0.915
 39
  0
0
CIRCLE
8
JA
 10
10.16
 20
214.63002
 30
0
 40
0.585
 39
  0
0
CIRCLE
8
JA
 10
20.32
 20
214.63002
 30
0
 40
0.915
 39
  0
0
CIRCLE
8
JA
 10
2.54
 20
212.09003
 30
0
 40
0.915
 39
  0
0
CIRCLE
8
JA
 10
10.16
 20
212.09003
 30
0
 40
0.585
 39
  0
0
CIRCLE
8
JA
 10
20.32
 20
212.09003
 30
0
 40
0.915
 39
  0
0
CIRCLE
8
JA
 10
10.16
 20
209.55003
 30
0
 40
0.585
 39
  0
0
CIRCLE
8
JA
 10
12.7
 20
209.55003
 30
0
 40
0.915
 39
  0
0
CIRCLE
8
JA
 10
20.32
 20
209.55003
 30
0
 40
0.915
 39
  0
0
CIRCLE
8
JA
 10
2.54
 20
207.01004
 30
0
 40
0.915
 39
  0
0
CIRCLE
8
JA
 10
10.16
 20
207.01004
 30
0
 40
0.585
 39
  0
0
CIRCLE
8
JA
 10
12.7
 20
207.01004
 30
0
 40
0.915
 39
  0
0
CIRCLE
8
JA
 10
20.32
 20
207.01004
 30
0
 40
0.915
 39
  0
0
CIRCLE
8
JA
 10
5.08
 20
204.47005
 30
0
 40
0.915
 39
  0
0
CIRCLE
8
JA
 10
10.16
 20
204.47005
 30
0
 40
0.585
 39
  0
0
CIRCLE
8
JA
 10
20.32
 20
204.47005
 30
0
 40
0.915
 39
  0
0
CIRCLE
8
JA
 10
10.16
 20
201.93005
 30
0
 40
0.585
 39
  0
0
CIRCLE
8
JA
 10
12.7
 20
201.93005
 30
0
 40
0.915
 39
  0
0
CIRCLE
8
JA
 10
20.32
 20
201.93005
 30
0
 40
0.915
 39
  0
0
CIRCLE
8
JA
 10
2.54
 20
199.39006
 30
0
 40
0.915
 39
  0
0
CIRCLE
8
JA
 10
10.16
 20
199.39006
 30
0
 40
0.585
 39
  0
0
CIRCLE
8
JA
 10
12.7
 20
199.39006
 30
0
 40
0.915
 39
  0
0
CIRCLE
8
JA
 10
15.24
 20
199.39006
 30
0
 40
0.915
 39
  0
0
CIRCLE
8
JA
 10
20.32
 20
199.39006
 30
0
 40
0.915
 39
  0
0
CIRCLE
8
JA
 10
2.54
 20
196.85007
 30
0
 40
0.915
 39
  0
0
CIRCLE
8
JA
 10
10.16
 20
196.85007
 30
0
 40
0.585
 39
  0
0
CIRCLE
8
JA
 10
12.7
 20
196.85007
 30
0
 40
0.915
 39
  0
0
CIRCLE
8
JA
 10
20.32
 20
196.85007
 30
0
 40
0.915
 39
  0
0
CIRCLE
8
JA
 10
10.16
 20
194.31007
 30
0
 40
0.585
 39
  0
0
CIRCLE
8
JA
 10
12.7
 20
194.31007
 30
0
 40
0.915
 39
  0
0
CIRCLE
8
JA
 10
20.32
 20
194.31007
 30
0
 40
0.915
 39
  0
0
CIRCLE
8
JA
 10
2.54
 20
191.77008
 30
0
 40
0.915
 39
  0
0
CIRCLE
8
JA
 10
10.16
 20
191.77008
 30
0
 40
0.585
 39
  0
0
CIRCLE
8
JA
 10
12.7
 20
191.77008
 30
0
 40
0.915
 39
  0
0
CIRCLE
8
JA
 10
17.779999
 20
191.77008
 30
0
 40
0.915
 39
  0
0
CIRCLE
8
JA
 10
20.32
 20
191.77008
 30
0
 40
0.915
 39
  0
0
CIRCLE
8
JA
 10
2.54
 20
189.23009
 30
0
 40
0.915
 39
  0
0
CIRCLE
8
JA
 10
5.08
 20
189.23009
 30
0
 40
0.915
 39
  0
0
CIRCLE
8
JA
 10
7.62
 20
189.23009
 30
0
 40
0.915
 39
  0
0
CIRCLE
8
JA
 10
10.16
 20
189.23009
 30
0
 40
0.585
 39
  0
0
CIRCLE
8
JA
 10
20.32
 20
189.23009
 30
0
 40
0.915
 39
  0
0
CIRCLE
8
JA
 10
5.08
 20
186.6901
 30
0
 40
0.915
 39
  0
0
CIRCLE
8
JA
 10
10.16
 20
186.6901
 30
0
 40
0.585
 39
  0
0
CIRCLE
8
JA
 10
20.32
 20
186.6901
 30
0
 40
0.915
 39
  0
0
CIRCLE
8
JA
 10
10.16
 20
184.1501
 30
0
 40
0.585
 39
  0
0
CIRCLE
8
JA
 10
15.24
 20
184.1501
 30
0
 40
0.915
 39
  0
0
CIRCLE
8
JA
 10
17.779999
 20
184.1501
 30
0
 40
0.915
 39
  0
0
CIRCLE
8
JA
 10
20.32
 20
184.1501
 30
0
 40
0.915
 39
  0
0
CIRCLE
8
JA
 10
2.54
 20
181.6101
 30
0
 40
0.915
 39
  0
0
CIRCLE
8
JA
 10
5.08
 20
181.6101
 30
0
 40
0.915
 39
  0
0
CIRCLE
8
JA
 10
10.16
 20
181.6101
 30
0
 40
0.585
 39
  0
0
CIRCLE
8
JA
 10
20.32
 20
181.6101
 30
0
 40
0.915
 39
  0
0
CIRCLE
8
JA
 10
10.16
 20
179.07011
 30
0
 40
0.585
 39
  0
0
CIRCLE
8
JA
 10
12.7
 20
179.07011
 30
0
 40
0.915
 39
  0
0
CIRCLE
8
JA
 10
20.32
 20
179.07011
 30
0
 40
0.915
 39
  0
0
CIRCLE
8
JA
 10
2.54
 20
176.53012
 30
0
 40
0.915
 39
  0
0
CIRCLE
8
JA
 10
10.16
 20
176.53012
 30
0
 40
0.585
 39
  0
0
CIRCLE
8
JA
 10
12.7
 20
176.53012
 30
0
 40
0.915
 39
  0
0
CIRCLE
8
JA
 10
15.24
 20
176.53012
 30
0
 40
0.915
 39
  0
0
CIRCLE
8
JA
 10
17.779999
 20
176.53012
 30
0
 40
0.915
 39
  0
0
CIRCLE
8
JA
 10
20.32
 20
176.53012
 30
0
 40
0.915
 39
  0
0
CIRCLE
8
JA
 10
5.08
 20
173.99013
 30
0
 40
0.915
 39
  0
0
CIRCLE
8
JA
 10
10.16
 20
173.99013
 30
0
 40
0.585
 39
  0
0
CIRCLE
8
JA
 10
20.32
 20
173.99013
 30
0
 40
0.915
 39
  0
0
CIRCLE
8
JA
 10
10.16
 20
171.45013
 30
0
 40
0.585
 39
  0
0
CIRCLE
8
JA
 10
12.7
 20
171.45013
 30
0
 40
0.915
 39
  0
0
CIRCLE
8
JA
 10
20.32
 20
171.45013
 30
0
 40
0.915
 39
  0
0
CIRCLE
8
JA
 10
2.54
 20
168.91014
 30
0
 40
0.915
 39
  0
0
CIRCLE
8
JA
 10
10.16
 20
168.91014
 30
0
 40
0.585
 39
  0
0
CIRCLE
8
JA
 10
12.7
 20
168.91014
 30
0
 40
0.915
 39
  0
0
CIRCLE
8
JA
 10
20.32
 20
168.91014
 30
0
 40
0.915
 39
  0
0
CIRCLE
8
JA
 10
5.08
 20
166.37015
 30
0
 40
0.915
 39
  0
0
CIRCLE
8
JA
 10
7.62
 20
166.37015
 30
0
 40
0.915
 39
  0
0
CIRCLE
8
JA
 10
10.16
 20
166.37015
 30
0
 40
0.585
 39
  0
0
CIRCLE
8
JA
 10
12.7
 20
166.37015
 30
0
 40
0.915
 39
  0
0
CIRCLE
8
JA
 10
20.32
 20
166.37015
 30
0
 40
0.915
 39
  0
0
CIRCLE
8
JA
 10
10.16
 20
163.83015
 30
0
 40
0.585
 39
  0
0
CIRCLE
8
JA
 10
20.32
 20
163.83015
 30
0
 40
0.915
 39
  0
0
CIRCLE
8
JA
 10
2.54
 20
161.29016
 30
0
 40
0.915
 39
  0
0
CIRCLE
8
JA
 10
7.62
 20
161.29016
 30
0
 40
0.915
 39
  0
0
CIRCLE
8
JA
 10
10.16
 20
161.29016
 30
0
 40
0.585
 39
  0
0
CIRCLE
8
JA
 10
12.7
 20
161.29016
 30
0
 40
0.915
 39
  0
0
CIRCLE
8
JA
 10
17.779999
 20
161.29016
 30
0
 40
0.915
 39
  0
0
CIRCLE
8
JA
 10
20.32
 20
161.29016
 30
0
 40
0.915
 39
  0
0
CIRCLE
8
JA
 10
2.54
 20
158.75017
 30
0
 40
0.915
 39
  0
0
CIRCLE
8
JA
 10
10.16
 20
158.75017
 30
0
 40
0.585
 39
  0
0
CIRCLE
8
JA
 10
12.7
 20
158.75017
 30
0
 40
0.915
 39
  0
0
CIRCLE
8
JA
 10
15.24
 20
158.75017
 30
0
 40
0.915
 39
  0
0
CIRCLE
8
JA
 10
20.32
 20
158.75017
 30
0
 40
0.915
 39
  0
0
CIRCLE
8
JA
 10
10.16
 20
156.21017
 30
0
 40
0.585
 39
  0
0
CIRCLE
8
JA
 10
12.7
 20
156.21017
 30
0
 40
0.915
 39
  0
0
CIRCLE
8
JA
 10
20.32
 20
156.21017
 30
0
 40
0.915
 39
  0
0
CIRCLE
8
JA
 10
2.54
 20
153.67018
 30
0
 40
0.915
 39
  0
0
CIRCLE
8
JA
 10
7.62
 20
153.67018
 30
0
 40
0.915
 39
  0
0
CIRCLE
8
JA
 10
10.16
 20
153.67018
 30
0
 40
0.585
 39
  0
0
CIRCLE
8
JA
 10
20.32
 20
153.67018
 30
0
 40
0.915
 39
  0
0
CIRCLE
8
JA
 10
5.08
 20
151.13019
 30
0
 40
0.915
 39
  0
0
CIRCLE
8
JA
 10
10.16
 20
151.13019
 30
0
 40
0.585
 39
  0
0
CIRCLE
8
JA
 10
20.32
 20
151.13019
 30
0
 40
0.915
 39
  0
0
CIRCLE
8
JA
 10
10.16
 20
148.5902
 30
0
 40
0.585
 39
  0
0
CIRCLE
8
JA
 10
12.7
 20
148.5902
 30
0
 40
0.915
 39
  0
0
CIRCLE
8
JA
 10
20.32
 20
148.5902
 30
0
 40
0.915
 39
  0
0
CIRCLE
8
JA
 10
2.54
 20
146.0502
 30
0
 40
0.915
 39
  0
0
CIRCLE
8
JA
 10
7.62
 20
146.0502
 30
0
 40
0.915
 39
  0
0
CIRCLE
8
JA
 10
10.16
 20
146.0502
 30
0
 40
0.585
 39
  0
0
CIRCLE
8
JA
 10
20.32
 20
146.0502
 30
0
 40
0.915
 39
  0
0
CIRCLE
8
JA
 10
2.54
 20
143.51021
 30
0
 40
0.915
 39
  0
0
CIRCLE
8
JA
 10
5.08
 20
143.51021
 30
0
 40
0.915
 39
  0
0
CIRCLE
8
JA
 10
10.16
 20
143.51021
 30
0
 40
0.585
 39
  0
0
CIRCLE
8
JA
 10
15.24
 20
143.51021
 30
0
 40
0.915
 39
  0
0
CIRCLE
8
JA
 10
20.32
 20
143.51021
 30
0
 40
0.915
 39
  0
0
CIRCLE
8
JA
 10
10.16
 20
140.97021
 30
0
 40
0.585
 39
  0
0
CIRCLE
8
JA
 10
12.7
 20
140.97021
 30
0
 40
0.915
 39
  0
0
CIRCLE
8
JA
 10
20.32
 20
140.97021
 30
0
 40
0.915
 39
  0
0
CIRCLE
8
JA
 10
2.54
 20
138.43022
 30
0
 40
0.915
 39
  0
0
CIRCLE
8
JA
 10
10.16
 20
138.43022
 30
0
 40
0.585
 39
  0
0
CIRCLE
8
JA
 10
12.7
 20
138.43022
 30
0
 40
0.915
 39
  0
0
CIRCLE
8
JA
 10
20.32
 20
138.43022
 30
0
 40
0.915
 39
  0
0
CIRCLE
8
JA
 10
2.54
 20
135.89023
 30
0
 40
0.915
 39
  0
0
CIRCLE
8
JA
 10
5.08
 20
135.89023
 30
0
 40
0.915
 39
  0
0
CIRCLE
8
JA
 10
10.16
 20
135.89023
 30
0
 40
0.585
 39
  0
0
CIRCLE
8
JA
 10
15.24
 20
135.89023
 30
0
 40
0.915
 39
  0
0
CIRCLE
8
JA
 10
20.32
 20
135.89023
 30
0
 40
0.915
 39
  0
0
CIRCLE
8
JA
 10
10.16
 20
133.35023
 30
0
 40
0.585
 39
  0
0
CIRCLE
8
JA
 10
12.7
 20
133.35023
 30
0
 40
0.915
 39
  0
0
CIRCLE
8
JA
 10
20.32
 20
133.35023
 30
0
 40
0.915
 39
  0
0
CIRCLE
8
JA
 10
2.54
 20
130.81024
 30
0
 40
0.915
 39
  0
0
CIRCLE
8
JA
 10
10.16
 20
130.81024
 30
0
 40
0.585
 39
  0
0
CIRCLE
8
JA
 10
12.7
 20
130.81024
 30
0
 40
0.915
 39
  0
0
CIRCLE
8
JA
 10
20.32
 20
130.81024
 30
0
 40
0.915
 39
  0
0
CIRCLE
8
JA
 10
2.54
 20
128.27025
 30
0
 40
0.915
 39
  0
0
CIRCLE
8
JA
 10
5.08
 20
128.27025
 30
0
 40
0.915
 39
  0
0
CIRCLE
8
JA
 10
10.16
 20
128.27025
 30
0
 40
0.585
 39
  0
0
CIRCLE
8
JA
 10
12.7
 20
128.27025
 30
0
 40
0.915
 39
  0
0
CIRCLE
8
JA
 10
15.24
 20
128.27025
 30
0
 40
0.915
 39
  0
0
CIRCLE
8
JA
 10
20.32
 20
128.27025
 30
0
 40
0.915
 39
  0
0
CIRCLE
8
JA
 10
10.16
 20
125.73025
 30
0
 40
0.585
 39
  0
0
CIRCLE
8
JA
 10
20.32
 20
125.73025
 30
0
 40
0.915
 39
  0
0
CIRCLE
8
JA
 10
10.16
 20
123.19025
 30
0
 40
0.585
 39
  0
0
CIRCLE
8
JA
 10
12.7
 20
123.19025
 30
0
 40
0.915
 39
  0
0
CIRCLE
8
JA
 10
15.24
 20
123.19025
 30
0
 40
0.915
 39
  0
0
CIRCLE
8
JA
 10
20.32
 20
123.19025
 30
0
 40
0.915
 39
  0
0
CIRCLE
8
JA
 10
5.08
 20
120.650246
 30
0
 40
0.915
 39
  0
0
CIRCLE
8
JA
 10
7.62
 20
120.650246
 30
0
 40
0.915
 39
  0
0
CIRCLE
8
JA
 10
10.16
 20
120.650246
 30
0
 40
0.585
 39
  0
0
CIRCLE
8
JA
 10
12.7
 20
120.650246
 30
0
 40
0.915
 39
  0
0
CIRCLE
8
JA
 10
15.24
 20
120.650246
 30
0
 40
0.915
 39
  0
0
CIRCLE
8
JA
 10
20.32
 20
120.650246
 30
0
 40
0.915
 39
  0
0
CIRCLE
8
JA
 10
10.16
 20
118.110245
 30
0
 40
0.585
 39
  0
0
CIRCLE
8
JA
 10
15.24
 20
118.110245
 30
0
 40
0.915
 39
  0
0
CIRCLE
8
JA
 10
20.32
 20
118.110245
 30
0
 40
0.915
 39
  0
0
CIRCLE
8
JA
 10
5.08
 20
115.570244
 30
0
 40
0.915
 39
  0
0
CIRCLE
8
JA
 10
10.16
 20
115.570244
 30
0
 40
0.585
 39
  0
0
CIRCLE
8
JA
 10
20.32
 20
115.570244
 30
0
 40
0.915
 39
  0
0
CIRCLE
8
JA
 10
2.54
 20
113.03024
 30
0
 40
0.915
 39
  0
0
CIRCLE
8
JA
 10
10.16
 20
113.03024
 30
0
 40
0.585
 39
  0
0
CIRCLE
8
JA
 10
20.32
 20
113.03024
 30
0
 40
0.915
 39
  0
0
CIRCLE
8
JA
 10
10.16
 20
110.49024
 30
0
 40
0.585
 39
  0
0
CIRCLE
8
JA
 10
12.7
 20
110.49024
 30
0
 40
0.915
 39
  0
0
CIRCLE
8
JA
 10
20.32
 20
110.49024
 30
0
 40
0.915
 39
  0
0
CIRCLE
8
JA
 10
2.54
 20
107.95024
 30
0
 40
0.915
 39
  0
0
CIRCLE
8
JA
 10
7.62
 20
107.95024
 30
0
 40
0.915
 39
  0
0
CIRCLE
8
JA
 10
10.16
 20
107.95024
 30
0
 40
0.585
 39
  0
0
CIRCLE
8
JA
 10
15.24
 20
107.95024
 30
0
 40
0.915
 39
  0
0
CIRCLE
8
JA
 10
20.32
 20
107.95024
 30
0
 40
0.915
 39
  0
0
CIRCLE
8
JA
 10
5.08
 20
105.41024
 30
0
 40
0.915
 39
  0
0
CIRCLE
8
JA
 10
10.16
 20
105.41024
 30
0
 40
0.585
 39
  0
0
CIRCLE
8
JA
 10
15.24
 20
105.41024
 30
0
 40
0.915
 39
  0
0
CIRCLE
8
JA
 10
20.32
 20
105.41024
 30
0
 40
0.915
 39
  0
0
CIRCLE
8
JA
 10
10.16
 20
102.87024
 30
0
 40
0.585
 39
  0
0
CIRCLE
8
JA
 10
15.24
 20
102.87024
 30
0
 40
0.915
 39
  0
0
CIRCLE
8
JA
 10
20.32
 20
102.87024
 30
0
 40
0.915
 39
  0
0
CIRCLE
8
JA
 10
5.08
 20
100.33024
 30
0
 40
0.915
 39
  0
0
CIRCLE
8
JA
 10
10.16
 20
100.33024
 30
0
 40
0.585
 39
  0
0
CIRCLE
8
JA
 10
17.779999
 20
100.33024
 30
0
 40
0.915
 39
  0
0
CIRCLE
8
JA
 10
20.32
 20
100.33024
 30
0
 40
0.915
 39
  0
0
CIRCLE
8
JA
 10
2.54
 20
97.79024
 30
0
 40
0.915
 39
  0
0
CIRCLE
8
JA
 10
10.16
 20
97.79024
 30
0
 40
0.585
 39
  0
0
CIRCLE
8
JA
 10
20.32
 20
97.79024
 30
0
 40
0.915
 39
  0
0
CIRCLE
8
JA
 10
10.16
 20
95.25024
 30
0
 40
0.585
 39
  0
0
CIRCLE
8
JA
 10
12.7
 20
95.25024
 30
0
 40
0.915
 39
  0
0
CIRCLE
8
JA
 10
20.32
 20
95.25024
 30
0
 40
0.915
 39
  0
0
CIRCLE
8
JA
 10
2.54
 20
92.710236
 30
0
 40
0.915
 39
  0
0
CIRCLE
8
JA
 10
10.16
 20
92.710236
 30
0
 40
0.585
 39
  0
0
CIRCLE
8
JA
 10
15.24
 20
92.710236
 30
0
 40
0.915
 39
  0
0
CIRCLE
8
JA
 10
20.32
 20
92.710236
 30
0
 40
0.915
 39
  0
0
CIRCLE
8
JA
 10
2.54
 20
90.170235
 30
0
 40
0.915
 39
  0
0
CIRCLE
8
JA
 10
5.08
 20
90.170235
 30
0
 40
0.915
 39
  0
0
CIRCLE
8
JA
 10
10.16
 20
90.170235
 30
0
 40
0.585
 39
  0
0
CIRCLE
8
JA
 10
15.24
 20
90.170235
 30
0
 40
0.915
 39
  0
0
CIRCLE
8
JA
 10
20.32
 20
90.170235
 30
0
 40
0.915
 39
  0
0
CIRCLE
8
JA
 10
10.16
 20
87.63023
 30
0
 40
0.585
 39
  0
0
CIRCLE
8
JA
 10
12.7
 20
87.63023
 30
0
 40
0.915
 39
  0
0
CIRCLE
8
JA
 10
20.32
 20
87.63023
 30
0
 40
0.915
 39
  0
0
CIRCLE
8
JA
 10
2.54
 20
85.09023
 30
0
 40
0.915
 39
  0
0
CIRCLE
8
JA
 10
10.16
 20
85.09023
 30
0
 40
0.585
 39
  0
0
CIRCLE
8
JA
 10
12.7
 20
85.09023
 30
0
 40
0.915
 39
  0
0
CIRCLE
8
JA
 10
20.32
 20
85.09023
 30
0
 40
0.915
 39
  0
0
CIRCLE
8
JA
 10
2.54
 20
82.55023
 30
0
 40
0.915
 39
  0
0
CIRCLE
8
JA
 10
5.08
 20
82.55023
 30
0
 40
0.915
 39
  0
0
CIRCLE
8
JA
 10
10.16
 20
82.55023
 30
0
 40
0.585
 39
  0
0
CIRCLE
8
JA
 10
12.7
 20
82.55023
 30
0
 40
0.915
 39
  0
0
CIRCLE
8
JA
 10
15.24
 20
82.55023
 30
0
 40
0.915
 39
  0
0
CIRCLE
8
JA
 10
20.32
 20
82.55023
 30
0
 40
0.915
 39
  0
0
CIRCLE
8
JA
 10
5.08
 20
80.01023
 30
0
 40
0.915
 39
  0
0
CIRCLE
8
JA
 10
10.16
 20
80.01023
 30
0
 40
0.585
 39
  0
0
CIRCLE
8
JA
 10
20.32
 20
80.01023
 30
0
 40
0.915
 39
  0
0
CIRCLE
8
JA
 10
10.16
 20
77.47023
 30
0
 40
0.585
 39
  0
0
CIRCLE
8
JA
 10
17.779999
 20
77.47023
 30
0
 40
0.915
 39
  0
0
CIRCLE
8
JA
 10
20.32
 20
77.47023
 30
0
 40
0.915
 39
  0
0
CIRCLE
8
JA
 10
2.54
 20
74.93023
 30
0
 40
0.915
 39
  0
0
CIRCLE
8
JA
 10
10.16
 20
74.93023
 30
0
 40
0.585
 39
  0
0
CIRCLE
8
JA
 10
20.32
 20
74.93023
 30
0
 40
0.915
 39
  0
0
CIRCLE
8
JA
 10
10.16
 20
72.39023
 30
0
 40
0.585
 39
  0
0
CIRCLE
8
JA
 10
12.7
 20
72.39023
 30
0
 40
0.915
 39
  0
0
CIRCLE
8
JA
 10
20.32
 20
72.39023
 30
0
 40
0.915
 39
  0
0
CIRCLE
8
JA
 10
2.54
 20
69.85023
 30
0
 40
0.915
 39
  0
0
CIRCLE
8
JA
 10
10.16
 20
69.85023
 30
0
 40
0.585
 39
  0
0
CIRCLE
8
JA
 10
12.7
 20
69.85023
 30
0
 40
0.915
 39
  0
0
CIRCLE
8
JA
 10
15.24
 20
69.85023
 30
0
 40
0.915
 39
  0
0
CIRCLE
8
JA
 10
17.779999
 20
69.85023
 30
0
 40
0.915
 39
  0
0
CIRCLE
8
JA
 10
20.32
 20
69.85023
 30
0
 40
0.915
 39
  0
0
CIRCLE
8
JA
 10
2.54
 20
67.31023
 30
0
 40
0.915
 39
  0
0
CIRCLE
8
JA
 10
10.16
 20
67.31023
 30
0
 40
0.585
 39
  0
0
CIRCLE
8
JA
 10
12.7
 20
67.31023
 30
0
 40
0.915
 39
  0
0
CIRCLE
8
JA
 10
15.24
 20
67.31023
 30
0
 40
0.915
 39
  0
0
CIRCLE
8
JA
 10
20.32
 20
67.31023
 30
0
 40
0.915
 39
  0
0
CIRCLE
8
JA
 10
10.16
 20
64.770226
 30
0
 40
0.585
 39
  0
0
CIRCLE
8
JA
 10
12.7
 20
64.770226
 30
0
 40
0.915
 39
  0
0
CIRCLE
8
JA
 10
20.32
 20
64.770226
 30
0
 40
0.915
 39
  0
0
CIRCLE
8
JA
 10
2.54
 20
62.230225
 30
0
 40
0.915
 39
  0
0
CIRCLE
8
JA
 10
10.16
 20
62.230225
 30
0
 40
0.585
 39
  0
0
CIRCLE
8
JA
 10
15.24
 20
62.230225
 30
0
 40
0.915
 39
  0
0
CIRCLE
8
JA
 10
20.32
 20
62.230225
 30
0
 40
0.915
 39
  0
0
CIRCLE
8
JA
 10
5.08
 20
59.690224
 30
0
 40
0.915
 39
  0
0
CIRCLE
8
JA
 10
10.16
 20
59.690224
 30
0
 40
0.585
 39
  0
0
CIRCLE
8
JA
 10
20.32
 20
59.690224
 30
0
 40
0.915
 39
  0
0
CIRCLE
8
JA
 10
10.16
 20
57.150223
 30
0
 40
0.585
 39
  0
0
CIRCLE
8
JA
 10
12.7
 20
57.150223
 30
0
 40
0.915
 39
  0
0
CIRCLE
8
JA
 10
20.32
 20
57.150223
 30
0
 40
0.915
 39
  0
0
CIRCLE
8
JA
 10
2.54
 20
54.61022
 30
0
 40
0.915
 39
  0
0
CIRCLE
8
JA
 10
7.62
 20
54.61022
 30
0
 40
0.915
 39
  0
0
CIRCLE
8
JA
 10
10.16
 20
54.61022
 30
0
 40
0.585
 39
  0
0
CIRCLE
8
JA
 10
12.7
 20
54.61022
 30
0
 40
0.915
 39
  0
0
CIRCLE
8
JA
 10
20.32
 20
54.61022
 30
0
 40
0.915
 39
  0
0
CIRCLE
8
JA
 10
2.54
 20
52.07022
 30
0
 40
0.915
 39
  0
0
CIRCLE
8
JA
 10
5.08
 20
52.07022
 30
0
 40
0.915
 39
  0
0
CIRCLE
8
JA
 10
10.16
 20
52.07022
 30
0
 40
0.585
 39
  0
0
CIRCLE
8
JA
 10
15.24
 20
52.07022
 30
0
 40
0.915
 39
  0
0
CIRCLE
8
JA
 10
20.32
 20
52.07022
 30
0
 40
0.915
 39
  0
0
CIRCLE
8
JA
 10
10.16
 20
49.53022
 30
0
 40
0.585
 39
  0
0
CIRCLE
8
JA
 10
12.7
 20
49.53022
 30
0
 40
0.915
 39
  0
0
CIRCLE
8
JA
 10
20.32
 20
49.53022
 30
0
 40
0.915
 39
  0
0
CIRCLE
8
JA
 10
2.54
 20
46.99022
 30
0
 40
0.915
 39
  0
0
CIRCLE
8
JA
 10
10.16
 20
46.99022
 30
0
 40
0.585
 39
  0
0
CIRCLE
8
JA
 10
12.7
 20
46.99022
 30
0
 40
0.915
 39
  0
0
CIRCLE
8
JA
 10
20.32
 20
46.99022
 30
0
 40
0.915
 39
  0
0
CIRCLE
8
JA
 10
2.54
 20
44.45022
 30
0
 40
0.915
 39
  0
0
CIRCLE
8
JA
 10
5.08
 20
44.45022
 30
0
 40
0.915
 39
  0
0
CIRCLE
8
JA
 10
10.16
 20
44.45022
 30
0
 40
0.585
 39
  0
0
CIRCLE
8
JA
 10
15.24
 20
44.45022
 30
0
 40
0.915
 39
  0
0
CIRCLE
8
JA
 10
20.32
 20
44.45022
 30
0
 40
0.915
 39
  0
0
CIRCLE
8
JA
 10
10.16
 20
41.910217
 30
0
 40
0.585
 39
  0
0
CIRCLE
8
JA
 10
12.7
 20
41.910217
 30
0
 40
0.915
 39
  0
0
CIRCLE
8
JA
 10
20.32
 20
41.910217
 30
0
 40
0.915
 39
  0
0
CIRCLE
8
JA
 10
2.54
 20
39.370216
 30
0
 40
0.915
 39
  0
0
CIRCLE
8
JA
 10
10.16
 20
39.370216
 30
0
 40
0.585
 39
  0
0
CIRCLE
8
JA
 10
12.7
 20
39.370216
 30
0
 40
0.915
 39
  0
0
CIRCLE
8
JA
 10
15.24
 20
39.370216
 30
0
 40
0.915
 39
  0
0
CIRCLE
8
JA
 10
17.779999
 20
39.370216
 30
0
 40
0.915
 39
  0
0
CIRCLE
8
JA
 10
20.32
 20
39.370216
 30
0
 40
0.915
 39
  0
0
CIRCLE
8
JA
 10
2.54
 20
36.830215
 30
0
 40
0.915
 39
  0
0
CIRCLE
8
JA
 10
10.16
 20
36.830215
 30
0
 40
0.585
 39
  0
0
CIRCLE
8
JA
 10
12.7
 20
36.830215
 30
0
 40
0.915
 39
  0
0
CIRCLE
8
JA
 10
20.32
 20
36.830215
 30
0
 40
0.915
 39
  0
0
CIRCLE
8
JA
 10
10.16
 20
34.290215
 30
0
 40
0.585
 39
  0
0
CIRCLE
8
JA
 10
12.7
 20
34.290215
 30
0
 40
0.915
 39
  0
0
CIRCLE
8
JA
 10
20.32
 20
34.290215
 30
0
 40
0.915
 39
  0
0
CIRCLE
8
JA
 10
2.54
 20
31.750214
 30
0
 40
0.915
 39
  0
0
CIRCLE
8
JA
 10
7.62
 20
31.750214
 30
0
 40
0.915
 39
  0
0
CIRCLE
8
JA
 10
10.16
 20
31.750214
 30
0
 40
0.585
 39
  0
0
CIRCLE
8
JA
 10
12.7
 20
31.750214
 30
0
 40
0.915
 39
  0
0
CIRCLE
8
JA
 10
17.779999
 20
31.750214
 30
0
 40
0.915
 39
  0
0
CIRCLE
8
JA
 10
20.32
 20
31.750214
 30
0
 40
0.915
 39
  0
0
CIRCLE
8
JA
 10
5.08
 20
29.210213
 30
0
 40
0.915
 39
  0
0
CIRCLE
8
JA
 10
10.16
 20
29.210213
 30
0
 40
0.585
 39
  0
0
CIRCLE
8
JA
 10
20.32
 20
29.210213
 30
0
 40
0.915
 39
  0
0
CIRCLE
8
JA
 10
10.16
 20
26.670212
 30
0
 40
0.585
 39
  0
0
CIRCLE
8
JA
 10
12.7
 20
26.670212
 30
0
 40
0.915
 39
  0
0
CIRCLE
8
JA
 10
20.32
 20
26.670212
 30
0
 40
0.915
 39
  0
0
CIRCLE
8
JA
 10
2.54
 20
24.13021
 30
0
 40
0.915
 39
  0
0
CIRCLE
8
JA
 10
7.62
 20
24.13021
 30
0
 40
0.915
 39
  0
0
CIRCLE
8
JA
 10
10.16
 20
24.13021
 30
0
 40
0.585
 39
  0
0
CIRCLE
8
JA
 10
15.24
 20
24.13021
 30
0
 40
0.915
 39
  0
0
CIRCLE
8
JA
 10
20.32
 20
24.13021
 30
0
 40
0.915
 39
  0
0
CIRCLE
8
JA
 10
5.08
 20
21.59021
 30
0
 40
0.915
 39
  0
0
CIRCLE
8
JA
 10
10.16
 20
21.59021
 30
0
 40
0.585
 39
  0
0
CIRCLE
8
JA
 10
20.32
 20
21.59021
 30
0
 40
0.915
 39
  0
0
CIRCLE
8
JA
 10
10.16
 20
19.050209
 30
0
 40
0.585
 39
  0
0
CIRCLE
8
JA
 10
12.7
 20
19.050209
 30
0
 40
0.915
 39
  0
0
CIRCLE
8
JA
 10
20.32
 20
19.050209
 30
0
 40
0.915
 39
  0
0
CIRCLE
8
JA
 10
2.54
 20
16.510208
 30
0
 40
0.915
 39
  0
0
CIRCLE
8
JA
 10
7.62
 20
16.510208
 30
0
 40
0.915
 39
  0
0
CIRCLE
8
JA
 10
10.16
 20
16.510208
 30
0
 40
0.585
 39
  0
0
CIRCLE
8
JA
 10
12.7
 20
16.510208
 30
0
 40
0.915
 39
  0
0
CIRCLE
8
JA
 10
15.24
 20
16.510208
 30
0
 40
0.915
 39
  0
0
CIRCLE
8
JA
 10
17.779999
 20
16.510208
 30
0
 40
0.915
 39
  0
0
CIRCLE
8
JA
 10
20.32
 20
16.510208
 30
0
 40
0.915
 39
  0
0
CIRCLE
8
JA
 10
5.08
 20
13.970208
 30
0
 40
0.915
 39
  0
0
CIRCLE
8
JA
 10
10.16
 20
13.970208
 30
0
 40
0.585
 39
  0
0
CIRCLE
8
JA
 10
20.32
 20
13.970208
 30
0
 40
0.915
 39
  0
0
CIRCLE
8
JA
 10
10.16
 20
11.430208
 30
0
 40
0.585
 39
  0
0
CIRCLE
8
JA
 10
12.7
 20
11.430208
 30
0
 40
0.915
 39
  0
0
CIRCLE
8
JA
 10
20.32
 20
11.430208
 30
0
 40
0.915
 39
  0
0
CIRCLE
8
JA
 10
2.54
 20
8.890208
 30
0
 40
0.915
 39
  0
0
CIRCLE
8
JA
 10
5.08
 20
8.890208
 30
0
 40
0.915
 39
  0
0
CIRCLE
8
JA
 10
10.16
 20
8.890208
 30
0
 40
0.585
 39
  0
0
CIRCLE
8
JA
 10
20.32
 20
8.890208
 30
0
 40
0.915
 39
  0
0
CIRCLE
8
JA
 10
5.08
 20
6.3502083
 30
0
 40
0.915
 39
  0
0
CIRCLE
8
JA
 10
7.62
 20
6.3502083
 30
0
 40
0.915
 39
  0
0
CIRCLE
8
JA
 10
10.16
 20
6.3502083
 30
0
 40
0.585
 39
  0
0
CIRCLE
8
JA
 10
12.7
 20
6.3502083
 30
0
 40
0.915
 39
  0
0
CIRCLE
8
JA
 10
15.24
 20
6.3502083
 30
0
 40
0.915
 39
  0
0
CIRCLE
8
JA
 10
20.32
 20
6.3502083
 30
0
 40
0.915
 39
  0
0
CIRCLE
8
JA
 10
10.16
 20
3.8102083
 30
0
 40
0.585
 39
  0
0
CIRCLE
8
JA
 10
20.32
 20
3.8102083
 30
0
 40
0.915
 39
  0
0
CIRCLE
8
JA
 10
2.54
 20
1.2702084
 30
0
 40
0.915
 39
  0
0
CIRCLE
8
JA
 10
10.16
 20
1.2702084
 30
0
 40
0.585
 39
  0
0
CIRCLE
8
JA
 10
12.7
 20
1.2702084
 30
0
 40
0.915
 39
  0
0
CIRCLE
8
JA
 10
15.24
 20
1.2702084
 30
0
 40
0.915
 39
  0
0
CIRCLE
8
JA
 10
17.779999
 20
1.2702084
 30
0
 40
0.915
 39
  0
0
CIRCLE
8
JA
 10
20.32
 20
1.2702084
 30
0
 40
0.915
 39
  0
0
ENDSEC
  0
EOF
